#N canvas 722 44 818 735 12;
#N canvas 0 0 450 300 (subpatch) 0;
#X array array1 123345 float 2;
#X coords 0 1 123345 -1 200 140 1;
#X restore 467 310 graph;
#X obj 42 62 openpanel;
#X obj 42 38 bng 15 250 50 0 empty empty empty 0 -6 0 8 -262144 -1
-1;
#X obj 42 114 soundfiler;
#X msg 42 88 read -resize \$1 array1;
#X obj 42 146 expr 44100 / $f1;
#X floatatom 42 306 5 0 0 0 - - -;
#X obj 42 371 phasor~;
#X obj 468 458 hsl 200 15 0 1 0 0 empty empty empty -2 -6 0 8 -262144
-1 -1 14981 1;
#X text 440 370 0;
#X text 666 478 1;
#X obj 47 526 tabread4~ array1;
#X obj 40 637 *~;
#X obj 41 669 hip~ 5;
#X obj 41 699 dac~;
#X obj 42 344 *;
#X obj 147 252 hsl 128 15 1 25 0 0 empty empty empty -2 -6 0 8 -262144
-1 -1 4900 1;
#X obj 464 275 hsl 200 15 0 1 0 0 empty empty empty -2 -6 0 8 -262144
-1 -1 17500 1;
#X obj 464 242 hsl 200 15 0 1 0 0 empty empty empty -2 -6 0 8 -262144
-1 -1 14984 1;
#X obj 44 444 +~;
#X obj 193 365 -;
#X floatatom 193 331 5 0 0 0 - - -;
#X obj 261 327 t f b;
#X obj 46 490 *~;
#X obj 72 185 expr 1 / $f1;
#X obj 72 236 *;
#X obj 114 485 unsig~ 20;
#X text 450 232 0;
#X text 659 216 1;
#X text 672 237 left limit;
#X text 678 273 right limit;
#X text 474 496 slider shows playing position;
#X text 238 362 difference of both (;
#X text 235 381 always calculated \, not;
#X text 234 424 input on the left);
#X text 108 666 DC offset filter;
#X obj 79 274 t b f;
#X obj 44 407 *~;
#X text 231 398 only if there is an;
#X text 148 227 playback speed;
#X obj 214 180 line;
#X floatatom 98 317 5 0 0 0 - - -;
#X obj 275 44 bng 15 250 50 0 empty empty empty 17 7 0 10 -262144 -1
-1;
#X obj 262 72 t b b;
#X msg 215 103 1;
#X msg 265 152 0.3 4000;
#X obj 263 121 del 2000;
#X floatatom 403 243 5 0 0 0 - - -;
#X obj 459 204 line;
#X obj 376 -5 tgl 15 0 empty empty empty 17 7 0 10 -262144 -1 -1 1
1;
#X obj 84 585 tgl 15 0 empty empty empty 17 7 0 10 -262144 -1 -1 1
1;
#X text 104 578 On/Off;
#X text 64 34;
#X text 139 268 1;
#X text 277 269 25;
#X obj 556 1 vsl 15 128 0 2000 0 0 empty empty empty 0 -9 0 10 -262144
-1 -1 8300 1;
#X obj 500 -6 * 2;
#X msg 450 174 0.89;
#X floatatom 506 173 5 0 0 0 - - -;
#X obj 551 144 f;
#X obj 473 48 t b b b;
#X obj 380 129 t b b;
#X obj 374 23 metro;
#X floatatom 419 -3 5 0 0 0 - - -;
#X obj 379 98 del;
#X floatatom 402 279 5 0 0 0 - - -;
#X msg 382 175 0.45;
#X connect 1 0 4 0;
#X connect 2 0 1 0;
#X connect 3 0 5 0;
#X connect 3 0 23 1;
#X connect 4 0 3 0;
#X connect 5 0 25 1;
#X connect 6 0 15 0;
#X connect 7 0 37 0;
#X connect 11 0 12 0;
#X connect 12 0 13 0;
#X connect 13 0 14 0;
#X connect 13 0 14 1;
#X connect 15 0 7 0;
#X connect 16 0 36 0;
#X connect 17 0 21 0;
#X connect 17 0 65 0;
#X connect 18 0 22 0;
#X connect 18 0 47 0;
#X connect 19 0 23 0;
#X connect 19 0 26 0;
#X connect 20 0 24 0;
#X connect 20 0 37 1;
#X connect 21 0 20 0;
#X connect 22 0 20 1;
#X connect 22 0 19 1;
#X connect 22 1 21 0;
#X connect 23 0 11 0;
#X connect 24 0 25 0;
#X connect 25 0 6 0;
#X connect 26 0 8 0;
#X connect 36 0 6 0;
#X connect 36 1 41 0;
#X connect 37 0 19 0;
#X connect 40 0 16 0;
#X connect 41 0 15 1;
#X connect 42 0 43 0;
#X connect 43 0 46 0;
#X connect 43 1 44 0;
#X connect 44 0 40 0;
#X connect 45 0 40 0;
#X connect 46 0 45 0;
#X connect 48 0 18 0;
#X connect 49 0 62 0;
#X connect 50 0 12 1;
#X connect 55 0 59 0;
#X connect 56 0 63 0;
#X connect 57 0 48 0;
#X connect 58 0 48 1;
#X connect 58 0 56 0;
#X connect 58 0 64 1;
#X connect 59 0 58 0;
#X connect 60 0 64 0;
#X connect 60 1 57 0;
#X connect 60 2 59 0;
#X connect 61 0 66 0;
#X connect 61 1 59 0;
#X connect 62 0 60 0;
#X connect 63 0 62 1;
#X connect 64 0 61 0;
#X connect 66 0 48 0;
