#N canvas 709 11 718 812 10;
#X obj 360 143 delwrite~ b1 5000;
#X obj 57 594 vd~ b1;
#X obj 125 345 phasor~;
#X obj 38 468 *~ -1;
#X obj 38 488 +~ 1;
#X obj 118 559 sig~ 1;
#X obj 168 557 cos~;
#X obj 119 586 -~;
#X obj 120 606 *~ 0.5;
#X obj 57 629 *~;
#X obj 63 538 samphold~;
#X obj 38 559 *~;
#X obj 64 515 sig~;
#X floatatom 213 328 5 0 0 0 - - -;
#X floatatom 177 258 10 0 0 0 - - -;
#X floatatom 151 313 5 0 0 0 - - -;
#X floatatom 232 198 5 0 0 0 - - -;
#X obj 231 231 t b f;
#X obj 100 695 *~;
#X obj 213 307 / 44.1;
#X obj 335 564 vd~ b1;
#X obj 316 429 *~ -1;
#X obj 317 456 +~ 1;
#X obj 391 532 sig~ 1;
#X obj 443 538 cos~;
#X obj 392 557 -~;
#X obj 393 577 *~ 0.5;
#X obj 335 603 *~;
#X obj 344 508 samphold~;
#X obj 317 529 *~;
#X obj 345 485 sig~;
#X obj 339 377 +~ 0.5;
#X obj 339 394 wrap~;
#X obj 37 20 vsl 15 128 100 30000 0 0 empty empty empty 0 -8 0 8 -262144
-1 -1 0 1;
#X obj 37 168 t b f;
#X obj 232 107 vsl 15 73 -36 36 0 0 empty empty empty 0 -8 0 8 -262144
-1 -1 3600 1;
#X obj 175 283 expr (pow(2 \, ($f2/12)) - 1) * (44100/$f1);
#X floatatom 115 660 5 0 0 0 - - -;
#X text 243 166 -36;
#X text 247 101 36;
#X text 57 19 30000;
#X text 53 138 100;
#X text 286 44 3.7.2.1. Granular live;
#X text 52 4 window width;
#X text 189 82 Transposition (half-steps);
#X text 191 598 another way to;
#X text 181 606 make a Hanning window;
#X obj 370 639 wave;
#X obj 362 116 inlet~;
#X obj 100 737 outlet~;
#X msg 197 113 0;
#X obj 143 106 line;
#X msg 124 51 5 1200 \, 0 100;
#X connect 1 0 9 0;
#X connect 2 0 3 0;
#X connect 2 0 6 0;
#X connect 2 0 10 1;
#X connect 2 0 31 0;
#X connect 3 0 4 0;
#X connect 4 0 11 0;
#X connect 5 0 7 0;
#X connect 6 0 7 1;
#X connect 7 0 8 0;
#X connect 8 0 9 1;
#X connect 8 0 47 0;
#X connect 9 0 18 0;
#X connect 10 0 11 1;
#X connect 11 0 1 0;
#X connect 12 0 10 0;
#X connect 13 0 30 0;
#X connect 13 0 12 0;
#X connect 14 0 19 0;
#X connect 14 0 36 0;
#X connect 15 0 2 0;
#X connect 16 0 17 0;
#X connect 17 0 14 0;
#X connect 17 1 36 1;
#X connect 18 0 49 0;
#X connect 19 0 13 0;
#X connect 20 0 27 0;
#X connect 21 0 22 0;
#X connect 22 0 29 0;
#X connect 23 0 25 0;
#X connect 24 0 25 1;
#X connect 25 0 26 0;
#X connect 26 0 27 1;
#X connect 27 0 18 0;
#X connect 28 0 29 1;
#X connect 29 0 20 0;
#X connect 30 0 28 0;
#X connect 31 0 32 0;
#X connect 32 0 21 0;
#X connect 32 0 28 1;
#X connect 32 0 24 0;
#X connect 33 0 34 0;
#X connect 34 0 16 0;
#X connect 34 1 14 0;
#X connect 35 0 16 0;
#X connect 36 0 15 0;
#X connect 37 0 18 1;
#X connect 48 0 0 0;
#X connect 50 0 35 0;
#X connect 51 0 35 0;
#X connect 52 0 51 0;
