#N canvas 181 154 467 367 10;
#X obj 163 31 inlet;
#X obj 163 107 symbol;
#X msg 163 176 \$1 \$2;
#X obj 163 141 pack s s;
#X obj 163 68 t b s;
#X obj 163 211 list-l2s /;
#X obj 163 245 outlet;
#X obj 236 66 r \$1;
#X connect 0 0 4 0;
#X connect 1 0 3 0;
#X connect 2 0 5 0;
#X connect 3 0 2 0;
#X connect 4 0 1 0;
#X connect 4 1 3 1;
#X connect 5 0 6 0;
#X connect 7 0 1 1;
