#N canvas 0 22 1280 752 10;
#N canvas 453 162 762 595 neuron 0;
#X obj 308 41 metro 150;
#X obj 337 83 i;
#X obj 374 84 + 1;
#X obj 438 43 t b b;
#X msg 328 16 0;
#X msg 377 58 0;
#X obj 261 13 inlet;
#X obj 179 103 bng 15 250 50 0 empty empty empty 17 7 0 10 -262144
-4160 -1;
#X msg 193 180 36;
#X msg 233 180 39;
#X msg 273 180 41;
#X msg 353 180 43;
#X msg 433 180 46;
#X obj 313 272 *;
#X obj 236 86 random 2;
#X obj 243 305 moses 1;
#X obj 245 333 outlet;
#X text 132 122 C mol;
#X obj 274 138 select 1 2 3 4 5 6 7;
#X msg 236 37 bang;
#X obj 290 112 random 8;
#X text 102 142 Toner;
#X text 153 142 Link ud;
#X text 101 99 Link ind;
#X obj 159 103 bng 15 250 50 0 empty empty empty 17 7 0 10 -262144
-4034 -1;
#X obj 179 122 bng 15 250 50 0 empty empty empty 17 7 0 10 -262144
-258113 -1;
#X obj 266 425 select 0 1 2 3 4 5;
#X obj 407 307 random 6;
#X obj 264 455 outlet;
#X obj 314 455 outlet;
#X obj 364 455 outlet;
#X obj 414 455 outlet;
#X obj 474 455 outlet;
#X obj 524 455 outlet;
#X obj 54 298 outlet;
#X msg 159 180 24;
#X msg 313 180 0;
#X msg 393 180 0;
#X obj 348 109 select 17;
#X obj 25 65 select 0 4 8 9 11;
#X obj 32 121 +;
#X connect 0 0 1 0;
#X connect 0 0 14 0;
#X connect 0 0 20 0;
#X connect 1 0 2 0;
#X connect 1 0 38 0;
#X connect 1 0 39 0;
#X connect 2 0 1 1;
#X connect 3 0 5 0;
#X connect 3 1 4 0;
#X connect 3 1 25 0;
#X connect 3 1 27 0;
#X connect 4 0 0 0;
#X connect 5 0 1 0;
#X connect 6 0 0 0;
#X connect 6 0 24 0;
#X connect 8 0 13 0;
#X connect 9 0 13 0;
#X connect 10 0 13 0;
#X connect 11 0 13 0;
#X connect 12 0 13 0;
#X connect 13 0 15 0;
#X connect 14 0 13 1;
#X connect 15 1 16 0;
#X connect 15 1 7 0;
#X connect 18 0 8 0;
#X connect 18 1 9 0;
#X connect 18 2 10 0;
#X connect 18 3 36 0;
#X connect 18 4 11 0;
#X connect 18 5 37 0;
#X connect 18 6 12 0;
#X connect 19 0 0 0;
#X connect 20 0 18 0;
#X connect 26 0 28 0;
#X connect 26 1 29 0;
#X connect 26 2 30 0;
#X connect 26 3 31 0;
#X connect 26 4 32 0;
#X connect 26 5 33 0;
#X connect 27 0 26 0;
#X connect 35 0 34 0;
#X connect 36 0 13 0;
#X connect 37 0 13 0;
#X connect 38 0 3 0;
#X connect 39 0 40 0;
#X connect 39 1 40 0;
#X connect 39 2 40 0;
#X connect 39 3 40 0;
#X connect 39 4 40 0;
#X connect 40 0 35 0;
#X coords 0 -1 1 1 100 60 2 100 100;
#X restore 133 352 pd neuron;
#N canvas 883 226 762 595 neuron 0;
#X obj 308 41 metro 150;
#X obj 337 83 i;
#X obj 374 84 + 1;
#X obj 438 43 t b b;
#X msg 328 16 0;
#X msg 377 58 0;
#X obj 261 13 inlet;
#X obj 179 103 bng 15 250 50 0 empty empty empty 17 7 0 10 -262144
-4160 -1;
#X obj 313 272 *;
#X obj 236 86 random 2;
#X obj 243 305 moses 1;
#X obj 245 333 outlet;
#X obj 274 138 select 1 2 3 4 5 6 7;
#X msg 236 37 bang;
#X obj 290 112 random 8;
#X text 102 142 Toner;
#X text 153 142 Link ud;
#X text 101 99 Link ind;
#X obj 159 103 bng 15 250 50 0 empty empty empty 17 7 0 10 -262144
-4034 -1;
#X obj 179 122 bng 15 250 50 0 empty empty empty 17 7 0 10 -262144
-258113 -1;
#X obj 266 425 select 0 1 2 3 4 5;
#X obj 407 307 random 6;
#X obj 264 455 outlet;
#X obj 314 455 outlet;
#X obj 364 455 outlet;
#X obj 414 455 outlet;
#X obj 474 455 outlet;
#X obj 524 455 outlet;
#X obj 54 298 outlet;
#X text 132 122 C# mol;
#X msg 159 180 25;
#X msg 193 180 37;
#X msg 233 180 40;
#X msg 273 180 42;
#X msg 353 180 44;
#X msg 433 180 47;
#X msg 313 180 0;
#X msg 393 180 0;
#X obj 348 109 select 17;
#X obj 25 65 select 0 4 8 9 11;
#X obj 32 121 +;
#X connect 0 0 1 0;
#X connect 0 0 9 0;
#X connect 0 0 14 0;
#X connect 1 0 2 0;
#X connect 1 0 38 0;
#X connect 1 0 39 0;
#X connect 2 0 1 1;
#X connect 3 0 5 0;
#X connect 3 1 4 0;
#X connect 3 1 19 0;
#X connect 3 1 21 0;
#X connect 4 0 0 0;
#X connect 5 0 1 0;
#X connect 6 0 0 0;
#X connect 6 0 18 0;
#X connect 8 0 10 0;
#X connect 9 0 8 1;
#X connect 10 1 11 0;
#X connect 10 1 7 0;
#X connect 12 0 31 0;
#X connect 12 1 32 0;
#X connect 12 2 33 0;
#X connect 12 3 36 0;
#X connect 12 4 34 0;
#X connect 12 5 37 0;
#X connect 12 6 35 0;
#X connect 13 0 0 0;
#X connect 14 0 12 0;
#X connect 20 0 22 0;
#X connect 20 1 23 0;
#X connect 20 2 24 0;
#X connect 20 3 25 0;
#X connect 20 4 26 0;
#X connect 20 5 27 0;
#X connect 21 0 20 0;
#X connect 30 0 28 0;
#X connect 31 0 8 0;
#X connect 32 0 8 0;
#X connect 33 0 8 0;
#X connect 34 0 8 0;
#X connect 35 0 8 0;
#X connect 36 0 8 0;
#X connect 37 0 8 0;
#X connect 38 0 3 0;
#X connect 39 0 40 0;
#X connect 39 1 40 0;
#X connect 39 2 40 0;
#X connect 39 3 40 0;
#X connect 39 4 40 0;
#X connect 40 0 30 0;
#X coords 0 -1 1 1 100 60 2 100 100;
#X restore 647 403 pd neuron;
#N canvas 453 162 762 595 neuron 0;
#X obj 308 41 metro 150;
#X obj 337 83 i;
#X obj 374 84 + 1;
#X obj 438 43 t b b;
#X msg 328 16 0;
#X msg 377 58 0;
#X obj 261 13 inlet;
#X obj 179 103 bng 15 250 50 0 empty empty empty 17 7 0 10 -262144
-4160 -1;
#X obj 313 272 *;
#X obj 236 86 random 2;
#X obj 243 305 moses 1;
#X obj 245 333 outlet;
#X obj 274 138 select 1 2 3 4 5 6 7;
#X msg 236 37 bang;
#X obj 290 112 random 8;
#X text 102 142 Toner;
#X text 153 142 Link ud;
#X text 101 99 Link ind;
#X obj 159 103 bng 15 250 50 0 empty empty empty 17 7 0 10 -262144
-4034 -1;
#X obj 179 122 bng 15 250 50 0 empty empty empty 17 7 0 10 -262144
-258113 -1;
#X obj 266 425 select 0 1 2 3 4 5;
#X obj 407 307 random 6;
#X obj 264 455 outlet;
#X obj 314 455 outlet;
#X obj 364 455 outlet;
#X obj 414 455 outlet;
#X obj 474 455 outlet;
#X obj 524 455 outlet;
#X obj 54 298 outlet;
#X text 132 122 D mol;
#X msg 159 180 26;
#X msg 193 180 38;
#X msg 233 180 41;
#X msg 273 180 43;
#X msg 353 180 45;
#X msg 433 180 48;
#X msg 313 180 0;
#X msg 393 180 0;
#X obj 348 109 select 17;
#X obj 25 65 select 0 4 8 9 11;
#X obj 32 121 +;
#X connect 0 0 1 0;
#X connect 0 0 9 0;
#X connect 0 0 14 0;
#X connect 1 0 2 0;
#X connect 1 0 38 0;
#X connect 1 0 39 0;
#X connect 2 0 1 1;
#X connect 3 0 5 0;
#X connect 3 1 4 0;
#X connect 3 1 19 0;
#X connect 3 1 21 0;
#X connect 4 0 0 0;
#X connect 5 0 1 0;
#X connect 6 0 0 0;
#X connect 6 0 18 0;
#X connect 8 0 10 0;
#X connect 9 0 8 1;
#X connect 10 1 11 0;
#X connect 10 1 7 0;
#X connect 12 0 31 0;
#X connect 12 1 32 0;
#X connect 12 2 33 0;
#X connect 12 3 36 0;
#X connect 12 4 34 0;
#X connect 12 5 37 0;
#X connect 12 6 35 0;
#X connect 13 0 0 0;
#X connect 14 0 12 0;
#X connect 20 0 22 0;
#X connect 20 1 23 0;
#X connect 20 2 24 0;
#X connect 20 3 25 0;
#X connect 20 4 26 0;
#X connect 20 5 27 0;
#X connect 21 0 20 0;
#X connect 30 0 28 0;
#X connect 31 0 8 0;
#X connect 32 0 8 0;
#X connect 33 0 8 0;
#X connect 34 0 8 0;
#X connect 35 0 8 0;
#X connect 36 0 8 0;
#X connect 37 0 8 0;
#X connect 38 0 3 0;
#X connect 39 0 40 0;
#X connect 39 1 40 0;
#X connect 39 2 40 0;
#X connect 39 3 40 0;
#X connect 39 4 40 0;
#X connect 40 0 30 0;
#X coords 0 -1 1 1 100 60 2 100 100;
#X restore 345 240 pd neuron;
#N canvas 774 184 762 595 neuron 0;
#X obj 308 41 metro 150;
#X obj 337 83 i;
#X obj 374 84 + 1;
#X obj 438 43 t b b;
#X msg 328 16 0;
#X msg 377 58 0;
#X obj 261 13 inlet;
#X obj 179 103 bng 15 250 50 0 empty empty empty 17 7 0 10 -262144
-4160 -1;
#X obj 313 272 *;
#X obj 236 86 random 2;
#X obj 243 305 moses 1;
#X obj 245 333 outlet;
#X obj 274 138 select 1 2 3 4 5 6 7;
#X msg 236 37 bang;
#X obj 290 112 random 8;
#X text 102 142 Toner;
#X text 153 142 Link ud;
#X text 101 99 Link ind;
#X obj 159 103 bng 15 250 50 0 empty empty empty 17 7 0 10 -262144
-4034 -1;
#X obj 179 122 bng 15 250 50 0 empty empty empty 17 7 0 10 -262144
-258113 -1;
#X obj 266 425 select 0 1 2 3 4 5;
#X obj 407 307 random 6;
#X obj 264 455 outlet;
#X obj 314 455 outlet;
#X obj 364 455 outlet;
#X obj 414 455 outlet;
#X obj 474 455 outlet;
#X obj 524 455 outlet;
#X obj 54 298 outlet;
#X text 132 122 D# mol;
#X msg 159 180 27;
#X msg 193 180 39;
#X msg 233 180 42;
#X msg 273 180 44;
#X msg 353 180 46;
#X msg 433 180 49;
#X msg 313 180 0;
#X msg 394 180 0;
#X obj 348 109 select 17;
#X obj 25 65 select 0 4 8 9 11;
#X obj 32 121 +;
#X connect 0 0 1 0;
#X connect 0 0 9 0;
#X connect 0 0 14 0;
#X connect 1 0 2 0;
#X connect 1 0 38 0;
#X connect 1 0 39 0;
#X connect 2 0 1 1;
#X connect 3 0 5 0;
#X connect 3 1 4 0;
#X connect 3 1 19 0;
#X connect 3 1 21 0;
#X connect 4 0 0 0;
#X connect 5 0 1 0;
#X connect 6 0 0 0;
#X connect 6 0 18 0;
#X connect 8 0 10 0;
#X connect 9 0 8 1;
#X connect 10 1 11 0;
#X connect 10 1 7 0;
#X connect 12 0 31 0;
#X connect 12 1 32 0;
#X connect 12 2 33 0;
#X connect 12 3 36 0;
#X connect 12 4 34 0;
#X connect 12 5 37 0;
#X connect 12 6 35 0;
#X connect 13 0 0 0;
#X connect 14 0 12 0;
#X connect 20 0 22 0;
#X connect 20 1 23 0;
#X connect 20 2 24 0;
#X connect 20 3 25 0;
#X connect 20 4 26 0;
#X connect 20 5 27 0;
#X connect 21 0 20 0;
#X connect 30 0 28 0;
#X connect 31 0 8 0;
#X connect 32 0 8 0;
#X connect 33 0 8 0;
#X connect 34 0 8 0;
#X connect 35 0 8 0;
#X connect 36 0 8 0;
#X connect 37 0 8 0;
#X connect 38 0 3 0;
#X connect 39 0 40 0;
#X connect 39 1 40 0;
#X connect 39 2 40 0;
#X connect 39 3 40 0;
#X connect 39 4 40 0;
#X connect 40 0 30 0;
#X coords 0 -1 1 1 100 60 2 100 100;
#X restore 445 525 pd neuron;
#N canvas 453 162 762 595 neuron 0;
#X obj 308 41 metro 150;
#X obj 337 83 i;
#X obj 374 84 + 1;
#X obj 438 43 t b b;
#X msg 328 16 0;
#X msg 377 58 0;
#X obj 261 13 inlet;
#X obj 179 103 bng 15 250 50 0 empty empty empty 17 7 0 10 -262144
-4160 -1;
#X obj 313 272 *;
#X obj 236 86 random 2;
#X obj 243 305 moses 1;
#X obj 245 333 outlet;
#X obj 274 138 select 1 2 3 4 5 6 7;
#X msg 236 37 bang;
#X obj 290 112 random 8;
#X text 102 142 Toner;
#X text 153 142 Link ud;
#X text 101 99 Link ind;
#X obj 159 103 bng 15 250 50 0 empty empty empty 17 7 0 10 -262144
-4034 -1;
#X obj 179 122 bng 15 250 50 0 empty empty empty 17 7 0 10 -262144
-258113 -1;
#X obj 266 425 select 0 1 2 3 4 5;
#X obj 407 307 random 6;
#X obj 264 455 outlet;
#X obj 314 455 outlet;
#X obj 364 455 outlet;
#X obj 414 455 outlet;
#X obj 474 455 outlet;
#X obj 524 455 outlet;
#X obj 54 298 outlet;
#X text 132 122 F mol;
#X msg 159 180 29;
#X msg 193 180 41;
#X msg 233 180 44;
#X msg 273 180 46;
#X msg 354 180 48;
#X msg 433 180 51;
#X msg 313 180 0;
#X msg 394 179 0;
#X obj 348 111 select 17;
#X obj 25 65 select 0 4 8 9 11;
#X obj 32 121 +;
#X connect 0 0 1 0;
#X connect 0 0 9 0;
#X connect 0 0 14 0;
#X connect 1 0 2 0;
#X connect 1 0 38 0;
#X connect 1 0 39 0;
#X connect 2 0 1 1;
#X connect 3 0 5 0;
#X connect 3 1 4 0;
#X connect 3 1 19 0;
#X connect 3 1 21 0;
#X connect 4 0 0 0;
#X connect 5 0 1 0;
#X connect 6 0 0 0;
#X connect 6 0 18 0;
#X connect 8 0 10 0;
#X connect 9 0 8 1;
#X connect 10 1 11 0;
#X connect 10 1 7 0;
#X connect 12 0 31 0;
#X connect 12 1 32 0;
#X connect 12 2 33 0;
#X connect 12 3 36 0;
#X connect 12 4 34 0;
#X connect 12 5 37 0;
#X connect 12 6 35 0;
#X connect 13 0 0 0;
#X connect 14 0 12 0;
#X connect 20 0 22 0;
#X connect 20 1 23 0;
#X connect 20 2 24 0;
#X connect 20 3 25 0;
#X connect 20 4 26 0;
#X connect 20 5 27 0;
#X connect 21 0 20 0;
#X connect 30 0 28 0;
#X connect 31 0 8 0;
#X connect 32 0 8 0;
#X connect 33 0 8 0;
#X connect 34 0 8 0;
#X connect 35 0 8 0;
#X connect 36 0 8 0;
#X connect 37 0 8 0;
#X connect 38 0 3 0;
#X connect 39 0 40 0;
#X connect 39 1 40 0;
#X connect 39 2 40 0;
#X connect 39 3 40 0;
#X connect 39 4 40 0;
#X connect 40 0 30 0;
#X coords 0 -1 1 1 100 60 2 100 100;
#X restore 244 403 pd neuron;
#N canvas 453 162 762 595 neuron 0;
#X obj 308 41 metro 150;
#X obj 337 83 i;
#X obj 374 84 + 1;
#X obj 438 43 t b b;
#X msg 328 16 0;
#X msg 377 58 0;
#X obj 261 13 inlet;
#X obj 179 103 bng 15 250 50 0 empty empty empty 17 7 0 10 -262144
-4160 -1;
#X obj 313 272 *;
#X obj 236 86 random 2;
#X obj 243 305 moses 1;
#X obj 245 333 outlet;
#X obj 274 138 select 1 2 3 4 5 6 7;
#X msg 236 37 bang;
#X obj 290 112 random 8;
#X text 102 142 Toner;
#X text 153 142 Link ud;
#X text 101 99 Link ind;
#X obj 159 103 bng 15 250 50 0 empty empty empty 17 7 0 10 -262144
-4034 -1;
#X obj 179 122 bng 15 250 50 0 empty empty empty 17 7 0 10 -262144
-258113 -1;
#X obj 266 425 select 0 1 2 3 4 5;
#X obj 407 307 random 6;
#X obj 264 455 outlet;
#X obj 314 455 outlet;
#X obj 364 455 outlet;
#X obj 414 455 outlet;
#X obj 474 455 outlet;
#X obj 524 455 outlet;
#X obj 54 298 outlet;
#X text 132 122 F# mol;
#X msg 159 180 30;
#X msg 193 180 42;
#X msg 233 180 45;
#X msg 273 180 47;
#X msg 354 180 49;
#X msg 433 180 52;
#X msg 313 180 0;
#X msg 394 179 0;
#X obj 348 110 select 17;
#X obj 25 65 select 0 4 8 9 11;
#X obj 32 121 +;
#X connect 0 0 1 0;
#X connect 0 0 9 0;
#X connect 0 0 14 0;
#X connect 1 0 2 0;
#X connect 1 0 38 0;
#X connect 1 0 39 0;
#X connect 2 0 1 1;
#X connect 3 0 5 0;
#X connect 3 1 4 0;
#X connect 3 1 19 0;
#X connect 3 1 21 0;
#X connect 4 0 0 0;
#X connect 5 0 1 0;
#X connect 6 0 0 0;
#X connect 6 0 18 0;
#X connect 8 0 10 0;
#X connect 9 0 8 1;
#X connect 10 1 11 0;
#X connect 10 1 7 0;
#X connect 12 0 31 0;
#X connect 12 1 32 0;
#X connect 12 2 33 0;
#X connect 12 3 36 0;
#X connect 12 4 34 0;
#X connect 12 5 37 0;
#X connect 12 6 35 0;
#X connect 13 0 0 0;
#X connect 14 0 12 0;
#X connect 20 0 22 0;
#X connect 20 1 23 0;
#X connect 20 2 24 0;
#X connect 20 3 25 0;
#X connect 20 4 26 0;
#X connect 20 5 27 0;
#X connect 21 0 20 0;
#X connect 30 0 28 0;
#X connect 31 0 8 0;
#X connect 32 0 8 0;
#X connect 33 0 8 0;
#X connect 34 0 8 0;
#X connect 35 0 8 0;
#X connect 36 0 8 0;
#X connect 37 0 8 0;
#X connect 38 0 3 0;
#X connect 39 0 40 0;
#X connect 39 1 40 0;
#X connect 39 2 40 0;
#X connect 39 3 40 0;
#X connect 39 4 40 0;
#X connect 40 0 30 0;
#X coords 0 -1 1 1 100 60 2 100 100;
#X restore 758 352 pd neuron;
#N canvas 453 162 762 595 neuron 0;
#X obj 308 41 metro 150;
#X obj 337 83 i;
#X obj 374 84 + 1;
#X obj 438 43 t b b;
#X msg 328 16 0;
#X msg 377 58 0;
#X obj 261 13 inlet;
#X obj 179 103 bng 15 250 50 0 empty empty empty 17 7 0 10 -262144
-4160 -1;
#X obj 313 272 *;
#X obj 236 86 random 2;
#X obj 243 305 moses 1;
#X obj 245 333 outlet;
#X obj 274 138 select 1 2 3 4 5 6 7;
#X msg 236 37 bang;
#X obj 290 112 random 8;
#X text 102 142 Toner;
#X text 153 142 Link ud;
#X text 101 99 Link ind;
#X obj 159 103 bng 15 250 50 0 empty empty empty 17 7 0 10 -262144
-4034 -1;
#X obj 179 122 bng 15 250 50 0 empty empty empty 17 7 0 10 -262144
-258113 -1;
#X obj 266 425 select 0 1 2 3 4 5;
#X obj 407 307 random 6;
#X obj 264 455 outlet;
#X obj 314 455 outlet;
#X obj 364 455 outlet;
#X obj 414 455 outlet;
#X obj 474 455 outlet;
#X obj 524 455 outlet;
#X obj 54 298 outlet;
#X text 132 122 G mol;
#X msg 159 180 31;
#X msg 193 180 43;
#X msg 233 180 46;
#X msg 273 180 48;
#X msg 354 180 50;
#X msg 433 180 53;
#X msg 313 180 0;
#X msg 394 179 0;
#X obj 348 109 select 17;
#X obj 25 65 select 0 4 8 9 11;
#X obj 32 121 +;
#X connect 0 0 1 0;
#X connect 0 0 9 0;
#X connect 0 0 14 0;
#X connect 1 0 2 0;
#X connect 1 0 38 0;
#X connect 1 0 39 0;
#X connect 2 0 1 1;
#X connect 3 0 5 0;
#X connect 3 1 4 0;
#X connect 3 1 19 0;
#X connect 3 1 21 0;
#X connect 4 0 0 0;
#X connect 5 0 1 0;
#X connect 6 0 0 0;
#X connect 6 0 18 0;
#X connect 8 0 10 0;
#X connect 9 0 8 1;
#X connect 10 1 11 0;
#X connect 10 1 7 0;
#X connect 12 0 31 0;
#X connect 12 1 32 0;
#X connect 12 2 33 0;
#X connect 12 3 36 0;
#X connect 12 4 34 0;
#X connect 12 5 37 0;
#X connect 12 6 35 0;
#X connect 13 0 0 0;
#X connect 14 0 12 0;
#X connect 20 0 22 0;
#X connect 20 1 23 0;
#X connect 20 2 24 0;
#X connect 20 3 25 0;
#X connect 20 4 26 0;
#X connect 20 5 27 0;
#X connect 21 0 20 0;
#X connect 30 0 28 0;
#X connect 31 0 8 0;
#X connect 32 0 8 0;
#X connect 33 0 8 0;
#X connect 34 0 8 0;
#X connect 35 0 8 0;
#X connect 36 0 8 0;
#X connect 37 0 8 0;
#X connect 38 0 3 0;
#X connect 39 0 40 0;
#X connect 39 1 40 0;
#X connect 39 2 40 0;
#X connect 39 3 40 0;
#X connect 39 4 40 0;
#X connect 40 0 30 0;
#X coords 0 -1 1 1 100 60 2 100 100;
#X restore 244 301 pd neuron;
#N canvas 777 206 762 595 neuron 0;
#X obj 308 41 metro 150;
#X obj 337 83 i;
#X obj 374 84 + 1;
#X obj 438 43 t b b;
#X msg 328 16 0;
#X msg 377 58 0;
#X obj 261 13 inlet;
#X obj 179 103 bng 15 250 50 0 empty empty empty 17 7 0 10 -262144
-4160 -1;
#X obj 313 272 *;
#X obj 236 86 random 2;
#X obj 243 305 moses 1;
#X obj 245 333 outlet;
#X obj 274 138 select 1 2 3 4 5 6 7;
#X msg 236 37 bang;
#X obj 290 112 random 8;
#X text 102 142 Toner;
#X text 153 142 Link ud;
#X text 101 99 Link ind;
#X obj 159 103 bng 15 250 50 0 empty empty empty 17 7 0 10 -262144
-4034 -1;
#X obj 179 122 bng 15 250 50 0 empty empty empty 17 7 0 10 -262144
-258113 -1;
#X obj 266 425 select 0 1 2 3 4 5;
#X obj 407 307 random 6;
#X obj 264 455 outlet;
#X obj 314 455 outlet;
#X obj 364 455 outlet;
#X obj 414 455 outlet;
#X obj 474 455 outlet;
#X obj 524 455 outlet;
#X obj 54 298 outlet;
#X text 132 122 G# mol;
#X msg 159 180 32;
#X msg 195 180 44;
#X msg 233 180 47;
#X msg 273 180 49;
#X msg 354 180 51;
#X msg 433 180 54;
#X msg 313 180 0;
#X msg 394 179 0;
#X obj 348 109 select 17;
#X obj 25 65 select 0 4 8 9 11;
#X obj 32 121 +;
#X connect 0 0 1 0;
#X connect 0 0 9 0;
#X connect 0 0 14 0;
#X connect 1 0 2 0;
#X connect 1 0 38 0;
#X connect 1 0 39 0;
#X connect 2 0 1 1;
#X connect 3 0 5 0;
#X connect 3 1 4 0;
#X connect 3 1 19 0;
#X connect 3 1 21 0;
#X connect 4 0 0 0;
#X connect 5 0 1 0;
#X connect 6 0 0 0;
#X connect 6 0 18 0;
#X connect 8 0 10 0;
#X connect 9 0 8 1;
#X connect 10 1 11 0;
#X connect 10 1 7 0;
#X connect 12 0 31 0;
#X connect 12 1 32 0;
#X connect 12 2 33 0;
#X connect 12 3 36 0;
#X connect 12 4 34 0;
#X connect 12 5 37 0;
#X connect 12 6 35 0;
#X connect 13 0 0 0;
#X connect 14 0 12 0;
#X connect 20 0 22 0;
#X connect 20 1 23 0;
#X connect 20 2 24 0;
#X connect 20 3 25 0;
#X connect 20 4 26 0;
#X connect 20 5 27 0;
#X connect 21 0 20 0;
#X connect 30 0 28 0;
#X connect 31 0 8 0;
#X connect 32 0 8 0;
#X connect 33 0 8 0;
#X connect 34 0 8 0;
#X connect 35 0 8 0;
#X connect 36 0 8 0;
#X connect 37 0 8 0;
#X connect 38 0 3 0;
#X connect 39 0 40 0;
#X connect 39 1 40 0;
#X connect 39 2 40 0;
#X connect 39 3 40 0;
#X connect 39 4 40 0;
#X connect 40 0 30 0;
#X coords 0 -1 1 1 100 60 2 100 100;
#X restore 546 464 pd neuron;
#N canvas 453 162 762 595 neuron 0;
#X obj 308 41 metro 150;
#X obj 337 83 i;
#X obj 374 84 + 1;
#X obj 438 43 t b b;
#X msg 328 16 0;
#X msg 377 58 0;
#X obj 261 13 inlet;
#X obj 179 103 bng 15 250 50 0 empty empty empty 17 7 0 10 -262144
-4160 -1;
#X obj 313 272 *;
#X obj 236 86 random 2;
#X obj 243 305 moses 1;
#X obj 245 333 outlet;
#X obj 274 138 select 1 2 3 4 5 6 7;
#X msg 236 37 bang;
#X obj 290 112 random 8;
#X text 102 142 Toner;
#X text 153 142 Link ud;
#X text 101 99 Link ind;
#X obj 159 103 bng 15 250 50 0 empty empty empty 17 7 0 10 -262144
-4034 -1;
#X obj 179 122 bng 15 250 50 0 empty empty empty 17 7 0 10 -262144
-258113 -1;
#X obj 266 425 select 0 1 2 3 4 5;
#X obj 407 307 random 6;
#X obj 264 455 outlet;
#X obj 314 455 outlet;
#X obj 364 455 outlet;
#X obj 414 455 outlet;
#X obj 474 455 outlet;
#X obj 524 455 outlet;
#X obj 54 298 outlet;
#X text 132 122 A mol;
#X msg 159 180 33;
#X msg 195 180 45;
#X msg 233 180 48;
#X msg 273 180 50;
#X msg 354 180 52;
#X msg 433 180 55;
#X msg 313 180 0;
#X msg 394 179 0;
#X obj 348 109 select 17;
#X obj 25 65 select 0 4 8 9 11;
#X obj 32 121 +;
#X connect 0 0 1 0;
#X connect 0 0 9 0;
#X connect 0 0 14 0;
#X connect 1 0 2 0;
#X connect 1 0 38 0;
#X connect 1 0 39 0;
#X connect 2 0 1 1;
#X connect 3 0 5 0;
#X connect 3 1 4 0;
#X connect 3 1 19 0;
#X connect 3 1 21 0;
#X connect 4 0 0 0;
#X connect 5 0 1 0;
#X connect 6 0 0 0;
#X connect 6 0 18 0;
#X connect 8 0 10 0;
#X connect 9 0 8 1;
#X connect 10 1 11 0;
#X connect 10 1 7 0;
#X connect 12 0 31 0;
#X connect 12 1 32 0;
#X connect 12 2 33 0;
#X connect 12 3 36 0;
#X connect 12 4 34 0;
#X connect 12 5 37 0;
#X connect 12 6 35 0;
#X connect 13 0 0 0;
#X connect 14 0 12 0;
#X connect 20 0 22 0;
#X connect 20 1 23 0;
#X connect 20 2 24 0;
#X connect 20 3 25 0;
#X connect 20 4 26 0;
#X connect 20 5 27 0;
#X connect 21 0 20 0;
#X connect 30 0 28 0;
#X connect 31 0 8 0;
#X connect 32 0 8 0;
#X connect 33 0 8 0;
#X connect 34 0 8 0;
#X connect 35 0 8 0;
#X connect 36 0 8 0;
#X connect 37 0 8 0;
#X connect 38 0 3 0;
#X connect 39 0 40 0;
#X connect 39 1 40 0;
#X connect 39 2 40 0;
#X connect 39 3 40 0;
#X connect 39 4 40 0;
#X connect 40 0 30 0;
#X coords 0 -1 1 1 100 60 2 100 100;
#X restore 445 179 pd neuron;
#N canvas 453 162 762 595 neuron 0;
#X obj 308 41 metro 150;
#X obj 337 83 i;
#X obj 374 84 + 1;
#X obj 438 43 t b b;
#X msg 328 16 0;
#X msg 377 58 0;
#X obj 261 13 inlet;
#X obj 179 103 bng 15 250 50 0 empty empty empty 17 7 0 10 -262144
-4160 -1;
#X obj 313 272 *;
#X obj 236 86 random 2;
#X obj 243 305 moses 1;
#X obj 245 333 outlet;
#X obj 274 138 select 1 2 3 4 5 6 7;
#X msg 236 37 bang;
#X obj 290 112 random 8;
#X text 102 142 Toner;
#X text 153 142 Link ud;
#X text 101 99 Link ind;
#X obj 159 103 bng 15 250 50 0 empty empty empty 17 7 0 10 -262144
-4034 -1;
#X obj 179 122 bng 15 250 50 0 empty empty empty 17 7 0 10 -262144
-258113 -1;
#X obj 266 425 select 0 1 2 3 4 5;
#X obj 407 307 random 6;
#X obj 264 455 outlet;
#X obj 314 455 outlet;
#X obj 364 455 outlet;
#X obj 414 455 outlet;
#X obj 474 455 outlet;
#X obj 524 455 outlet;
#X obj 54 298 outlet;
#X text 132 122 A# mol;
#X msg 159 180 34;
#X msg 195 180 46;
#X msg 233 180 49;
#X msg 273 180 51;
#X msg 354 180 53;
#X msg 433 180 56;
#X msg 313 180 0;
#X msg 394 179 0;
#X obj 348 109 select 17;
#X obj 25 65 select 0 4 8 9 11;
#X obj 32 121 +;
#X connect 0 0 1 0;
#X connect 0 0 9 0;
#X connect 0 0 14 0;
#X connect 1 0 2 0;
#X connect 1 0 38 0;
#X connect 1 0 39 0;
#X connect 2 0 1 1;
#X connect 3 0 5 0;
#X connect 3 1 4 0;
#X connect 3 1 19 0;
#X connect 3 1 21 0;
#X connect 4 0 0 0;
#X connect 5 0 1 0;
#X connect 6 0 0 0;
#X connect 6 0 18 0;
#X connect 8 0 10 0;
#X connect 9 0 8 1;
#X connect 10 1 11 0;
#X connect 10 1 7 0;
#X connect 12 0 31 0;
#X connect 12 1 32 0;
#X connect 12 2 33 0;
#X connect 12 3 36 0;
#X connect 12 4 34 0;
#X connect 12 5 37 0;
#X connect 12 6 35 0;
#X connect 13 0 0 0;
#X connect 14 0 12 0;
#X connect 20 0 22 0;
#X connect 20 1 23 0;
#X connect 20 2 24 0;
#X connect 20 3 25 0;
#X connect 20 4 26 0;
#X connect 20 5 27 0;
#X connect 21 0 20 0;
#X connect 30 0 28 0;
#X connect 31 0 8 0;
#X connect 32 0 8 0;
#X connect 33 0 8 0;
#X connect 34 0 8 0;
#X connect 35 0 8 0;
#X connect 36 0 8 0;
#X connect 37 0 8 0;
#X connect 38 0 3 0;
#X connect 39 0 40 0;
#X connect 39 1 40 0;
#X connect 39 2 40 0;
#X connect 39 3 40 0;
#X connect 39 4 40 0;
#X connect 40 0 30 0;
#X coords 0 -1 1 1 100 60 2 100 100;
#X restore 345 464 pd neuron;
#N canvas 453 162 762 595 neuron 0;
#X obj 308 41 metro 150;
#X obj 337 83 i;
#X obj 374 84 + 1;
#X obj 438 43 t b b;
#X msg 328 16 0;
#X msg 377 58 0;
#X obj 261 13 inlet;
#X obj 179 103 bng 15 250 50 0 empty empty empty 17 7 0 10 -262144
-4160 -1;
#X obj 313 272 *;
#X obj 236 86 random 2;
#X obj 243 305 moses 1;
#X obj 245 333 outlet;
#X obj 274 138 select 1 2 3 4 5 6 7;
#X msg 236 37 bang;
#X obj 290 112 random 8;
#X text 102 142 Toner;
#X text 153 142 Link ud;
#X text 101 99 Link ind;
#X obj 159 103 bng 15 250 50 0 empty empty empty 17 7 0 10 -262144
-4034 -1;
#X obj 179 122 bng 15 250 50 0 empty empty empty 17 7 0 10 -262144
-258113 -1;
#X obj 266 425 select 0 1 2 3 4 5;
#X obj 407 307 random 6;
#X obj 264 455 outlet;
#X obj 314 455 outlet;
#X obj 364 455 outlet;
#X obj 414 455 outlet;
#X obj 474 455 outlet;
#X obj 524 455 outlet;
#X obj 54 298 outlet;
#X text 132 122 H mol;
#X msg 159 180 35;
#X msg 195 180 47;
#X msg 233 180 50;
#X msg 273 180 52;
#X msg 354 180 54;
#X msg 433 180 57;
#X msg 313 180 0;
#X msg 394 179 0;
#X obj 25 65 select 0 4 8 9 11;
#X obj 32 121 +;
#X obj 348 109 select 17;
#X connect 0 0 1 0;
#X connect 0 0 9 0;
#X connect 0 0 14 0;
#X connect 1 0 2 0;
#X connect 1 0 38 0;
#X connect 1 0 40 0;
#X connect 2 0 1 1;
#X connect 3 0 5 0;
#X connect 3 1 4 0;
#X connect 3 1 19 0;
#X connect 3 1 21 0;
#X connect 4 0 0 0;
#X connect 5 0 1 0;
#X connect 6 0 0 0;
#X connect 6 0 18 0;
#X connect 8 0 10 0;
#X connect 9 0 8 1;
#X connect 10 1 11 0;
#X connect 10 1 7 0;
#X connect 12 0 31 0;
#X connect 12 1 32 0;
#X connect 12 2 33 0;
#X connect 12 3 36 0;
#X connect 12 4 34 0;
#X connect 12 5 37 0;
#X connect 12 6 35 0;
#X connect 13 0 0 0;
#X connect 14 0 12 0;
#X connect 20 0 22 0;
#X connect 20 1 23 0;
#X connect 20 2 24 0;
#X connect 20 3 25 0;
#X connect 20 4 26 0;
#X connect 20 5 27 0;
#X connect 21 0 20 0;
#X connect 30 0 28 0;
#X connect 31 0 8 0;
#X connect 32 0 8 0;
#X connect 33 0 8 0;
#X connect 34 0 8 0;
#X connect 35 0 8 0;
#X connect 36 0 8 0;
#X connect 37 0 8 0;
#X connect 38 0 39 0;
#X connect 38 1 39 0;
#X connect 38 2 39 0;
#X connect 38 3 39 0;
#X connect 38 4 39 0;
#X connect 39 0 30 0;
#X connect 40 0 3 0;
#X coords 0 -1 1 1 100 60 2 100 100;
#X restore 647 301 pd neuron;
#N canvas 684 179 762 595 neuron 0;
#X obj 308 41 metro 150;
#X obj 337 83 i;
#X obj 374 84 + 1;
#X obj 438 43 t b b;
#X msg 328 16 0;
#X msg 377 58 0;
#X obj 261 13 inlet;
#X obj 179 103 bng 15 250 50 0 empty empty empty 17 7 0 10 -262144
-4160 -1;
#X obj 313 272 *;
#X obj 236 86 random 2;
#X obj 243 305 moses 1;
#X obj 245 333 outlet;
#X obj 274 138 select 1 2 3 4 5 6 7;
#X msg 236 37 bang;
#X obj 290 112 random 8;
#X text 102 142 Toner;
#X text 153 142 Link ud;
#X text 101 99 Link ind;
#X obj 159 103 bng 15 250 50 0 empty empty empty 17 7 0 10 -262144
-4034 -1;
#X obj 179 122 bng 15 250 50 0 empty empty empty 17 7 0 10 -262144
-258113 -1;
#X obj 266 425 select 0 1 2 3 4 5;
#X obj 407 307 random 6;
#X obj 264 455 outlet;
#X obj 314 455 outlet;
#X obj 364 455 outlet;
#X obj 414 455 outlet;
#X obj 474 455 outlet;
#X obj 524 455 outlet;
#X obj 54 298 outlet;
#X text 132 122 E mol;
#X msg 159 180 28;
#X msg 193 180 40;
#X msg 233 180 43;
#X msg 273 180 45;
#X msg 353 180 47;
#X msg 433 180 50;
#X msg 313 180 0;
#X msg 394 179 0;
#X obj 25 65 select 0 4 8 9 11;
#X obj 32 121 +;
#X obj 348 109 select 17;
#X connect 0 0 1 0;
#X connect 0 0 9 0;
#X connect 0 0 14 0;
#X connect 1 0 2 0;
#X connect 1 0 38 0;
#X connect 1 0 40 0;
#X connect 2 0 1 1;
#X connect 3 0 5 0;
#X connect 3 1 4 0;
#X connect 3 1 19 0;
#X connect 3 1 21 0;
#X connect 4 0 0 0;
#X connect 5 0 1 0;
#X connect 6 0 0 0;
#X connect 6 0 18 0;
#X connect 8 0 10 0;
#X connect 9 0 8 1;
#X connect 10 1 11 0;
#X connect 10 1 7 0;
#X connect 12 0 31 0;
#X connect 12 1 32 0;
#X connect 12 2 33 0;
#X connect 12 3 36 0;
#X connect 12 4 34 0;
#X connect 12 5 37 0;
#X connect 12 6 35 0;
#X connect 13 0 0 0;
#X connect 14 0 12 0;
#X connect 20 0 22 0;
#X connect 20 1 23 0;
#X connect 20 2 24 0;
#X connect 20 3 25 0;
#X connect 20 4 26 0;
#X connect 20 5 27 0;
#X connect 21 0 20 0;
#X connect 30 0 28 0;
#X connect 31 0 8 0;
#X connect 32 0 8 0;
#X connect 33 0 8 0;
#X connect 34 0 8 0;
#X connect 35 0 8 0;
#X connect 36 0 8 0;
#X connect 37 0 8 0;
#X connect 38 0 39 0;
#X connect 38 1 39 0;
#X connect 38 2 39 0;
#X connect 38 3 39 0;
#X connect 38 4 39 0;
#X connect 39 0 30 0;
#X connect 40 0 3 0;
#X coords 0 -1 1 1 100 60 2 100 100;
#X restore 546 240 pd neuron;
#N canvas 518 93 762 595 neuron 0;
#X obj 308 41 metro 150;
#X obj 337 83 i;
#X obj 374 84 + 1;
#X obj 438 43 t b b;
#X msg 328 16 0;
#X msg 377 58 0;
#X obj 261 13 inlet;
#X obj 179 103 bng 15 250 50 0 empty empty empty 17 7 0 10 -262144
-4160 -1;
#X msg 193 180 36;
#X msg 353 180 43;
#X msg 393 180 45;
#X obj 313 272 *;
#X obj 236 86 random 2;
#X obj 243 305 moses 1;
#X obj 245 333 outlet;
#X obj 274 138 select 1 2 3 4 5 6 7;
#X msg 236 37 bang;
#X obj 290 112 random 8;
#X text 102 142 Toner;
#X text 153 142 Link ud;
#X text 101 99 Link ind;
#X obj 159 103 bng 15 250 50 0 empty empty empty 17 7 0 10 -262144
-4034 -1;
#X obj 179 122 bng 15 250 50 0 empty empty empty 17 7 0 10 -262144
-258113 -1;
#X obj 266 425 select 0 1 2 3 4 5;
#X obj 407 307 random 6;
#X obj 264 455 outlet;
#X obj 314 455 outlet;
#X obj 364 455 outlet;
#X obj 414 455 outlet;
#X obj 474 455 outlet;
#X obj 524 455 outlet;
#X obj 54 298 outlet;
#X msg 159 180 24;
#X msg 233 180 38;
#X msg 273 180 40;
#X text 132 122 C dur;
#X msg 313 179 0;
#X msg 433 180 0;
#X obj 25 65 select 0 4 8 9 11;
#X obj 348 109 select 17;
#X connect 0 0 1 0;
#X connect 0 0 12 0;
#X connect 0 0 17 0;
#X connect 1 0 2 0;
#X connect 1 0 38 0;
#X connect 1 0 39 0;
#X connect 2 0 1 1;
#X connect 3 0 5 0;
#X connect 3 1 4 0;
#X connect 3 1 22 0;
#X connect 3 1 24 0;
#X connect 4 0 0 0;
#X connect 5 0 1 0;
#X connect 6 0 0 0;
#X connect 6 0 21 0;
#X connect 8 0 11 0;
#X connect 9 0 11 0;
#X connect 10 0 11 0;
#X connect 11 0 13 0;
#X connect 12 0 11 1;
#X connect 13 1 14 0;
#X connect 13 1 7 0;
#X connect 15 0 8 0;
#X connect 15 1 33 0;
#X connect 15 2 34 0;
#X connect 15 3 36 0;
#X connect 15 4 9 0;
#X connect 15 5 10 0;
#X connect 15 6 37 0;
#X connect 16 0 0 0;
#X connect 17 0 15 0;
#X connect 23 0 25 0;
#X connect 23 1 26 0;
#X connect 23 2 27 0;
#X connect 23 3 28 0;
#X connect 23 4 29 0;
#X connect 23 5 30 0;
#X connect 24 0 23 0;
#X connect 32 0 31 0;
#X connect 33 0 11 0;
#X connect 34 0 11 0;
#X connect 36 0 11 0;
#X connect 37 0 11 0;
#X connect 38 0 32 0;
#X connect 38 1 32 0;
#X connect 38 2 32 0;
#X connect 38 3 32 0;
#X connect 38 4 32 0;
#X connect 39 0 3 0;
#X coords 0 -1 1 1 100 60 2 100 100;
#X restore 445 109 pd neuron;
#N canvas 453 162 762 595 neuron 0;
#X obj 308 41 metro 150;
#X obj 337 83 i;
#X obj 374 84 + 1;
#X obj 438 43 t b b;
#X msg 328 16 0;
#X msg 377 58 0;
#X obj 261 13 inlet;
#X obj 348 109 select 16;
#X obj 179 103 bng 15 250 50 0 empty empty empty 17 7 0 10 -262144
-4160 -1;
#X obj 313 272 *;
#X obj 236 86 random 2;
#X obj 243 305 moses 1;
#X obj 245 333 outlet;
#X obj 274 138 select 1 2 3 4 5 6 7;
#X msg 236 37 bang;
#X obj 290 112 random 8;
#X text 102 142 Toner;
#X text 153 142 Link ud;
#X text 101 99 Link ind;
#X obj 159 103 bng 15 250 50 0 empty empty empty 17 7 0 10 -262144
-4034 -1;
#X obj 179 122 bng 15 250 50 0 empty empty empty 17 7 0 10 -262144
-258113 -1;
#X obj 266 425 select 0 1 2 3 4 5;
#X obj 407 307 random 6;
#X obj 264 455 outlet;
#X obj 314 455 outlet;
#X obj 364 455 outlet;
#X obj 414 455 outlet;
#X obj 474 455 outlet;
#X obj 524 455 outlet;
#X obj 54 298 outlet;
#X obj 20 115 random 3;
#X obj 64 174 select 2;
#X text 132 122 C# dur;
#X msg 159 180 25;
#X msg 193 180 37;
#X msg 233 180 39;
#X msg 273 180 41;
#X msg 353 180 44;
#X msg 393 180 46;
#X msg 313 179 0;
#X msg 433 180 0;
#X connect 0 0 1 0;
#X connect 0 0 10 0;
#X connect 0 0 15 0;
#X connect 0 0 30 0;
#X connect 1 0 2 0;
#X connect 1 0 7 0;
#X connect 2 0 1 1;
#X connect 3 0 5 0;
#X connect 3 1 4 0;
#X connect 3 1 20 0;
#X connect 3 1 22 0;
#X connect 4 0 0 0;
#X connect 5 0 1 0;
#X connect 6 0 0 0;
#X connect 6 0 19 0;
#X connect 7 0 3 0;
#X connect 9 0 11 0;
#X connect 10 0 9 1;
#X connect 11 1 12 0;
#X connect 11 1 8 0;
#X connect 13 0 34 0;
#X connect 13 1 35 0;
#X connect 13 2 36 0;
#X connect 13 3 39 0;
#X connect 13 4 37 0;
#X connect 13 5 38 0;
#X connect 13 6 40 0;
#X connect 14 0 0 0;
#X connect 15 0 13 0;
#X connect 21 0 23 0;
#X connect 21 1 24 0;
#X connect 21 2 25 0;
#X connect 21 3 26 0;
#X connect 21 4 27 0;
#X connect 21 5 28 0;
#X connect 22 0 21 0;
#X connect 30 0 31 0;
#X connect 31 0 33 0;
#X connect 33 0 29 0;
#X connect 34 0 9 0;
#X connect 35 0 9 0;
#X connect 36 0 9 0;
#X connect 37 0 9 0;
#X connect 38 0 9 0;
#X connect 39 0 9 0;
#X connect 40 0 9 0;
#X coords 0 -1 1 1 100 60 2 100 100;
#X restore 345 534 pd neuron;
#N canvas 518 150 762 595 neuron 0;
#X obj 308 41 metro 150;
#X obj 337 83 i;
#X obj 374 84 + 1;
#X obj 438 43 t b b;
#X msg 328 16 0;
#X msg 377 58 0;
#X obj 261 13 inlet;
#X obj 179 103 bng 15 250 50 0 empty empty empty 17 7 0 10 -262144
-4160 -1;
#X obj 313 272 *;
#X obj 236 86 random 2;
#X obj 243 305 moses 1;
#X obj 245 333 outlet;
#X obj 274 138 select 1 2 3 4 5 6 7;
#X msg 236 37 bang;
#X obj 290 112 random 8;
#X text 102 142 Toner;
#X text 153 142 Link ud;
#X text 101 99 Link ind;
#X obj 159 103 bng 15 250 50 0 empty empty empty 17 7 0 10 -262144
-4034 -1;
#X obj 179 122 bng 15 250 50 0 empty empty empty 17 7 0 10 -262144
-258113 -1;
#X obj 266 425 select 0 1 2 3 4 5;
#X obj 407 307 random 6;
#X obj 264 455 outlet;
#X obj 314 455 outlet;
#X obj 364 455 outlet;
#X obj 414 455 outlet;
#X obj 474 455 outlet;
#X obj 524 455 outlet;
#X obj 54 298 outlet;
#X msg 159 180 26;
#X msg 193 180 38;
#X msg 233 180 40;
#X msg 273 180 42;
#X msg 353 180 45;
#X msg 393 180 47;
#X text 132 122 D dur;
#X msg 313 179 0;
#X msg 433 180 0;
#X obj 25 65 select 0 4 8 9 11;
#X obj 32 121 +;
#X obj 348 109 select 17;
#X connect 0 0 1 0;
#X connect 0 0 9 0;
#X connect 0 0 14 0;
#X connect 1 0 2 0;
#X connect 1 0 38 0;
#X connect 1 0 40 0;
#X connect 2 0 1 1;
#X connect 3 0 5 0;
#X connect 3 1 4 0;
#X connect 3 1 19 0;
#X connect 3 1 21 0;
#X connect 4 0 0 0;
#X connect 5 0 1 0;
#X connect 6 0 0 0;
#X connect 6 0 18 0;
#X connect 8 0 10 0;
#X connect 9 0 8 1;
#X connect 10 1 11 0;
#X connect 10 1 7 0;
#X connect 12 0 30 0;
#X connect 12 1 31 0;
#X connect 12 2 32 0;
#X connect 12 3 36 0;
#X connect 12 4 33 0;
#X connect 12 5 34 0;
#X connect 12 6 37 0;
#X connect 13 0 0 0;
#X connect 14 0 12 0;
#X connect 20 0 22 0;
#X connect 20 1 23 0;
#X connect 20 2 24 0;
#X connect 20 3 25 0;
#X connect 20 4 26 0;
#X connect 20 5 27 0;
#X connect 21 0 20 0;
#X connect 29 0 28 0;
#X connect 30 0 8 0;
#X connect 31 0 8 0;
#X connect 32 0 8 0;
#X connect 33 0 8 0;
#X connect 34 0 8 0;
#X connect 36 0 8 0;
#X connect 37 0 8 0;
#X connect 38 0 39 0;
#X connect 38 1 39 0;
#X connect 38 2 39 0;
#X connect 38 3 39 0;
#X connect 38 4 39 0;
#X connect 39 0 29 0;
#X connect 40 0 3 0;
#X coords 0 -1 1 1 100 60 2 100 100;
#X restore 647 231 pd neuron;
#N canvas 518 150 762 595 neuron 0;
#X obj 308 41 metro 150;
#X obj 337 83 i;
#X obj 374 84 + 1;
#X obj 438 43 t b b;
#X msg 328 16 0;
#X msg 377 58 0;
#X obj 261 13 inlet;
#X obj 179 103 bng 15 250 50 0 empty empty empty 17 7 0 10 -262144
-4160 -1;
#X obj 313 272 *;
#X obj 236 86 random 2;
#X obj 243 305 moses 1;
#X obj 245 333 outlet;
#X obj 274 138 select 1 2 3 4 5 6 7;
#X msg 236 37 bang;
#X obj 290 112 random 8;
#X text 102 142 Toner;
#X text 153 142 Link ud;
#X text 101 99 Link ind;
#X obj 159 103 bng 15 250 50 0 empty empty empty 17 7 0 10 -262144
-4034 -1;
#X obj 179 122 bng 15 250 50 0 empty empty empty 17 7 0 10 -262144
-258113 -1;
#X obj 266 425 select 0 1 2 3 4 5;
#X obj 407 307 random 6;
#X obj 264 455 outlet;
#X obj 314 455 outlet;
#X obj 364 455 outlet;
#X obj 414 455 outlet;
#X obj 474 455 outlet;
#X obj 524 455 outlet;
#X obj 54 298 outlet;
#X text 132 122 D# dur;
#X msg 159 180 27;
#X msg 193 180 39;
#X msg 233 180 41;
#X msg 273 180 43;
#X msg 353 180 46;
#X msg 393 180 48;
#X msg 313 179 0;
#X msg 433 180 0;
#X obj 348 109 select 17;
#X obj 25 65 select 0 4 8 9 11;
#X obj 32 121 +;
#X connect 0 0 1 0;
#X connect 0 0 9 0;
#X connect 0 0 14 0;
#X connect 1 0 2 0;
#X connect 1 0 38 0;
#X connect 1 0 39 0;
#X connect 2 0 1 1;
#X connect 3 0 5 0;
#X connect 3 1 4 0;
#X connect 3 1 19 0;
#X connect 3 1 21 0;
#X connect 4 0 0 0;
#X connect 5 0 1 0;
#X connect 6 0 0 0;
#X connect 6 0 18 0;
#X connect 8 0 10 0;
#X connect 9 0 8 1;
#X connect 10 1 11 0;
#X connect 10 1 7 0;
#X connect 12 0 31 0;
#X connect 12 1 32 0;
#X connect 12 2 33 0;
#X connect 12 3 36 0;
#X connect 12 4 34 0;
#X connect 12 5 35 0;
#X connect 12 6 37 0;
#X connect 13 0 0 0;
#X connect 14 0 12 0;
#X connect 20 0 22 0;
#X connect 20 1 23 0;
#X connect 20 2 24 0;
#X connect 20 3 25 0;
#X connect 20 4 26 0;
#X connect 20 5 27 0;
#X connect 21 0 20 0;
#X connect 30 0 28 0;
#X connect 31 0 8 0;
#X connect 32 0 8 0;
#X connect 33 0 8 0;
#X connect 34 0 8 0;
#X connect 35 0 8 0;
#X connect 36 0 8 0;
#X connect 37 0 8 0;
#X connect 38 0 3 0;
#X connect 39 0 40 0;
#X connect 39 1 40 0;
#X connect 39 2 40 0;
#X connect 39 3 40 0;
#X connect 39 4 40 0;
#X connect 40 0 30 0;
#X coords 0 -1 1 1 100 60 2 100 100;
#X restore 33 352 pd neuron;
#N canvas 829 212 762 595 neuron 0;
#X obj 308 41 metro 150;
#X obj 337 83 i;
#X obj 374 84 + 1;
#X obj 438 43 t b b;
#X msg 328 16 0;
#X msg 377 58 0;
#X obj 261 13 inlet;
#X obj 179 103 bng 15 250 50 0 empty empty empty 17 7 0 10 -262144
-4160 -1;
#X obj 313 272 *;
#X obj 236 86 random 2;
#X obj 243 305 moses 1;
#X obj 245 333 outlet;
#X obj 274 138 select 1 2 3 4 5 6 7;
#X msg 236 37 bang;
#X obj 290 112 random 8;
#X text 102 142 Toner;
#X text 153 142 Link ud;
#X text 101 99 Link ind;
#X obj 159 103 bng 15 250 50 0 empty empty empty 17 7 0 10 -262144
-4034 -1;
#X obj 179 122 bng 15 250 50 0 empty empty empty 17 7 0 10 -262144
-258113 -1;
#X obj 266 425 select 0 1 2 3 4 5;
#X obj 407 307 random 6;
#X obj 264 455 outlet;
#X obj 314 455 outlet;
#X obj 364 455 outlet;
#X obj 414 455 outlet;
#X obj 474 455 outlet;
#X obj 524 455 outlet;
#X obj 54 298 outlet;
#X text 132 122 E dur;
#X msg 159 180 28;
#X msg 193 180 40;
#X msg 233 180 42;
#X msg 353 180 47;
#X msg 393 180 49;
#X msg 273 180 44;
#X msg 313 179 0;
#X msg 433 180 0;
#X obj 348 109 select 17;
#X obj 25 65 select 0 4 8 9 11;
#X obj 32 121 +;
#X connect 0 0 1 0;
#X connect 0 0 9 0;
#X connect 0 0 14 0;
#X connect 1 0 2 0;
#X connect 1 0 38 0;
#X connect 1 0 39 0;
#X connect 2 0 1 1;
#X connect 3 0 5 0;
#X connect 3 1 4 0;
#X connect 3 1 19 0;
#X connect 3 1 21 0;
#X connect 4 0 0 0;
#X connect 5 0 1 0;
#X connect 6 0 0 0;
#X connect 6 0 18 0;
#X connect 8 0 10 0;
#X connect 9 0 8 1;
#X connect 10 1 11 0;
#X connect 10 1 7 0;
#X connect 12 0 31 0;
#X connect 12 1 32 0;
#X connect 12 2 35 0;
#X connect 12 3 36 0;
#X connect 12 4 33 0;
#X connect 12 5 34 0;
#X connect 12 6 37 0;
#X connect 13 0 0 0;
#X connect 14 0 12 0;
#X connect 20 0 22 0;
#X connect 20 1 23 0;
#X connect 20 2 24 0;
#X connect 20 3 25 0;
#X connect 20 4 26 0;
#X connect 20 5 27 0;
#X connect 21 0 20 0;
#X connect 30 0 28 0;
#X connect 31 0 8 0;
#X connect 32 0 8 0;
#X connect 33 0 8 0;
#X connect 34 0 8 0;
#X connect 35 0 8 0;
#X connect 36 0 8 0;
#X connect 37 0 8 0;
#X connect 38 0 3 0;
#X connect 39 0 40 0;
#X connect 39 1 40 0;
#X connect 39 2 40 0;
#X connect 39 3 40 0;
#X connect 39 4 40 0;
#X connect 40 0 30 0;
#X coords 0 -1 1 1 100 60 2 100 100;
#X restore 647 473 pd neuron;
#N canvas 518 150 762 595 neuron 0;
#X obj 308 41 metro 150;
#X obj 337 83 i;
#X obj 374 84 + 1;
#X obj 438 43 t b b;
#X msg 328 16 0;
#X msg 377 58 0;
#X obj 261 13 inlet;
#X obj 179 103 bng 15 250 50 0 empty empty empty 17 7 0 10 -262144
-4160 -1;
#X obj 313 272 *;
#X obj 236 86 random 2;
#X obj 243 305 moses 1;
#X obj 245 333 outlet;
#X obj 274 138 select 1 2 3 4 5 6 7;
#X msg 236 37 bang;
#X obj 290 112 random 8;
#X text 102 142 Toner;
#X text 153 142 Link ud;
#X text 101 99 Link ind;
#X obj 159 103 bng 15 250 50 0 empty empty empty 17 7 0 10 -262144
-4034 -1;
#X obj 179 122 bng 15 250 50 0 empty empty empty 17 7 0 10 -262144
-258113 -1;
#X obj 266 425 select 0 1 2 3 4 5;
#X obj 407 307 random 6;
#X obj 264 455 outlet;
#X obj 314 455 outlet;
#X obj 364 455 outlet;
#X obj 414 455 outlet;
#X obj 474 455 outlet;
#X obj 524 455 outlet;
#X obj 54 298 outlet;
#X text 132 122 F dur;
#X msg 159 180 29;
#X msg 193 180 41;
#X msg 233 180 43;
#X msg 273 180 45;
#X msg 353 180 48;
#X msg 395 179 50;
#X msg 313 179 0;
#X msg 433 180 0;
#X obj 348 109 select 17;
#X obj 25 65 select 0 4 8 9 11;
#X obj 32 121 +;
#X connect 0 0 1 0;
#X connect 0 0 9 0;
#X connect 0 0 14 0;
#X connect 1 0 2 0;
#X connect 1 0 38 0;
#X connect 1 0 39 0;
#X connect 2 0 1 1;
#X connect 3 0 5 0;
#X connect 3 1 4 0;
#X connect 3 1 19 0;
#X connect 3 1 21 0;
#X connect 4 0 0 0;
#X connect 5 0 1 0;
#X connect 6 0 0 0;
#X connect 6 0 18 0;
#X connect 8 0 10 0;
#X connect 9 0 8 1;
#X connect 10 1 11 0;
#X connect 10 1 7 0;
#X connect 12 0 31 0;
#X connect 12 1 32 0;
#X connect 12 2 33 0;
#X connect 12 3 36 0;
#X connect 12 4 34 0;
#X connect 12 5 35 0;
#X connect 12 6 37 0;
#X connect 13 0 0 0;
#X connect 14 0 12 0;
#X connect 20 0 22 0;
#X connect 20 1 23 0;
#X connect 20 2 24 0;
#X connect 20 3 25 0;
#X connect 20 4 26 0;
#X connect 20 5 27 0;
#X connect 21 0 20 0;
#X connect 30 0 28 0;
#X connect 31 0 8 0;
#X connect 32 0 8 0;
#X connect 33 0 8 0;
#X connect 34 0 8 0;
#X connect 35 0 8 0;
#X connect 36 0 8 0;
#X connect 37 0 8 0;
#X connect 38 0 3 0;
#X connect 39 0 40 0;
#X connect 39 1 40 0;
#X connect 39 2 40 0;
#X connect 39 3 40 0;
#X connect 39 4 40 0;
#X connect 40 0 30 0;
#X coords 0 -1 1 1 100 60 2 100 100;
#X restore 344 170 pd neuron;
#N canvas 518 180 762 595 neuron 0;
#X obj 308 41 metro 150;
#X obj 337 83 i;
#X obj 374 84 + 1;
#X obj 438 43 t b b;
#X msg 328 16 0;
#X msg 377 58 0;
#X obj 261 13 inlet;
#X obj 179 103 bng 15 250 50 0 empty empty empty 17 7 0 10 -262144
-4160 -1;
#X obj 313 272 *;
#X obj 236 86 random 2;
#X obj 243 305 moses 1;
#X obj 245 333 outlet;
#X obj 274 138 select 1 2 3 4 5 6 7;
#X msg 236 37 bang;
#X obj 290 112 random 8;
#X text 102 142 Toner;
#X text 153 142 Link ud;
#X text 101 99 Link ind;
#X obj 159 103 bng 15 250 50 0 empty empty empty 17 7 0 10 -262144
-4034 -1;
#X obj 179 122 bng 15 250 50 0 empty empty empty 17 7 0 10 -262144
-258113 -1;
#X obj 266 425 select 0 1 2 3 4 5;
#X obj 407 307 random 6;
#X obj 264 455 outlet;
#X obj 314 455 outlet;
#X obj 364 455 outlet;
#X obj 414 455 outlet;
#X obj 474 455 outlet;
#X obj 524 455 outlet;
#X obj 54 298 outlet;
#X text 132 122 F# dur;
#X msg 159 180 30;
#X msg 193 180 42;
#X msg 233 180 44;
#X msg 273 180 46;
#X msg 353 180 49;
#X msg 395 179 51;
#X msg 313 179 0;
#X msg 433 181 0;
#X obj 348 109 select 17;
#X obj 25 65 select 0 4 8 9 11;
#X obj 32 121 +;
#X connect 0 0 1 0;
#X connect 0 0 9 0;
#X connect 0 0 14 0;
#X connect 1 0 2 0;
#X connect 1 0 38 0;
#X connect 1 0 39 0;
#X connect 2 0 1 1;
#X connect 3 0 5 0;
#X connect 3 1 4 0;
#X connect 3 1 19 0;
#X connect 3 1 21 0;
#X connect 4 0 0 0;
#X connect 5 0 1 0;
#X connect 6 0 0 0;
#X connect 6 0 18 0;
#X connect 8 0 10 0;
#X connect 9 0 8 1;
#X connect 10 1 11 0;
#X connect 10 1 7 0;
#X connect 12 0 31 0;
#X connect 12 1 32 0;
#X connect 12 2 33 0;
#X connect 12 3 36 0;
#X connect 12 4 34 0;
#X connect 12 5 35 0;
#X connect 12 6 37 0;
#X connect 13 0 0 0;
#X connect 14 0 12 0;
#X connect 20 0 22 0;
#X connect 20 1 23 0;
#X connect 20 2 24 0;
#X connect 20 3 25 0;
#X connect 20 4 26 0;
#X connect 20 5 27 0;
#X connect 21 0 20 0;
#X connect 30 0 28 0;
#X connect 31 0 8 0;
#X connect 32 0 8 0;
#X connect 33 0 8 0;
#X connect 34 0 8 0;
#X connect 35 0 8 0;
#X connect 36 0 8 0;
#X connect 37 0 8 0;
#X connect 38 0 3 0;
#X connect 39 0 40 0;
#X connect 39 1 40 0;
#X connect 39 2 40 0;
#X connect 39 3 40 0;
#X connect 39 4 40 0;
#X connect 40 0 30 0;
#X coords 0 -1 1 1 100 60 2 100 100;
#X restore 445 595 pd neuron;
#N canvas 562 157 762 595 neuron 0;
#X obj 308 41 metro 150;
#X obj 337 83 i;
#X obj 374 84 + 1;
#X obj 438 43 t b b;
#X msg 328 16 0;
#X msg 377 58 0;
#X obj 261 13 inlet;
#X obj 179 103 bng 15 250 50 0 empty empty empty 17 7 0 10 -262144
-4160 -1;
#X obj 313 272 *;
#X obj 236 86 random 2;
#X obj 243 305 moses 1;
#X obj 245 333 outlet;
#X obj 274 138 select 1 2 3 4 5 6 7;
#X msg 236 37 bang;
#X obj 290 112 random 8;
#X text 102 142 Toner;
#X text 153 142 Link ud;
#X text 101 99 Link ind;
#X obj 159 103 bng 15 250 50 0 empty empty empty 17 7 0 10 -262144
-4034 -1;
#X obj 179 122 bng 15 250 50 0 empty empty empty 17 7 0 10 -262144
-258113 -1;
#X obj 266 425 select 0 1 2 3 4 5;
#X obj 407 307 random 6;
#X obj 264 455 outlet;
#X obj 314 455 outlet;
#X obj 364 455 outlet;
#X obj 414 455 outlet;
#X obj 474 455 outlet;
#X obj 524 455 outlet;
#X obj 54 298 outlet;
#X msg 159 180 31;
#X msg 193 180 43;
#X msg 233 180 45;
#X msg 273 180 47;
#X msg 353 180 50;
#X msg 395 179 52;
#X text 132 122 G dur;
#X msg 313 179 0;
#X msg 433 181 0;
#X obj 348 109 select 17;
#X obj 25 65 select 0 4 8 9 11;
#X obj 32 121 +;
#X connect 0 0 1 0;
#X connect 0 0 9 0;
#X connect 0 0 14 0;
#X connect 1 0 2 0;
#X connect 1 0 38 0;
#X connect 1 0 39 0;
#X connect 2 0 1 1;
#X connect 3 0 5 0;
#X connect 3 1 4 0;
#X connect 3 1 19 0;
#X connect 3 1 21 0;
#X connect 4 0 0 0;
#X connect 5 0 1 0;
#X connect 6 0 0 0;
#X connect 6 0 18 0;
#X connect 8 0 10 0;
#X connect 9 0 8 1;
#X connect 10 1 11 0;
#X connect 10 1 7 0;
#X connect 12 0 30 0;
#X connect 12 1 31 0;
#X connect 12 2 32 0;
#X connect 12 3 36 0;
#X connect 12 4 33 0;
#X connect 12 5 34 0;
#X connect 12 6 37 0;
#X connect 13 0 0 0;
#X connect 14 0 12 0;
#X connect 20 0 22 0;
#X connect 20 1 23 0;
#X connect 20 2 24 0;
#X connect 20 3 25 0;
#X connect 20 4 26 0;
#X connect 20 5 27 0;
#X connect 21 0 20 0;
#X connect 29 0 28 0;
#X connect 30 0 8 0;
#X connect 31 0 8 0;
#X connect 32 0 8 0;
#X connect 33 0 8 0;
#X connect 34 0 8 0;
#X connect 36 0 8 0;
#X connect 37 0 8 0;
#X connect 38 0 3 0;
#X connect 39 0 40 0;
#X connect 39 1 40 0;
#X connect 39 2 40 0;
#X connect 39 3 40 0;
#X connect 39 4 40 0;
#X connect 40 0 29 0;
#X coords 0 -1 1 1 100 60 2 100 100;
#X restore 546 170 pd neuron;
#N canvas 518 158 762 595 neuron 0;
#X obj 308 41 metro 150;
#X obj 337 83 i;
#X obj 374 84 + 1;
#X obj 438 43 t b b;
#X msg 328 16 0;
#X msg 377 58 0;
#X obj 261 13 inlet;
#X obj 179 103 bng 15 250 50 0 empty empty empty 17 7 0 10 -262144
-4160 -1;
#X obj 313 272 *;
#X obj 236 86 random 2;
#X obj 243 305 moses 1;
#X obj 245 333 outlet;
#X obj 274 138 select 1 2 3 4 5 6 7;
#X msg 236 37 bang;
#X obj 290 112 random 8;
#X text 102 142 Toner;
#X text 153 142 Link ud;
#X text 101 99 Link ind;
#X obj 159 103 bng 15 250 50 0 empty empty empty 17 7 0 10 -262144
-4034 -1;
#X obj 179 122 bng 15 250 50 0 empty empty empty 17 7 0 10 -262144
-258113 -1;
#X obj 266 425 select 0 1 2 3 4 5;
#X obj 407 307 random 6;
#X obj 264 455 outlet;
#X obj 314 455 outlet;
#X obj 364 455 outlet;
#X obj 414 455 outlet;
#X obj 474 455 outlet;
#X obj 524 455 outlet;
#X obj 54 298 outlet;
#X msg 159 180 32;
#X msg 193 180 44;
#X msg 233 180 46;
#X msg 273 180 48;
#X msg 353 180 51;
#X msg 395 179 53;
#X text 132 122 G# dur;
#X msg 313 179 0;
#X msg 433 181 0;
#X obj 348 109 select 17;
#X obj 25 65 select 0 4 8 9 11;
#X obj 32 121 +;
#X connect 0 0 1 0;
#X connect 0 0 9 0;
#X connect 0 0 14 0;
#X connect 1 0 2 0;
#X connect 1 0 38 0;
#X connect 1 0 39 0;
#X connect 2 0 1 1;
#X connect 3 0 5 0;
#X connect 3 1 4 0;
#X connect 3 1 19 0;
#X connect 3 1 21 0;
#X connect 4 0 0 0;
#X connect 5 0 1 0;
#X connect 6 0 0 0;
#X connect 6 0 18 0;
#X connect 8 0 10 0;
#X connect 9 0 8 1;
#X connect 10 1 11 0;
#X connect 10 1 7 0;
#X connect 12 0 30 0;
#X connect 12 1 31 0;
#X connect 12 2 32 0;
#X connect 12 3 36 0;
#X connect 12 4 33 0;
#X connect 12 5 34 0;
#X connect 12 6 37 0;
#X connect 13 0 0 0;
#X connect 14 0 12 0;
#X connect 20 0 22 0;
#X connect 20 1 23 0;
#X connect 20 2 24 0;
#X connect 20 3 25 0;
#X connect 20 4 26 0;
#X connect 20 5 27 0;
#X connect 21 0 20 0;
#X connect 29 0 28 0;
#X connect 30 0 8 0;
#X connect 31 0 8 0;
#X connect 32 0 8 0;
#X connect 33 0 8 0;
#X connect 34 0 8 0;
#X connect 36 0 8 0;
#X connect 37 0 8 0;
#X connect 38 0 3 0;
#X connect 39 0 40 0;
#X connect 39 1 40 0;
#X connect 39 2 40 0;
#X connect 39 3 40 0;
#X connect 39 4 40 0;
#X connect 40 0 29 0;
#X coords 0 -1 1 1 100 60 2 100 100;
#X restore 244 473 pd neuron;
#N canvas 518 155 762 595 neuron 0;
#X obj 308 41 metro 150;
#X obj 337 83 i;
#X obj 374 84 + 1;
#X obj 438 43 t b b;
#X msg 328 16 0;
#X msg 377 58 0;
#X obj 261 13 inlet;
#X obj 179 103 bng 15 250 50 0 empty empty empty 17 7 0 10 -262144
-4160 -1;
#X obj 313 272 *;
#X obj 236 86 random 2;
#X obj 243 305 moses 1;
#X obj 245 333 outlet;
#X obj 274 138 select 1 2 3 4 5 6 7;
#X msg 236 37 bang;
#X obj 290 112 random 8;
#X text 102 142 Toner;
#X text 153 142 Link ud;
#X text 101 99 Link ind;
#X obj 159 103 bng 15 250 50 0 empty empty empty 17 7 0 10 -262144
-4034 -1;
#X obj 179 122 bng 15 250 50 0 empty empty empty 17 7 0 10 -262144
-258113 -1;
#X obj 266 425 select 0 1 2 3 4 5;
#X obj 407 307 random 6;
#X obj 264 455 outlet;
#X obj 314 455 outlet;
#X obj 364 455 outlet;
#X obj 414 455 outlet;
#X obj 474 455 outlet;
#X obj 524 455 outlet;
#X obj 54 298 outlet;
#X msg 159 180 33;
#X msg 193 180 45;
#X msg 233 180 47;
#X msg 273 180 49;
#X msg 353 180 52;
#X msg 396 179 54;
#X text 132 122 A dur;
#X msg 313 179 0;
#X msg 433 181 0;
#X obj 348 109 select 17;
#X obj 25 65 select 0 4 8 9 11;
#X obj 32 121 +;
#X connect 0 0 1 0;
#X connect 0 0 9 0;
#X connect 0 0 14 0;
#X connect 1 0 2 0;
#X connect 1 0 38 0;
#X connect 1 0 39 0;
#X connect 2 0 1 1;
#X connect 3 0 5 0;
#X connect 3 1 4 0;
#X connect 3 1 19 0;
#X connect 3 1 21 0;
#X connect 4 0 0 0;
#X connect 5 0 1 0;
#X connect 6 0 0 0;
#X connect 6 0 18 0;
#X connect 8 0 10 0;
#X connect 9 0 8 1;
#X connect 10 1 11 0;
#X connect 10 1 7 0;
#X connect 12 0 30 0;
#X connect 12 1 31 0;
#X connect 12 2 32 0;
#X connect 12 3 36 0;
#X connect 12 4 33 0;
#X connect 12 5 34 0;
#X connect 12 6 37 0;
#X connect 13 0 0 0;
#X connect 14 0 12 0;
#X connect 20 0 22 0;
#X connect 20 1 23 0;
#X connect 20 2 24 0;
#X connect 20 3 25 0;
#X connect 20 4 26 0;
#X connect 20 5 27 0;
#X connect 21 0 20 0;
#X connect 29 0 28 0;
#X connect 30 0 8 0;
#X connect 31 0 8 0;
#X connect 32 0 8 0;
#X connect 33 0 8 0;
#X connect 34 0 8 0;
#X connect 36 0 8 0;
#X connect 37 0 8 0;
#X connect 38 0 3 0;
#X connect 39 0 40 0;
#X connect 39 1 40 0;
#X connect 39 2 40 0;
#X connect 39 3 40 0;
#X connect 39 4 40 0;
#X connect 40 0 29 0;
#X coords 0 -1 1 1 100 60 2 100 100;
#X restore 858 352 pd neuron;
#N canvas 518 150 762 595 neuron 0;
#X obj 308 41 metro 150;
#X obj 337 83 i;
#X obj 374 84 + 1;
#X obj 438 43 t b b;
#X msg 328 16 0;
#X msg 377 58 0;
#X obj 261 13 inlet;
#X obj 179 103 bng 15 250 50 0 empty empty empty 17 7 0 10 -262144
-4160 -1;
#X obj 313 272 *;
#X obj 236 86 random 2;
#X obj 243 305 moses 1;
#X obj 245 333 outlet;
#X obj 274 138 select 1 2 3 4 5 6 7;
#X msg 236 37 bang;
#X obj 290 112 random 8;
#X text 102 142 Toner;
#X text 153 142 Link ud;
#X text 101 99 Link ind;
#X obj 159 103 bng 15 250 50 0 empty empty empty 17 7 0 10 -262144
-4034 -1;
#X obj 179 122 bng 15 250 50 0 empty empty empty 17 7 0 10 -262144
-258113 -1;
#X obj 266 425 select 0 1 2 3 4 5;
#X obj 407 307 random 6;
#X obj 264 455 outlet;
#X obj 314 455 outlet;
#X obj 364 455 outlet;
#X obj 414 455 outlet;
#X obj 474 455 outlet;
#X obj 524 455 outlet;
#X obj 54 298 outlet;
#X msg 159 180 34;
#X msg 193 180 46;
#X msg 233 180 48;
#X msg 273 180 50;
#X msg 354 180 53;
#X msg 396 179 55;
#X text 132 122 A# dur;
#X msg 313 179 0;
#X msg 433 181 0;
#X obj 348 109 select 17;
#X obj 25 65 select 0 4 8 9 11;
#X obj 32 121 +;
#X connect 0 0 1 0;
#X connect 0 0 9 0;
#X connect 0 0 14 0;
#X connect 1 0 2 0;
#X connect 1 0 38 0;
#X connect 1 0 39 0;
#X connect 2 0 1 1;
#X connect 3 0 5 0;
#X connect 3 1 4 0;
#X connect 3 1 19 0;
#X connect 3 1 21 0;
#X connect 4 0 0 0;
#X connect 5 0 1 0;
#X connect 6 0 0 0;
#X connect 6 0 18 0;
#X connect 8 0 10 0;
#X connect 9 0 8 1;
#X connect 10 1 11 0;
#X connect 10 1 7 0;
#X connect 12 0 30 0;
#X connect 12 1 31 0;
#X connect 12 2 32 0;
#X connect 12 3 36 0;
#X connect 12 4 33 0;
#X connect 12 5 34 0;
#X connect 12 6 37 0;
#X connect 13 0 0 0;
#X connect 14 0 12 0;
#X connect 20 0 22 0;
#X connect 20 1 23 0;
#X connect 20 2 24 0;
#X connect 20 3 25 0;
#X connect 20 4 26 0;
#X connect 20 5 27 0;
#X connect 21 0 20 0;
#X connect 29 0 28 0;
#X connect 30 0 8 0;
#X connect 31 0 8 0;
#X connect 32 0 8 0;
#X connect 33 0 8 0;
#X connect 34 0 8 0;
#X connect 36 0 8 0;
#X connect 37 0 8 0;
#X connect 38 0 3 0;
#X connect 39 0 40 0;
#X connect 39 1 40 0;
#X connect 39 2 40 0;
#X connect 39 3 40 0;
#X connect 39 4 40 0;
#X connect 40 0 29 0;
#X coords 0 -1 1 1 100 60 2 100 100;
#X restore 244 231 pd neuron;
#N canvas 518 150 762 595 neuron 0;
#X obj 308 41 metro 150;
#X obj 337 83 i;
#X obj 374 84 + 1;
#X obj 438 43 t b b;
#X msg 328 16 0;
#X msg 377 58 0;
#X obj 261 13 inlet;
#X obj 179 103 bng 15 250 50 0 empty empty empty 17 7 0 10 -262144
-4160 -1;
#X obj 313 272 *;
#X obj 236 86 random 2;
#X obj 243 305 moses 1;
#X obj 245 333 outlet;
#X obj 274 138 select 1 2 3 4 5 6 7;
#X msg 236 37 bang;
#X obj 290 112 random 8;
#X text 102 142 Toner;
#X text 153 142 Link ud;
#X text 101 99 Link ind;
#X obj 159 103 bng 15 250 50 0 empty empty empty 17 7 0 10 -262144
-4034 -1;
#X obj 179 122 bng 15 250 50 0 empty empty empty 17 7 0 10 -262144
-258113 -1;
#X obj 266 425 select 0 1 2 3 4 5;
#X obj 407 307 random 6;
#X obj 264 455 outlet;
#X obj 314 455 outlet;
#X obj 364 455 outlet;
#X obj 414 455 outlet;
#X obj 474 455 outlet;
#X obj 524 455 outlet;
#X obj 54 298 outlet;
#X text 132 122 H dur;
#X msg 193 180 47;
#X msg 233 180 49;
#X msg 273 180 51;
#X msg 354 180 54;
#X msg 396 179 56;
#X msg 159 180 35;
#X msg 313 179 0;
#X msg 433 181 0;
#X obj 348 109 select 17;
#X obj 25 65 select 0 4 8 9 11;
#X obj 32 121 +;
#X connect 0 0 1 0;
#X connect 0 0 9 0;
#X connect 0 0 14 0;
#X connect 1 0 2 0;
#X connect 1 0 38 0;
#X connect 1 0 39 0;
#X connect 2 0 1 1;
#X connect 3 0 5 0;
#X connect 3 1 4 0;
#X connect 3 1 19 0;
#X connect 3 1 21 0;
#X connect 4 0 0 0;
#X connect 5 0 1 0;
#X connect 6 0 0 0;
#X connect 6 0 18 0;
#X connect 8 0 10 0;
#X connect 9 0 8 1;
#X connect 10 1 11 0;
#X connect 10 1 7 0;
#X connect 12 0 30 0;
#X connect 12 1 31 0;
#X connect 12 2 32 0;
#X connect 12 3 36 0;
#X connect 12 4 33 0;
#X connect 12 5 34 0;
#X connect 12 6 37 0;
#X connect 13 0 0 0;
#X connect 14 0 12 0;
#X connect 20 0 22 0;
#X connect 20 1 23 0;
#X connect 20 2 24 0;
#X connect 20 3 25 0;
#X connect 20 4 26 0;
#X connect 20 5 27 0;
#X connect 21 0 20 0;
#X connect 30 0 8 0;
#X connect 31 0 8 0;
#X connect 32 0 8 0;
#X connect 33 0 8 0;
#X connect 34 0 8 0;
#X connect 35 0 28 0;
#X connect 36 0 8 0;
#X connect 37 0 8 0;
#X connect 38 0 3 0;
#X connect 39 0 40 0;
#X connect 39 1 40 0;
#X connect 39 2 40 0;
#X connect 39 3 40 0;
#X connect 39 4 40 0;
#X connect 40 0 35 0;
#X coords 0 -1 1 1 100 60 2 100 100;
#X restore 546 534 pd neuron;
#N canvas 602 228 455 488 synth 0;
#X obj 144 80 inlet;
#N canvas 477 165 450 300 part 0;
#X obj 105 37 inlet;
#X obj 188 109 line~;
#X msg 184 77 1 0;
#X obj 206 52 t b b;
#X obj 152 149 mtof;
#X obj 168 256 *~;
#X obj 263 242 outlet~;
#X obj 154 211 osc~;
#X obj 268 184 osc~;
#X obj 154 190 +~;
#X obj 207 192 *~;
#X obj 256 155 mtof;
#X msg 225 79 0 1000;
#X obj 125 107 + 36;
#X obj 252 131 + 7;
#X obj 325 212 /~ 3;
#X obj 204 232 +~;
#X obj 338 159 osc~ 3;
#X obj 203 147 *~ 2048;
#X connect 0 0 3 0;
#X connect 0 0 13 0;
#X connect 1 0 16 0;
#X connect 1 0 18 0;
#X connect 2 0 1 0;
#X connect 3 0 12 0;
#X connect 3 1 2 0;
#X connect 4 0 9 0;
#X connect 5 0 6 0;
#X connect 7 0 5 0;
#X connect 8 0 10 1;
#X connect 9 0 7 0;
#X connect 10 0 9 1;
#X connect 11 0 8 0;
#X connect 12 0 1 0;
#X connect 13 0 4 0;
#X connect 13 0 14 0;
#X connect 14 0 11 0;
#X connect 15 0 16 1;
#X connect 16 0 5 1;
#X connect 17 0 15 0;
#X connect 18 0 10 0;
#X restore 144 254 pd part;
#X msg 144 110 \$1 127;
#X obj 144 177 pack 0 0 0;
#X obj 144 232 unpack;
#X obj 194 232 unpack;
#X obj 244 232 unpack;
#X obj 294 232 unpack;
#X obj 144 207 route 1 2 3 4;
#X obj 144 152 poly 4 1;
#N canvas 477 165 450 300 part 0;
#X obj 105 37 inlet;
#X obj 188 109 line~;
#X msg 184 77 1 0;
#X obj 206 52 t b b;
#X obj 152 149 mtof;
#X obj 168 256 *~;
#X obj 263 242 outlet~;
#X obj 154 211 osc~;
#X obj 268 184 osc~;
#X obj 154 190 +~;
#X obj 207 192 *~;
#X obj 256 155 mtof;
#X msg 225 79 0 1000;
#X obj 125 107 + 36;
#X obj 252 131 + 7;
#X obj 325 212 /~ 3;
#X obj 204 232 +~;
#X obj 338 159 osc~ 3;
#X obj 203 147 *~ 2048;
#X connect 0 0 3 0;
#X connect 0 0 13 0;
#X connect 1 0 16 0;
#X connect 1 0 18 0;
#X connect 2 0 1 0;
#X connect 3 0 12 0;
#X connect 3 1 2 0;
#X connect 4 0 9 0;
#X connect 5 0 6 0;
#X connect 7 0 5 0;
#X connect 8 0 10 1;
#X connect 9 0 7 0;
#X connect 10 0 9 1;
#X connect 11 0 8 0;
#X connect 12 0 1 0;
#X connect 13 0 4 0;
#X connect 13 0 14 0;
#X connect 14 0 11 0;
#X connect 15 0 16 1;
#X connect 16 0 5 1;
#X connect 17 0 15 0;
#X connect 18 0 10 0;
#X restore 194 254 pd part;
#N canvas 477 165 450 300 part 0;
#X obj 105 37 inlet;
#X obj 188 109 line~;
#X msg 184 77 1 0;
#X obj 206 52 t b b;
#X obj 152 149 mtof;
#X obj 168 256 *~;
#X obj 263 242 outlet~;
#X obj 154 211 osc~;
#X obj 268 184 osc~;
#X obj 154 190 +~;
#X obj 207 192 *~;
#X obj 256 155 mtof;
#X msg 225 79 0 1000;
#X obj 125 107 + 36;
#X obj 252 131 + 7;
#X obj 325 212 /~ 3;
#X obj 204 232 +~;
#X obj 338 159 osc~ 3;
#X obj 203 147 *~ 2048;
#X connect 0 0 3 0;
#X connect 0 0 13 0;
#X connect 1 0 16 0;
#X connect 1 0 18 0;
#X connect 2 0 1 0;
#X connect 3 0 12 0;
#X connect 3 1 2 0;
#X connect 4 0 9 0;
#X connect 5 0 6 0;
#X connect 7 0 5 0;
#X connect 8 0 10 1;
#X connect 9 0 7 0;
#X connect 10 0 9 1;
#X connect 11 0 8 0;
#X connect 12 0 1 0;
#X connect 13 0 4 0;
#X connect 13 0 14 0;
#X connect 14 0 11 0;
#X connect 15 0 16 1;
#X connect 16 0 5 1;
#X connect 17 0 15 0;
#X connect 18 0 10 0;
#X restore 244 254 pd part;
#N canvas 477 165 450 300 part 0;
#X obj 105 37 inlet;
#X obj 188 109 line~;
#X msg 184 77 1 0;
#X obj 206 52 t b b;
#X obj 152 149 mtof;
#X obj 168 256 *~;
#X obj 263 242 outlet~;
#X obj 154 211 osc~;
#X obj 268 184 osc~;
#X obj 154 190 +~;
#X obj 207 192 *~;
#X obj 256 155 mtof;
#X msg 225 79 0 1000;
#X obj 125 107 + 36;
#X obj 252 131 + 7;
#X obj 325 212 /~ 3;
#X obj 204 232 +~;
#X obj 338 159 osc~ 3;
#X obj 203 147 *~ 2048;
#X connect 0 0 3 0;
#X connect 0 0 13 0;
#X connect 1 0 16 0;
#X connect 1 0 18 0;
#X connect 2 0 1 0;
#X connect 3 0 12 0;
#X connect 3 1 2 0;
#X connect 4 0 9 0;
#X connect 5 0 6 0;
#X connect 7 0 5 0;
#X connect 8 0 10 1;
#X connect 9 0 7 0;
#X connect 10 0 9 1;
#X connect 11 0 8 0;
#X connect 12 0 1 0;
#X connect 13 0 4 0;
#X connect 13 0 14 0;
#X connect 14 0 11 0;
#X connect 15 0 16 1;
#X connect 16 0 5 1;
#X connect 17 0 15 0;
#X connect 18 0 10 0;
#X restore 294 254 pd part;
#X obj 198 382 outlet~;
#X obj 205 347 freeverb~;
#X obj 258 382 outlet~;
#X obj 216 310 /~ 5;
#X obj 285 322 /~ 5;
#X connect 0 0 2 0;
#X connect 1 0 16 0;
#X connect 1 0 17 0;
#X connect 2 0 9 0;
#X connect 3 0 8 0;
#X connect 4 0 1 0;
#X connect 5 0 10 0;
#X connect 6 0 11 0;
#X connect 7 0 12 0;
#X connect 8 0 4 0;
#X connect 8 1 5 0;
#X connect 8 2 6 0;
#X connect 8 3 7 0;
#X connect 9 0 3 0;
#X connect 9 1 3 1;
#X connect 9 2 3 2;
#X connect 10 0 16 0;
#X connect 10 0 17 0;
#X connect 11 0 16 0;
#X connect 11 0 17 0;
#X connect 12 0 16 0;
#X connect 12 0 17 0;
#X connect 14 0 13 0;
#X connect 14 1 15 0;
#X connect 16 0 14 0;
#X connect 16 0 14 1;
#X connect 17 0 15 0;
#X connect 17 0 13 0;
#X restore 497 359 pd synth;
#N canvas 82 177 450 300 bass 0;
#X obj 105 37 inlet;
#X obj 188 109 line~;
#X msg 184 77 1 0;
#X obj 206 52 t b b;
#X obj 154 211 phasor~;
#X obj 154 182 mtof;
#X obj 195 270 *~;
#X obj 263 242 outlet~;
#X obj 63 197 phasor~;
#X obj 63 168 mtof;
#X obj 151 249 svf~;
#X obj 281 128 mtof~;
#X msg 224 78 0 1500;
#X obj 57 135 + 24;
#X obj 244 157 +~ 110;
#X obj 286 107 *~ 75;
#X obj 114 251 /~ 2;
#X obj 238 211 0.6;
#X obj 305 186 loadbang;
#X connect 0 0 5 0;
#X connect 0 0 3 0;
#X connect 0 0 13 0;
#X connect 1 0 6 1;
#X connect 1 0 15 0;
#X connect 2 0 1 0;
#X connect 3 0 12 0;
#X connect 3 1 2 0;
#X connect 4 0 10 0;
#X connect 5 0 4 0;
#X connect 6 0 7 0;
#X connect 8 0 16 0;
#X connect 9 0 8 0;
#X connect 10 0 6 0;
#X connect 11 0 14 0;
#X connect 12 0 1 0;
#X connect 13 0 9 0;
#X connect 14 0 10 1;
#X connect 15 0 11 0;
#X connect 16 0 10 0;
#X connect 17 0 10 2;
#X connect 18 0 17 0;
#X restore 437 359 pd bass;
#X obj 482 425 dac~;
#X obj 445 69 loadbang;
#X msg 378 99 \; pd dsp 1 \;;
#N canvas 460 114 450 300 drums 0;
#N canvas 560 317 450 300 bd 0;
#X obj 83 -2 inlet;
#X obj 94 185 outlet~;
#X obj 96 149 osc~;
#X obj 95 128 mtof~;
#X obj 95 105 +~ 28;
#X obj 96 80 line~;
#X obj 105 29 t b b;
#X obj 75 51 0 100;
#X obj 125 51 32 0;
#X obj 195 29 t b b;
#X obj 165 51 0 500;
#X obj 216 51 1 0;
#X obj 157 153 *~;
#X obj 201 86 line~;
#X connect 0 0 6 0;
#X connect 0 0 9 0;
#X connect 2 0 12 0;
#X connect 3 0 2 0;
#X connect 4 0 3 0;
#X connect 5 0 4 0;
#X connect 6 0 7 0;
#X connect 6 1 8 0;
#X connect 7 0 5 0;
#X connect 8 0 5 0;
#X connect 9 0 10 0;
#X connect 9 1 11 0;
#X connect 10 0 13 0;
#X connect 11 0 13 0;
#X connect 12 0 1 0;
#X connect 13 0 12 1;
#X restore 200 207 pd bd;
#N canvas 0 22 492 401 hh 0;
#X obj 171 53 inlet;
#X obj 176 208 line~;
#X obj 188 140 t b b;
#X obj 208 170 1 0;
#X obj 64 177 noise~;
#X obj 101 243 *~;
#X obj 68 207 svf~ 9900 0.5;
#X obj 168 174 0 25;
#X obj 117 278 /~ 2;
#X obj 121 312 outlet~;
#X connect 0 0 2 0;
#X connect 1 0 5 1;
#X connect 2 0 7 0;
#X connect 2 1 3 0;
#X connect 3 0 1 0;
#X connect 4 0 6 0;
#X connect 5 0 8 0;
#X connect 6 1 5 0;
#X connect 7 0 1 0;
#X connect 8 0 9 0;
#X restore 340 208 pd hh;
#X obj 196 254 outlet~;
#X obj 226 6 metro 150;
#X obj 317 19 loadbang;
#X obj 226 39 i;
#X obj 265 38 + 1;
#X obj 214 114 select 0 1 2 3 4 5 6 7 8 9 10 11 12 13 14 15;
#X obj 220 85 % 16;
#X msg 387 22 bang;
#X obj 106 115 bng 15 75 50 0 empty empty empty 17 7 0 10 -262144 -258113
-1;
#X obj 126 115 bng 15 75 50 0 empty empty empty 17 7 0 10 -262144 -4034
-1;
#X obj 146 115 bng 15 75 50 0 empty empty empty 17 7 0 10 -262144 -4160
-1;
#X text 105 101 BD;
#X text 125 101 SD;
#X text 145 101 HH;
#N canvas 560 317 450 300 sd 0;
#X obj 83 -2 inlet;
#X obj 94 185 outlet~;
#X obj 96 149 osc~;
#X obj 95 128 mtof~;
#X obj 96 80 line~;
#X obj 105 29 t b b;
#X obj 195 29 t b b;
#X obj 216 51 1 0;
#X obj 157 153 *~;
#X obj 201 86 line~;
#X obj 285 29 t b b;
#X obj 306 51 1 0;
#X obj 291 86 line~;
#X obj 355 93 noise~;
#X obj 289 126 *~;
#X obj 125 51 12 0;
#X obj 95 105 +~ 55;
#X obj 75 51 0 25;
#X obj 165 51 0 100;
#X obj 255 51 0 150;
#X connect 0 0 5 0;
#X connect 0 0 6 0;
#X connect 0 0 10 0;
#X connect 2 0 8 0;
#X connect 3 0 2 0;
#X connect 4 0 16 0;
#X connect 5 0 17 0;
#X connect 5 1 15 0;
#X connect 6 0 18 0;
#X connect 6 1 7 0;
#X connect 7 0 9 0;
#X connect 8 0 1 0;
#X connect 9 0 8 1;
#X connect 10 0 19 0;
#X connect 10 1 11 0;
#X connect 11 0 12 0;
#X connect 12 0 14 0;
#X connect 13 0 14 1;
#X connect 14 0 1 0;
#X connect 15 0 4 0;
#X connect 16 0 3 0;
#X connect 17 0 4 0;
#X connect 18 0 9 0;
#X connect 19 0 12 0;
#X restore 270 207 pd sd;
#X obj 80 208 freeverb~;
#X obj 257 231 clip~ -0.5 0.5;
#X obj 162 233 /~ 3;
#X obj 108 239 /~ 3;
#X obj 350 257 /~ 5;
#X connect 0 0 18 0;
#X connect 0 0 21 0;
#X connect 1 0 21 0;
#X connect 3 0 5 0;
#X connect 4 0 3 0;
#X connect 5 0 6 0;
#X connect 5 0 8 0;
#X connect 6 0 5 1;
#X connect 7 0 0 0;
#X connect 7 0 1 0;
#X connect 7 0 10 0;
#X connect 7 0 12 0;
#X connect 7 1 0 0;
#X connect 7 1 10 0;
#X connect 7 2 1 0;
#X connect 7 2 12 0;
#X connect 7 3 1 0;
#X connect 7 3 12 0;
#X connect 7 4 1 0;
#X connect 7 4 16 0;
#X connect 7 4 12 0;
#X connect 7 4 11 0;
#X connect 7 6 1 0;
#X connect 7 6 12 0;
#X connect 7 8 1 0;
#X connect 7 8 12 0;
#X connect 7 9 16 0;
#X connect 7 9 11 0;
#X connect 7 10 1 0;
#X connect 7 10 0 0;
#X connect 7 10 12 0;
#X connect 7 10 10 0;
#X connect 7 12 16 0;
#X connect 7 12 1 0;
#X connect 7 12 11 0;
#X connect 7 12 12 0;
#X connect 7 14 1 0;
#X connect 7 14 12 0;
#X connect 8 0 7 0;
#X connect 9 0 3 0;
#X connect 16 0 17 0;
#X connect 16 0 17 1;
#X connect 16 0 19 0;
#X connect 17 0 20 0;
#X connect 18 0 21 0;
#X connect 19 0 2 0;
#X connect 20 0 2 0;
#X connect 21 0 2 0;
#X coords 0 -1 1 1 70 40 2 100 100;
#X restore 562 115 pd drums;
#X obj 437 386 /~ 2;
#X connect 0 0 25 0;
#X connect 0 1 24 0;
#X connect 0 2 22 0;
#X connect 0 3 15 0;
#X connect 0 4 20 0;
#X connect 0 5 4 0;
#X connect 0 6 6 0;
#X connect 0 7 6 0;
#X connect 1 0 25 0;
#X connect 1 1 24 0;
#X connect 1 2 23 0;
#X connect 1 3 16 0;
#X connect 1 4 21 0;
#X connect 1 5 5 0;
#X connect 1 6 7 0;
#X connect 1 7 7 0;
#X connect 2 0 25 0;
#X connect 2 1 24 0;
#X connect 2 2 8 0;
#X connect 2 3 12 0;
#X connect 2 4 17 0;
#X connect 2 5 22 0;
#X connect 2 6 6 0;
#X connect 2 7 6 0;
#X connect 3 0 25 0;
#X connect 3 1 24 0;
#X connect 3 2 13 0;
#X connect 3 3 18 0;
#X connect 3 4 23 0;
#X connect 3 5 7 0;
#X connect 3 6 9 0;
#X connect 3 7 9 0;
#X connect 4 0 25 0;
#X connect 4 1 24 0;
#X connect 4 2 15 0;
#X connect 4 3 20 0;
#X connect 4 4 13 0;
#X connect 4 5 9 0;
#X connect 4 6 0 0;
#X connect 4 7 0 0;
#X connect 5 0 25 0;
#X connect 5 1 24 0;
#X connect 5 2 1 0;
#X connect 5 3 16 0;
#X connect 5 4 21 0;
#X connect 5 5 10 0;
#X connect 5 6 1 0;
#X connect 5 7 1 0;
#X connect 6 0 25 0;
#X connect 6 1 24 0;
#X connect 6 2 17 0;
#X connect 6 3 22 0;
#X connect 6 4 15 0;
#X connect 6 5 0 0;
#X connect 6 6 2 0;
#X connect 6 7 2 0;
#X connect 7 0 25 0;
#X connect 7 1 24 0;
#X connect 7 2 18 0;
#X connect 7 3 23 0;
#X connect 7 4 16 0;
#X connect 7 5 1 0;
#X connect 7 6 3 0;
#X connect 7 7 3 0;
#X connect 8 0 25 0;
#X connect 8 1 24 0;
#X connect 8 2 19 0;
#X connect 8 3 12 0;
#X connect 8 4 17 0;
#X connect 8 5 2 0;
#X connect 8 6 11 0;
#X connect 8 7 11 0;
#X connect 9 0 25 0;
#X connect 9 1 24 0;
#X connect 9 2 20 0;
#X connect 9 3 13 0;
#X connect 9 4 18 0;
#X connect 9 5 3 0;
#X connect 9 6 4 0;
#X connect 9 7 4 0;
#X connect 10 0 25 0;
#X connect 10 1 24 0;
#X connect 10 2 21 0;
#X connect 10 3 14 0;
#X connect 10 4 19 0;
#X connect 10 5 11 0;
#X connect 10 6 5 0;
#X connect 10 7 5 0;
#X connect 11 0 25 0;
#X connect 11 1 24 0;
#X connect 11 2 14 0;
#X connect 11 3 19 0;
#X connect 11 4 12 0;
#X connect 11 5 8 0;
#X connect 11 6 10 0;
#X connect 11 7 10 0;
#X connect 12 0 25 0;
#X connect 12 1 24 0;
#X connect 12 2 17 0;
#X connect 12 3 2 0;
#X connect 12 4 8 0;
#X connect 12 5 11 0;
#X connect 12 6 19 0;
#X connect 12 7 19 0;
#X connect 13 0 25 0;
#X connect 13 1 24 0;
#X connect 13 2 18 0;
#X connect 13 3 3 0;
#X connect 13 4 9 0;
#X connect 13 5 4 0;
#X connect 13 6 20 0;
#X connect 13 7 20 0;
#X connect 14 0 25 0;
#X connect 14 1 24 0;
#X connect 14 2 19 0;
#X connect 14 3 11 0;
#X connect 14 4 10 0;
#X connect 14 5 5 0;
#X connect 14 6 21 0;
#X connect 14 7 21 0;
#X connect 15 0 25 0;
#X connect 15 1 24 0;
#X connect 15 2 20 0;
#X connect 15 3 4 0;
#X connect 15 4 0 0;
#X connect 15 5 6 0;
#X connect 15 6 22 0;
#X connect 15 7 22 0;
#X connect 16 0 25 0;
#X connect 16 1 24 0;
#X connect 16 2 21 0;
#X connect 16 3 5 0;
#X connect 16 4 1 0;
#X connect 16 5 7 0;
#X connect 16 6 23 0;
#X connect 16 7 23 0;
#X connect 17 0 25 0;
#X connect 17 1 24 0;
#X connect 17 2 22 0;
#X connect 17 3 6 0;
#X connect 17 4 2 0;
#X connect 17 5 8 0;
#X connect 17 6 12 0;
#X connect 17 7 12 0;
#X connect 18 0 25 0;
#X connect 18 1 24 0;
#X connect 18 2 23 0;
#X connect 18 3 7 0;
#X connect 18 4 3 0;
#X connect 18 5 9 0;
#X connect 18 6 13 0;
#X connect 18 7 13 0;
#X connect 19 0 25 0;
#X connect 19 1 24 0;
#X connect 19 2 12 0;
#X connect 19 3 8 0;
#X connect 19 4 11 0;
#X connect 19 5 10 0;
#X connect 19 6 14 0;
#X connect 19 7 14 0;
#X connect 20 0 25 0;
#X connect 20 1 24 0;
#X connect 20 2 13 0;
#X connect 20 3 9 0;
#X connect 20 4 4 0;
#X connect 20 5 0 0;
#X connect 20 6 15 0;
#X connect 20 7 15 0;
#X connect 21 0 25 0;
#X connect 21 1 24 0;
#X connect 21 2 14 0;
#X connect 21 3 10 0;
#X connect 21 4 5 0;
#X connect 21 5 1 0;
#X connect 21 6 16 0;
#X connect 21 7 16 0;
#X connect 22 0 25 0;
#X connect 22 1 24 0;
#X connect 22 2 15 0;
#X connect 22 3 0 0;
#X connect 22 4 6 0;
#X connect 22 5 2 0;
#X connect 22 6 17 0;
#X connect 22 7 17 0;
#X connect 23 0 25 0;
#X connect 23 1 24 0;
#X connect 23 2 16 0;
#X connect 23 3 1 0;
#X connect 23 4 7 0;
#X connect 23 5 3 0;
#X connect 23 6 18 0;
#X connect 23 7 18 0;
#X connect 24 0 26 0;
#X connect 24 1 26 1;
#X connect 25 0 30 0;
#X connect 27 0 28 0;
#X connect 27 0 12 0;
#X connect 29 0 26 0;
#X connect 29 0 26 1;
#X connect 30 0 26 0;
#X connect 30 0 26 1;
