#N canvas 216 16 1148 831 10;
#X obj 337 197 table cell;
#X obj 337 85 soundfiler;
#X obj 337 38 openpanel;
#X obj 337 19 bng 15 250 50 0 empty empty load 17 7 0 10 -262144 -1
-1;
#X obj 106 479 tabread~ cell;
#X obj 107 446 line~;
#X obj 148 341 f;
#X obj 208 317 / 44.1;
#X obj 190 341 f;
#X obj 369 137 s end;
#X obj 166 293 r end;
#X obj 107 383 pack f f f;
#X msg 107 338 0;
#X obj 107 293 t b b b;
#X obj 107 217 bng 15 250 50 0 empty empty analyze 17 7 0 10 -262144
-1 -1;
#X msg 107 418 \$1 \, \$2 \$3;
#X obj 335 337 timer;
#X obj 335 291 t b b;
#X floatatom 335 377 10 0 0 0 current_slice - -;
#X obj 335 522 print;
#X obj 335 270 bng 15 250 50 0 empty empty empty 17 7 0 10 -262144
-1 -1;
#X obj 428 485 t l;
#X obj 416 379 bng 15 250 50 0 empty empty empty 17 7 0 10 -262144
-1 -1;
#X obj 340 314 bng 15 250 50 0 empty empty empty 17 7 0 10 -262144
-1 -1;
#X obj 335 217 r bonk-cooked;
#X obj 335 242 unpack;
#X obj 137 534 s bonk-cooked;
#X obj 107 254 t b b;
#X obj 335 485 list prepend;
#X msg 337 164 \; cell normalize;
#X obj 105 537 bng 15 250 50 0 empty empty empty 17 7 0 10 -262144
-1 -1;
#X obj 641 694 dac~;
#X obj 367 427 f;
#X obj 335 402 t f b;
#X obj 335 460 +;
#X obj 640 529 tabread~ cell;
#X obj 641 496 line~;
#X obj 641 433 pack f f f;
#X msg 641 468 \$1 \, \$2 \$3;
#X obj 641 332 list-idx;
#X obj 722 146 list-len;
#X obj 722 173 - 1;
#X obj 641 240 t f f;
#X obj 641 311 list;
#X obj 708 392 -;
#X obj 724 287 + 1;
#X obj 751 331 list-idx;
#X obj 751 310 list;
#X obj 641 265 t b f;
#X obj 692 263 t b f;
#X obj 644 55 bng 15 250 50 0 empty empty cut_n_play 17 7 0 10 -262144
-1 -1;
#X floatatom 750 449 5 0 0 0 - - -;
#X obj 708 369 swap;
#X obj 675 593 line~;
#X obj 744 545 del;
#X obj 762 514 - 5;
#X msg 675 565 1 5;
#X msg 744 569 0 5;
#X obj 640 626 *~;
#X obj 644 109 t b b b;
#X obj 337 106 t b f;
#X msg 337 60 read -resize -maxsize 1e+007 \$1 cell;
#X obj 681 77 spigot 1;
#X obj 735 56 tgl 15 0 empty empty loop 17 7 0 10 -262144 -1 -1 1 1
;
#X floatatom 847 188 5 0 0 0 slices_detected - -;
#X msg 388 401 0;
#X obj 585 504 vsl 15 128 0 1 0 0 empty empty volume 0 -9 0 10 -262144
-1 -1 12700 1;
#X obj 640 665 *~ 0.2;
#X floatatom 848 226 5 0 0 0 current_slice_played - -;
#N canvas 0 0 858 661 cyclicurn 0;
#X msg 98 95 clear;
#X obj 50 94 t b b;
#X obj 18 11 inlet;
#X obj 74 7 inlet;
#X obj 19 125 outlet;
#X obj 67 125 outlet;
#N canvas 299 44 668 715 urne 0;
#X obj 218 581 tabread \$0-urn;
#X obj 148 531 tabwrite \$0-urn;
#X obj 218 460 t a a;
#X obj 148 390 - 1;
#X obj 97 254 select 0;
#X obj 148 503 tabread \$0-urn;
#X obj 359 335 outlet;
#X obj 218 609 outlet;
#X obj 286 23 inlet;
#X obj 97 26 inlet;
#X obj 286 77 f \$1;
#X obj 297 47 loadbang;
#X obj 191 74 b;
#X obj 218 437 random;
#N canvas 689 538 264 220 count-down 0;
#X obj 59 66 inlet;
#X obj 127 60 inlet;
#X obj 59 159 outlet;
#X text 123 37 count from?;
#X text 54 35 trigger;
#X obj 59 96 bang;
#X obj 85 131 - 1;
#X obj 59 131 f;
#X connect 0 0 5 0;
#X connect 1 0 7 1;
#X connect 5 0 7 0;
#X connect 6 0 7 1;
#X connect 7 0 6 0;
#X connect 7 0 2 0;
#X restore 97 221 pd count-down;
#X text 355 361 bang if urn empty;
#X text 193 631 urn selection;
#X msg 218 343 seed \$1;
#X obj 218 147 f;
#X obj 345 143 table \$0-urn \$1;
#X obj 148 362 t a b;
#X obj 97 49 route bang seed clear;
#N canvas 549 246 251 276 gate_2 0;
#X obj 68 18 inlet;
#X obj 84 65 inlet;
#X obj 68 212 outlet;
#X obj 100 191 outlet;
#X obj 68 92 f 0;
#X obj 68 118 select 0 1;
#X obj 68 41 b;
#X connect 0 0 6 0;
#X connect 1 0 4 1;
#X connect 4 0 5 0;
#X connect 5 0 2 0;
#X connect 5 1 3 0;
#X connect 6 0 4 0;
#X restore 97 178 pd gate_2;
#N canvas 0 0 450 300 init-urn-table 0;
#N canvas 0 0 450 300 count 0;
#X obj 158 193 + 1;
#X obj 122 158 until;
#X obj 122 194 f;
#X obj 122 101 inlet;
#X msg 167 157 0;
#X obj 122 120 t a b;
#X obj 122 224 outlet;
#X connect 0 0 2 1;
#X connect 1 0 2 0;
#X connect 2 0 0 0;
#X connect 2 0 6 0;
#X connect 3 0 5 0;
#X connect 4 0 2 1;
#X connect 5 0 1 0;
#X connect 5 1 4 0;
#X restore 117 197 pd count;
#X obj 117 218 t a a;
#X obj 117 249 tabwrite \$0-urn;
#X obj 147 173 s \$0-urn;
#X msg 147 148 resize \$1;
#X obj 117 82 t a a;
#X obj 117 49 inlet;
#X obj 147 128 change;
#X obj 147 105 int;
#X connect 0 0 1 0;
#X connect 1 0 2 0;
#X connect 1 1 2 1;
#X connect 4 0 3 0;
#X connect 5 0 0 0;
#X connect 5 1 8 0;
#X connect 6 0 5 0;
#X connect 7 0 4 0;
#X connect 8 0 7 0;
#X restore 344 121 pd init-urn-table;
#X obj 286 97 t b a a a;
#X obj 97 278 t b b;
#X msg 155 153 0;
#X msg 170 176 1;
#X connect 0 0 7 0;
#X connect 2 0 0 0;
#X connect 2 1 1 1;
#X connect 3 0 5 0;
#X connect 3 0 13 1;
#X connect 4 0 25 0;
#X connect 4 1 20 0;
#X connect 5 0 1 0;
#X connect 8 0 10 0;
#X connect 9 0 21 0;
#X connect 10 0 24 0;
#X connect 11 0 10 0;
#X connect 12 0 10 0;
#X connect 13 0 2 0;
#X connect 14 0 4 0;
#X connect 17 0 13 0;
#X connect 18 0 17 0;
#X connect 20 0 3 0;
#X connect 20 1 13 0;
#X connect 21 0 22 0;
#X connect 21 1 18 0;
#X connect 21 2 12 0;
#X connect 22 0 14 0;
#X connect 22 1 6 0;
#X connect 24 0 26 0;
#X connect 24 1 14 1;
#X connect 24 2 13 1;
#X connect 24 3 23 0;
#X connect 25 0 6 0;
#X connect 25 1 27 0;
#X connect 26 0 22 1;
#X connect 27 0 22 1;
#X restore 19 57 pd urne;
#X connect 0 0 6 0;
#X connect 1 0 6 0;
#X connect 1 1 0 0;
#X connect 2 0 6 0;
#X connect 3 0 6 1;
#X connect 6 0 4 0;
#X connect 6 1 5 0;
#X connect 6 1 1 0;
#X restore 641 208 pd cyclicurn;
#X obj 105 511 bonk~;
#X obj 641 380 * 44.1;
#X obj 751 390 * 44.1;
#X floatatom 866 102 5 0 0 0 - - -;
#X obj 798 537 del 5;
#X connect 1 0 60 0;
#X connect 2 0 61 0;
#X connect 3 0 2 0;
#X connect 4 0 70 0;
#X connect 5 0 4 0;
#X connect 6 0 11 1;
#X connect 7 0 8 1;
#X connect 8 0 11 2;
#X connect 10 0 6 1;
#X connect 10 0 7 0;
#X connect 11 0 15 0;
#X connect 12 0 11 0;
#X connect 13 0 12 0;
#X connect 13 1 6 0;
#X connect 13 2 8 0;
#X connect 14 0 27 0;
#X connect 15 0 5 0;
#X connect 16 0 18 0;
#X connect 17 0 16 0;
#X connect 17 1 16 1;
#X connect 18 0 33 0;
#X connect 20 0 17 0;
#X connect 21 0 28 1;
#X connect 22 0 28 1;
#X connect 22 0 65 0;
#X connect 23 0 16 0;
#X connect 23 0 22 0;
#X connect 24 0 25 0;
#X connect 25 0 20 0;
#X connect 27 0 13 0;
#X connect 27 1 23 0;
#X connect 28 0 19 0;
#X connect 28 0 21 0;
#X connect 28 0 40 0;
#X connect 28 0 47 1;
#X connect 28 0 43 1;
#X connect 32 0 34 1;
#X connect 33 0 34 0;
#X connect 33 1 32 0;
#X connect 34 0 32 1;
#X connect 34 0 28 0;
#X connect 35 0 58 0;
#X connect 36 0 35 0;
#X connect 37 0 38 0;
#X connect 38 0 36 0;
#X connect 39 0 52 0;
#X connect 39 0 71 0;
#X connect 40 0 41 0;
#X connect 40 0 64 0;
#X connect 41 0 69 1;
#X connect 42 0 48 0;
#X connect 42 1 49 0;
#X connect 43 0 39 0;
#X connect 44 0 37 2;
#X connect 44 0 55 0;
#X connect 45 0 46 1;
#X connect 46 0 52 1;
#X connect 46 0 72 0;
#X connect 47 0 46 0;
#X connect 48 0 43 0;
#X connect 48 1 39 1;
#X connect 49 0 47 0;
#X connect 49 1 45 0;
#X connect 50 0 59 0;
#X connect 52 0 44 0;
#X connect 52 1 44 1;
#X connect 53 0 58 1;
#X connect 54 0 57 0;
#X connect 54 0 74 0;
#X connect 55 0 54 1;
#X connect 56 0 53 0;
#X connect 57 0 53 0;
#X connect 58 0 67 0;
#X connect 59 0 54 0;
#X connect 59 1 69 0;
#X connect 59 2 56 0;
#X connect 60 0 29 0;
#X connect 60 1 9 0;
#X connect 61 0 1 0;
#X connect 62 0 50 0;
#X connect 63 0 62 1;
#X connect 65 0 32 1;
#X connect 66 0 67 1;
#X connect 67 0 31 0;
#X connect 67 0 31 1;
#X connect 69 0 42 0;
#X connect 69 0 68 0;
#X connect 70 0 30 0;
#X connect 70 1 26 0;
#X connect 71 0 37 0;
#X connect 72 0 37 1;
#X connect 73 0 69 1;
#X connect 74 0 62 0;
