#N canvas 105 44 683 718 12;
#X floatatom 24 62 4 0 800 0 - - -;
#X obj 127 525 *~;
#X floatatom 21 210 0 0 20000 0 - - -;
#X obj 127 427 +~;
#X obj 126 379 samphold~;
#X obj 127 403 *~;
#X obj 289 382 r~ phase;
#X obj 373 241 s~ phase;
#X obj 214 380 r~ phase;
#X obj 162 404 r~ phase;
#X obj 24 114 s chunk-size;
#X floatatom 373 58 0 0 0 0 - - -;
#X obj 385 88 r chunk-size;
#X obj 385 119 t b f;
#X obj 289 406 -~ 0.5;
#X obj 289 430 *~ 0.5;
#X obj 289 453 cos~;
#X obj 251 635 output~;
#X obj 373 215 phasor~;
#N canvas 550 276 660 275 table 1;
#N canvas 0 0 450 300 (subpatch) 0;
#X array table23 441000 float 0;
#X coords 0 1.02 440999 -1.02 200 130 1;
#X restore 355 37 graph;
#X obj 31 116 soundfiler;
#X obj 169 124 bng 15 250 50 0 empty empty empty 17 7 0 10 -262144
-1 -1;
#X obj 169 156 openpanel;
#X msg 329 207 \; table23 normalize;
#X obj 122 47 bng 15 250 50 0 empty empty empty 17 7 0 10 -262144 -1
-1;
#X msg 31 84 read Metal-Loop-2.wav table23;
#X obj 169 226 soundfiler;
#X msg 169 194 read \$1 table23;
#X obj 31 43 loadbang;
#X text 145 45 <-reload;
#X connect 2 0 3 0;
#X connect 3 0 8 0;
#X connect 5 0 6 0;
#X connect 6 0 1 0;
#X connect 8 0 7 0;
#X connect 9 0 6 0;
#X restore 253 687 pd table;
#X obj 21 382 s~ read-pt;
#X obj 165 427 r~ read-pt;
#X obj 461 271 wrap~;
#X obj 461 296 s~ phase2;
#X obj 252 579 +~;
#X obj 24 88 * 0.001;
#X obj 21 326 phasor~;
#X obj 127 451 *~ 44100;
#X obj 127 501 tabread4~ table23;
#X obj 126 354 r chunk-size;
#X obj 126 477 +~ 1;
#X floatatom 381 185 5 0 0 0 - - -;
#X obj 31 268 s precession;
#X obj 498 118 t b f;
#X obj 498 89 r precession;
#X obj 21 238 * 0.01;
#X obj 367 523 *~;
#X obj 367 425 +~;
#X obj 366 377 samphold~;
#X obj 367 401 *~;
#X obj 538 425 *~ 0.5;
#X obj 538 448 cos~;
#X obj 405 425 r~ read-pt;
#X obj 367 449 *~ 44100;
#X obj 367 499 tabread4~ table23;
#X obj 366 352 r chunk-size;
#X obj 366 475 +~ 1;
#X obj 454 378 r~ phase2;
#X obj 405 401 r~ phase2;
#X obj 538 377 r~ phase2;
#X obj 24 6 loadbang;
#X msg 24 34 25;
#X floatatom 181 239 8 0 10000 0 - - -;
#X obj 181 266 * 0.001;
#X obj 373 160 expr (pow(2 \, $f1/120)-$f3)/$f2;
#X obj 181 294 t b f;
#X obj 181 188 loadbang;
#X text 263 256 (msec);
#X obj 21 354 *~;
#X obj 21 296 /;
#X msg 56 622 start;
#X msg 65 647 stop;
#X obj 49 682 writesf~ 1;
#X obj 252 603 hip~ 5;
#X obj 460 245 +~ 0.5;
#X obj 538 401 -~ 0.5;
#X text 409 58 <- transposition \, halftones/10;
#X text 59 62 <- chunk size (msec);
#X text 115 114 <- chunk size (secs);
#X text 53 210 <- wave speed;
#X text 241 241 <- loop length;
#X msg 49 595 open shakey.wav;
#X obj 262 11 loadbang;
#X obj 287 39 -24;
#X obj 26 145 loadbang;
#X obj 23 171 109;
#X msg 181 212 767;
#X connect 0 0 25 0;
#X connect 1 0 24 0;
#X connect 2 0 35 0;
#X connect 3 0 27 0;
#X connect 4 0 5 0;
#X connect 5 0 3 0;
#X connect 6 0 14 0;
#X connect 8 0 4 1;
#X connect 9 0 5 1;
#X connect 11 0 54 0;
#X connect 12 0 13 0;
#X connect 13 0 54 0;
#X connect 13 1 54 1;
#X connect 14 0 15 0;
#X connect 15 0 16 0;
#X connect 16 0 1 1;
#X connect 18 0 7 0;
#X connect 18 0 64 0;
#X connect 21 0 3 1;
#X connect 22 0 23 0;
#X connect 24 0 63 0;
#X connect 25 0 10 0;
#X connect 26 0 58 0;
#X connect 27 0 30 0;
#X connect 28 0 1 0;
#X connect 29 0 4 0;
#X connect 30 0 28 0;
#X connect 33 0 54 0;
#X connect 33 1 54 2;
#X connect 34 0 33 0;
#X connect 35 0 32 0;
#X connect 35 0 59 0;
#X connect 36 0 24 1;
#X connect 37 0 43 0;
#X connect 38 0 39 0;
#X connect 39 0 37 0;
#X connect 40 0 41 0;
#X connect 41 0 36 1;
#X connect 42 0 37 1;
#X connect 43 0 46 0;
#X connect 44 0 36 0;
#X connect 45 0 38 0;
#X connect 46 0 44 0;
#X connect 47 0 38 1;
#X connect 48 0 39 1;
#X connect 49 0 65 0;
#X connect 50 0 51 0;
#X connect 51 0 0 0;
#X connect 52 0 53 0;
#X connect 53 0 55 0;
#X connect 53 0 58 1;
#X connect 54 0 18 0;
#X connect 54 0 31 0;
#X connect 55 0 59 0;
#X connect 55 1 59 1;
#X connect 56 0 76 0;
#X connect 58 0 20 0;
#X connect 59 0 26 0;
#X connect 60 0 62 0;
#X connect 61 0 62 0;
#X connect 63 0 17 0;
#X connect 63 0 17 1;
#X connect 63 0 62 0;
#X connect 64 0 22 0;
#X connect 65 0 40 0;
#X connect 71 0 62 0;
#X connect 72 0 73 0;
#X connect 73 0 11 0;
#X connect 74 0 75 0;
#X connect 75 0 2 0;
#X connect 76 0 52 0;
