#N canvas 497 76 420 327 10;
#X text 281 6 \$1 global key on/off;
#X obj 96 21 keyname;
#X obj 191 19 r \$1;
#X obj 158 57 spigot;
#X obj 96 58 sel 0;
#X msg 96 95 set 0;
#X obj 158 158 change;
#X msg 158 126 1;
#X text 281 36 \$3 key to match;
#X obj 158 94 sel \$3;
#X obj 158 192 bng 15 250 50 0 empty empty empty 17 7 0 10 -262144
-1 -1;
#X floatatom 39 61 5 0 0 0 - - -;
#X text 281 21 \$2 var name prefix;
#X obj 219 135 loadbang;
#X obj 219 159 symbol \$2;
#X obj 219 183 makefilename %s-in;
#X obj 158 221 symbol;
#X obj 158 246 pack s;
#X msg 158 276 \; \$1 1;
#X connect 1 0 4 0;
#X connect 1 0 11 0;
#X connect 1 1 3 0;
#X connect 2 0 3 1;
#X connect 3 0 9 0;
#X connect 4 0 5 0;
#X connect 5 0 6 0;
#X connect 6 0 10 0;
#X connect 7 0 6 0;
#X connect 9 0 7 0;
#X connect 10 0 16 0;
#X connect 13 0 14 0;
#X connect 14 0 15 0;
#X connect 15 0 16 1;
#X connect 16 0 17 0;
#X connect 17 0 18 0;
