#N canvas 972 59 595 446 10;
#N canvas 322 112 1045 685 beatmangle 1;
#X obj 7 7 cnv 15 305 30 empty empty beatmangle 5 16 1 32 -261682 -66577
0;
#X obj 277 44 bng 15 250 50 0 empty empty empty 17 7 0 10 -262144 -1
-1;
#X obj 13 286 hsl 295 8 0 106907 0 0 empty empty empty -2 -8 0 10 -262144
-1 -1 17739 1;
#X obj 443 611 outlet~;
#X obj 496 610 outlet~;
#X obj 389 76 openpanel;
#X obj 389 141 soundfiler;
#X msg 327 253 range 0 \$1;
#X obj 443 519 *~;
#X obj 389 163 s \$0-sample_count;
#X obj 327 229 r \$0-sample_count;
#X obj 327 207 r \$0-sample_position;
#X obj 458 494 r \$0-sample_count;
#X obj 443 583 tabread4~ \$0-sampleloop;
#N canvas 0 22 450 300 (subpatch) 0;
#X array \$0-sampleloop 106907 float 2;
#X coords 0 1 106907 -1 300 200 1;
#X restore 10 84 graph;
#X obj 389 98 pack s \$0;
#X msg 389 120 read -resize \$1 \$2-sampleloop;
#X obj 294 503 snapshot~;
#X obj 294 526 s \$0-sample_position;
#X obj 294 479 metro 100;
#X obj 294 451 r \$0-sample_count;
#X obj 607 -37 r \$0-sample_count;
#X obj 607 -13 t f f;
#X obj 607 86 /;
#N canvas 530 461 271 159 len2freq 0;
#X obj 18 9 inlet;
#X obj 18 33 t b f;
#X msg 18 61 1;
#X obj 30 96 /;
#X obj 30 121 outlet;
#X text 69 6 Calculate the frequency required in order to play a single
loop at the correct tempo.;
#X connect 0 0 1 0;
#X connect 1 0 2 0;
#X connect 1 1 3 1;
#X connect 2 0 3 0;
#X connect 3 0 4 0;
#X restore 586 127 pd len2freq;
#X obj 653 247 t b f;
#X text 637 86 Calculate the length of the sample in seconds;
#X text 688 30 <- Change beat sample rate here;
#X obj 653 271 metro;
#X text 694 272 Metro will bang every 8th note;
#X obj 653 339 sel 0;
#X text 710 318 50% change of changing the loop settings;
#N canvas 15 69 621 386 randloop 0;
#X obj 20 15 inlet~;
#X obj 94 19 inlet;
#X msg 128 102 2;
#X msg 163 102 4;
#X msg 199 102 8;
#X msg 236 102 16;
#X msg 271 102 32;
#X msg 305 102 64;
#X obj 21 182 *~;
#X obj 21 208 wrap~;
#X obj 21 240 /~;
#X obj 21 273 outlet~;
#X text 165 16 Make the phasor loop over a smaller \, randomly chosen
\, range.;
#X msg 340 102 128;
#X msg 177 229 2;
#X msg 214 230 0;
#X obj 177 273 outlet;
#X text 246 228 This is the chance that the next 8th note will have
different settings: 50% for 2nd to 32nd notes \, 100% for 64th or 128th
note loops. This lowers the chance of having prolonged periods of 64th/128th
notes.;
#X obj 94 47 random 8;
#X obj 94 74 route 0 1 2 3 4 5 6 7;
#X msg 94 102 1;
#X connect 0 0 8 0;
#X connect 1 0 18 0;
#X connect 2 0 8 1;
#X connect 2 0 10 1;
#X connect 2 0 14 0;
#X connect 3 0 8 1;
#X connect 3 0 10 1;
#X connect 3 0 14 0;
#X connect 4 0 8 1;
#X connect 4 0 10 1;
#X connect 4 0 14 0;
#X connect 5 0 8 1;
#X connect 5 0 10 1;
#X connect 5 0 14 0;
#X connect 6 0 8 1;
#X connect 6 0 10 1;
#X connect 6 0 14 0;
#X connect 7 0 8 1;
#X connect 7 0 10 1;
#X connect 7 0 15 0;
#X connect 8 0 9 0;
#X connect 9 0 10 0;
#X connect 10 0 11 0;
#X connect 13 0 8 1;
#X connect 13 0 10 1;
#X connect 13 0 15 0;
#X connect 14 0 16 0;
#X connect 15 0 16 0;
#X connect 18 0 19 0;
#X connect 19 0 20 0;
#X connect 19 1 2 0;
#X connect 19 2 3 0;
#X connect 19 3 4 0;
#X connect 19 4 5 0;
#X connect 19 5 6 0;
#X connect 19 6 7 0;
#X connect 19 7 13 0;
#X connect 20 0 8 1;
#X connect 20 0 10 1;
#X connect 20 0 14 0;
#X restore 456 348 pd randloop;
#N canvas 1109 0 519 280 randoffset 0;
#X obj 23 12 inlet;
#X obj 81 127 outlet;
#X text 159 51 Randomize the playhead position to any 8th note by generating
an offset. This will be added to the phasor and wrapped to the valid
loop range.;
#X obj 96 14 inlet;
#X obj 103 44 * 8;
#X obj 23 63 random;
#X obj 81 99 /;
#X connect 0 0 5 0;
#X connect 3 0 4 0;
#X connect 4 0 5 1;
#X connect 4 0 6 1;
#X connect 5 0 6 0;
#X connect 6 0 1 0;
#X restore 653 368 pd randoffset;
#X obj 456 381 +~;
#X obj 456 420 wrap~;
#X obj 443 313 phasor~;
#X text 743 369 Randomize playhead position;
#X text 490 364 Randomize loop settings;
#X text 201 543 Update the playhead visual indicator;
#X text 103 42 Click here to load beat loop;
#X floatatom 277 64 5 1 300 0 - - -;
#X obj 329 -8 loadbang;
#X msg 330 16 1;
#X obj 322 107 s \$0-bars;
#X obj 745 131 r \$0-bars;
#X obj 653 224 *;
#X obj 706 203 /;
#X obj 694 155 t b b f;
#X text 139 63 Number of bars in loop;
#X obj 634 57 t b f;
#X msg 634 11 44100;
#X floatatom 634 32 8 0 0 0 - - -;
#X text 5 307 [beatmangle / Colin Barry / www.loomer.co.uk colin@loomer.co.uk]
;
#X obj 653 316 random 2;
#X floatatom 767 169 5 0 0 0 - - -;
#X obj 442 462 tof/crossfade~;
#X obj 685 588 line~;
#X obj 686 518 tgl 15 0 empty empty empty 17 7 0 10 -262144 -1 -1 0
1;
#X obj 691 414 key;
#X obj 688 445 == 39;
#X obj 738 440 == 39;
#X obj 739 411 keyup;
#X floatatom 835 549 5 0 0 0 - - -;
#X obj 842 524 bng 15 250 50 0 empty empty empty 17 7 0 10 -262144
-1 -1;
#X obj 790 528 bng 15 250 50 0 empty empty empty 17 7 0 10 -262144
-1 -1;
#X msg 698 564 \$1 1;
#X msg 694 179 250;
#X text 789 442 key = apostrophe;
#X obj 526 531 vline~;
#X obj 450 555 *~;
#X obj 592 447 bng 15 250 50 0 empty empty empty 17 7 0 10 -262144
-1 -1;
#X msg 583 488 0 5 \, 1 5 5;
#X obj 624 523 del 5;
#X obj 678 482 t b b;
#X connect 1 0 5 0;
#X connect 5 0 15 0;
#X connect 6 0 9 0;
#X connect 7 0 2 0;
#X connect 8 0 13 0;
#X connect 8 0 17 0;
#X connect 10 0 7 0;
#X connect 11 0 2 0;
#X connect 12 0 8 1;
#X connect 13 0 4 0;
#X connect 13 0 3 0;
#X connect 15 0 16 0;
#X connect 16 0 6 0;
#X connect 17 0 18 0;
#X connect 19 0 17 0;
#X connect 20 0 19 0;
#X connect 21 0 22 0;
#X connect 22 0 23 0;
#X connect 22 1 51 0;
#X connect 23 0 24 0;
#X connect 23 0 46 0;
#X connect 24 0 36 0;
#X connect 25 0 28 0;
#X connect 25 1 28 1;
#X connect 28 0 54 0;
#X connect 30 0 33 0;
#X connect 30 0 32 1;
#X connect 32 0 34 0;
#X connect 32 1 54 1;
#X connect 33 0 34 1;
#X connect 34 0 35 0;
#X connect 35 0 56 2;
#X connect 36 0 32 0;
#X connect 36 0 56 0;
#X connect 41 0 44 0;
#X connect 42 0 43 0;
#X connect 43 0 41 0;
#X connect 45 0 48 0;
#X connect 45 0 33 1;
#X connect 46 0 25 0;
#X connect 47 0 46 1;
#X connect 48 0 46 0;
#X connect 48 1 67 0;
#X connect 48 2 47 1;
#X connect 50 0 23 0;
#X connect 50 1 23 1;
#X connect 51 0 52 0;
#X connect 52 0 50 0;
#X connect 54 0 30 0;
#X connect 56 0 8 0;
#X connect 57 0 56 4;
#X connect 58 0 66 0;
#X connect 59 0 60 0;
#X connect 60 0 66 0;
#X connect 60 0 65 0;
#X connect 61 0 64 0;
#X connect 62 0 61 0;
#X connect 63 0 66 0;
#X connect 64 0 63 0;
#X connect 66 0 57 0;
#X connect 67 0 47 0;
#X connect 69 0 70 1;
#X connect 71 0 72 0;
#X connect 72 0 69 0;
#X connect 72 0 73 0;
#X coords 0 -1 1 1 310 295 2 5 5;
#X restore -79 7 pd beatmangle;
#X text -78 424 [colin@loomer.co.uk];
#X obj -79 315 mix4.ld;
#X obj 152 342 writesf.ld;
#X connect 0 0 2 0;
#X connect 0 0 3 0;
