#N canvas 290 143 756 569 10;
#X obj -23 -71 tgl 15 1 empty empty empty 17 7 0 10 -262144 -1 -1 1
1;
#X obj -18 4 metro 3400;
#X obj 53 4 / 2;
#X obj -18 27 s bng;
#X obj 213 384 dac~;
#X obj 53 30 s time;
#X obj 46 -29 hsl 128 15 100 10000 1 1 empty empty empty -2 -8 0 10
-262144 -1 -1 12700 1;
#X msg 517 -54 \; pd dsp 1;
#X msg 11 -55 bang;
#X floatatom 85 -3 7 0 0 1 ms - -;
#X obj 388 108 s fmspeed;
#X obj 391 59 hsl 128 15 0.01 10 1 1 empty empty empty -2 -8 0 10 -262144
-1 -1 9741 1;
#X floatatom 404 82 5 0 0 0 - - -;
#X msg 364 -3 0.5;
#X msg 401 -4 1;
#X msg 310 -2 0.33333;
#X msg 435 -4 1.5;
#X msg 469 -3 2;
#X msg 503 -2 3;
#X msg 273 0 0.25;
#X msg 228 9 0.125;
#X msg 177 19 0.0625;
#X msg 534 2 7;
#X msg 546 27 10;
#X obj -2 176 hsl 128 15 0.01 1000 1 1 empty empty empty -2 -8 0 10
-262144 -1 -1 5300 1;
#X obj -5 225 s noiseAmount;
#X floatatom 12 203 5 0 0 0 - - -;
#X obj 74 309 binChan 523;
#X obj 487 224 hsl 128 15 0.01 100 1 1 empty empty empty -2 -8 0 10
-262144 -1 -1 10744 1;
#X floatatom 500 247 5 0 0 1 hz - -;
#X msg 363 145 0.5;
#X msg 400 144 1;
#X msg 309 146 0.33333;
#X msg 434 144 1.5;
#X msg 468 145 2;
#X msg 502 146 3;
#X msg 272 148 0.25;
#X msg 227 157 0.125;
#X msg 176 167 0.0625;
#X msg 533 150 7;
#X msg 545 175 10;
#X obj 484 273 s noiseSpeed;
#X obj -1 309 binChan 440;
#X obj 147 308 binChan 587.33;
#X obj 239 308 binChan 659.26;
#X obj 335 308 binChan 784;
#X obj 410 308 binChan 220;
#X obj 484 307 binChan 261.63;
#X msg 139 47 0.03125;
#X msg 554 200 50;
#X connect 0 0 1 0;
#X connect 1 0 3 0;
#X connect 2 0 5 0;
#X connect 6 0 2 0;
#X connect 6 0 1 1;
#X connect 6 0 9 0;
#X connect 8 0 3 0;
#X connect 11 0 10 0;
#X connect 11 0 12 0;
#X connect 13 0 11 0;
#X connect 14 0 11 0;
#X connect 15 0 11 0;
#X connect 16 0 11 0;
#X connect 17 0 11 0;
#X connect 18 0 11 0;
#X connect 19 0 11 0;
#X connect 20 0 11 0;
#X connect 21 0 11 0;
#X connect 22 0 11 0;
#X connect 23 0 11 0;
#X connect 24 0 25 0;
#X connect 24 0 26 0;
#X connect 27 0 4 1;
#X connect 28 0 29 0;
#X connect 28 0 41 0;
#X connect 30 0 28 0;
#X connect 31 0 28 0;
#X connect 32 0 28 0;
#X connect 33 0 28 0;
#X connect 34 0 28 0;
#X connect 35 0 28 0;
#X connect 36 0 28 0;
#X connect 37 0 28 0;
#X connect 38 0 28 0;
#X connect 39 0 28 0;
#X connect 40 0 28 0;
#X connect 42 0 4 0;
#X connect 43 0 4 0;
#X connect 44 0 4 1;
#X connect 45 0 4 0;
#X connect 46 0 4 1;
#X connect 47 0 4 0;
#X connect 48 0 11 0;
#X connect 49 0 28 0;
