#N canvas 651 87 277 569 10;
#X obj 81 222 line~;
#X obj 66 246 *~;
#X obj 66 332 *~;
#X obj 81 198 pack 0 1700;
#X obj 66 455 *~;
#X obj 80 356 r bng;
#N canvas 337 133 789 411 noise-volume 0;
#X obj 533 354 outlet~;
#X obj 380 209 random 10000;
#X msg 392 110 seed \$1;
#X obj 392 88 f \$0;
#X obj 463 8 loadbang;
#X obj 358 59 t b b;
#X obj 295 120 until;
#X obj 302 154 f;
#X obj 333 157 + 1;
#X obj 301 202 t f b;
#X obj 380 262 + 0.125;
#X obj 380 236 / 50000;
#X obj 281 316 pack f f;
#X obj 288 354 s \$0-volume;
#X msg 349 127 0;
#X msg 461 30 bang;
#X obj 533 251 tabread \$0-volume;
#X obj 508 166 metro 10;
#X msg 295 92 100;
#X obj 77 147 table \$0-volume 100;
#X obj 510 198 f;
#X obj 538 205 + 1;
#X obj 565 213 mod 100;
#X obj 535 296 pack 0 10;
#X obj 537 322 line~;
#X connect 1 0 11 0;
#X connect 2 0 1 0;
#X connect 3 0 2 0;
#X connect 4 0 15 0;
#X connect 5 0 18 0;
#X connect 5 1 3 0;
#X connect 5 1 14 0;
#X connect 6 0 7 0;
#X connect 7 0 8 0;
#X connect 7 0 9 0;
#X connect 8 0 7 1;
#X connect 9 0 12 0;
#X connect 9 1 1 0;
#X connect 10 0 12 1;
#X connect 11 0 10 0;
#X connect 12 0 13 0;
#X connect 14 0 7 1;
#X connect 15 0 5 0;
#X connect 15 0 17 0;
#X connect 16 0 23 0;
#X connect 17 0 20 0;
#X connect 18 0 6 0;
#X connect 20 0 21 0;
#X connect 20 0 16 0;
#X connect 21 0 22 0;
#X connect 22 0 20 1;
#X connect 23 0 24 0;
#X connect 24 0 0 0;
#X restore 88 291 pd noise-volume;
#X obj 66 484 outlet~;
#X obj 81 130 r bng;
#X obj 81 152 random \$0;
#X obj 83 175 mod 2;
#X obj 67 12 sig~ \$1;
#N canvas 394 94 450 300 AM 0;
#X obj 99 98 inlet hz;
#X obj 98 216 outlet~;
#X obj 98 187 osc~;
#X obj 99 142 pack 0 850;
#X obj 156 120 r time;
#X obj 99 165 line~;
#X connect 0 0 3 0;
#X connect 2 0 1 0;
#X connect 3 0 5 0;
#X connect 4 0 3 1;
#X connect 5 0 2 0;
#X restore 80 431 pd AM;
#X obj 80 380 random \$0;
#X obj 80 406 mod 8;
#X obj 144 172 r time;
#X obj 66 95 osc~;
#N canvas 437 51 741 658 mod 0;
#X obj 171 480 outlet~;
#X obj 171 457 *~;
#X obj 148 411 *~;
#X obj 209 328 pack 0 10000;
#X obj 209 238 metro 10000;
#X obj 209 350 line~;
#X obj 210 215 loadbang;
#X obj 209 260 random \$0;
#X obj 209 285 mod 50;
#X obj 82 259 osc~ \$1;
#X obj 84 171 r fmspeed;
#X obj 81 233 expr $f1*$f2;
#X obj 82 207 pack f \$1;
#X obj 343 382 *~;
#X obj 336 271 r noiseAmount;
#X obj 341 327 line~;
#X msg 339 298 \$1 20;
#X obj 632 352 random 10000;
#X msg 644 253 seed \$1;
#X obj 644 231 f \$0;
#X obj 610 202 t b b;
#X obj 547 263 until;
#X obj 554 297 f;
#X obj 585 300 + 1;
#X obj 553 345 t f b;
#X obj 533 459 pack f f;
#X msg 601 270 0;
#X obj 302 171 table \$0-fmnoise 259;
#X obj 632 379 / 5000;
#X obj 632 405 - 1;
#X msg 547 235 259;
#X msg 611 178 bang;
#X obj 540 497 s \$0-fmnoise;
#X obj 612 157 loadbang;
#X obj 380 351 tabosc4~ \$0-fmnoise;
#X obj 381 324 r noiseSpeed;
#X connect 1 0 0 0;
#X connect 2 0 1 0;
#X connect 3 0 5 0;
#X connect 4 0 7 0;
#X connect 5 0 2 1;
#X connect 5 0 1 1;
#X connect 6 0 4 0;
#X connect 7 0 8 0;
#X connect 8 0 3 0;
#X connect 9 0 2 0;
#X connect 10 0 12 0;
#X connect 11 0 9 0;
#X connect 12 0 11 0;
#X connect 13 0 1 0;
#X connect 14 0 16 0;
#X connect 15 0 13 0;
#X connect 16 0 15 0;
#X connect 17 0 28 0;
#X connect 18 0 17 0;
#X connect 19 0 18 0;
#X connect 20 0 30 0;
#X connect 20 1 19 0;
#X connect 20 1 26 0;
#X connect 21 0 22 0;
#X connect 22 0 23 0;
#X connect 22 0 24 0;
#X connect 23 0 22 1;
#X connect 24 0 25 0;
#X connect 24 1 17 0;
#X connect 25 0 32 0;
#X connect 26 0 22 1;
#X connect 28 0 29 0;
#X connect 29 0 25 1;
#X connect 30 0 21 0;
#X connect 31 0 20 0;
#X connect 33 0 31 0;
#X connect 34 0 13 1;
#X connect 35 0 34 0;
#X restore 82 51 pd mod;
#X obj 67 74 +~;
#X connect 0 0 1 1;
#X connect 1 0 2 0;
#X connect 2 0 4 0;
#X connect 3 0 0 0;
#X connect 4 0 7 0;
#X connect 5 0 13 0;
#X connect 6 0 2 1;
#X connect 8 0 9 0;
#X connect 9 0 10 0;
#X connect 10 0 3 0;
#X connect 11 0 18 0;
#X connect 12 0 4 1;
#X connect 13 0 14 0;
#X connect 14 0 12 0;
#X connect 15 0 3 1;
#X connect 16 0 1 0;
#X connect 17 0 18 1;
#X connect 18 0 16 0;
