#N canvas 612 77 450 363 10;
#N canvas 0 0 723 638 bitcrusher~ 0;
#X obj 242 265 outlet~;
#X obj 124 -251 inlet~;
#X obj 204 64 wrap~;
#X obj 173 107 -~;
#X obj 175 26 *~ 65536;
#X obj 173 129 /~ 65536;
#X obj 235 161 samphold~;
#N canvas 0 22 466 316 rh_scalelog 0;
#X obj 20 155 exp;
#X obj 20 107 *;
#X obj 20 130 +;
#X obj 98 87 log;
#X obj 194 84 log;
#X obj 123 123 t b f;
#X obj 123 145 -;
#X obj 20 183 outlet;
#X obj 20 19 inlet;
#X obj 98 23 inlet;
#X obj 194 24 inlet;
#X connect 0 0 7 0;
#X connect 1 0 2 0;
#X connect 2 0 0 0;
#X connect 3 0 2 1;
#X connect 3 0 5 0;
#X connect 4 0 6 0;
#X connect 5 0 6 0;
#X connect 5 1 6 1;
#X connect 6 0 1 1;
#X connect 8 0 1 0;
#X connect 9 0 3 0;
#X connect 10 0 4 0;
#X restore 253 -56 pd rh_scalelog;
#X msg 371 -89 65536;
#X msg 325 -89 1;
#X obj 410 -31 phasor~ 4400;
#N canvas 0 22 466 316 rh_scalelog 0;
#X obj 20 155 exp;
#X obj 20 107 *;
#X obj 20 130 +;
#X obj 98 87 log;
#X obj 194 84 log;
#X obj 123 123 t b f;
#X obj 123 145 -;
#X obj 20 183 outlet;
#X obj 20 19 inlet;
#X obj 98 23 inlet;
#X obj 194 24 inlet;
#X connect 0 0 7 0;
#X connect 1 0 2 0;
#X connect 2 0 0 0;
#X connect 3 0 2 1;
#X connect 3 0 5 0;
#X connect 4 0 6 0;
#X connect 5 0 6 0;
#X connect 5 1 6 1;
#X connect 6 0 1 1;
#X connect 8 0 1 0;
#X connect 9 0 3 0;
#X connect 10 0 4 0;
#X restore 408 -57 pd rh_scalelog;
#X msg 526 -90 44009;
#X msg 478 -91 512;
#X obj 254 -143 expr pow($f1 \, 4);
#X obj 323 -117 loadbang;
#X obj 480 -118 loadbang;
#X obj 248 -234 inlet bitdepth;
#X obj 403 -212 inlet samplerate;
#X connect 1 0 4 0;
#X connect 2 0 3 1;
#X connect 3 0 5 0;
#X connect 4 0 2 0;
#X connect 4 0 3 0;
#X connect 5 0 6 0;
#X connect 6 0 0 0;
#X connect 7 0 4 1;
#X connect 7 0 5 1;
#X connect 8 0 7 2;
#X connect 9 0 7 1;
#X connect 10 0 6 1;
#X connect 11 0 10 0;
#X connect 12 0 11 2;
#X connect 13 0 11 1;
#X connect 14 0 7 0;
#X connect 15 0 9 0;
#X connect 15 0 8 0;
#X connect 16 0 13 0;
#X connect 16 0 12 0;
#X connect 17 0 14 0;
#X connect 18 0 11 0;
#X restore 11 243 pd bitcrusher~;
#N canvas 0 0 723 638 bitcrusher~ 0;
#X obj 242 265 outlet~;
#X obj 124 -251 inlet~;
#X obj 204 64 wrap~;
#X obj 173 107 -~;
#X obj 175 26 *~ 65536;
#X obj 173 129 /~ 65536;
#X obj 235 161 samphold~;
#N canvas 0 22 466 316 rh_scalelog 0;
#X obj 20 155 exp;
#X obj 20 107 *;
#X obj 20 130 +;
#X obj 98 87 log;
#X obj 194 84 log;
#X obj 123 123 t b f;
#X obj 123 145 -;
#X obj 20 183 outlet;
#X obj 20 19 inlet;
#X obj 98 23 inlet;
#X obj 194 24 inlet;
#X connect 0 0 7 0;
#X connect 1 0 2 0;
#X connect 2 0 0 0;
#X connect 3 0 2 1;
#X connect 3 0 5 0;
#X connect 4 0 6 0;
#X connect 5 0 6 0;
#X connect 5 1 6 1;
#X connect 6 0 1 1;
#X connect 8 0 1 0;
#X connect 9 0 3 0;
#X connect 10 0 4 0;
#X restore 253 -56 pd rh_scalelog;
#X msg 371 -89 65536;
#X msg 325 -89 1;
#X obj 410 -31 phasor~ 4400;
#N canvas 0 22 466 316 rh_scalelog 0;
#X obj 20 155 exp;
#X obj 20 107 *;
#X obj 20 130 +;
#X obj 98 87 log;
#X obj 194 84 log;
#X obj 123 123 t b f;
#X obj 123 145 -;
#X obj 20 183 outlet;
#X obj 20 19 inlet;
#X obj 98 23 inlet;
#X obj 194 24 inlet;
#X connect 0 0 7 0;
#X connect 1 0 2 0;
#X connect 2 0 0 0;
#X connect 3 0 2 1;
#X connect 3 0 5 0;
#X connect 4 0 6 0;
#X connect 5 0 6 0;
#X connect 5 1 6 1;
#X connect 6 0 1 1;
#X connect 8 0 1 0;
#X connect 9 0 3 0;
#X connect 10 0 4 0;
#X restore 408 -57 pd rh_scalelog;
#X msg 526 -90 44009;
#X msg 478 -91 512;
#X obj 254 -143 expr pow($f1 \, 4);
#X obj 323 -117 loadbang;
#X obj 480 -118 loadbang;
#X obj 248 -234 inlet bitdepth;
#X obj 403 -212 inlet samplerate;
#X connect 1 0 4 0;
#X connect 2 0 3 1;
#X connect 3 0 5 0;
#X connect 4 0 2 0;
#X connect 4 0 3 0;
#X connect 5 0 6 0;
#X connect 6 0 0 0;
#X connect 7 0 4 1;
#X connect 7 0 5 1;
#X connect 8 0 7 2;
#X connect 9 0 7 1;
#X connect 10 0 6 1;
#X connect 11 0 10 0;
#X connect 12 0 11 2;
#X connect 13 0 11 1;
#X connect 14 0 7 0;
#X connect 15 0 9 0;
#X connect 15 0 8 0;
#X connect 16 0 13 0;
#X connect 16 0 12 0;
#X connect 17 0 14 0;
#X connect 18 0 11 0;
#X restore 128 240 pd bitcrusher~;
#X obj 10 38 inlet~;
#X obj 127 38 inlet~;
#X obj 257 39 inlet;
#X obj 368 39 inlet;
#X text 239 21 Bit Depth 0-1;
#X text 346 22 Sample Rate 0-1;
#X obj 151 118 cnv 15 160 47 empty empty empty 2 8 0 12 -191744 -33289
0;
#X obj 157 130 hsl 100 9 0 1 0 0 empty empty BitDepth -3 -7 0 10 -262130
-1 -1 9900 1;
#X floatatom 76 116 5 0 1 0 - - -;
#X obj 156 153 hsl 100 9 0 1 0 0 empty empty SampleRate -3 -7 0 10
-262130 -1 -1 6300 1;
#X floatatom 259 215 5 0 1 0 - - -;
#X obj 12 306 outlet~;
#X obj 128 307 outlet~;
#X obj 345 91 loadbang;
#X obj 345 120 1;
#X obj 261 149 nbx 4 14 -1e+037 1e+037 0 0 empty empty empty 0 -8 0
10 -262130 -1 -1 0.636364 256;
#X obj 264 125 nbx 4 14 -1e+037 1e+037 0 0 empty empty empty 0 -8 0
10 -262130 -1 -1 0 256;
#X connect 0 0 13 0;
#X connect 1 0 14 0;
#X connect 2 0 0 0;
#X connect 3 0 1 0;
#X connect 4 0 9 0;
#X connect 5 0 11 0;
#X connect 9 0 10 0;
#X connect 9 0 0 1;
#X connect 9 0 1 1;
#X connect 9 0 18 0;
#X connect 11 0 0 2;
#X connect 11 0 1 2;
#X connect 11 0 17 0;
#X connect 15 0 16 0;
#X connect 16 0 9 0;
#X connect 16 0 11 0;
#X coords 0 -1 1 1 161 53 1 150 115;
