#N canvas 223 0 1250 783 10;
#X obj 250 343 bitcrush.ld;
#X obj 351 727 moog~;
#X obj 13 400 seq1x8;
#X obj 62 372 curve~;
#X obj 22 299 tof/phasorshot~;
#X obj 231 208 fuzz.ld;
#X obj 221 103 waveshaper.ld;
#X obj 750 145 wavewrap.ld;
#X obj 708 54 decimate.ld;
#X obj 14 596 vslide.ld;
#X obj 13 464 hslide.ld;
#X obj 785 184 dist1.ld;
#X obj 134 303 cnv 15 60 80 empty empty empty 20 12 0 14 -179776 -66577
0;
#X obj 147 320 knob 32 32 0 127 0 0 empty empty Depth 0 -8 0 8 -262144
-1 -1 0 1;
#X floatatom 147 362 5 0 0 0 - - -;
#X obj 19 335 demux~ 1 2 3 4;
#X obj 15 507 gsplit.ld;
#X obj 211 34 tbl.ld;
#X obj 13 543 tblshot.ld;
#X obj 198 645 mix8.ld;
#X obj 392 625 gdelayms.ld;
#X obj 595 399 gfreqshift.ld;
#X obj 616 454 goctavedivider.ld;
#X obj 586 575 goverdrive.ld;
#X obj 534 232 greverbfdn.ld;
#X obj 606 353 gshape.ld;
#X obj 537 153 gssb.ld;
#X obj 258 507 gsmpgrain.ld;
#X obj 658 12 bng 15 250 50 0 empty empty empty 17 7 0 10 -262144 -1
-1;
#X msg 257 475 open ./ds.wav;
#X obj 591 717 writesf~;
#X msg 629 654 start;
#X msg 649 683 stop;
#X obj 902 473 kick808~;
#X msg 904 403 trigger;
#X msg 984 305 gain \$1;
#X msg 987 372 decay \$1;
#X msg 994 424 click \$1;
#X obj 989 277 hsl 128 15 0 500 0 0 empty empty empty -2 -8 0 10 -262144
-1 -1 0 1;
#X obj 990 349 hsl 128 15 0 127 0 0 empty empty empty -2 -8 0 10 -262144
-1 -1 0 1;
#X obj 997 401 hsl 128 15 0 127 0 0 empty empty empty -2 -8 0 10 -262144
-1 -1 0 1;
#X obj 829 294 metro;
#X obj 823 263 tgl 15 0 empty empty empty 17 7 0 10 -262144 -1 -1 0
1;
#X obj 64 598 mtl/indexer;
#X obj 112 638 print DUMP;
#X obj 913 538 mtl/indexer;
#X obj 885 596 tof/breakpoints~;
#X obj 1009 55 gcanvas 80 80;
#X floatatom 1001 169 5 0 0 0 - - -;
#X floatatom 1061 177 5 0 0 0 - - -;
#X obj 1113 164 bng 15 250 50 0 empty empty empty 17 7 0 10 -262144
-1 -1;
#X obj 788 358 monorhythm;
#X obj 408 710 hsl 100 9 1 4 0 0 empty empty Q 41 5 0 8 -262130 -1
-1 0 1;
#X obj 382 695 hsl 100 9 1 22000 0 0 empty empty Freq 41 5 0 8 -262130
-1 -1 0 1;
#X obj 854 232 hslide.ld;
#X msg 749 275 start;
#X msg 780 296 stop;
#X msg 810 321 2 1 0 1;
#X floatatom 939 308 5 0 0 0 - - -;
#X msg 905 325 188;
#X msg 698 312 exclusive;
#X obj 801 397 bng 15 250 50 0 empty empty empty 17 7 0 10 -262144
-1 -1;
#X msg 886 273 188;
#X msg 1087 220 300 0 \, 188 0 20;
#X obj 1105 246 line;
#X obj 891 22 metroplus;
#X connect 1 0 19 2;
#X connect 5 0 19 1;
#X connect 7 0 19 5;
#X connect 13 0 14 0;
#X connect 17 0 19 0;
#X connect 17 0 6 0;
#X connect 17 0 5 0;
#X connect 17 0 0 0;
#X connect 17 0 20 0;
#X connect 17 0 23 0;
#X connect 17 0 24 0;
#X connect 17 0 26 0;
#X connect 17 0 8 0;
#X connect 17 0 7 0;
#X connect 20 0 19 7;
#X connect 24 0 25 0;
#X connect 26 0 19 6;
#X connect 27 0 20 0;
#X connect 27 0 30 0;
#X connect 27 0 1 0;
#X connect 29 0 27 0;
#X connect 31 0 30 0;
#X connect 32 0 30 0;
#X connect 33 0 19 3;
#X connect 33 0 7 0;
#X connect 34 0 33 0;
#X connect 35 0 33 0;
#X connect 36 0 33 0;
#X connect 37 0 33 0;
#X connect 38 0 35 0;
#X connect 38 0 58 0;
#X connect 39 0 36 0;
#X connect 40 0 37 0;
#X connect 41 0 34 0;
#X connect 42 0 41 0;
#X connect 43 3 44 0;
#X connect 47 0 48 0;
#X connect 47 1 49 0;
#X connect 47 2 50 0;
#X connect 51 0 34 0;
#X connect 51 0 59 0;
#X connect 51 0 61 0;
#X connect 51 1 34 0;
#X connect 51 1 63 0;
#X connect 52 0 1 2;
#X connect 53 0 1 1;
#X connect 54 0 41 1;
#X connect 54 0 51 2;
#X connect 55 0 51 0;
#X connect 56 0 51 0;
#X connect 57 0 51 1;
#X connect 59 0 38 0;
#X connect 60 0 51 0;
#X connect 62 0 38 0;
#X connect 63 0 64 0;
