#N canvas 0 0 497 398 10;
#X obj 97 60 loadbang;
#X obj 97 82 metro 90;
#X obj 24 199 osc~;
#X obj 106 205 osc~;
#X obj 56 345 *~ 0.1;
#X obj 56 371 dac~;
#X obj 56 319 osc~;
#X obj 56 241 +~;
#X obj 56 293 +~;
#X obj 56 267 *~;
#X obj 273 147 random 500;
#X obj 106 147 random 2000;
#X obj 24 147 random 1000;
#X obj 24 173 + 20;
#X obj 106 175 + 20;
#X obj 189 147 random 3000;
#X obj 97 104 t b b b b b;
#X obj 350 115 random 300;
#X obj 350 141 + 12;
#X text 102 11 self modifying sound effects;
#X text 191 79 timebase varied by random amount;
#X text 118 290 same synthesiser DSP as before;
#X obj 184 37 hsl 128 15 0 127 0 0 empty empty empty -2 -8 0 10 -262144
-1 -1 300 1;
#X floatatom 205 63 5 0 0 0 - - -;
#X obj 433 7 vsl 15 128 1 700 0 0 empty empty empty 0 -9 0 10 -262144
-1 -1 3400 1;
#X floatatom 438 154 5 0 0 0 - - -;
#X connect 0 0 1 0;
#X connect 1 0 16 0;
#X connect 2 0 7 0;
#X connect 3 0 7 1;
#X connect 4 0 5 0;
#X connect 4 0 5 1;
#X connect 6 0 4 0;
#X connect 7 0 9 0;
#X connect 8 0 6 0;
#X connect 9 0 8 0;
#X connect 10 0 9 1;
#X connect 11 0 14 0;
#X connect 12 0 13 0;
#X connect 13 0 2 0;
#X connect 14 0 3 0;
#X connect 15 0 8 1;
#X connect 16 0 12 0;
#X connect 16 1 11 0;
#X connect 16 2 15 0;
#X connect 16 3 10 0;
#X connect 16 4 17 0;
#X connect 17 0 18 0;
#X connect 18 0 1 1;
#X connect 22 0 1 1;
#X connect 22 0 1 0;
#X connect 22 0 23 0;
#X connect 24 0 17 1;
#X connect 24 0 25 0;
