#N canvas 482 144 467 465 10;
#X obj 70 74 vsl 15 128 1 6 0 0 empty empty fine -2 -12 0 10 -262144
-1 -1 0 1;
#X obj 32 73 vsl 15 128 1 30 0 0 empty empty course -8 -12 0 10 -262144
-1 -1 0 1;
#X obj 21 272 t f b;
#X obj 78 271 t b f;
#X obj 83 307 f;
#X obj 22 306 f;
#X floatatom 29 214 10 0 0 0 - - -;
#X obj 50 333 +;
#X obj 39 360 outlet;
#X obj 23 -21 inlet;
#X msg 23 7 range \$1 \$2;
#X msg 136 76 range \$1 \$2;
#X obj 157 47 pack f f;
#X floatatom 318 80 5 0 0 0 - - -;
#X obj 174 -3 unpack f f;
#X obj 254 21 * 0.2;
#X obj 166 123 inlet;
#X floatatom 165 222 5 0 0 0 - - -;
#X floatatom 164 187 5 0 0 0 - - -;
#X obj 165 157 t f b;
#X connect 0 0 3 0;
#X connect 1 0 2 0;
#X connect 2 0 5 0;
#X connect 2 1 4 0;
#X connect 3 0 5 0;
#X connect 3 1 4 0;
#X connect 4 0 7 1;
#X connect 5 0 7 0;
#X connect 7 0 8 0;
#X connect 7 0 6 0;
#X connect 9 0 10 0;
#X connect 9 0 14 0;
#X connect 10 0 1 0;
#X connect 11 0 0 0;
#X connect 12 0 11 0;
#X connect 14 0 12 0;
#X connect 14 1 15 0;
#X connect 15 0 12 1;
#X connect 15 0 13 0;
#X connect 16 0 19 0;
#X connect 17 0 0 0;
#X connect 17 0 4 0;
#X connect 18 0 1 0;
#X connect 18 0 5 0;
#X connect 19 0 18 0;
#X connect 19 1 17 0;
#X coords 0 -1 1 1 78 185 2 20 50;
