#N canvas 385 138 513 426 10;
#X obj 125 173 bng 15 250 50 0 empty empty empty 17 7 0 10 -262144
-1 -1;
#X obj 155 204 f 0;
#X obj 155 244 + 1;
#X msg 212 172 0;
#X obj 106 360 mod 60;
#X obj 102 131 bng 15 250 50 0 empty empty empty 17 7 0 10 -262144
-1 -1;
#X obj 155 279 t f f f f;
#X obj 155 46 inlet;
#X obj 155 92 route start stop reset;
#X obj 26 33 nbx 2 14 -1e+037 1e+037 0 0 \$0-hours-xx \$0-hours-in
empty 0 -8 0 10 -262130 -33289 -1 0 256;
#X obj 55 33 nbx 2 14 -1e+037 1e+037 0 0 \$0-mins-xx \$0-mins-in empty
0 -8 0 10 -262130 -1 -1 0 256;
#X obj 84 33 nbx 2 14 -1e+037 1e+037 0 0 \$0-secs-xx \$0-secs-in empty
0 -8 0 10 -262130 -1 -1 0 256;
#X obj 189 387 s \$0-secs-in;
#X obj 106 387 s \$0-mins-in;
#X obj 14 387 s \$0-hours-in;
#X msg 174 120 stop;
#X obj 155 144 metro 10;
#X obj 106 322 div 100;
#X obj 14 323 div 6000;
#X obj 189 357 mod 100;
#X connect 1 0 2 0;
#X connect 2 0 6 0;
#X connect 3 0 1 1;
#X connect 3 0 12 0;
#X connect 3 0 13 0;
#X connect 3 0 14 0;
#X connect 4 0 13 0;
#X connect 5 0 16 0;
#X connect 6 0 18 0;
#X connect 6 1 17 0;
#X connect 6 2 19 0;
#X connect 6 3 1 1;
#X connect 7 0 8 0;
#X connect 8 0 16 0;
#X connect 8 1 15 0;
#X connect 8 2 3 0;
#X connect 15 0 16 0;
#X connect 16 0 1 0;
#X connect 16 0 0 0;
#X connect 17 0 4 0;
#X connect 18 0 14 0;
#X connect 19 0 12 0;
#X coords 0 -1 1 1 88 18 1 25 30;
