#N canvas 34 138 450 481 10;
#X obj 189 -211 vsl 15 128 0 12700 0 0 empty empty empty 0 -9 0 10
-262144 -1 -1 9800 1;
#X obj 58 -206 vsl 15 128 0 12700 0 0 empty empty empty 0 -9 0 10 -262144
-1 -1 9600 1;
#X obj 118 -209 vsl 15 128 0 12700 0 0 empty empty empty 0 -9 0 10
-262144 -1 -1 10600 1;
#X obj 57 -64 osc~;
#X obj 118 -65 osc~;
#X obj 188 -64 osc~;
#X obj 57 -34 *~ 0.3;
#X obj 119 -37 *~ 0.3;
#X obj 187 -38 *~ 0.3;
#X obj 76 201 *~;
#X obj 113 188 tgl 15 0 empty empty empty 17 7 0 10 -262144 -1 -1 1
1;
#X obj 77 227 dac~;
#X obj 75 34 clip~ -0.5 0.5;
#X obj 74 3 +~;
#X obj 114 1 * -1;
#X obj 230 -209 vsl 15 128 0 0.5 0 0 empty empty empty 0 -9 0 10 -262144
-1 -1 11000 1;
#X obj 277 -206 vsl 15 128 0 1 0 0 empty empty empty 0 -9 0 10 -262144
-1 -1 10100 1;
#X obj 75 136 +~;
#X obj 75 167 cos~;
#X obj 77 106 +~;
#X obj 25 62 *~ 0.25;
#X connect 0 0 5 0;
#X connect 1 0 3 0;
#X connect 2 0 4 0;
#X connect 3 0 6 0;
#X connect 4 0 7 0;
#X connect 5 0 8 0;
#X connect 6 0 13 0;
#X connect 6 0 20 0;
#X connect 7 0 13 0;
#X connect 8 0 13 0;
#X connect 9 0 11 0;
#X connect 9 0 11 1;
#X connect 10 0 9 1;
#X connect 12 0 19 1;
#X connect 13 0 12 0;
#X connect 14 0 12 1;
#X connect 15 0 14 0;
#X connect 15 0 12 2;
#X connect 16 0 17 1;
#X connect 17 0 18 0;
#X connect 18 0 9 0;
#X connect 19 0 17 0;
