#N canvas 504 232 626 458 10;
#X obj 101 103 cnv 15 148 63 empty empty Decimate 2 8 0 12 -191744
-33289 0;
#X obj 106 130 hsl 100 9 0 1 0 0 empty empty Ratio -3 -7 0 10 -262130
-1 -1 9900 1;
#X floatatom 215 123 5 0 0 0 - - -;
#X obj 105 154 hsl 100 9 1 32 0 0 empty empty Bits -3 -7 0 10 -262130
-1 -1 9900 1;
#X floatatom 214 147 5 0 0 0 - - -;
#X obj 73 250 outlet~;
#X obj 280 253 outlet~;
#X obj 73 40 inlet~;
#X obj 279 41 inlet~;
#X obj 74 196 sigpack/decimate~;
#X obj 279 199 sigpack/decimate~;
#X obj 375 43 inlet;
#X obj 457 44 inlet;
#X text 368 24 Ratio 0-1;
#X text 448 26 Bits 1-32;
#X obj 142 27 loadbang;
#X obj 136 60 1;
#X obj 187 63 32;
#X connect 1 0 2 0;
#X connect 1 0 9 1;
#X connect 1 0 10 1;
#X connect 3 0 4 0;
#X connect 3 0 9 2;
#X connect 3 0 10 2;
#X connect 7 0 9 0;
#X connect 8 0 10 0;
#X connect 9 0 5 0;
#X connect 10 0 6 0;
#X connect 11 0 1 0;
#X connect 12 0 3 0;
#X connect 15 0 16 0;
#X connect 15 0 17 0;
#X connect 16 0 1 0;
#X connect 17 0 3 0;
#X coords 0 -1 1 1 150 69 2 100 100;
