#N canvas 981 188 450 305 10;
#X obj 37 29 inlet~;
#X obj 310 30 inlet~;
#X obj 382 31 inlet;
#X obj 36 259 outlet~;
#X obj 151 103 cnv 15 148 28 empty empty Distortion1 2 8 0 12 -191744
-1 0;
#X obj 156 118 hsl 100 9 0 10 0 0 empty empty empty -3 -7 0 10 -262130
-1 -1 0 1;
#X obj 309 255 outlet~;
#X floatatom 265 111 5 0 0 0 - - -;
#X obj 36 206 dist~ 1;
#X obj 309 204 dist~ 1;
#X connect 0 0 8 0;
#X connect 1 0 9 0;
#X connect 2 0 5 0;
#X connect 5 0 7 0;
#X connect 5 0 8 1;
#X connect 5 0 9 1;
#X connect 8 0 3 0;
#X connect 9 0 6 0;
#X coords 0 -1 1 1 150 34 2 150 100;
