#N canvas 563 154 450 300 10;
#X obj 21 14 inlet;
#X obj 117 15 inlet;
#X obj 21 42 t f b;
#X obj 117 42 t b f;
#X obj 40 100 f;
#X obj 100 98 f;
#X obj 67 131 /;
#X obj 67 162 outlet;
#X obj 195 16 loadbang;
#X obj 195 49 \$1;
#X connect 0 0 2 0;
#X connect 1 0 3 0;
#X connect 2 0 4 0;
#X connect 2 1 5 0;
#X connect 3 0 4 0;
#X connect 3 1 5 0;
#X connect 4 0 6 0;
#X connect 5 0 6 1;
#X connect 6 0 7 0;
#X connect 8 0 9 0;
#X connect 9 0 4 1;
