#N canvas 270 22 1120 714 10;
#X obj 485 607 vols~;
#X floatatom 542 587 5 0 0 0 - - -;
#X obj 482 640 dac~;
#X obj 467 209 bng 15 250 50 0 empty empty empty 0 -6 0 8 -262144 -1
-1;
#X msg 349 493 print;
#X floatatom 555 509 5 0 0 0 - - -;
#X floatatom 606 510 5 0 0 0 - - -;
#X obj 466 31 noise~;
#X obj 433 268 *~;
#X floatatom 542 189 5 0 0 0 - - -;
#X obj 485 235 ead~;
#X msg 699 197 lines 501 752 5003 7504 105 206 307 408;
#X floatatom 491 188 5 0 0 0 - - -;
#X msg 700 326 linear 32 100 105;
#X msg 699 349 linear 32 1000 1005;
#X msg 351 543 reset;
#X obj 481 541 fdn~ 64 40000;
#X msg 697 405 exponential 32 10 5000;
#X msg 699 370 linear 32 100 2015;
#X msg 700 302 linear 8 75 100;
#X msg 700 279 linear 32 50 2175;
#X msg 699 452 exponential 8 50 175;
#X text 557 64 fdn~ a feedback delay network;
#X text 655 546 creation arguments: <max nb delaylines> <total delay
memory in ms>;
#X text 342 474 print delay lengths;
#X text 341 526 reset state;
#X text 655 590 nb delay lines is always a multiple of 4;
#X text 697 174 specify delay line lengths manually;
#X text 698 230 specify a linear/exponential delay length range;
#X text 700 248 <type> <nb lines> <min length> <max length>;
#X text 698 508 inlets: low/high frequency reverb time (60dB time)
;
#X msg 697 429 exponential 64 1000 10;
#X obj 461 136 metro 1000;
#X obj 460 62 tgl 15 0 empty empty empty 17 7 0 10 -262144 -1 -1 0
1;
#X obj 563 97 hslide.ld;
#X obj 27 48 smp.ld;
#X connect 0 0 2 0;
#X connect 0 1 2 1;
#X connect 1 0 0 2;
#X connect 3 0 10 0;
#X connect 4 0 16 0;
#X connect 5 0 16 1;
#X connect 6 0 16 2;
#X connect 8 0 16 0;
#X connect 9 0 10 2;
#X connect 10 0 8 1;
#X connect 10 0 16 0;
#X connect 11 0 16 0;
#X connect 12 0 10 1;
#X connect 13 0 16 0;
#X connect 14 0 16 0;
#X connect 15 0 16 0;
#X connect 16 0 0 0;
#X connect 16 1 0 1;
#X connect 17 0 16 0;
#X connect 18 0 16 0;
#X connect 19 0 16 0;
#X connect 20 0 16 0;
#X connect 21 0 16 0;
#X connect 31 0 16 0;
#X connect 32 0 3 0;
#X connect 33 0 32 0;
#X connect 34 0 32 1;
#X connect 35 0 8 0;
