#N canvas 560 36 747 581 10;
#X obj 9 -173 noise~;
#X obj 56 -158 random 10000;
#X obj 194 58 *~;
#X obj 238 159 dac~;
#X obj 238 129 *~;
#X text 312 26 On/Off;
#X obj 134 14 0.45;
#X obj 165 -176 noise~;
#X obj 212 -153 random 10000;
#X floatatom 195 -46 5 0 0 0 - - -;
#X obj 312 -182 noise~;
#X obj 359 -159 random 10000;
#X floatatom 353 -45 5 0 0 0 - - -;
#X obj 496 -184 noise~;
#X obj 543 -161 random 10000;
#X floatatom 524 -46 5 0 0 0 - - -;
#X obj 266 -257 bng 15 250 50 0 empty empty empty 17 7 0 10 -262144
-1 -1;
#X obj 58 -80 line;
#X floatatom 101 -94 5 0 0 0 - - -;
#X obj 60 -128 t f b;
#X floatatom 46 -40 5 0 0 0 - - -;
#X obj 182 -76 line;
#X floatatom 226 -93 5 0 0 0 - - -;
#X obj 185 -127 t f b;
#X obj 334 -83 line;
#X floatatom 377 -97 5 0 0 0 - - -;
#X obj 336 -131 t f b;
#X obj 500 -86 line;
#X floatatom 543 -100 5 0 0 0 - - -;
#X obj 502 -134 t f b;
#X obj 660 -239 vsl 15 128 0 127 0 0 empty empty empty 0 -9 0 10 -262144
-1 -1 2100 1;
#X obj 410 116 line;
#X floatatom 410 157 5 0 0 0 - - -;
#X obj 431 16 bng 15 250 50 0 empty empty empty 17 7 0 10 -262144 -1
-1;
#X obj 429 49 t b b b b;
#X obj 453 81 0;
#X obj 410 83 1;
#X obj 492 81 0;
#X obj 585 -63 vsl 15 128 0 127 0 0 empty empty empty 0 -9 0 10 -262144
-1 -1 11000 1;
#X floatatom 531 81 5 0 0 0 - - -;
#X obj 124 -334 tgl 15 0 empty empty empty 17 7 0 10 -262144 -1 -1
0 1;
#X obj 331 -380 vsl 15 128 0 127 0 0 empty empty empty 0 -9 0 10 -262144
-1 -1 0 1;
#X obj 9 -9 bp~ 0 30;
#X obj 165 -12 bp~ 0 30;
#X obj 318 -15 bp~ 0 30;
#X obj 491 -10 bp~ 0 30;
#X text 610 -41 Vol Decay;
#X floatatom 201 -339 5 0 0 0 - - -;
#X obj 214 -306 metro;
#X obj 202 -367 expr 254 - ($f1*2);
#X text 356 -380 Speed;
#X text 631 -274 Cutoff Porta;
#X obj 461 -330 hsl 128 15 0 127 0 0 empty empty empty -2 -8 0 10 -262144
-1 -1 6000 1;
#X floatatom 458 -305 5 0 0 0 - - -;
#X text 457 -353 Filter Width;
#X obj 29 -351 vsl 15 128 0.0075 0.75 1 0 empty empty empty 0 -9 0
10 -262144 -1 -1 11900 1;
#X text 7 -380 Master Volume;
#X text 59 -314;
#X text 108 -363 On/Off;
#X connect 0 0 42 0;
#X connect 1 0 19 0;
#X connect 2 0 4 0;
#X connect 4 0 3 0;
#X connect 4 0 3 1;
#X connect 6 0 2 1;
#X connect 7 0 43 0;
#X connect 8 0 23 0;
#X connect 9 0 43 1;
#X connect 10 0 44 0;
#X connect 11 0 26 0;
#X connect 12 0 44 1;
#X connect 13 0 45 0;
#X connect 14 0 29 0;
#X connect 15 0 45 1;
#X connect 16 0 34 0;
#X connect 16 0 1 0;
#X connect 16 0 8 0;
#X connect 16 0 11 0;
#X connect 16 0 14 0;
#X connect 17 0 20 0;
#X connect 18 0 17 1;
#X connect 19 0 17 0;
#X connect 19 1 18 0;
#X connect 20 0 42 1;
#X connect 21 0 9 0;
#X connect 22 0 21 1;
#X connect 23 0 21 0;
#X connect 23 1 22 0;
#X connect 24 0 12 0;
#X connect 25 0 24 1;
#X connect 26 0 24 0;
#X connect 26 1 25 0;
#X connect 27 0 15 0;
#X connect 28 0 27 1;
#X connect 29 0 27 0;
#X connect 29 1 28 0;
#X connect 30 0 28 0;
#X connect 30 0 25 0;
#X connect 30 0 22 0;
#X connect 30 0 18 0;
#X connect 31 0 32 0;
#X connect 32 0 4 1;
#X connect 33 0 34 0;
#X connect 34 0 37 0;
#X connect 34 1 39 0;
#X connect 34 2 36 0;
#X connect 34 3 35 0;
#X connect 35 0 31 1;
#X connect 36 0 31 0;
#X connect 37 0 31 0;
#X connect 38 0 39 0;
#X connect 39 0 31 1;
#X connect 40 0 6 0;
#X connect 40 0 4 1;
#X connect 40 0 48 0;
#X connect 41 0 49 0;
#X connect 42 0 2 0;
#X connect 43 0 2 0;
#X connect 44 0 2 0;
#X connect 45 0 2 0;
#X connect 47 0 48 1;
#X connect 48 0 16 0;
#X connect 49 0 47 0;
#X connect 52 0 53 0;
#X connect 53 0 42 2;
#X connect 53 0 43 2;
#X connect 53 0 44 2;
#X connect 53 0 45 2;
#X connect 55 0 6 0;
