#N canvas 187 196 320 227 10;
#X obj 40 15 inlet;
#X obj 40 115 f;
#X obj 40 184 outlet;
#X obj 77 155 + 1;
#X obj 103 81 bng 15 250 50 0 empty empty empty 17 7 0 10 -262144 -1
-1;
#X msg 40 81 0;
#X obj 40 49 route reset;
#X connect 0 0 6 0;
#X connect 1 0 2 0;
#X connect 1 0 3 0;
#X connect 3 0 1 1;
#X connect 4 0 1 0;
#X connect 5 0 1 0;
#X connect 6 0 5 0;
#X connect 6 1 4 0;
