#N canvas 119 29 1294 697 10;
#X floatatom -84 -304 5 0 0 0 - - -;
#X floatatom 13 -304 5 0 0 0 - - -;
#X obj -88 -370 bng 15 250 50 0 empty empty empty 17 7 0 10 -262144
-1 -1;
#X obj -19 -262 * 3;
#X obj -52 -239 +;
#X obj -87 -334 trigger bang bang;
#X obj -72 -268 * 7;
#X obj 31 -187 f;
#X floatatom 57 -219 5 0 0 0 - - -;
#X floatatom 33 -126 5 0 0 0 - - -;
#X obj -108 -209 mod 5;
#X obj -120 -172 sel 0;
#X obj -175 -124 print selbang;
#X obj -74 -125 print selr;
#X obj 209 -352 bng 15 250 50 0 empty empty empty 17 7 0 10 -262144
-1 -1;
#X obj 208 -317 f;
#X floatatom 249 -354 5 0 0 0 - - -;
#X obj 209 -283 + 1;
#X floatatom 207 -249 5 0 0 0 - - -;
#X obj -107 -1 bng 15 250 50 0 empty empty empty 17 7 0 10 -262144
-1 -1;
#X obj -72 -1 bng 15 250 50 0 empty empty empty 17 7 0 10 -262144 -1
-1;
#X floatatom -151 58 5 0 0 0 - - -;
#X floatatom -109 138 5 0 0 0 - - -;
#X obj -153 99 osc~;
#X obj -152 210 dac~;
#X obj -152 178 *~;
#X floatatom -107 59 5 0 0 0 - - -;
#X text -154 -42 Switches Audio Tones;
#X floatatom 69 80 5 0 0 0 - - -;
#X obj 49 139 * 400;
#X obj 163 138 * 600;
#X obj 48 170 osc~;
#X obj 93 171 print a;
#X obj 164 173 osc~;
#X obj 218 169 print b;
#X obj 48 226 *~ 0.5;
#X obj 50 271 dac~;
#X obj 335 -210 * 4;
#X floatatom 335 22 5 0 0 0 - - -;
#X obj 305 -156 mod 5;
#X obj 364 -25 f;
#X obj 287 -24 random 100;
#X obj 304 -122 == 0;
#X obj 303 -182 trigger float float;
#X obj 253 -49 bng 15 250 50 0 empty empty empty 17 7 0 10 -262144
-1 -1;
#X obj 288 -82 sel 1;
#X obj 348 -82 sel 0;
#X text 199 -389 Counter;
#X text 312 -256 Output result replacing any result which is a multiple
of 5 with a random number.;
#X text 43 48 Audio Intervals 2 Oscs;
#X obj 341 117 bng 15 250 50 0 empty empty empty 17 7 0 10 -262144
-1 -1;
#X obj 340 152 openpanel;
#X obj 340 196 print;
#X text 325 83 File Dialog;
#X obj 577 -240 route bang float list;
#X obj 573 -195 print bang;
#X obj 571 -163 print float;
#X obj 574 -134 print list;
#X obj 573 -102 print other;
#X obj 572 -325 bng 15 250 50 0 empty empty empty 17 7 0 10 -262144
-1 -1;
#X floatatom 578 -281 5 0 0 0 - - -;
#X obj 635 -289 list 1 2 3;
#X text 565 -358 Router;
#X obj 525 135 route bang float list;
#X obj 543 -32 bng 15 250 50 0 empty empty empty 17 7 0 10 -262144
-1 -1;
#X floatatom 530 94 5 0 0 0 - - -;
#X obj 583 86 list 1 2 3;
#X obj 524 202 demux 0 1 2 3;
#X obj 622 236 print o3;
#X obj 481 244 print o0;
#X obj 611 264 print o2;
#X obj 551 244 print o1;
#X obj 518 0 t b f l;
#X obj 655 40 f;
#X floatatom 683 13 5 0 0 0 - - -;
#X obj 666 66 + 1;
#X obj 701 105 mod 4;
#X obj 702 150 print m4;
#X obj 595 37 bng 15 250 50 0 empty empty empty 17 7 0 10 -262144 -1
-1;
#X text 544 -60 Demux with counter;
#X obj 756 -321 spigot;
#X text 753 -359 Spigots are like gates Use 0 and 1 on left input;
#X obj 781 -245 tgl 15 0 empty empty empty 17 7 0 10 -262144 -1 -1
1 1;
#X floatatom 779 -209 5 0 0 0 - - -;
#X text 769 -273 Toggle;
#X obj 810 -74 hsl 128 15 0 127 0 0 empty empty empty -2 -8 0 10 -262144
-1 -1 10200 1;
#X floatatom 828 -38 5 0 0 0 - - -;
#X obj 824 16 hradio 15 1 0 8 empty empty empty 0 -8 0 10 -262144 -1
-1 3;
#X floatatom 827 56 5 0 0 0 - - -;
#X obj 805 84 vsl 15 128 0 127 0 0 empty empty empty 0 -9 0 10 -262144
-1 -1 5600 1;
#X obj 888 91 vradio 15 1 0 8 empty empty empty 0 -8 0 10 -262144 -1
-1 0;
#X floatatom 803 243 5 0 0 0 - - -;
#X floatatom 908 242 5 0 0 0 - - -;
#X connect 0 0 6 0;
#X connect 1 0 3 0;
#X connect 2 0 5 0;
#X connect 3 0 4 1;
#X connect 4 0 10 0;
#X connect 4 0 7 0;
#X connect 5 0 0 0;
#X connect 5 1 1 0;
#X connect 6 0 4 0;
#X connect 7 0 9 0;
#X connect 8 0 7 1;
#X connect 10 0 11 0;
#X connect 11 0 12 0;
#X connect 11 1 13 0;
#X connect 14 0 15 0;
#X connect 15 0 17 0;
#X connect 16 0 15 1;
#X connect 17 0 18 0;
#X connect 18 0 15 1;
#X connect 18 0 37 0;
#X connect 19 0 21 0;
#X connect 20 0 26 0;
#X connect 21 0 23 0;
#X connect 22 0 25 1;
#X connect 23 0 25 0;
#X connect 25 0 24 0;
#X connect 25 0 24 1;
#X connect 26 0 23 0;
#X connect 28 0 29 0;
#X connect 28 0 30 0;
#X connect 29 0 31 0;
#X connect 29 0 32 0;
#X connect 30 0 33 0;
#X connect 30 0 34 0;
#X connect 31 0 35 0;
#X connect 33 0 35 0;
#X connect 35 0 36 0;
#X connect 35 0 36 1;
#X connect 37 0 43 0;
#X connect 39 0 42 0;
#X connect 40 0 38 0;
#X connect 41 0 38 0;
#X connect 42 0 45 0;
#X connect 42 0 46 0;
#X connect 43 0 39 0;
#X connect 43 1 40 1;
#X connect 45 0 41 0;
#X connect 45 0 44 0;
#X connect 46 0 40 0;
#X connect 50 0 51 0;
#X connect 51 0 52 0;
#X connect 54 0 55 0;
#X connect 54 1 56 0;
#X connect 54 2 57 0;
#X connect 54 3 58 0;
#X connect 59 0 54 0;
#X connect 59 0 60 0;
#X connect 59 0 61 0;
#X connect 60 0 54 0;
#X connect 61 0 54 0;
#X connect 63 0 67 0;
#X connect 63 1 67 0;
#X connect 63 2 67 0;
#X connect 63 3 67 0;
#X connect 64 0 72 0;
#X connect 65 0 63 0;
#X connect 66 0 63 0;
#X connect 67 0 69 0;
#X connect 67 1 71 0;
#X connect 67 2 70 0;
#X connect 67 3 68 0;
#X connect 72 0 63 0;
#X connect 72 0 78 0;
#X connect 72 1 65 0;
#X connect 72 1 78 0;
#X connect 72 2 66 0;
#X connect 72 2 78 0;
#X connect 73 0 75 0;
#X connect 74 0 73 1;
#X connect 75 0 76 0;
#X connect 75 0 73 1;
#X connect 76 0 67 1;
#X connect 78 0 73 0;
#X connect 82 0 83 0;
#X connect 85 0 86 0;
#X connect 87 0 88 0;
#X connect 89 0 91 0;
#X connect 90 0 92 0;
