#N canvas 296 263 320 369 10;
#X obj 40 15 inlet;
#X obj 40 115 f;
#X obj 40 258 outlet;
#X obj 77 155 + 1;
#X obj 103 81 bng 15 250 50 0 empty empty empty 17 7 0 10 -262144 -1
-1;
#X obj 40 49 route reset;
#X obj 80 189 mod \$1;
#X obj 161 19 inlet;
#X msg 40 81 0;
#X connect 0 0 5 0;
#X connect 1 0 2 0;
#X connect 1 0 3 0;
#X connect 3 0 6 0;
#X connect 4 0 1 0;
#X connect 5 0 8 0;
#X connect 5 1 4 0;
#X connect 6 0 1 1;
#X connect 7 0 6 1;
#X connect 8 0 1 1;
