#N canvas 817 239 552 444 10;
#X obj 13 43 inlet~;
#X obj 17 380 outlet~;
#X obj 12 7 block~ 4 1 1;
#X msg 17 170 \$1 5;
#X obj 17 202 line~;
#X obj 15 77 +~;
#X obj 90 289 *~;
#X obj 91 326 lop~;
#X obj 145 262 sqrt;
#X obj 145 286 expr 20000 - (20000 * $f1);
#X obj 15 110 delwrite~ \$0-delay 50;
#X obj 16 239 vd~ \$0-delay;
#X obj 200 41 inlet;
#X obj 283 39 inlet;
#X obj 358 39 inlet;
#X obj 200 70 clip 0 50;
#X obj 283 69 clip 0 1;
#X obj 358 68 clip 0 1;
#X obj 434 37 loadbang;
#X obj 431 69 0;
#X floatatom 302 102 5 0 0 0 - - -;
#X obj 199 102 hsl 100 16 0 50 0 0 empty empty Delay 35 9 0 9 -262130
-1 -1 3300 1;
#X floatatom 302 118 5 0 0 0 - - -;
#X floatatom 302 134 5 0 0 0 - - -;
#X obj 199 118 hsl 100 16 0 1 0 0 empty empty Feedback 29 9 0 9 -262130
-1 -1 8600 1;
#X obj 199 134 hsl 100 16 0 1 0 0 empty empty Damp 35 9 0 9 -262130
-1 -1 6100 1;
#X connect 0 0 5 0;
#X connect 3 0 4 0;
#X connect 4 0 11 0;
#X connect 5 0 10 0;
#X connect 6 0 7 0;
#X connect 7 0 5 1;
#X connect 8 0 9 0;
#X connect 9 0 7 1;
#X connect 11 0 1 0;
#X connect 11 0 6 0;
#X connect 12 0 15 0;
#X connect 13 0 16 0;
#X connect 14 0 17 0;
#X connect 15 0 21 0;
#X connect 16 0 24 0;
#X connect 17 0 25 0;
#X connect 18 0 19 0;
#X connect 19 0 21 0;
#X connect 19 0 24 0;
#X connect 19 0 25 0;
#X connect 21 0 20 0;
#X connect 21 0 3 0;
#X connect 24 0 22 0;
#X connect 24 0 6 1;
#X connect 25 0 23 0;
#X connect 25 0 8 0;
#X coords 0 -1 1 1 140 54 2 195 99;
