#N canvas 3 4 718 812 10;
#X obj 397 107 delwrite~ b1 5000;
#X obj 57 615 vd~ b1;
#X obj 125 366 phasor~;
#X obj 38 489 *~ -1;
#X obj 38 509 +~ 1;
#X obj 118 580 sig~ 1;
#X obj 168 578 cos~;
#X obj 119 607 -~;
#X obj 120 627 *~ 0.5;
#X obj 57 650 *~;
#X obj 63 559 samphold~;
#X obj 38 580 *~;
#X obj 64 536 sig~;
#X floatatom 213 349 5 0 0 0 - - -;
#X floatatom 177 279 10 0 0 0 - - -;
#X floatatom 151 334 7 0 0 0 - - -;
#X obj 231 252 t b f;
#X obj 100 716 *~;
#X obj 213 328 / 44.1;
#X obj 335 585 vd~ b1;
#X obj 316 450 *~ -1;
#X obj 317 477 +~ 1;
#X obj 391 553 sig~ 1;
#X obj 443 559 cos~;
#X obj 392 578 -~;
#X obj 393 598 *~ 0.5;
#X obj 335 624 *~;
#X obj 344 529 samphold~;
#X obj 317 550 *~;
#X obj 345 506 sig~;
#X obj 339 398 +~ 0.5;
#X obj 339 415 wrap~;
#X obj 176 221 t b f;
#X obj 175 304 expr (pow(2 \, ($f2/12)) - 1) * (44100/$f1);
#X text 286 44 3.7.2.1. Granular live;
#X text 120 11 window width;
#X text 191 619 another way to;
#X text 181 627 make a Hanning window;
#X obj 398 76 inlet~;
#X obj 101 755 outlet~;
#X floatatom 100 255 9 0 0 0 - - -;
#X text 192 122 comment;
#X obj 229 183 cnv 15 110 41 empty empty empty 20 12 0 14 -191744 -66577
0;
#X obj 234 186 hsl 103 9 0 100 0 0 empty empty Pitch 35 6 0 9 -262130
-1 -1 0 1;
#X obj 231 213 nbx 5 11 -1e+037 1e+037 0 0 empty empty empty 0 -8 0
10 -262130 -1 -1 0 256;
#X text 118 146 comment;
#X obj 234 199 hsl 103 9 1 1500 0 0 empty empty Window 30 6 0 9 -261682
-1 -1 0 1;
#X obj 287 213 nbx 5 11 -1e+037 1e+037 0 0 empty empty empty 0 -8 0
10 -261682 -1 -1 1 256;
#X msg 124 683 1;
#X obj 127 662 loadbang;
#X connect 1 0 9 0;
#X connect 2 0 3 0;
#X connect 2 0 6 0;
#X connect 2 0 10 1;
#X connect 2 0 30 0;
#X connect 3 0 4 0;
#X connect 4 0 11 0;
#X connect 5 0 7 0;
#X connect 6 0 7 1;
#X connect 7 0 8 0;
#X connect 8 0 9 1;
#X connect 9 0 17 0;
#X connect 10 0 11 1;
#X connect 11 0 1 0;
#X connect 12 0 10 0;
#X connect 13 0 29 0;
#X connect 13 0 12 0;
#X connect 14 0 18 0;
#X connect 14 0 33 0;
#X connect 15 0 2 0;
#X connect 16 0 14 0;
#X connect 16 1 33 1;
#X connect 17 0 39 0;
#X connect 18 0 13 0;
#X connect 19 0 26 0;
#X connect 20 0 21 0;
#X connect 21 0 28 0;
#X connect 22 0 24 0;
#X connect 23 0 24 1;
#X connect 24 0 25 0;
#X connect 25 0 26 1;
#X connect 26 0 17 0;
#X connect 27 0 28 1;
#X connect 28 0 19 0;
#X connect 29 0 27 0;
#X connect 30 0 31 0;
#X connect 31 0 20 0;
#X connect 31 0 27 1;
#X connect 31 0 23 0;
#X connect 32 0 44 0;
#X connect 32 1 14 0;
#X connect 33 0 15 0;
#X connect 38 0 0 0;
#X connect 43 0 44 0;
#X connect 44 0 16 0;
#X connect 46 0 32 0;
#X connect 46 0 47 0;
#X connect 48 0 17 1;
#X connect 49 0 48 0;
#X coords 0 -1 1 1 112 47 2 228 180;
