#N canvas 91 64 811 567 10;
#X obj 295 128 cnv 15 170 61 empty empty empty 20 12 0 14 -191744 -66577
0;
#X obj 441 130 bng 10 250 50 0 \$0-open-bang empty O 14 6 2 11 -262130
-1 -1;
#X symbolatom 295 142 28 0 0 0 - #0-filename -;
#X obj 315 130 hsl 96 10 0 1 0 0 empty \$0-play-pos empty -2 -8 0 10
-262130 -1 -1 0 1;
#X obj 417 130 bng 10 250 50 0 \$0-zero-bang empty Z 14 6 2 10 -262130
-1 -1;
#X obj 556 36 openpanel;
#X obj 556 130 rdsmp;
#X obj 556 106 pack s s;
#X obj 601 82 symbol \$0-smp;
#X obj 556 61 t s b;
#X obj 562 227 s \$0-num-secs;
#X obj 576 179 s \$0-num-smp;
#X obj 583 155 s \$0-filename;
#X obj 556 251 s \$0-hz;
#X obj 29 25 table \$0-smp;
#X obj 569 203 s \$0-num-ms;
#X obj 326 179 hsl 92 10 0 1 0 0 \$0-chunk-slider empty chunk-size
20 6 0 9 -262130 -1 -1 4000 1;
#X obj 326 169 hsl 92 10 -1 1 0 0 \$0-pitch-slider empty pitch 33 6
0 9 -262130 -1 -1 250 1;
#X obj 326 159 hsl 92 10 0 1 0 0 \$0-speed-slider empty speed 32 6
0 9 -262130 -1 -1 1600 1;
#X obj 295 160 hradio 9 1 0 3 \$0-speed-radio empty empty 0 -8 0 10
-191744 -1 -1 2;
#X obj 295 170 hradio 9 1 0 3 \$0-pitch-radio empty empty 0 -8 0 10
-191744 -1 -1 0;
#X obj 295 180 hradio 9 1 0 3 \$0-chunk-radio empty empty 0 -8 0 10
-191744 -1 -1 2;
#X obj 153 322 route 0 1 2;
#X obj 187 381 f;
#X obj 421 159 nbx 4 10 -1e+037 1e+037 0 0 empty \$0-speed empty 0
-8 0 10 -191744 -1 -1 175.824 256;
#X obj 421 169 nbx 4 10 -1e+037 1e+037 0 0 empty \$0-pitch empty 0
-8 0 10 -191744 -1 -1 -94.5055 256;
#X obj 421 179 nbx 4 10 -1e+037 1e+037 0 0 empty \$0-chunk-size empty
0 -8 0 10 -191744 -1 -1 219.78 256;
#X obj 351 320 route 0 1 2;
#X obj 385 383 f;
#X obj 187 412 mul.ld;
#X obj 153 349 10;
#X obj 187 349 100;
#X obj 222 349 1000;
#X obj 385 414 mul.ld;
#X obj 624 347 500;
#X obj 589 412 mul.ld;
#X obj 351 347 100;
#X obj 385 347 300;
#X obj 420 346 500;
#X obj 215 56 loadbang;
#X obj 254 94 0;
#X obj 298 130 tgl 10 0 \$0-play-tog empty empty 17 7 0 10 -262144
-1 -1 0 1;
#X obj 298 24 inlet;
#X text 333 23 start/stop toggle;
#X obj 187 443 s \$0-speed;
#X obj 385 446 s \$0-pitch;
#X obj 589 452 s \$0-chunk-size;
#X obj 153 289 r \$0-speed-radio;
#X obj 220 380 r \$0-speed-slider;
#X obj 351 292 r \$0-pitch-radio;
#X obj 418 382 r \$0-pitch-slider;
#X obj 555 320 route 0 1 2;
#X obj 589 379 f;
#X obj 555 347 10;
#X obj 589 347 200;
#X obj 555 290 r \$0-chunk-radio;
#X obj 622 378 r \$0-chunk-slider;
#X obj 556 12 r \$0-open-bang;
#N canvas 712 20 681 684 grain-sampler 0;
#X floatatom 55 52 4 0 800 0 - - -;
#X obj 198 559 *~;
#X floatatom 99 196 0 0 20000 0 - - -;
#X obj 198 461 +~;
#X obj 197 413 samphold~;
#X obj 198 437 *~;
#X obj 360 416 r~ phase;
#X obj 362 241 s~ phase;
#X obj 285 414 r~ phase;
#X obj 233 438 r~ phase;
#X obj 55 108 s chunk-size;
#X floatatom 361 53 0 0 0 0 - - -;
#X obj 373 83 r chunk-size;
#X obj 373 114 t b f;
#X obj 360 440 -~ 0.5;
#X obj 360 464 *~ 0.5;
#X obj 360 487 cos~;
#X obj 361 210 phasor~;
#X obj 99 406 s~ read-pt;
#X obj 236 461 r~ read-pt;
#X obj 449 266 wrap~;
#X obj 449 291 s~ phase2;
#X obj 322 599 +~;
#X obj 55 82 * 0.001;
#X obj 99 340 phasor~;
#X obj 198 485 *~ 44100;
#X obj 197 388 r chunk-size;
#X obj 197 511 +~ 1;
#X floatatom 369 180 5 0 0 0 - - -;
#X obj 20 261 s precession;
#X obj 486 113 t b f;
#X obj 486 84 r precession;
#X obj 99 228 * 0.01;
#X obj 438 557 *~;
#X obj 438 459 +~;
#X obj 437 411 samphold~;
#X obj 438 435 *~;
#X obj 609 459 *~ 0.5;
#X obj 609 482 cos~;
#X obj 476 459 r~ read-pt;
#X obj 438 483 *~ 44100;
#X obj 437 386 r chunk-size;
#X obj 437 509 +~ 1;
#X obj 525 412 r~ phase2;
#X obj 476 435 r~ phase2;
#X obj 609 411 r~ phase2;
#X floatatom 177 197 8 0 10000 0 - - -;
#X obj 177 230 * 0.001;
#X obj 361 155 expr (pow(2 \, $f1/120)-$f3)/$f2;
#X obj 177 258 t b f;
#X obj 99 373 *~;
#X obj 99 306 /;
#X obj 448 240 +~ 0.5;
#X obj 609 435 -~ 0.5;
#X text 389 52 <- transposition \, halftones/10;
#X text 137 108 <- chunk size (secs);
#X obj 361 19 r \$0-pitch;
#X obj 55 18 r \$0-chunk-size;
#X obj 99 164 r \$0-speed;
#X obj 321 637 outlet~;
#X obj 438 533 tabread4~ \$0-smp;
#X obj 198 535 tabread4~ \$0-smp;
#X obj 177 164 r \$0-num-ms;
#X obj 23 532 s \$0-play-pos;
#X obj 23 502 unsig~ 50;
#X obj 286 178 0;
#X obj 259 138 sel 0;
#X obj 206 346 sigout;
#X obj 263 96 r \$0-play-tog;
#X obj 24 464 *~;
#X obj 51 439 r \$0-play-tog;
#X connect 0 0 23 0;
#X connect 1 0 22 0;
#X connect 2 0 32 0;
#X connect 3 0 25 0;
#X connect 4 0 5 0;
#X connect 5 0 3 0;
#X connect 6 0 14 0;
#X connect 8 0 4 1;
#X connect 9 0 5 1;
#X connect 11 0 48 0;
#X connect 12 0 13 0;
#X connect 13 0 48 0;
#X connect 13 1 48 1;
#X connect 14 0 15 0;
#X connect 15 0 16 0;
#X connect 16 0 1 1;
#X connect 17 0 7 0;
#X connect 17 0 52 0;
#X connect 19 0 3 1;
#X connect 20 0 21 0;
#X connect 22 0 59 0;
#X connect 23 0 10 0;
#X connect 24 0 50 0;
#X connect 24 0 67 0;
#X connect 24 0 69 0;
#X connect 25 0 27 0;
#X connect 26 0 4 0;
#X connect 27 0 61 0;
#X connect 30 0 48 0;
#X connect 30 1 48 2;
#X connect 31 0 30 0;
#X connect 32 0 29 0;
#X connect 32 0 51 0;
#X connect 33 0 22 1;
#X connect 34 0 40 0;
#X connect 35 0 36 0;
#X connect 36 0 34 0;
#X connect 37 0 38 0;
#X connect 38 0 33 1;
#X connect 39 0 34 1;
#X connect 40 0 42 0;
#X connect 41 0 35 0;
#X connect 42 0 60 0;
#X connect 43 0 35 1;
#X connect 44 0 36 1;
#X connect 45 0 53 0;
#X connect 46 0 47 0;
#X connect 47 0 49 0;
#X connect 47 0 50 1;
#X connect 48 0 17 0;
#X connect 48 0 28 0;
#X connect 49 0 51 0;
#X connect 49 1 51 1;
#X connect 50 0 18 0;
#X connect 51 0 24 0;
#X connect 52 0 20 0;
#X connect 53 0 37 0;
#X connect 56 0 11 0;
#X connect 57 0 0 0;
#X connect 58 0 2 0;
#X connect 60 0 33 0;
#X connect 61 0 1 0;
#X connect 62 0 46 0;
#X connect 64 0 63 0;
#X connect 65 0 17 1;
#X connect 65 0 24 1;
#X connect 66 1 65 0;
#X connect 68 0 66 0;
#X connect 69 0 64 0;
#X connect 70 0 69 1;
#X restore 31 361 pd grain-sampler;
#X obj 224 117 1;
#X obj 216 149 0.12;
#X obj 32 532 outlet~;
#X obj 112 55 r \$0-zero-bang;
#X obj 31 493 *~;
#X obj 47 393 r \$0-play-tog;
#X obj 47 460 line~;
#X msg 47 428 \$1 5;
#X obj 298 53 route float open;
#X text 401 52 open+filename;
#X obj 349 88 unpack s;
#X connect 5 0 9 0;
#X connect 6 0 13 0;
#X connect 6 1 10 0;
#X connect 6 2 15 0;
#X connect 6 3 11 0;
#X connect 6 4 12 0;
#X connect 7 0 6 0;
#X connect 8 0 7 1;
#X connect 9 0 7 0;
#X connect 9 1 8 0;
#X connect 22 0 30 0;
#X connect 22 1 31 0;
#X connect 22 2 32 0;
#X connect 23 0 29 0;
#X connect 27 0 36 0;
#X connect 27 1 37 0;
#X connect 27 2 38 0;
#X connect 28 0 33 0;
#X connect 29 0 44 0;
#X connect 30 0 23 0;
#X connect 31 0 23 0;
#X connect 32 0 23 0;
#X connect 33 0 45 0;
#X connect 34 0 52 0;
#X connect 35 0 46 0;
#X connect 36 0 28 0;
#X connect 37 0 28 0;
#X connect 38 0 28 0;
#X connect 39 0 40 0;
#X connect 39 0 59 0;
#X connect 39 0 60 0;
#X connect 40 0 20 0;
#X connect 40 0 17 0;
#X connect 42 0 67 0;
#X connect 47 0 22 0;
#X connect 48 0 29 1;
#X connect 49 0 27 0;
#X connect 50 0 33 1;
#X connect 51 0 53 0;
#X connect 51 1 54 0;
#X connect 51 2 34 0;
#X connect 52 0 35 0;
#X connect 53 0 52 0;
#X connect 54 0 52 0;
#X connect 55 0 51 0;
#X connect 56 0 35 1;
#X connect 57 0 5 0;
#X connect 58 0 63 0;
#X connect 59 0 21 0;
#X connect 59 0 19 0;
#X connect 59 0 18 0;
#X connect 60 0 16 0;
#X connect 62 0 40 0;
#X connect 62 0 59 0;
#X connect 62 0 60 0;
#X connect 63 0 61 0;
#X connect 64 0 66 0;
#X connect 65 0 63 1;
#X connect 66 0 65 0;
#X connect 67 0 41 0;
#X connect 67 1 69 0;
#X connect 69 0 9 0;
#X coords 0 -1 1 1 172 67 1 294 125;
