#N canvas 743 48 713 535 10;
#X obj 430 5 loadbang;
#X msg 430 37 0;
#X obj 431 73 hradio 12 1 0 8 empty empty empty 0 -8 0 10 -262130 -1
-1 0;
#X obj 69 513 outlet~;
#X obj 149 513 outlet~;
#X obj 229 513 outlet~;
#X obj 309 513 outlet~;
#X obj 389 513 outlet~;
#X obj 469 513 outlet~;
#X obj 549 513 outlet~;
#X obj 69 483 *~;
#X obj 149 483 *~;
#X obj 229 483 *~;
#X obj 309 483 *~;
#X obj 389 483 *~;
#X obj 469 483 *~;
#X obj 549 483 *~;
#X obj 629 483 *~;
#X obj 629 513 outlet~;
#X obj 488 204 tof/iterate;
#X obj 70 12 inlet~;
#X obj 84 448 f;
#X obj 164 448 f;
#X obj 324 448 f;
#X obj 244 448 f;
#X obj 404 448 f;
#X obj 484 448 f;
#X obj 644 448 f;
#X obj 564 448 f;
#X obj 99 418 == 0;
#X obj 181 418 == 1;
#X obj 259 418 == 2;
#X obj 339 418 == 3;
#X obj 420 418 == 4;
#X obj 499 418 == 5;
#X obj 584 414 == 6;
#X obj 668 415 == 7;
#X obj 475 291 f;
#X obj 488 234 t b f;
#X msg 488 174 8;
#X obj 475 325 demux 1 2 3 4 5 6 7 8;
#X obj 592 203 tof/iterate;
#X obj 592 233 t b f;
#X msg 592 173 8;
#X obj 565 261 0;
#X obj 433 143 t b f b;
#X connect 0 0 1 0;
#X connect 1 0 2 0;
#X connect 2 0 45 0;
#X connect 10 0 3 0;
#X connect 11 0 4 0;
#X connect 12 0 5 0;
#X connect 13 0 6 0;
#X connect 14 0 7 0;
#X connect 15 0 8 0;
#X connect 16 0 9 0;
#X connect 17 0 18 0;
#X connect 19 0 38 0;
#X connect 20 0 11 0;
#X connect 20 0 12 0;
#X connect 20 0 14 0;
#X connect 20 0 13 0;
#X connect 20 0 15 0;
#X connect 20 0 17 0;
#X connect 20 0 10 0;
#X connect 20 0 16 0;
#X connect 21 0 10 1;
#X connect 22 0 11 1;
#X connect 23 0 13 1;
#X connect 24 0 12 1;
#X connect 25 0 14 1;
#X connect 26 0 15 1;
#X connect 27 0 17 1;
#X connect 28 0 16 1;
#X connect 29 0 21 0;
#X connect 30 0 22 0;
#X connect 31 0 24 0;
#X connect 32 0 23 0;
#X connect 33 0 25 0;
#X connect 34 0 26 0;
#X connect 35 0 28 0;
#X connect 36 0 27 0;
#X connect 37 0 40 0;
#X connect 38 0 37 0;
#X connect 38 1 40 1;
#X connect 39 0 19 0;
#X connect 40 0 29 0;
#X connect 40 1 30 0;
#X connect 40 2 31 0;
#X connect 40 3 32 0;
#X connect 40 4 33 0;
#X connect 40 5 34 0;
#X connect 40 6 35 0;
#X connect 40 7 36 0;
#X connect 41 0 42 0;
#X connect 42 0 44 0;
#X connect 42 1 40 1;
#X connect 43 0 41 0;
#X connect 44 0 37 0;
#X connect 45 0 39 0;
#X connect 45 1 37 1;
#X connect 45 2 43 0;
#X coords 0 -1 1 1 99 18 2 430 70;
