#N canvas 314 315 589 390 10;
#N canvas 0 0 759 536 ssb 0;
#X obj 227 233 cos~;
#X obj 270 211 +~ -0.25;
#X obj 270 234 cos~;
#X obj 62 278 *~;
#X obj 128 278 *~;
#X obj 61 302 -~;
#X text 238 81 cosine and sine waves;
#X obj 227 187 phasor~;
#X text 162 278 <-- complex multipier;
#X text 161 295 (calculates real part);
#X text 240 97 to form the real and;
#X text 237 112 imaginary part of a;
#X text 237 129 complex sinusoid;
#X obj 62 240 hilbert~;
#X obj 62 62 inlet~;
#X obj 60 335 outlet~;
#X obj 387 280 *~;
#X obj 453 280 *~;
#X obj 386 304 -~;
#X obj 387 242 hilbert~;
#X obj 387 63 inlet~;
#X obj 385 337 outlet~;
#X obj 521 67 inlet;
#X text 501 45 shift frequency;
#X connect 0 0 3 1;
#X connect 0 0 16 1;
#X connect 1 0 2 0;
#X connect 2 0 4 1;
#X connect 2 0 17 1;
#X connect 3 0 5 0;
#X connect 4 0 5 1;
#X connect 5 0 15 0;
#X connect 7 0 1 0;
#X connect 7 0 0 0;
#X connect 13 0 3 0;
#X connect 13 1 4 0;
#X connect 14 0 13 0;
#X connect 16 0 18 0;
#X connect 17 0 18 1;
#X connect 18 0 21 0;
#X connect 19 0 16 0;
#X connect 19 1 17 0;
#X connect 20 0 19 0;
#X connect 22 0 7 0;
#X restore 53 144 pd ssb;
#X floatatom 254 102 5 0 0 0 - - -;
#X obj 152 102 hsl 99 16 0 1 0 0 empty empty SSB-Shift-Frequency 2
9 0 9 -262130 -1 -1 0 1;
#X obj 116 36 inlet~;
#X obj 52 35 inlet~;
#X obj 53 212 outlet~;
#X obj 119 212 outlet~;
#X obj 149 119 hradio 17 1 0 8 empty empty empty 0 -8 0 10 -262130
-1 -1 0;
#X obj 233 203 1;
#X obj 262 203 10;
#X obj 324 203 50;
#X obj 352 203 100;
#X obj 233 167 route 0 1 2 3 4 5 6 7;
#X obj 293 203 20;
#X obj 384 203 500;
#X obj 418 203 1000;
#X obj 278 296 mul.ld;
#X obj 333 248 f;
#X obj 457 203 5000;
#X obj 195 36 inlet;
#X connect 0 0 5 0;
#X connect 0 1 6 0;
#X connect 2 0 16 0;
#X connect 3 0 0 1;
#X connect 4 0 0 0;
#X connect 7 0 12 0;
#X connect 8 0 17 0;
#X connect 9 0 17 0;
#X connect 10 0 17 0;
#X connect 11 0 17 0;
#X connect 12 0 8 0;
#X connect 12 1 9 0;
#X connect 12 2 13 0;
#X connect 12 3 10 0;
#X connect 12 4 11 0;
#X connect 12 5 14 0;
#X connect 12 6 15 0;
#X connect 12 7 18 0;
#X connect 13 0 17 0;
#X connect 14 0 17 0;
#X connect 15 0 17 0;
#X connect 16 0 1 0;
#X connect 16 0 0 2;
#X connect 17 0 16 1;
#X connect 18 0 17 0;
#X connect 19 0 0 2;
#X coords 0 -1 1 1 138 40 1 148 99;
