#N canvas 305 239 506 422 10;
#X obj 318 26 inlet~;
#X obj 30 27 inlet~;
#X obj 379 28 inlet;
#X obj 169 240 pwm.ld;
#X obj 171 95 sig~ 1;
#X obj 170 131 -~;
#X obj 88 385 outlet~;
#X obj 29 63 +~ 0.5;
#X obj 28 128 cos~;
#X obj 28 159 *~ 0.5;
#X obj 28 187 +~ 0.5;
#X obj 28 247 clip~ 0 1;
#X obj 89 289 *~;
#X obj 365 152 expr 100/$f1;
#X obj 379 59 moses 1;
#X obj 169 385 outlet~;
#X obj 310 125 bng 15 250 50 0 empty empty empty 17 7 0 10 -262144
-1 -1;
#X msg 310 152 50;
#X obj 201 25 inlet;
#X obj 27 217 *~ 1;
#X floatatom 310 181 5 0 0 0 - - -;
#X obj 88 321 -~ 0.5;
#X obj 89 352 *~ 2;
#X obj 104 153 hsl 103 11 1 100 0 0 empty empty Hanning-Width 20 6
0 9 -262130 -1 -1 6900 1;
#X obj 210 153 nbx 5 11 -1e+037 1e+037 0 0 empty empty empty 0 -8 0
10 -262130 -1 -1 67.9706 256;
#X msg 104 62 100;
#X obj 104 26 loadbang;
#X obj 204 181 loadbang;
#X msg 197 210 1;
#X connect 0 0 5 1;
#X connect 1 0 7 0;
#X connect 2 0 14 0;
#X connect 3 0 12 1;
#X connect 3 0 15 0;
#X connect 4 0 5 0;
#X connect 5 0 3 0;
#X connect 7 0 8 0;
#X connect 8 0 9 0;
#X connect 9 0 10 0;
#X connect 10 0 19 0;
#X connect 11 0 12 0;
#X connect 12 0 21 0;
#X connect 13 0 20 0;
#X connect 14 0 16 0;
#X connect 14 1 13 0;
#X connect 16 0 17 0;
#X connect 17 0 20 0;
#X connect 18 0 23 0;
#X connect 19 0 11 0;
#X connect 20 0 3 1;
#X connect 21 0 22 0;
#X connect 22 0 6 0;
#X connect 23 0 24 0;
#X connect 24 0 19 1;
#X connect 25 0 23 0;
#X connect 26 0 25 0;
#X connect 27 0 28 0;
#X connect 28 0 3 1;
#X coords 0 -1 1 1 163 17 1 100 150;
