#N canvas 193 482 589 392 10;
#X obj 168 160 hradio 16 1 0 20 empty empty empty 3 8 0 10 -262131
-1 -262131 0;
#X text 172 160 1;
#X text 188 160 2;
#X text 203 160 3;
#X text 219 160 4;
#X text 234 160 5;
#X text 250 160 6;
#X text 266 160 7;
#X text 282 160 8;
#X text 299 160 9;
#X text 312 160 10;
#X text 328 160 11;
#X text 344 160 12;
#X text 360 160 13;
#X text 376 160 14;
#X text 392 160 15;
#X text 408 160 16;
#X text 424 160 17;
#X text 440 160 18;
#X text 455 160 19;
#X obj 168 176 hradio 16 1 0 20 empty empty empty 3 8 0 10 -262131
-262131 -262131 3;
#X text 185 176 22;
#X text 201 176 23;
#X text 216 176 24;
#X text 232 176 25;
#X text 247 176 26;
#X text 264 176 27;
#X text 279 176 28;
#X text 296 176 29;
#X text 312 176 30;
#X text 329 176 31;
#X text 345 176 32;
#X text 360 176 33;
#X text 377 176 34;
#X text 392 176 35;
#X text 408 176 36;
#X text 424 176 37;
#X text 440 176 38;
#X text 455 176 39;
#X obj 164 263 t f b;
#X msg 172 83 color 5 22 5;
#X msg 188 119 color 5 5 5;
#X msg 290 83 color 5 22 5;
#X msg 301 119 color 5 5 5;
#X obj 164 300 + 20;
#X obj 120 350 outlet;
#X obj 89 260 t f b;
#X obj 49 13 inlet;
#X obj 50 113 moses 20;
#X obj 73 174 - 20;
#X obj 50 52 clip 0 40;
#X text 487 122 20;
#X text 468 176 40;
#X text 468 159 20;
#X text 169 176 21;
#X connect 0 0 46 0;
#X connect 20 0 39 0;
#X connect 39 0 44 0;
#X connect 39 1 41 0;
#X connect 39 1 42 0;
#X connect 40 0 0 0;
#X connect 41 0 0 0;
#X connect 42 0 20 0;
#X connect 43 0 20 0;
#X connect 44 0 45 0;
#X connect 46 0 45 0;
#X connect 46 1 40 0;
#X connect 46 1 43 0;
#X connect 47 0 50 0;
#X connect 48 0 0 0;
#X connect 48 1 49 0;
#X connect 49 0 20 0;
#X connect 50 0 48 0;
#X coords 0 -1 1 1 324 38 2 166 157;
