#N canvas 611 491 450 300 10;
#X obj 100 19 inlet;
#X obj 162 21 inlet;
#X obj 100 128 list split 1;
#X obj 199 128 bng 15 250 50 0 empty empty empty 17 7 0 10 -262144
-1 -1;
#X obj 100 51 until;
#X obj 100 175 outlet;
#X obj 100 88 list append;
#X connect 0 0 4 0;
#X connect 1 0 6 1;
#X connect 2 0 5 0;
#X connect 2 1 6 1;
#X connect 2 2 3 0;
#X connect 3 0 4 1;
#X connect 4 0 6 0;
#X connect 6 0 2 0;
