#N canvas 203 23 874 736 12;
#X floatatom 47 25 0 0 20 0 - - -;
#N canvas 0 0 450 300 (subpatch) 0;
#X array \$0-env 64000 float 0;
#X coords 0 1.02 63999 -1.02 200 130 1;
#X restore 638 189 graph;
#X obj 47 52 phasor~;
#X text 126 2 ENVELOPE GENERATORS FROM LINE SEGMENTS;
#X obj 46 98 *~;
#X obj 11 165 -~;
#X obj 10 214 *~;
#X floatatom 68 75 3 0 100 0 - - -;
#X obj 16 244 min~;
#X floatatom 69 119 3 0 100 0 - - -;
#X obj 68 146 / 100;
#X floatatom 68 172 3 0 100 0 - - -;
#X obj 27 326 tabwrite~ \$0-env;
#X obj 38 306 bng 15 250 50 0 empty empty empty 0 -6 0 8 -262144 -1
-1;
#X obj 68 195 * -1;
#X text 86 24 <-- frequency (Hz.);
#X text 636 322 ----- 0.5 second ------;
#X text 107 72 <-- slope of rise segment. Just multiply this by the
phase to make the segment.;
#X text 129 140 Subtract this to make the phasor cross zero at the
desired point of the cycle.;
#X text 107 173 <-- slope of decay segment.;
#X text 112 190 multiply the phasor (with the zero crossing shifted
as above) by the desired slope \, negating it so the segment points
downward.;
#X text 63 244 minimum of rise and decay segments (makes a triangle
wave);
#X obj 17 267 clip~ 0 1;
#X text 109 266 clip the triangle wave to between 0 and 1 \, to make
the sustain and silent regions.;
#X text 108 121 <-- Duty cycle (end of decay segment as % of cycle.)
;
#X text 60 304 <-- click to graph envelope shape;
#X floatatom 242 36 5 0 0 0 - - -;
#X connect 0 0 2 0;
#X connect 2 0 4 0;
#X connect 2 0 5 0;
#X connect 4 0 8 1;
#X connect 5 0 6 0;
#X connect 6 0 8 0;
#X connect 7 0 4 1;
#X connect 8 0 22 0;
#X connect 9 0 10 0;
#X connect 10 0 5 1;
#X connect 11 0 14 0;
#X connect 13 0 12 0;
#X connect 13 0 26 0;
#X connect 14 0 6 1;
#X connect 22 0 12 0;
#X connect 26 0 2 1;
