#N canvas 496 12 944 738 10;
#X obj 370 292 spigot;
#X msg 231 596 1;
#X msg 276 596 0;
#X obj 403 255 r \$1;
#X obj 20 27 inlet;
#X obj 329 356 list;
#X floatatom 430 291 5 0 0 0 - - -;
#X obj 231 640 outlet;
#X obj 405 638 outlet;
#X obj 329 386 drip;
#X obj 655 497 + 1;
#X obj 557 595 zl nth;
#X obj 603 552 f;
#X obj 741 34 inlet;
#X obj 557 553 list;
#X obj 557 638 outlet;
#X text 779 27 list of corresponding;
#X text 779 40 values to output on match;
#X obj 618 497 f 1;
#X msg 618 450 1;
#X obj 76 71 pdtoAscii;
#X obj 20 71 listOp;
#X obj 329 418 t b f;
#X obj 356 453 select;
#X obj 618 31 keyup;
#X obj 367 26 key;
#X floatatom 327 54 5 0 0 0 - - -;
#X obj 418 176 f 0;
#X obj 418 215 sel 0;
#X obj 618 176 f 0;
#X obj 618 132 t b f;
#X obj 618 252 select;
#X obj 367 125 t f f f b;
#X obj 367 92 change;
#X obj 356 486 t b b b b;
#X obj 405 595 f;
#X obj 370 327 t b f f;
#X msg 378 66 set 0;
#X text 444 170 stores last;
#X text 446 180 keycode;
#X text 643 169 stores last;
#X text 645 179 keycode;
#X text 408 86 removes auto-;
#X text 408 97 repeat keys;
#X text 439 249 \$1 = global;
#X text 439 260 key on/off;
#X text 455 207 simulate;
#X text 455 219 keyup;
#X text 683 482 Bump a counter to keep;
#X text 684 512 matched on each output from drip;
#X text 629 545 Stores the index of the last attempted;
#X text 629 557 match. Output when a match succeeds.;
#X text 154 589 Output 1 on;
#X text 155 602 key match;
#X text 16 103 into a list of their;
#X text 16 117 ASCII codes;
#X text 16 90 converts list of symbols;
#X text 432 591 Output matching;
#X text 433 603 keycode;
#X text 206 485 left input;
#X text 207 442 match keycode against;
#X text 206 455 each entry in the list;
#X text 207 470 of ASCII codes from the;
#X text 665 239 Do keyup only if the value from;
#X text 665 252 keyup is the same as the last value;
#X text 664 265 from key (down);
#X text 683 497 track of which index is being;
#X text 649 442 start at index one since;
#X text 304 577 Output 0 on;
#X text 304 589 key up. Stays;
#X text 304 601 0 until next;
#X text 303 612 match;
#X text 602 588 Get the correspond value from the;
#X text 601 600 list sent to the right inlet;
#X text 648 456 that's what zl nth needs;
#X obj 171 26 inlet;
#X text 59 33 names to match;
#X text 60 21 list of key;
#X text 211 20 list of key;
#X text 211 32 codes to match;
#X connect 0 0 36 0;
#X connect 1 0 7 0;
#X connect 2 0 7 0;
#X connect 3 0 6 0;
#X connect 3 0 0 1;
#X connect 4 0 21 0;
#X connect 5 0 9 0;
#X connect 9 0 22 0;
#X connect 10 0 18 1;
#X connect 11 0 15 0;
#X connect 12 0 11 1;
#X connect 13 0 14 1;
#X connect 14 0 11 0;
#X connect 18 0 10 0;
#X connect 18 0 12 1;
#X connect 19 0 18 0;
#X connect 20 0 21 1;
#X connect 21 0 5 1;
#X connect 21 1 20 0;
#X connect 22 0 18 0;
#X connect 22 1 23 0;
#X connect 23 0 34 0;
#X connect 24 0 30 0;
#X connect 24 0 37 0;
#X connect 25 0 26 0;
#X connect 25 0 33 0;
#X connect 27 0 28 0;
#X connect 28 1 19 0;
#X connect 28 1 2 0;
#X connect 29 0 31 0;
#X connect 30 0 29 0;
#X connect 30 1 31 1;
#X connect 31 0 19 0;
#X connect 31 0 2 0;
#X connect 32 0 29 1;
#X connect 32 1 27 1;
#X connect 32 2 0 0;
#X connect 32 3 27 0;
#X connect 33 0 32 0;
#X connect 34 0 1 0;
#X connect 34 1 35 0;
#X connect 34 2 14 0;
#X connect 34 3 12 0;
#X connect 35 0 8 0;
#X connect 36 0 5 0;
#X connect 36 1 23 1;
#X connect 36 2 35 1;
#X connect 37 0 33 0;
#X connect 75 0 5 1;
