#N canvas 228 97 450 319 10;
#X msg 45 27 1;
#X msg 175 106 a b c d;
#X floatatom 43 61 5 0 0 0 - - #0-keys-out;
#X obj 174 137 keys.ld \$0-keys-out;
#X floatatom 167 174 5 0 0 0 - - -;
#X msg 285 107 1 2 3 4;
#X msg 130 58 e;
#X obj 284 249 bng 15 250 50 0 empty empty empty 17 7 0 10 -262144
-1 -1;
#X obj 304 250 bng 15 250 50 0 empty empty empty 17 7 0 10 -262144
-1 -1;
#X obj 327 249 bng 15 250 50 0 empty empty empty 17 7 0 10 -262144
-1 -1;
#X obj 353 249 bng 15 250 50 0 empty empty empty 17 7 0 10 -262144
-1 -1;
#X msg 283 176 \$1;
#X obj 45 160 zl nth;
#X floatatom 86 126 5 0 0 0 - - -;
#X obj 47 210 print;
#X msg 31 93 a b c d e f;
#X obj 329 163 print matched;
#X obj 186 247 print key;
#X msg 244 58 22;
#X msg 154 83 1 2 3 4 5;
#X msg 266 83 0 2 4 8 16;
#X obj 284 209 route 0 2 4 8 16;
#X obj 384 250 bng 15 250 50 0 empty empty empty 17 7 0 10 -262144
-1 -1;
#X connect 0 0 2 0;
#X connect 1 0 3 0;
#X connect 3 0 4 0;
#X connect 3 1 17 0;
#X connect 3 2 16 0;
#X connect 3 2 11 0;
#X connect 5 0 3 1;
#X connect 6 0 3 0;
#X connect 11 0 21 0;
#X connect 12 0 14 0;
#X connect 13 0 12 1;
#X connect 15 0 12 0;
#X connect 18 0 3 1;
#X connect 19 0 3 0;
#X connect 20 0 3 1;
#X connect 21 0 7 0;
#X connect 21 1 8 0;
#X connect 21 2 9 0;
#X connect 21 3 10 0;
#X connect 21 4 22 0;
