#N canvas 654 245 904 565 12;
#X obj 114 94 bng 15 250 50 0 empty empty empty 17 7 0 10 -262144 -1
-1;
#X obj 58 -169 openpanel;
#X msg 55 14 set \$1;
#X obj 177 -53 soundfiler;
#X obj 178 94 bng 15 250 50 0 empty empty empty 17 7 0 10 -262144 -1
-1;
#X obj 578 292 outlet;
#N canvas 0 0 450 300 (subpatch) 0;
#X array \$0-smp 4e+006 float 2;
#X coords 0 1 4e+006 -1 285 140 1;
#X restore 54 140 graph;
#X obj 55 -21 splitfilename;
#X text 131 91 Open;
#X text 195 91 Normalize;
#X symbolatom 54 297 40 0 0 0 - - -;
#X msg 14 358 set name;
#X obj 14 325 loadbang;
#X obj 577 262 outlet~;
#X obj 274 95 bng 15 250 50 0 empty empty empty 17 7 0 10 -262144 -1
-1;
#X text 291 92 Clear;
#X obj 574 78 phasor~;
#X obj 500 21 /;
#X obj 499 51 f;
#X obj 113 121 tgl 15 0 empty empty empty 17 7 0 10 -262144 -1 -1 0
1;
#X text 132 120 Play;
#X obj 586 0 t f b b;
#X floatatom 626 36 5 0 0 0 - - -;
#X floatatom 301 116 6 0 0 0 - - -;
#X floatatom 232 116 8 0 0 0 - - -;
#X obj 576 162 *~;
#X text 674 36 reset phase on start;
#X obj 251 -25 t b f;
#X text 634 294 OUT2: num samples;
#X text 637 262 OUT1: sample data;
#X obj 57 281 hsl 280 10 0 1 0 0 empty empty empty -2 -8 0 10 -262144
-1 -1 0 1;
#X obj 463 159 unsig~ 50;
#X obj 576 113 *~;
#X text 607 163 Phasor (0-1) * Num Samples;
#X text 607 112 Phasor (0-1) * On/Off;
#X obj 474 92 expr 1 / $f1;
#X obj 499 -12 * 44100;
#X floatatom 497 -58 5 0 0 0 - - -;
#X msg 497 -108 set 1;
#X obj 497 -145 loadbang;
#X obj 613 -101 inlet;
#X obj 430 0 f;
#X obj 581 324 outlet;
#X text 640 323 OUT3: Start/Stop Toggle;
#X obj 578 196 tabread4~ \$0-smp;
#X obj 264 -148 symbol \$0-smp;
#X msg 177 -80 read -resize \$1 \$2;
#X obj 167 -114 pack s s;
#X symbolatom 287 -110 10 0 0 0 - - -;
#X obj 141 -143 t s b;
#X msg 460 221 \; \$1 normalize;
#X msg 460 301 \; \$1 const 0;
#X obj 458 188 symbol \$0-smp;
#X obj 461 269 symbol \$0-smp;
#X text 658 -102 IN1: Playback ratio;
#X text 645 -1 <-- bang reset \, bang freq \, 1 to *~;
#X connect 0 0 1 0;
#X connect 1 0 7 0;
#X connect 1 0 49 0;
#X connect 2 0 10 0;
#X connect 3 0 5 0;
#X connect 3 0 24 0;
#X connect 3 0 25 1;
#X connect 3 0 27 0;
#X connect 4 0 52 0;
#X connect 7 1 2 0;
#X connect 11 0 10 0;
#X connect 12 0 11 0;
#X connect 14 0 53 0;
#X connect 16 0 32 0;
#X connect 17 0 18 0;
#X connect 18 0 16 0;
#X connect 18 0 35 0;
#X connect 19 0 21 0;
#X connect 19 0 42 0;
#X connect 21 0 32 1;
#X connect 21 1 22 0;
#X connect 21 2 18 0;
#X connect 22 0 16 1;
#X connect 25 0 44 0;
#X connect 27 0 37 0;
#X connect 27 1 41 0;
#X connect 31 0 30 0;
#X connect 32 0 25 0;
#X connect 32 0 31 0;
#X connect 35 0 23 0;
#X connect 36 0 17 0;
#X connect 37 0 36 0;
#X connect 38 0 37 0;
#X connect 39 0 38 0;
#X connect 40 0 37 0;
#X connect 41 0 17 1;
#X connect 44 0 13 0;
#X connect 45 0 48 0;
#X connect 46 0 3 0;
#X connect 47 0 46 0;
#X connect 48 0 47 1;
#X connect 49 0 47 0;
#X connect 49 1 45 0;
#X connect 52 0 50 0;
#X connect 53 0 51 0;
#X coords 0 -1 1 1 300 232 1 50 50;
