#N canvas 264 107 450 300 10;
#X obj 191 122 inlet;
#X obj 191 155 log;
#X obj 233 94 loadbang;
#X msg 233 122 2;
#X obj 191 187 div.ld;
#X obj 191 223 outlet;
#X text 58 22 log-base-a (x) = log-base-b (x) / log-base-b (a) \; so
\; log-base-2 (x) = log(x)/log(2);
#X obj 224 156 log;
#X connect 0 0 1 0;
#X connect 1 0 4 0;
#X connect 2 0 3 0;
#X connect 3 0 7 0;
#X connect 4 0 5 0;
#X connect 7 0 4 1;
