#N canvas 699 117 697 524 10;
#X obj 163 26 midirealtimein;
#X obj 65 307 bng 15 250 50 0 empty empty empty 17 7 0 10 -262144 -1
-1;
#X obj 86 307 bng 15 250 50 0 empty empty empty 17 7 0 10 -262144 -1
-1;
#X obj 108 307 bng 15 250 50 0 empty empty empty 17 7 0 10 -262144
-1 -1;
#X obj 130 307 bng 15 250 50 0 empty empty empty 17 7 0 10 -262144
-1 -1;
#X obj 113 239 mod 96;
#X obj 201 207 + 1;
#X obj 163 207 f;
#X obj 65 274 sel 0 24 48 72;
#X obj 163 97 == 248;
#X obj 190 156 del 500;
#X msg 190 179 0;
#X obj 163 129 t b b;
#X obj 323 -20 cnv 15 180 100 empty empty empty 20 12 0 14 -228856
-66577 0;
#X obj 339 5 tgl 15 0 empty empty empty 17 7 0 10 -262144 -1 -1 0 1
;
#X obj 386 28 metro 20;
#X floatatom 437 7 5 0 0 0 - - -;
#X msg 386 53 248;
#X text 343 -26 comment;
#X text 325 -19 ditch this - for testing only;
#X text 220 176 < resets counter to 0;
#X obj 65 336 t b;
#X obj 66 369 bng 15 250 50 0 empty empty empty 17 7 0 10 -262144 -1
-1;
#X obj 172 273 sel 0;
#X obj 172 240 mod 24;
#X obj 171 308 bng 15 250 50 0 empty empty empty 17 7 0 10 -262144
-1 -1;
#X text 248 231 < you have two different options here a) separate out
the beats or b) use in the more conventional [metro] form.;
#X text -47 -52 This is the simplest method to grab midiclock. There's
probably better methods of resetting the counter but this works for
most purposes. Hope it helps!;
#X connect 0 0 9 0;
#X connect 1 0 21 0;
#X connect 2 0 21 0;
#X connect 3 0 21 0;
#X connect 4 0 21 0;
#X connect 5 0 8 0;
#X connect 6 0 7 1;
#X connect 7 0 6 0;
#X connect 7 0 5 0;
#X connect 7 0 24 0;
#X connect 8 0 1 0;
#X connect 8 1 2 0;
#X connect 8 2 3 0;
#X connect 8 3 4 0;
#X connect 9 0 12 0;
#X connect 10 0 11 0;
#X connect 11 0 7 1;
#X connect 12 0 7 0;
#X connect 12 1 10 0;
#X connect 14 0 15 0;
#X connect 15 0 17 0;
#X connect 16 0 15 1;
#X connect 17 0 9 0;
#X connect 21 0 22 0;
#X connect 23 0 25 0;
#X connect 24 0 23 0;
