#N canvas 937 91 450 526 10;
#X obj 58 39 notein;
#X floatatom 41 84 5 0 0 0 - - -;
#X floatatom 85 87 5 0 0 0 - - -;
#X floatatom 128 88 5 0 0 0 - - -;
#X obj 114 167 makenote;
#X obj 188 376 noteout;
#X msg 213 343 72 0 1;
#X msg 196 318 \$1 100 1;
#X obj 199 196 hsl 128 15 60 85 0 0 empty empty empty -2 -8 0 10 -262144
-1 -1 3800 1;
#X floatatom 240 237 5 0 0 0 - - -;
#X obj 196 233 div;
#X floatatom 197 262 5 0 0 0 - - -;
#X obj 197 291 change;
#X obj 164 26 tgl 15 0 empty empty empty 17 7 0 10 -262144 -1 -1 0
1;
#X obj 208 51 metro 250;
#X obj 210 85 random 25;
#X obj 221 132 + 60;
#X obj 253 23 hsl 128 15 0 127 0 0 empty empty empty -2 -8 0 10 -262144
-1 -1 11800 1;
#X connect 0 0 1 0;
#X connect 0 1 2 0;
#X connect 0 2 3 0;
#X connect 6 0 5 0;
#X connect 7 0 5 0;
#X connect 8 0 9 0;
#X connect 8 0 10 0;
#X connect 10 0 11 0;
#X connect 11 0 12 0;
#X connect 12 0 7 0;
#X connect 13 0 14 0;
#X connect 14 0 15 0;
#X connect 15 0 16 0;
#X connect 16 0 11 0;
#X connect 17 0 14 1;
