#N canvas 244 71 1183 695 10;
#X obj -3 14 inlet~;
#X obj 95 13 inlet~;
#X obj 555 104 hsl 100 9 0 1 0 0 \$0-vol-out-1 \$0-vol-in-1 1 40 6
0 9 -262130 -1 -1 9900 1;
#X obj 555 114 hsl 100 9 0 1 0 0 \$0-vol-out-2 \$0-vol-in-2 2 40 6
0 9 -262130 -1 -1 9900 1;
#X obj 555 124 hsl 100 9 0 1 0 0 \$0-vol-out-3 \$0-vol-in-3 3 40 6
0 9 -262130 -1 -1 9900 1;
#X obj 555 134 hsl 100 9 0 1 0 0 \$0-vol-out-4 \$0-vol-in-4 4 40 6
0 9 -262130 -1 -1 9900 1;
#X obj 558 144 hsl 97 12 0 1 0 0 \$0-vol-out-master \$0-vol-in-master
Master 28 7 0 9 -262130 -1 -1 9600 1;
#X obj 198 12 inlet~;
#X obj 304 11 inlet~;
#X obj -3 186 *~ 0;
#X obj 95 186 *~ 0;
#X obj 198 184 *~ 0;
#X obj 303 181 *~ 0;
#X obj 40 442 line~;
#X obj 41 609 *~;
#X obj 55 575 hip~ 3;
#X obj -9 516 send pd;
#X msg -9 495 dsp 1;
#X obj 40 408 pack 0 50;
#X msg 40 373 0;
#X obj 40 341 moses 0.011;
#X obj 54 538 *~;
#X obj 40 644 dac~;
#X obj 713 2 inlet;
#X obj 182 384 r \$0-vol-out-1;
#X obj 208 407 r \$0-mute-out-1;
#X obj 542 104 tgl 9 0 \$0-mute-out-1 \$0-mute-in-1 empty 17 7 0 10
-258699 -1 -1 0 1;
#X obj 542 114 tgl 9 0 \$0-mute-out-2 \$0-mute-in-2 empty 17 7 0 10
-24198 -1 -1 1 1;
#X obj 542 124 tgl 9 0 \$0-mute-out-3 \$0-mute-in-3 empty 17 7 0 10
-258699 -1 -1 0 1;
#X obj 542 134 tgl 9 0 \$0-mute-out-4 \$0-mute-in-4 empty 17 7 0 10
-258699 -1 -1 0 1;
#X obj 542 144 tgl 12 0 \$0-mute-out-master \$0-mute-in-master empty
17 7 0 10 -24198 -1 -1 1 1;
#X floatatom 32 186 5 0 0 0 - - -;
#X obj 18 151 r \$0-mul-1;
#X obj 182 467 s \$0-mul-1;
#X floatatom 130 185 5 0 0 0 - - -;
#X obj 116 150 r \$0-mul-2;
#X floatatom 233 184 5 0 0 0 - - -;
#X obj 219 151 r \$0-mul-3;
#X floatatom 338 181 5 0 0 0 - - -;
#X obj 40 306 r \$0-vol-out-master;
#X obj 386 409 r \$0-mute-out-2;
#X obj 361 385 r \$0-vol-out-2;
#X obj 361 468 s \$0-mul-2;
#X obj 559 409 r \$0-mute-out-3;
#X obj 544 381 r \$0-vol-out-3;
#X obj 544 471 s \$0-mul-3;
#X obj 734 405 r \$0-mute-out-4;
#X obj 717 377 r \$0-vol-out-4;
#X obj 717 470 s \$0-mul-4;
#X obj 324 150 r \$0-mul-4;
#X obj 909 405 r \$0-mute-out-master;
#X obj 894 378 r \$0-vol-out-master;
#X obj 894 470 s \$0-mul-master;
#X floatatom 87 526 5 0 0 0 - - -;
#X obj 69 503 r \$0-mul-master;
#N canvas 272 161 353 269 muteout 0;
#X obj 83 147 f;
#X obj 83 177 *;
#X obj 83 56 sel 0 1;
#X obj 83 111 t b b;
#X obj 141 111 t b b;
#X obj 83 21 inlet;
#X obj 31 22 inlet;
#X obj 84 217 outlet;
#X obj 112 146 0;
#X obj 141 145 1;
#X connect 0 0 1 0;
#X connect 1 0 7 0;
#X connect 2 0 3 0;
#X connect 2 1 4 0;
#X connect 3 0 0 0;
#X connect 3 1 8 0;
#X connect 4 0 0 0;
#X connect 4 1 9 0;
#X connect 5 0 2 0;
#X connect 6 0 0 0;
#X connect 8 0 1 1;
#X connect 9 0 1 1;
#X restore 182 442 pd muteout;
#N canvas 272 161 444 316 muteout 0;
#X obj 129 197 f;
#X obj 129 227 *;
#X obj 129 106 sel 0 1;
#X obj 129 161 t b b;
#X obj 187 161 t b b;
#X obj 129 71 inlet;
#X obj 77 72 inlet;
#X obj 130 267 outlet;
#X obj 158 196 0;
#X obj 187 195 1;
#X connect 0 0 1 0;
#X connect 1 0 7 0;
#X connect 2 0 3 0;
#X connect 2 1 4 0;
#X connect 3 0 0 0;
#X connect 3 1 8 0;
#X connect 4 0 0 0;
#X connect 4 1 9 0;
#X connect 5 0 2 0;
#X connect 6 0 0 0;
#X connect 8 0 1 1;
#X connect 9 0 1 1;
#X restore 361 443 pd muteout;
#N canvas 272 161 444 316 muteout 0;
#X obj 129 197 f;
#X obj 129 227 *;
#X obj 129 106 sel 0 1;
#X obj 129 161 t b b;
#X obj 187 161 t b b;
#X obj 129 71 inlet;
#X obj 77 72 inlet;
#X obj 130 267 outlet;
#X obj 158 196 0;
#X obj 187 195 1;
#X connect 0 0 1 0;
#X connect 1 0 7 0;
#X connect 2 0 3 0;
#X connect 2 1 4 0;
#X connect 3 0 0 0;
#X connect 3 1 8 0;
#X connect 4 0 0 0;
#X connect 4 1 9 0;
#X connect 5 0 2 0;
#X connect 6 0 0 0;
#X connect 8 0 1 1;
#X connect 9 0 1 1;
#X restore 544 445 pd muteout;
#N canvas 272 161 444 316 muteout 0;
#X obj 129 197 f;
#X obj 129 227 *;
#X obj 129 106 sel 0 1;
#X obj 129 161 t b b;
#X obj 187 161 t b b;
#X obj 129 71 inlet;
#X obj 77 72 inlet;
#X obj 130 267 outlet;
#X obj 158 196 0;
#X obj 187 195 1;
#X connect 0 0 1 0;
#X connect 1 0 7 0;
#X connect 2 0 3 0;
#X connect 2 1 4 0;
#X connect 3 0 0 0;
#X connect 3 1 8 0;
#X connect 4 0 0 0;
#X connect 4 1 9 0;
#X connect 5 0 2 0;
#X connect 6 0 0 0;
#X connect 8 0 1 1;
#X connect 9 0 1 1;
#X restore 717 441 pd muteout;
#N canvas 272 161 444 316 muteout 0;
#X obj 129 197 f;
#X obj 129 227 *;
#X obj 129 106 sel 0 1;
#X obj 129 161 t b b;
#X obj 187 161 t b b;
#X obj 129 71 inlet;
#X obj 77 72 inlet;
#X obj 130 267 outlet;
#X obj 158 196 0;
#X obj 187 194 1;
#X connect 0 0 1 0;
#X connect 1 0 7 0;
#X connect 2 0 3 0;
#X connect 2 1 4 0;
#X connect 3 0 0 0;
#X connect 3 1 8 0;
#X connect 4 0 0 0;
#X connect 4 1 9 0;
#X connect 5 0 2 0;
#X connect 6 0 0 0;
#X connect 8 0 1 1;
#X connect 9 0 1 1;
#X restore 894 441 pd muteout;
#X obj 713 84 unpack f f f f f f f f f f;
#X obj 713 315 s \$0-mute-in-1;
#X obj 747 268 s \$0-mute-in-2;
#X obj 781 222 s \$0-mute-in-3;
#X obj 815 178 s \$0-mute-in-4;
#X obj 730 291 s \$0-vol-in-1;
#X obj 764 245 s \$0-vol-in-2;
#X obj 798 200 s \$0-vol-in-3;
#X obj 832 155 s \$0-vol-in-4;
#X obj 866 110 s \$0-vol-in-master;
#X obj 849 133 s \$0-mute-in-master;
#X msg 438 614 \; \$2-mute-in-\$3 color \$1 22;
#X obj 438 442 sel 0;
#X obj 475 470 bng 15 250 50 0 empty empty empty 17 7 0 10 -262144
-1 -1;
#X obj 438 522 pack f \$0 2;
#X obj 621 444 sel 0;
#X obj 658 469 bng 15 250 50 0 empty empty empty 17 7 0 10 -262144
-1 -1;
#X obj 621 518 pack f \$0 3;
#X obj 795 440 sel 0;
#X obj 832 463 bng 15 250 50 0 empty empty empty 17 7 0 10 -262144
-1 -1;
#X obj 795 514 pack f \$0 4;
#X obj 998 446 sel 0;
#X obj 1035 469 bng 15 250 50 0 empty empty empty 17 7 0 10 -262144
-1 -1;
#X obj 976 568 pack f \$0 s;
#X obj 1039 543 symbol master;
#X obj 1012 518 t f b;
#X obj 255 441 sel 0;
#X obj 292 471 bng 15 250 50 0 empty empty empty 17 7 0 10 -262144
-1 -1;
#X obj 255 524 pack f \$0 1;
#X obj 255 496 13;
#X obj 292 496 16;
#X obj 438 493 13;
#X obj 475 494 16;
#X obj 621 490 13;
#X obj 658 490 16;
#X obj 795 486 13;
#X obj 832 486 16;
#X obj 998 492 13;
#X obj 1035 491 16;
#X obj 767 19 loadbang;
#X obj 114 569 sigout;
#X obj 55 472 catch~ \$0-out;
#X obj -4 219 throw~ \$0-out;
#X obj 94 218 throw~ \$0-out;
#X obj 197 217 throw~ \$0-out;
#X obj 303 216 throw~ \$0-out;
#X msg 767 46 1 1 0 1 0 1 0 1 1 1;
#X obj 61 265 sigout;
#X connect 0 0 9 0;
#X connect 1 0 10 0;
#X connect 7 0 11 0;
#X connect 8 0 12 0;
#X connect 9 0 102 0;
#X connect 10 0 103 0;
#X connect 11 0 104 0;
#X connect 12 0 105 0;
#X connect 13 0 14 0;
#X connect 14 0 22 0;
#X connect 14 0 22 1;
#X connect 15 0 14 1;
#X connect 17 0 16 0;
#X connect 18 0 13 0;
#X connect 19 0 18 0;
#X connect 20 0 19 0;
#X connect 20 1 18 0;
#X connect 21 0 100 0;
#X connect 21 0 15 0;
#X connect 23 0 60 0;
#X connect 24 0 55 0;
#X connect 25 0 55 1;
#X connect 25 0 86 0;
#X connect 32 0 9 1;
#X connect 32 0 31 0;
#X connect 35 0 34 0;
#X connect 35 0 10 1;
#X connect 37 0 36 0;
#X connect 37 0 11 1;
#X connect 39 0 17 0;
#X connect 39 0 20 0;
#X connect 40 0 56 1;
#X connect 40 0 72 0;
#X connect 41 0 56 0;
#X connect 43 0 57 1;
#X connect 43 0 75 0;
#X connect 44 0 57 0;
#X connect 46 0 58 1;
#X connect 46 0 78 0;
#X connect 47 0 58 0;
#X connect 49 0 38 0;
#X connect 49 0 12 1;
#X connect 50 0 59 1;
#X connect 50 0 81 0;
#X connect 51 0 59 0;
#X connect 54 0 21 1;
#X connect 54 0 53 0;
#X connect 55 0 33 0;
#X connect 56 0 42 0;
#X connect 57 0 45 0;
#X connect 58 0 48 0;
#X connect 59 0 52 0;
#X connect 60 0 61 0;
#X connect 60 1 65 0;
#X connect 60 2 62 0;
#X connect 60 3 66 0;
#X connect 60 4 63 0;
#X connect 60 5 67 0;
#X connect 60 6 64 0;
#X connect 60 7 68 0;
#X connect 60 8 70 0;
#X connect 60 9 69 0;
#X connect 72 0 91 0;
#X connect 72 1 73 0;
#X connect 73 0 92 0;
#X connect 74 0 71 0;
#X connect 75 0 93 0;
#X connect 75 1 76 0;
#X connect 76 0 94 0;
#X connect 77 0 71 0;
#X connect 78 0 95 0;
#X connect 78 1 79 0;
#X connect 79 0 96 0;
#X connect 80 0 71 0;
#X connect 81 0 97 0;
#X connect 81 1 82 0;
#X connect 82 0 98 0;
#X connect 83 0 71 0;
#X connect 84 0 83 2;
#X connect 85 0 83 0;
#X connect 85 1 84 0;
#X connect 86 0 89 0;
#X connect 86 1 87 0;
#X connect 87 0 90 0;
#X connect 88 0 71 0;
#X connect 89 0 88 0;
#X connect 90 0 88 0;
#X connect 91 0 74 0;
#X connect 92 0 74 0;
#X connect 93 0 77 0;
#X connect 94 0 77 0;
#X connect 95 0 80 0;
#X connect 96 0 80 0;
#X connect 97 0 85 0;
#X connect 98 0 85 0;
#X connect 99 0 106 0;
#X connect 101 0 21 0;
#X connect 106 0 60 0;
#X coords 0 -1 1 1 117 56 2 541 101;
