#N canvas 126 235 671 478 10;
#X obj 34 -17 inlet~;
#X obj 84 -17 inlet~;
#X obj 504 63 hsl 100 9 0 1 0 0 empty empty 1 41 5 0 8 -262130 -1 -1
0 1;
#X obj 504 72 hsl 100 9 0 1 0 0 empty empty 2 41 5 0 8 -262130 -1 -1
9900 1;
#X obj 504 81 hsl 100 9 0 1 0 0 empty empty 3 41 5 0 8 -262130 -1 -1
0 1;
#X obj 504 90 hsl 100 9 0 1 0 0 empty empty 4 41 5 0 8 -262130 -1 -1
0 1;
#X obj 504 135 hsl 100 12 0 1 0 0 empty empty Master 28 7 0 9 -262130
-1 -1 9900 1;
#X obj 133 -17 inlet~;
#X obj 184 -16 inlet~;
#X obj 34 162 *~ 0;
#X obj 84 163 *~ 0;
#X obj 133 162 *~ 0;
#X obj 183 161 *~ 0;
#X obj 575 353 line~;
#X obj 532 401 *~;
#X obj 492 353 hip~ 3;
#X obj 501 274 send pd;
#X msg 501 244 dsp 1;
#N canvas 679 297 361 328 mute 0;
#X obj 23 20 inlet;
#X obj 173 20 inlet;
#X obj 222 208 float;
#X obj 265 121 tgl 15 1 empty empty empty 17 7 0 10 -262144 -1 -1 1
1;
#X obj 222 162 spigot;
#X obj 172 41 trigger bang bang;
#X obj 254 263 outlet;
#X msg 274 208 0;
#X obj 274 163 select 0;
#X obj 127 64 bang;
#X msg 127 85 set 1;
#X obj 65 304 send \$0-MUTE_TOGGLE;
#X msg 65 283 color \$1 13 20;
#X obj 65 235 bang;
#X msg 65 255 0;
#X msg 98 255 3;
#X connect 0 0 2 1;
#X connect 0 0 9 0;
#X connect 1 0 5 0;
#X connect 2 0 6 0;
#X connect 2 0 13 0;
#X connect 3 0 4 1;
#X connect 3 0 8 0;
#X connect 4 0 2 0;
#X connect 5 0 4 0;
#X connect 5 1 3 0;
#X connect 7 0 6 0;
#X connect 8 0 7 0;
#X connect 8 0 15 0;
#X connect 9 0 10 0;
#X connect 9 0 13 0;
#X connect 10 0 3 0;
#X connect 12 0 11 0;
#X connect 13 0 14 0;
#X connect 14 0 12 0;
#X connect 15 0 12 0;
#X restore 575 190 pd mute;
#X obj 575 312 pack 0 50;
#X msg 575 274 0;
#X obj 575 238 moses 0.011;
#X obj 55 196 +~;
#X obj 154 199 +~;
#X obj 99 228 +~;
#X obj 531 429 dac~;
#X obj 504 99 hsl 100 9 0 1 0 0 empty empty 5 41 5 0 8 -262130 -1 -1
0 1;
#X obj 504 108 hsl 100 9 0 1 0 0 empty empty 6 41 5 0 8 -262130 -1
-1 0 1;
#X obj 504 117 hsl 100 9 0 1 0 0 empty empty 7 41 5 0 8 -262130 -1
-1 0 1;
#X obj 504 126 hsl 100 9 0 1 0 0 empty empty 8 41 5 0 8 -262130 -1
-1 0 1;
#X obj 231 -15 inlet~;
#X obj 281 -15 inlet~;
#X obj 330 -15 inlet~;
#X obj 381 -14 inlet~;
#X obj 231 164 *~ 0;
#X obj 281 165 *~ 0;
#X obj 330 164 *~ 0;
#X obj 380 163 *~ 0;
#X obj 252 198 +~;
#X obj 351 201 +~;
#X obj 296 230 +~;
#X obj 198 257 +~;
#X obj 198 294 *~;
#X connect 0 0 9 0;
#X connect 1 0 10 0;
#X connect 2 0 9 1;
#X connect 3 0 10 1;
#X connect 4 0 11 1;
#X connect 5 0 12 1;
#X connect 6 0 17 0;
#X connect 6 0 21 0;
#X connect 6 0 18 0;
#X connect 6 0 42 1;
#X connect 7 0 11 0;
#X connect 8 0 12 0;
#X connect 9 0 22 0;
#X connect 10 0 22 1;
#X connect 11 0 23 0;
#X connect 12 0 23 1;
#X connect 13 0 14 0;
#X connect 14 0 25 0;
#X connect 14 0 25 1;
#X connect 15 0 14 1;
#X connect 17 0 16 0;
#X connect 18 0 21 0;
#X connect 18 0 6 0;
#X connect 19 0 13 0;
#X connect 20 0 19 0;
#X connect 21 0 20 0;
#X connect 21 1 19 0;
#X connect 22 0 24 0;
#X connect 23 0 24 1;
#X connect 24 0 41 0;
#X connect 26 0 34 1;
#X connect 27 0 35 1;
#X connect 28 0 36 1;
#X connect 29 0 37 1;
#X connect 30 0 34 0;
#X connect 31 0 35 0;
#X connect 32 0 36 0;
#X connect 33 0 37 0;
#X connect 34 0 38 0;
#X connect 35 0 38 1;
#X connect 36 0 39 0;
#X connect 37 0 39 1;
#X connect 38 0 40 0;
#X connect 39 0 40 1;
#X connect 40 0 41 1;
#X connect 41 0 42 0;
#X connect 42 0 15 0;
#X coords 0 -1 1 1 107 88 2 500 60;
