#N canvas 295 181 450 300 10;
#X symbolatom 104 113 20 0 0 0 - #0-filename -;
#X obj 107 129 hsl 117 10 0 1 0 0 empty \$0-play-pos empty -2 -8 0
10 -262130 -1 -1 0 1;
#X msg 163 25 zero;
#X obj 275 31 MouseState;
#X obj 73 44 loadbang;
#X floatatom 111 141 5 0 0 0 - - -;
#X floatatom 166 143 5 0 0 0 - - -;
#X msg 219 55 poll;
#X obj 86 74 t b b;
#X connect 3 1 5 0;
#X connect 3 2 6 0;
#X connect 4 0 8 0;
#X connect 7 0 3 0;
#X connect 8 0 7 0;
#X connect 8 1 2 0;
#X coords 0 -1 1 1 130 60 1 100 100;
