#N canvas 95 244 450 300 10;
#X obj 101 47 inlet;
#X obj 101 82 t f b;
#X obj 128 115 samplerate~;
#X obj 128 145 / 1000;
#X obj 101 176 *;
#X obj 101 211 outlet;
#X connect 0 0 1 0;
#X connect 1 0 4 0;
#X connect 1 1 2 0;
#X connect 2 0 3 0;
#X connect 3 0 4 1;
#X connect 4 0 5 0;
