#N canvas 162 72 450 300 10;
#X obj 27 10 inlet;
#X obj 106 12 inlet;
#X obj 27 45 t f b;
#X obj 106 47 t b f;
#X obj 62 122 *;
#X obj 62 161 outlet;
#X obj 43 84 f;
#X obj 93 85 f;
#X obj 172 13 loadbang;
#X obj 172 46 \$1;
#X connect 0 0 2 0;
#X connect 1 0 3 0;
#X connect 2 0 6 0;
#X connect 2 1 7 0;
#X connect 3 0 6 0;
#X connect 3 1 7 0;
#X connect 4 0 5 0;
#X connect 6 0 4 0;
#X connect 7 0 4 1;
#X connect 8 0 9 0;
#X connect 9 0 7 1;
