#N canvas 687 3 870 794 10;
#N canvas 0 0 450 300 (subpatch) 0;
#X array \$0-smp 164477 float 2;
#X coords 0 1 164477 -1 800 140 1;
#X restore 33 35 graph;
#X obj 36 185 hsl 795 15 0 164477 0 0 empty pos empty -2 -8 0 10 -262144
-1 -1 75078 1;
#X obj 34 358 bng 15 250 50 0 empty empty Open 17 7 0 10 -262144 -1
-1;
#X obj 63 444 cnv 15 95 125 empty empty empty 20 12 0 14 -203904 -66577
0;
#X obj 70 473 s \$0-num-smp;
#X obj 70 498 s \$0-len-ms;
#X obj 70 523 s \$0-len-sec;
#X obj 70 548 s \$0-len-hz;
#X obj 34 390 symbol \$0-smp;
#X obj 34 417 rdsmp;
#X obj 75 207 loadbang;
#X obj 35 232 cnv 15 140 85 empty empty empty 20 12 0 14 -203904 -66577
0;
#X obj 74 239 s \$0-beats;
#X obj 76 264 s \$0-bars;
#X obj 39 267 1;
#X obj 41 239 4;
#N canvas 402 149 450 300 beats 0;
#X obj 105 36 r \$0-beats;
#X obj 105 69 once;
#X obj 105 137 s \$0-beats;
#X obj 100 100 cnv 15 65 23 empty empty empty 20 12 0 14 -204786 -66577
0;
#X floatatom 105 104 3 1 32 1 beats - -;
#X connect 0 0 1 0;
#X connect 1 0 4 0;
#X connect 4 0 2 0;
#X coords 0 -1 1 1 65 23 2 100 100;
#X restore 358 5 pd beats;
#N canvas 576 41 450 300 bars 0;
#X obj 107 34 r \$0-bars;
#X obj 107 66 once;
#X obj 107 138 s \$0-bars;
#X obj 100 100 cnv 15 60 23 empty empty empty 20 12 0 14 -204786 -66577
0;
#X floatatom 107 104 3 1 32 1 bars - -;
#X connect 0 0 1 0;
#X connect 1 0 4 0;
#X connect 4 0 2 0;
#X coords 0 -1 1 1 60 23 1 100 100;
#X restore 434 5 pd bars;
#N canvas 628 449 450 300 samples 0;
#X obj 100 100 cnv 15 112 23 empty empty empty 20 12 0 14 -191407 -66577
0;
#X obj 104 7 r \$0-num-smp;
#X obj 104 39 pack f;
#X obj 104 69 l2s;
#X symbolatom 104 103 10 0 0 1 samples - -;
#X connect 1 0 2 0;
#X connect 2 0 3 0;
#X connect 3 0 4 0;
#X coords 0 -1 1 1 112 23 1 100 100;
#X restore 603 4 pd samples;
#N canvas 501 171 450 503 secs 0;
#X obj 100 225 cnv 15 110 23 empty empty empty 20 12 0 14 -191407 -66577
0;
#X obj 161 -7 r \$0-len-sec;
#X symbolatom 115 228 8 0 0 1 secs/ms - -;
#X obj 115 200 l2s;
#X obj 115 175 pack f;
#X obj 102 227 tgl 8 0 empty empty empty 17 7 0 10 -262144 -1 -1 1
1;
#X obj 102 238 tgl 8 0 empty empty empty 17 7 0 10 -262144 -1 -1 0
1;
#X obj 31 182 == 0;
#X obj 101 261 == 0;
#X msg 32 208 set \$1;
#X obj 115 107 spigot;
#X obj 171 106 spigot;
#X obj 169 133 * 1000;
#X obj 161 70 f;
#X obj 102 -4 t b f;
#X obj 204 18 t b f;
#X obj 133 37 == 0;
#X obj 245 45 == 0;
#X msg 80 285 set \$1;
#X obj 28 144 loadbang;
#X connect 1 0 13 0;
#X connect 3 0 2 0;
#X connect 4 0 3 0;
#X connect 5 0 7 0;
#X connect 5 0 10 0;
#X connect 5 0 14 0;
#X connect 6 0 15 0;
#X connect 6 0 8 0;
#X connect 7 0 9 0;
#X connect 8 0 18 0;
#X connect 9 0 6 0;
#X connect 10 0 4 0;
#X connect 11 0 12 0;
#X connect 12 0 4 0;
#X connect 13 0 10 0;
#X connect 13 0 11 0;
#X connect 14 0 13 0;
#X connect 14 1 10 1;
#X connect 14 1 16 0;
#X connect 15 0 13 0;
#X connect 15 1 11 1;
#X connect 15 1 17 0;
#X connect 16 0 11 1;
#X connect 17 0 10 1;
#X connect 18 0 5 0;
#X connect 19 0 5 0;
#X coords 0 -1 1 1 110 23 1 100 225;
#X restore 722 4 pd secs;
#N canvas 555 159 450 465 bpm 0;
#X obj 84 -143 r \$0-beats;
#X obj 175 -143 r \$0-bars;
#X obj 0 -143 r \$0-len-ms;
#X text 98 34 BPM;
#X obj 84 -103 mul.ld;
#X obj 35 34 div.ld 60;
#X obj 51 -38 div.ld;
#X obj 33 -1 div.ld 1000;
#X text 97 -38 beat length (ms);
#X text 106 0 beat length (secs);
#X obj 129 -71 s \$0-total-beats;
#X obj 30 135 cnv 15 80 23 empty empty empty 20 12 0 14 -191407 -66577
0;
#X obj 35 93 f2s.ld;
#X symbolatom 35 138 8 0 0 1 BPM - -;
#X connect 0 0 4 0;
#X connect 1 0 4 1;
#X connect 2 0 6 0;
#X connect 4 0 6 1;
#X connect 4 0 10 0;
#X connect 5 0 12 0;
#X connect 6 0 7 1;
#X connect 7 0 5 1;
#X connect 12 0 13 0;
#X coords 0 -1 1 1 80 23 1 30 135;
#X restore 509 5 pd bpm;
#X obj 237 389 symbol \$0-smp;
#X msg 155 357 stop;
#X obj 26 754 bng 15 250 50 0 empty empty empty 17 7 0 10 -262144 -1
-1;
#X obj 167 757 bng 15 250 50 0 empty empty empty 17 7 0 10 -262144
-1 -1;
#X obj 237 358 bng 15 250 50 0 empty empty Normalize 17 7 0 10 -262144
-1 -1;
#N canvas 283 169 450 300 bars 0;
#X obj 107 66 once;
#X obj 100 100 cnv 15 95 23 empty empty empty 20 12 0 14 -204786 -66577
0;
#X floatatom 107 105 3 1 1000 1 num-slices - -;
#X obj 107 34 r \$0-num-slices;
#X obj 107 138 s \$0-num-slices;
#X obj 139 173 r \$0-num-smp;
#X obj 139 245 s \$0-num-smp-slice;
#X obj 279 174 r \$0-len-hz;
#X obj 279 246 s \$0-len-hz-slice;
#X obj 279 209 mul.ld;
#X obj 139 208 div.ld;
#X obj 16 170 r \$0-len-ms;
#X obj 16 209 div.ld;
#X obj 16 244 s \$0-len-ms-slice;
#X connect 0 0 2 0;
#X connect 2 0 4 0;
#X connect 2 0 9 1;
#X connect 2 0 10 1;
#X connect 2 0 12 1;
#X connect 3 0 0 0;
#X connect 5 0 10 0;
#X connect 7 0 9 0;
#X connect 9 0 8 0;
#X connect 10 0 6 0;
#X connect 11 0 12 0;
#X connect 12 0 13 0;
#X coords 0 -1 1 1 95 23 1 100 100;
#X restore 255 6 pd bars;
#X obj 129 388 tabplay~ \$0-smp;
#X obj 70 448 s \$0-filename;
#X obj 76 291 s \$0-num-slices;
#X obj 129 358 bng 15 250 50 0 empty empty empty 17 7 0 10 -262144
-1 -1;
#N canvas 0 0 428 326 phase-play 0;
#X floatatom -86 1 5 0 0 0 - - -;
#X obj -86 40 phasor~;
#X obj -85 119 tabread4~ \$0-smp;
#X obj -166 98 sigout;
#X obj -52 194 sigout;
#X obj -86 70 *~;
#X obj -66 93 +~;
#X obj -86 -39 r \$0-len-hz-slice;
#X obj -29 11 0;
#X obj 73 4 r \$0-len-hz;
#X floatatom 74 31 5 0 0 0 - - -;
#X obj 73 59 phasor~;
#X obj 127 87 r \$0-num-smp;
#X obj 73 112 *~;
#X obj 72 150 samphold~;
#X obj 55 -45 r \$0-num-smp-slice;
#X floatatom 41 -17 8 0 0 0 - - -;
#X obj 25 89 sigout;
#X obj 69 182 sigout;
#X obj -170 35 sigout;
#X connect 0 0 1 0;
#X connect 1 0 5 0;
#X connect 1 0 14 1;
#X connect 1 0 19 0;
#X connect 2 0 4 0;
#X connect 5 0 6 0;
#X connect 6 0 2 0;
#X connect 6 0 3 0;
#X connect 7 0 0 0;
#X connect 8 0 1 1;
#X connect 9 0 10 0;
#X connect 10 0 11 0;
#X connect 11 0 13 0;
#X connect 11 0 17 0;
#X connect 12 0 13 1;
#X connect 13 0 14 0;
#X connect 14 0 6 1;
#X connect 14 0 18 0;
#X connect 15 0 16 0;
#X connect 16 0 5 1;
#X restore 26 701 pd phase-play;
#X obj 624 269 metro;
#X obj 698 386 count;
#X obj 761 361 r \$0-num-slices;
#X floatatom 629 410 5 0 0 0 - - -;
#X obj 592 312 bng 15 250 50 0 empty empty empty 17 7 0 10 -262144
-1 -1;
#X obj 701 409 r \$0-num-smp-slice;
#X obj 624 579 pack f f f;
#X obj 732 482 r \$0-len-ms-slice;
#X obj 624 638 vline~;
#X obj 624 673 tabread~ \$0-smp;
#X floatatom 711 436 8 0 0 0 - - -;
#X msg 624 612 \$1 \, \$2 \$3;
#X obj 641 549 +;
#X obj 658 521 f;
#X obj 698 520 f;
#X obj 684 225 r \$0-len-ms-slice;
#X obj 624 390 random;
#X obj 646 354 r \$0-num-slices;
#X obj 624 767 throw~ \$0-dac;
#X obj 129 416 throw~ \$0-dac;
#X obj 372 738 output~;
#X obj 26 727 threshold~ 0.3 100 0 100;
#X obj 371 705 catch~ \$0-dac;
#X obj 787 542 vsl 15 128 0.1 10 0 1 empty empty empty 0 -9 0 10 -262144
-1 -1 354 1;
#X msg 811 516 1;
#X obj 698 549 div.ld;
#X floatatom 787 691 5 0 0 0 - - -;
#X obj 198 752 drunk;
#X msg 202 727 0 \$1 3;
#X obj 63 576 r \$0-num-smp;
#X obj 732 675 line;
#X obj 732 703 s pos;
#X obj 624 444 *;
#X msg 766 332 reset;
#X obj 766 307 sel 1;
#X msg 237 417 \; \$1 normalize;
#X msg 63 601 \; pos range 0 \$1;
#X obj 624 243 t f f;
#X msg 812 558 0.376;
#X msg 811 537 0.61;
#X obj 261 749 writesf~ 1;
#X obj 192 209 loadbang;
#X obj 176 328 pack s s;
#X obj 237 301 symbol \$0-smp;
#X obj 192 233 t b b;
#X msg 192 259 c:/users/louis/tracks/ideas/pd/more-glitchy-slowness-grained.wav
;
#X obj 40 291 96;
#X msg 257 728 open c:/users/;
#X obj 20 669 tabwrite.ld 100 seq2.txt;
#X obj 624 309 spigot2.ld;
#X obj 312 209 r \$0-filename;
#X symbolatom 312 234 40 0 0 0 - - -;
#X obj 624 213 tog.ld;
#X obj 455 739 writesf.ld a.wav;
#X obj 624 485 t f f b b b b;
#X obj 625 719 *~;
#X msg 528 593 1 \$1;
#X obj 528 565 f;
#X floatatom 543 479 5 0 250 2 IN - -;
#X obj 528 622 line~;
#X obj 432 570 f;
#X floatatom 492 479 5 0 250 2 OUT - -;
#X msg 432 600 0 \$1;
#X obj 372 482 r \$0-len-ms-slice;
#X obj 447 511 minus.ld;
#X obj 432 544 del;
#X obj 485 674 sigout;
#X text 505 425;
#X connect 2 0 8 0;
#X connect 8 0 9 0;
#X connect 9 0 7 0;
#X connect 9 1 6 0;
#X connect 9 2 5 0;
#X connect 9 3 4 0;
#X connect 9 4 28 0;
#X connect 10 0 14 0;
#X connect 10 0 15 0;
#X connect 10 0 78 0;
#X connect 14 0 13 0;
#X connect 15 0 12 0;
#X connect 21 0 67 0;
#X connect 22 0 27 0;
#X connect 25 0 21 0;
#X connect 27 0 51 0;
#X connect 30 0 27 0;
#X connect 32 0 36 0;
#X connect 32 0 81 0;
#X connect 32 0 81 1;
#X connect 33 0 64 0;
#X connect 34 0 33 1;
#X connect 37 0 42 0;
#X connect 37 0 45 1;
#X connect 37 0 64 1;
#X connect 38 0 43 0;
#X connect 39 0 46 1;
#X connect 40 0 41 0;
#X connect 41 0 87 0;
#X connect 43 0 40 0;
#X connect 43 0 62 0;
#X connect 44 0 38 1;
#X connect 45 0 44 1;
#X connect 46 0 57 0;
#X connect 47 0 32 1;
#X connect 48 0 35 0;
#X connect 48 0 64 0;
#X connect 49 0 48 1;
#X connect 53 0 23 0;
#X connect 53 1 24 0;
#X connect 54 0 52 0;
#X connect 54 0 85 0;
#X connect 55 0 58 0;
#X connect 55 0 57 1;
#X connect 56 0 55 0;
#X connect 57 0 38 2;
#X connect 60 0 59 0;
#X connect 61 0 68 0;
#X connect 62 0 63 0;
#X connect 64 0 86 0;
#X connect 65 0 33 0;
#X connect 66 0 65 0;
#X connect 69 0 32 0;
#X connect 69 1 66 0;
#X connect 70 0 55 0;
#X connect 71 0 55 0;
#X connect 73 0 76 0;
#X connect 75 0 74 1;
#X connect 76 0 77 0;
#X connect 76 1 75 0;
#X connect 77 0 74 0;
#X connect 78 0 29 0;
#X connect 81 0 48 0;
#X connect 81 1 33 0;
#X connect 82 0 83 0;
#X connect 84 0 69 0;
#X connect 86 0 38 0;
#X connect 86 1 44 0;
#X connect 86 2 45 0;
#X connect 86 3 46 0;
#X connect 86 4 97 0;
#X connect 86 5 89 0;
#X connect 87 0 50 0;
#X connect 88 0 91 0;
#X connect 89 0 88 0;
#X connect 90 0 89 1;
#X connect 91 0 87 1;
#X connect 91 0 98 0;
#X connect 92 0 94 0;
#X connect 93 0 96 1;
#X connect 93 0 92 1;
#X connect 94 0 91 0;
#X connect 95 0 96 0;
#X connect 96 0 97 1;
#X connect 97 0 92 0;
