#N canvas 1 21 450 405 10;
#X obj 114 84 inlet;
#X obj 216 154 + 1;
#X obj 114 255 sel 1;
#X obj 114 320 outlet;
#X obj 114 132 f 1;
#X obj 267 75 inlet;
#X obj 216 130 moses \$1;
#X msg 267 155 1;
#X obj 267 97 route push;
#X obj 217 246 +;
#X msg 216 215 0;
#X obj 216 180 t b f;
#X obj 345 128 r resetomdes;
#X connect 0 0 4 0;
#X connect 1 0 11 0;
#X connect 2 0 3 0;
#X connect 4 0 2 0;
#X connect 4 0 6 0;
#X connect 5 0 8 0;
#X connect 6 0 1 0;
#X connect 6 1 7 0;
#X connect 7 0 4 1;
#X connect 8 0 9 1;
#X connect 8 1 6 1;
#X connect 9 0 4 1;
#X connect 10 0 9 1;
#X connect 11 0 10 0;
#X connect 11 1 9 0;
#X connect 12 0 7 0;
