#N canvas 135 22 457 742 10;
#X obj -86 -414 bng 15 250 50 0 empty empty empty 17 7 0 10 -262144
-1 -1;
#X obj -47 -415 bng 15 250 50 0 empty empty empty 17 7 0 10 -262144
-1 -1;
#X floatatom -128 -356 5 0 0 0 - - -;
#X obj -130 -315 osc~;
#X obj -129 -236 *~;
#X floatatom -83 -349 5 0 0 0 - - -;
#X text -131 -456 Switches Audio Tones;
#X obj 27 -446 tgl 15 0 empty empty empty 17 7 0 10 -262144 -1 -1 0
31;
#X obj 27 -338 bng 15 250 50 0 empty empty empty 17 7 0 10 -262144
-1 -1;
#X obj 31 -291 f;
#X floatatom -45 -107 5 0 0 0 - - -;
#X obj 38 -406 t b b;
#X obj 7 -208 <= 0;
#X obj 4 -171 sel 1;
#X obj 124 -415 sel 1;
#X obj 119 -356 bng 15 250 50 0 empty empty empty 17 7 0 10 -262144
-1 -1;
#X obj 27 -366 metro 100;
#X obj 32 -243 - 0.01;
#X obj 108 -320 f 0.8;
#X obj 134 -72 line;
#X floatatom 112 -121 5 0 0 0 - - -;
#X floatatom 182 -123 5 0 0 0 - - -;
#X floatatom 138 -27 5 0 0 0 - - -;
#X text 84 -170 Auto Counter Right gets reset on left triggere;
#X obj -119 -66 tgl 15 0 empty empty empty 17 7 0 10 -262144 -1 -1
1 1;
#X obj -120 -9 bng 15 250 50 0 empty empty empty 17 7 0 10 -262144
-1 -1;
#X floatatom -121 77 5 0 0 0 - - -;
#X obj -59 178 tgl 15 0 empty empty empty 17 7 0 10 -262144 -1 -1 1
1;
#X obj -106 184 osc~;
#X obj -111 217 *~;
#X obj -112 256 dac~;
#X obj -129 -204 dac~;
#X obj -123 18 random 800;
#X obj -118 105 line;
#X floatatom -60 69 5 0 0 0 - - -;
#X floatatom -70 127 5 0 0 0 - - -;
#X obj -114 44 t f b;
#X floatatom -53 -51 5 0 0 0 - - -;
#X obj -119 -36 metro;
#X obj -6 -133 vsl 15 128 0 127 0 0 empty empty empty 0 -9 0 10 -262144
-1 -1 2500 1;
#X obj 15 40 vsl 15 128 0 127 0 0 empty empty empty 0 -9 0 10 -262144
-1 -1 300 1;
#X obj 63 107 expr ($f1/127) * 500;
#X obj -15 19 expr 10 + (($f1 / 127) * 500);
#X connect 0 0 2 0;
#X connect 1 0 5 0;
#X connect 2 0 3 0;
#X connect 3 0 4 0;
#X connect 5 0 3 0;
#X connect 7 0 14 0;
#X connect 7 0 16 0;
#X connect 8 0 9 0;
#X connect 9 0 17 0;
#X connect 10 0 4 1;
#X connect 12 0 13 0;
#X connect 13 0 15 0;
#X connect 13 0 7 0;
#X connect 14 0 15 0;
#X connect 15 0 18 0;
#X connect 16 0 8 0;
#X connect 17 0 10 0;
#X connect 17 0 9 1;
#X connect 17 0 12 0;
#X connect 18 0 9 1;
#X connect 19 0 22 0;
#X connect 20 0 19 0;
#X connect 21 0 19 1;
#X connect 24 0 38 0;
#X connect 25 0 32 0;
#X connect 26 0 33 0;
#X connect 27 0 29 1;
#X connect 28 0 29 0;
#X connect 29 0 30 0;
#X connect 29 0 30 1;
#X connect 32 0 36 0;
#X connect 33 0 35 0;
#X connect 34 0 33 1;
#X connect 35 0 28 0;
#X connect 36 0 26 0;
#X connect 36 1 34 0;
#X connect 37 0 38 1;
#X connect 38 0 25 0;
#X connect 39 0 42 0;
#X connect 40 0 41 0;
#X connect 41 0 34 0;
#X connect 42 0 37 0;
