#N canvas 733 283 695 463 10;
#X obj 100 31 inlet;
#X obj 179 32 inlet;
#X obj 254 31 inlet;
#X obj 326 30 inlet;
#X obj 155 274 pack f f f f;
#X obj 146 241 f;
#X obj 186 242 f;
#X obj 223 241 f;
#X obj 261 241 f;
#X obj 323 61 t b f;
#X obj 179 178 t b b b b;
#X obj 156 322 outlet;
#X obj 256 66 t b f;
#X obj 181 65 t b f;
#X obj 100 65 t b f;
#X connect 0 0 14 0;
#X connect 1 0 13 0;
#X connect 2 0 12 0;
#X connect 3 0 9 0;
#X connect 4 0 11 0;
#X connect 5 0 4 0;
#X connect 6 0 4 1;
#X connect 7 0 4 2;
#X connect 8 0 4 3;
#X connect 9 0 10 0;
#X connect 9 1 8 1;
#X connect 10 0 5 0;
#X connect 10 1 6 0;
#X connect 10 2 7 0;
#X connect 10 3 8 0;
#X connect 12 0 10 0;
#X connect 12 1 7 1;
#X connect 14 0 10 0;
#X connect 14 1 5 1;
