#N canvas 210 142 317 302 10;
#X obj 71 54 inlet~;
#X obj 141 54 inlet;
#X obj 141 127 line~;
#X obj 71 159 *~;
#X obj 71 194 wrap~;
#X obj 72 239 outlet~;
#X text 62 18 SCALE SIGNAL FREQUENCY;
#X msg 141 91 \$1 50;
#X obj 91 134 f 1;
#X connect 0 0 3 0;
#X connect 1 0 8 0;
#X connect 3 0 4 0;
#X connect 4 0 5 0;
#X connect 7 0 2 0;
#X connect 8 0 3 1;
