#N canvas 0 0 860 592 10;
#X obj 318 14 inlet~;
#X obj 484 336 inlet;
#X obj 46 248 samphold~;
#X obj 162 247 samphold~;
#X obj 46 193 sig~ 0;
#X obj 161 192 sig~ 0;
#X obj 32 275 *~;
#X obj 147 275 *~;
#X obj 279 248 samphold~;
#X obj 393 248 samphold~;
#X obj 279 193 sig~ 0;
#X obj 392 192 sig~ 0;
#X obj 265 275 *~;
#X obj 378 276 *~;
#X obj 508 249 samphold~;
#X obj 621 246 samphold~;
#X obj 508 193 sig~ 0;
#X obj 620 192 sig~ 0;
#X obj 494 275 *~;
#X obj 607 275 *~;
#X obj 726 169 s~ \$0-rmul-sh;
#X obj 630 219 r~ \$0-rmul-sh;
#X obj 520 219 r~ \$0-rmul-sh;
#X obj 405 219 r~ \$0-rmul-sh;
#X obj 290 220 r~ \$0-rmul-sh;
#X obj 171 219 r~ \$0-rmul-sh;
#X obj 62 221 r~ \$0-rmul-sh;
#X obj 306 319 outlet~;
#X obj 46 167 r \$0-rmul-4;
#X obj 161 167 r \$0-rmul-8;
#X obj 279 167 r \$0-rmul-16;
#X obj 392 167 r \$0-rmul-32;
#X obj 508 167 r \$0-rmul-64;
#X obj 620 167 r \$0-rmul-128;
#X obj 310 529 s \$0-rmul-4;
#X obj 391 528 s \$0-rmul-8;
#X obj 473 527 s \$0-rmul-16;
#X obj 650 527 s \$0-rmul-64;
#X obj 737 527 s \$0-rmul-128;
#X obj 560 527 s \$0-rmul-32;
#X msg 310 504 0;
#X msg 391 501 0;
#X msg 473 504 0;
#X msg 560 503 0;
#X msg 650 502 0;
#X msg 737 501 0;
#X obj 484 382 route 4 8 16 32 64 128;
#X obj 435 418 t b b;
#X obj 475 418 t b b;
#X obj 514 418 t b b;
#X obj 554 418 t b b;
#X obj 594 419 t b b;
#X obj 634 419 t b b;
#X obj 535 456 bng 15 250 50 0 empty empty empty 17 7 0 10 -262144
-1 -1;
#X msg 343 504 1;
#X msg 424 501 1;
#X msg 506 504 1;
#X msg 683 502 1;
#X msg 593 503 1;
#X msg 770 501 1;
#X obj 32 139 phasor2;
#X msg 71 116 4;
#X obj 146 139 phasor2;
#X obj 264 139 phasor2;
#X obj 378 139 phasor2;
#X obj 494 139 phasor2;
#X obj 606 139 phasor2;
#X obj 725 144 phasor2;
#X msg 185 116 8;
#X msg 303 116 16;
#X msg 417 116 32;
#X msg 533 116 64;
#X msg 645 116 128;
#X msg 764 115 128;
#X obj 473 14 loadbang;
#X connect 0 0 60 0;
#X connect 0 0 62 0;
#X connect 0 0 63 0;
#X connect 0 0 64 0;
#X connect 0 0 65 0;
#X connect 0 0 66 0;
#X connect 0 0 67 0;
#X connect 1 0 46 0;
#X connect 2 0 6 1;
#X connect 3 0 7 1;
#X connect 4 0 2 0;
#X connect 5 0 3 0;
#X connect 6 0 27 0;
#X connect 7 0 27 0;
#X connect 8 0 12 1;
#X connect 9 0 13 1;
#X connect 10 0 8 0;
#X connect 11 0 9 0;
#X connect 12 0 27 0;
#X connect 13 0 27 0;
#X connect 14 0 18 1;
#X connect 15 0 19 1;
#X connect 16 0 14 0;
#X connect 17 0 15 0;
#X connect 18 0 27 0;
#X connect 19 0 27 0;
#X connect 21 0 15 1;
#X connect 22 0 14 1;
#X connect 23 0 9 1;
#X connect 24 0 8 1;
#X connect 25 0 3 1;
#X connect 26 0 2 1;
#X connect 28 0 4 0;
#X connect 29 0 5 0;
#X connect 30 0 10 0;
#X connect 31 0 11 0;
#X connect 32 0 16 0;
#X connect 33 0 17 0;
#X connect 40 0 34 0;
#X connect 41 0 35 0;
#X connect 42 0 36 0;
#X connect 43 0 39 0;
#X connect 44 0 37 0;
#X connect 45 0 38 0;
#X connect 46 0 47 0;
#X connect 46 1 48 0;
#X connect 46 2 49 0;
#X connect 46 3 50 0;
#X connect 46 4 51 0;
#X connect 46 5 52 0;
#X connect 47 0 54 0;
#X connect 47 1 53 0;
#X connect 48 0 55 0;
#X connect 48 1 53 0;
#X connect 49 0 56 0;
#X connect 49 1 53 0;
#X connect 50 0 58 0;
#X connect 50 1 53 0;
#X connect 51 0 57 0;
#X connect 51 1 53 0;
#X connect 52 0 59 0;
#X connect 52 1 53 0;
#X connect 53 0 45 0;
#X connect 53 0 44 0;
#X connect 53 0 43 0;
#X connect 53 0 42 0;
#X connect 53 0 41 0;
#X connect 53 0 40 0;
#X connect 54 0 34 0;
#X connect 55 0 35 0;
#X connect 56 0 36 0;
#X connect 57 0 37 0;
#X connect 58 0 39 0;
#X connect 59 0 38 0;
#X connect 60 0 6 0;
#X connect 61 0 60 1;
#X connect 62 0 7 0;
#X connect 63 0 12 0;
#X connect 64 0 13 0;
#X connect 65 0 18 0;
#X connect 66 0 19 0;
#X connect 67 0 20 0;
#X connect 68 0 62 1;
#X connect 69 0 63 1;
#X connect 70 0 64 1;
#X connect 71 0 65 1;
#X connect 72 0 66 1;
#X connect 73 0 67 1;
#X connect 74 0 73 0;
#X connect 74 0 72 0;
#X connect 74 0 71 0;
#X connect 74 0 70 0;
#X connect 74 0 69 0;
#X connect 74 0 68 0;
#X connect 74 0 61 0;
