#N canvas 210 142 317 302 10;
#X obj 71 54 inlet~;
#X obj 71 159 *~;
#X obj 71 194 wrap~;
#X obj 72 239 outlet~;
#X text 62 18 SCALE SIGNAL FREQUENCY;
#X obj 141 54 inlet~;
#X connect 0 0 1 0;
#X connect 1 0 2 0;
#X connect 2 0 3 0;
#X connect 5 0 1 1;
