#N canvas 794 0 596 812 12;
#X floatatom 98 137 0 0 0 0 - - -;
#X obj 97 567 *~;
#X obj 318 292 line~;
#X floatatom 318 180 0 0 0 0 - - -;
#X obj 318 258 pack 0 200;
#X obj 318 141 r window;
#X obj 98 99 r transpose;
#X obj 98 209 exp;
#X floatatom 98 247 6 0 0 0 - - -;
#X obj 98 373 /;
#X obj 152 285 * 0.001;
#X obj 463 426 line~;
#X obj 463 391 pack 0 200;
#X floatatom 463 325 0 0 0 0 - - -;
#X obj 463 294 r delay;
#X obj 97 603 +~;
#X obj 31 639 cos~;
#X obj 81 680 *~;
#X obj 81 713 +~;
#X obj 229 524 wrap~;
#X obj 300 563 *~;
#X obj 300 600 +~;
#X obj 230 637 cos~;
#X obj 230 675 *~;
#X obj 397 104 loadbang;
#X obj 152 322 t b f;
#X floatatom 98 412 6 0 0 0 - - -;
#X obj 229 488 +~ 0.5;
#X obj 31 567 -~ 0.5;
#X obj 31 603 *~ 0.5;
#X obj 230 564 -~ 0.5;
#X obj 230 600 *~ 0.5;
#X obj 98 284 - 1;
#X obj 98 174 * 0.05776;
#X obj 98 324 * -1;
#X text 125 137 <-- transposition;
#X text 168 152 (halftones);
#X text 54 240 speed;
#X text 46 254 change;
#X text 128 370 tape head;
#X obj 98 448 phasor~;
#X obj 463 358 max 1.5;
#X text 466 253 delay;
#X text 463 271 (msec);
#X obj 318 218 max 1;
#X text 129 383 rotation freq;
#X msg 397 141 100;
#X obj 25 17 inlet~;
#X obj 80 747 outlet~;
#X obj 462 461 s~ \$0-line;
#X obj 136 566 r~ \$0-line;
#X obj 98 639 vd~ \$0-del;
#X obj 25 52 delwrite~ \$0-del 5000;
#X obj 300 636 vd~ \$0-del;
#X obj 342 563 r~ \$0-line;
#X text 349 179 <-- window (msec);
#X connect 0 0 33 0;
#X connect 1 0 15 0;
#X connect 2 0 1 1;
#X connect 2 0 20 1;
#X connect 3 0 44 0;
#X connect 4 0 2 0;
#X connect 5 0 3 0;
#X connect 6 0 0 0;
#X connect 7 0 8 0;
#X connect 8 0 32 0;
#X connect 9 0 26 0;
#X connect 10 0 25 0;
#X connect 11 0 49 0;
#X connect 12 0 11 0;
#X connect 13 0 41 0;
#X connect 14 0 13 0;
#X connect 15 0 51 0;
#X connect 16 0 17 0;
#X connect 17 0 18 0;
#X connect 18 0 48 0;
#X connect 19 0 20 0;
#X connect 19 0 30 0;
#X connect 20 0 21 0;
#X connect 21 0 53 0;
#X connect 22 0 23 0;
#X connect 23 0 18 1;
#X connect 24 0 46 0;
#X connect 25 0 9 0;
#X connect 25 1 9 1;
#X connect 26 0 40 0;
#X connect 27 0 19 0;
#X connect 28 0 29 0;
#X connect 29 0 16 0;
#X connect 30 0 31 0;
#X connect 31 0 22 0;
#X connect 32 0 34 0;
#X connect 33 0 7 0;
#X connect 34 0 9 0;
#X connect 40 0 1 0;
#X connect 40 0 28 0;
#X connect 40 0 27 0;
#X connect 41 0 12 0;
#X connect 44 0 10 0;
#X connect 44 0 4 0;
#X connect 46 0 3 0;
#X connect 47 0 52 0;
#X connect 50 0 15 1;
#X connect 51 0 17 1;
#X connect 53 0 23 1;
#X connect 54 0 21 1;
