#N canvas 89 261 387 357 10;
#X obj 91 184 -~ 0.5;
#X floatatom 127 119 5 0 0 0 - - -;
#X obj 91 206 clip~ 0 1e-006;
#X obj 91 227 *~ 1e+006;
#X obj 127 136 * -1;
#X obj 127 156 + 1;
#X obj 127 100 clip 0 1;
#X text 166 118 duty (on);
#X obj 127 38 inlet;
#X text 14 287 This implements PWM \, or a square wave with controllable
duty cycle. The output is an analog signal that varies from 0 to 1
;
#X obj 91 248 outlet~;
#X obj 127 67 / 100;
#X text 116 20 duty cycle (1-100%);
#X obj 26 47 inlet~;
#X obj 201 76 cnv 15 33 30 empty empty PWM 2 8 0 11 -191744 -1 0;
#X floatatom 201 90 5 0 0 0 - - -;
#X obj 201 38 \$1;
#X obj 246 10 loadbang;
#X connect 0 0 2 0;
#X connect 1 0 4 0;
#X connect 2 0 3 0;
#X connect 3 0 10 0;
#X connect 4 0 5 0;
#X connect 5 0 0 1;
#X connect 6 0 1 0;
#X connect 8 0 11 0;
#X connect 8 0 15 0;
#X connect 11 0 6 0;
#X connect 13 0 0 0;
#X connect 15 0 11 0;
#X connect 16 0 15 0;
#X connect 17 0 16 0;
#X coords 0 -1 1 1 35 37 2 200 73;
