#N canvas 152 259 450 354 10;
#X obj 37 11 bng 15 250 50 0 empty empty empty 17 7 0 10 -262144 -1
-1;
#X floatatom 80 9 5 0 0 0 - - -;
#X obj 40 79 trigger bang float bang float;
#X obj 118 120 f;
#X obj 118 157 ==;
#X obj 40 190 f;
#X obj 40 221 sel 0;
#X obj 94 220 sel 1;
#X obj 40 257 f;
#X obj 40 292 0;
#X obj 91 288 print;
#X obj 39 38 random 5;
#X connect 0 0 11 0;
#X connect 1 0 3 1;
#X connect 1 0 11 1;
#X connect 2 0 5 0;
#X connect 2 1 3 1;
#X connect 2 2 3 0;
#X connect 2 3 8 1;
#X connect 2 3 4 1;
#X connect 3 0 4 0;
#X connect 4 0 5 1;
#X connect 5 0 6 0;
#X connect 5 0 7 0;
#X connect 6 0 8 0;
#X connect 7 0 11 0;
#X connect 8 0 9 0;
#X connect 8 0 10 0;
#X connect 11 0 2 0;
