#N canvas 469 6 783 776 10;
#X obj -144 -579 tgl 15 0 empty empty empty 17 7 0 10 -262144 -1 -1
0 1;
#X obj -7 -280 bng 15 250 50 0 empty empty empty 17 7 0 10 -262144
-1 -1;
#X floatatom -7 -173 5 0 0 0 - - -;
#X obj -3 -51 osc~;
#X obj 11 92 *~;
#X obj 5 133 dac~;
#X obj -6 -136 line;
#X floatatom 208 -366 8 0 0 0 - - -;
#X floatatom -6 -102 5 0 0 0 - - -;
#X obj -6 -204 t f b;
#X floatatom -106 -364 8 0 0 0 - - -;
#X obj -116 -315 metro;
#X obj -78 -570 vsl 15 128 0 127 0 0 empty empty empty 0 -9 0 10 -262144
-1 -1 9800 1;
#X obj 207 -571 vsl 15 128 0 127 0 0 empty empty empty 0 -9 0 10 -262144
-1 -1 0 1;
#X obj 67 -574 vsl 15 128 0 127 0 0 empty empty empty 0 -9 0 10 -262144
-1 -1 9200 1;
#X obj 67 -418 expr ($f1/127)*2000;
#X obj -7 -238 random;
#X floatatom 67 -365 10 0 0 0 - - -;
#X text -84 -600 Speed;
#X text 192 -597 Porta Time;
#X obj 207 -418 expr ($f1/127) * 200;
#X obj -127 -418 expr 510 - (($f1 / 127) * 500);
#X text -44 -363 ms;
#X text 263 -368 ms;
#X text -151 -603 On/Off;
#X text 132 -364 Hz;
#X obj 379 -568 vsl 15 128 0 127 0 0 empty empty empty 0 -9 0 10 -262144
-1 -1 12700 1;
#X obj 372 -386 expr $f1/127;
#X floatatom 373 -352 5 0 0 0 - - -;
#X obj 313 -291 *;
#X obj 332 -351 f;
#X obj 378 -417 t b f;
#X text 368 -593 Volume;
#X text 338 -290 Toggle value multiples the volume for on/off;
#X text 50 -598 Max Freq;
#X obj 45 -44 line~;
#X obj 104 -83 \$1 80;
#X obj 170 -19 vu 15 120 empty empty -1 -8 0 10 -66577 -1 1 0;
#X text 107 115 Meter uses -100db to +12db;
#X obj 166 -45 pvu~;
#X text 419 -514 vol needs to be log scale;
#X obj -9 57 lop~;
#X obj -112 -246 vsl 15 128 0 127 0 0 empty empty empty 0 -9 0 10 -262144
-1 -1 12700 1;
#X obj -150 -100 expr ($f1/127) * 2000;
#X floatatom -146 -69 5 0 0 0 - - -;
#X text -106 -72 Hz;
#X obj -140 -33 random;
#X obj -134 -2 + 100;
#X text -149 -269 LP Max Freq Cutoff;
#X connect 0 0 11 0;
#X connect 0 0 30 0;
#X connect 1 0 16 0;
#X connect 1 0 46 0;
#X connect 2 0 6 0;
#X connect 3 0 41 0;
#X connect 4 0 5 0;
#X connect 4 0 5 1;
#X connect 4 0 39 0;
#X connect 6 0 8 0;
#X connect 7 0 6 1;
#X connect 8 0 3 0;
#X connect 9 0 2 0;
#X connect 9 1 7 0;
#X connect 10 0 11 1;
#X connect 11 0 1 0;
#X connect 12 0 21 0;
#X connect 13 0 20 0;
#X connect 14 0 15 0;
#X connect 15 0 17 0;
#X connect 16 0 9 0;
#X connect 17 0 16 1;
#X connect 20 0 7 0;
#X connect 21 0 10 0;
#X connect 26 0 31 0;
#X connect 27 0 28 0;
#X connect 28 0 29 1;
#X connect 29 0 36 0;
#X connect 30 0 29 0;
#X connect 31 0 30 0;
#X connect 31 1 27 0;
#X connect 35 0 4 1;
#X connect 36 0 35 0;
#X connect 39 0 37 0;
#X connect 41 0 4 0;
#X connect 42 0 43 0;
#X connect 43 0 44 0;
#X connect 44 0 46 1;
#X connect 46 0 47 0;
#X connect 47 0 41 1;
