#N canvas 149 4 563 765 10;
#X obj 69 147 openpanel;
#X obj 20 315 soundfiler;
#X obj 331 245 splitfilename;
#X obj 39 396 / 44.1;
#X obj 20 438 / 44100;
#X obj 39 509 sec2hz;
#X obj 20 80 inlet;
#X obj 20 351 t f f f;
#X text 60 81 <-------------------;
#X text 182 81 bang fires openpanel;
#X obj 77 219 symbol \$2;
#X msg 20 283 read -resize \$1 \$2-\$3;
#X obj 20 183 t s b b s;
#X obj 39 542 t b f;
#X obj 165 541 t b f;
#X obj 308 539 t b f;
#X obj 438 541 t b f;
#X obj 406 281 t b s;
#X text 40 23 Args: \$1 should be a unique prefix (usually \$0);
#X text 76 36 \$2 is the name of the array (the actual name will be
\$1-\$2);
#X text 384 10 meta data;
#X text 41 10 Read a file into an array \, and set variables with sample
;
#X obj 20 249 pack s f s;
#X obj 48 220 \$1;
#X obj 39 577 \$1;
#X obj 406 350 pack f s;
#X obj 406 316 \$1;
#X obj 165 576 \$1;
#X obj 39 612 pack f f;
#X obj 165 610 pack f f;
#X obj 308 574 \$1;
#X obj 308 608 pack f f;
#X obj 438 576 \$1;
#X obj 438 610 pack f f;
#X msg 39 641 \; \$1-len-hz \$2;
#X msg 165 640 \; \$1-len-secs \$2;
#X msg 308 638 \; \$1-len-ms \$2;
#X msg 438 640 \; \$1-num-smp \$2;
#X obj 20 731 outlet;
#X obj 20 696 bng 15 250 50 0 empty empty empty 17 7 0 10 -262144 -1
-1;
#X obj 20 475 t b f f;
#X text 66 730 bangs when array is filled and all vars written;
#X text 182 95 OR a symbol containing a file path;
#X obj 20 115 route symbol bang;
#X msg 406 380 \; \$1-filename-in set \$2;
#X connect 0 0 12 0;
#X connect 1 0 7 0;
#X connect 2 1 17 0;
#X connect 3 0 15 0;
#X connect 4 0 40 0;
#X connect 5 0 13 0;
#X connect 6 0 43 0;
#X connect 7 0 4 0;
#X connect 7 1 3 0;
#X connect 7 2 16 0;
#X connect 10 0 22 2;
#X connect 11 0 1 0;
#X connect 12 0 22 0;
#X connect 12 1 23 0;
#X connect 12 2 10 0;
#X connect 12 3 2 0;
#X connect 13 0 24 0;
#X connect 13 1 28 1;
#X connect 14 0 27 0;
#X connect 14 1 29 1;
#X connect 15 0 30 0;
#X connect 15 1 31 1;
#X connect 16 0 32 0;
#X connect 16 1 33 1;
#X connect 17 0 26 0;
#X connect 17 1 25 1;
#X connect 22 0 11 0;
#X connect 23 0 22 1;
#X connect 24 0 28 0;
#X connect 25 0 44 0;
#X connect 26 0 25 0;
#X connect 27 0 29 0;
#X connect 28 0 34 0;
#X connect 29 0 35 0;
#X connect 30 0 31 0;
#X connect 31 0 36 0;
#X connect 32 0 33 0;
#X connect 33 0 37 0;
#X connect 39 0 38 0;
#X connect 40 0 39 0;
#X connect 40 1 5 0;
#X connect 40 2 14 0;
#X connect 43 0 12 0;
#X connect 43 1 0 0;
