#N canvas 72 12 518 611 10;
#X obj 138 166 openpanel;
#X obj 58 291 soundfiler;
#X obj 210 230 splitfilename;
#X msg 58 258 read -resize \$1 \$2;
#X obj 77 372 / 44.1;
#X obj 58 422 / 44100;
#X obj 58 509 sec2hz;
#X text 403 553 filename;
#X text 318 550 num samples;
#X text 230 549 length (ms);
#X text 142 551 length (sec);
#X text 62 552 length (hz);
#X obj 402 569 outlet;
#X obj 319 568 outlet;
#X obj 231 567 outlet;
#X obj 142 568 outlet;
#X obj 58 568 outlet;
#X obj 58 67 inlet;
#X obj 58 102 route list symbol;
#X obj 138 135 t b s;
#X obj 58 188 unpack s s;
#X obj 58 459 t f f;
#X obj 58 327 t f f f;
#X text 247 134 followed by the name of the array;
#X text 155 4 Read a file into an array;
#X text 98 68 <-------------------;
#X text 220 68 INPUT1: one of:;
#X text 139 18 and output some basic sample info;
#X text 235 118 . a list with the path to the filename;
#X obj 58 228 pack s s;
#X text 238 84 . a symbol with the name of the array \,;
#X text 250 100 fires openpanel to get the filename;
#X connect 0 0 2 0;
#X connect 0 0 29 0;
#X connect 1 0 22 0;
#X connect 2 1 12 0;
#X connect 3 0 1 0;
#X connect 4 0 14 0;
#X connect 5 0 21 0;
#X connect 6 0 16 0;
#X connect 17 0 18 0;
#X connect 18 0 20 0;
#X connect 18 1 19 0;
#X connect 19 0 0 0;
#X connect 19 1 29 1;
#X connect 20 0 2 0;
#X connect 20 0 29 0;
#X connect 20 1 29 1;
#X connect 21 0 6 0;
#X connect 21 1 15 0;
#X connect 22 0 5 0;
#X connect 22 1 4 0;
#X connect 22 2 13 0;
#X connect 29 0 3 0;
