#N canvas 445 7 743 771 12;
#X obj 211 622 moog~;
#X obj 256 692 mix8.ld;
#X obj 195 535 kick808~;
#X msg 152 484 trigger;
#X obj 279 592 hsl 100 9 1 4 0 0 empty empty Q 41 5 0 8 -262130 -1
-1 0 1;
#X obj 253 577 hsl 100 9 1 22000 0 0 empty empty Freq 41 5 0 8 -262130
-1 -1 0 1;
#X obj 217 62 hslide.ld;
#X floatatom 531 481 5 0 0 0 - - -;
#X obj 161 437 metroplus;
#X obj 230 106 hslide.ld;
#X obj 232 145 hslide.ld;
#X obj 240 187 hslide.ld;
#X msg 75 382 start;
#X msg 121 386 stop;
#X obj 45 199 pack4f.ld;
#X msg 454 360 gain \$1;
#X msg 457 427 decay \$1;
#X msg 464 479 click \$1;
#X obj 459 332 hsl 128 15 0 500 0 0 empty empty empty -2 -8 0 10 -262144
-1 -1 0 1;
#X obj 461 401 hsl 128 15 0 127 0 0 empty empty empty -2 -8 0 10 -262144
-1 -1 0 1;
#X obj 467 456 hsl 128 15 0 127 0 0 empty empty empty -2 -8 0 10 -262144
-1 -1 0 1;
#X floatatom 513 360 5 0 0 0 - - -;
#X floatatom 524 430 5 0 0 0 - - -;
#X obj 248 225 hslide.ld;
#X obj 256 265 hslide.ld;
#X obj 174 367 pack f f f f f f;
#X msg 169 400 \$1 \$2 \$3 \$4 \$5 \$6;
#X msg 52 75 0.2;
#X obj 27 41 every 7;
#X obj 98 40 every 11;
#X msg 111 70 0.95;
#X obj 314 616 hslide.ld;
#X obj 61 466 print;
#X obj 217 307 sync 6;
#X msg 149 256 mode any;
#X obj 415 524 tblshot.ld;
#X obj 143 191 loadbang;
#X obj 26 581 breakpoints~;
#X connect 0 0 1 1;
#X connect 2 0 1 0;
#X connect 2 0 0 0;
#X connect 3 0 2 0;
#X connect 4 0 0 2;
#X connect 5 0 0 1;
#X connect 6 0 33 0;
#X connect 8 0 3 0;
#X connect 8 0 28 0;
#X connect 8 0 29 0;
#X connect 8 0 35 0;
#X connect 8 0 37 0;
#X connect 9 0 33 1;
#X connect 10 0 33 2;
#X connect 11 0 33 3;
#X connect 12 0 8 0;
#X connect 13 0 8 0;
#X connect 15 0 2 0;
#X connect 16 0 2 0;
#X connect 17 0 2 0;
#X connect 18 0 15 0;
#X connect 18 0 21 0;
#X connect 19 0 16 0;
#X connect 19 0 22 0;
#X connect 20 0 17 0;
#X connect 20 0 7 0;
#X connect 23 0 33 4;
#X connect 24 0 33 5;
#X connect 25 0 26 0;
#X connect 26 0 8 1;
#X connect 26 0 32 0;
#X connect 28 0 27 0;
#X connect 29 0 30 0;
#X connect 31 0 0 1;
#X connect 33 0 25 0;
#X connect 33 1 25 1;
#X connect 33 2 25 2;
#X connect 33 3 25 3;
#X connect 33 4 25 4;
#X connect 33 5 25 5;
#X connect 34 0 33 0;
#X connect 35 0 1 2;
#X connect 36 0 34 0;
