#N canvas 732 41 708 699 10;
#X obj 103 347 monorhythm;
#X obj 77 377 bng 15 250 50 0 empty empty empty 17 7 0 10 -262144 -1
-1;
#X msg 47 318 start;
#X msg 90 318 stop;
#X msg 125 18 1 0 0 1 0 1 0 0 1 0 1 0 0;
#X obj 165 272 hsl 128 15 5 4000 0 0 empty empty empty -2 -8 0 10 -262144
-1 -1 4742 1;
#X obj 162 296 int;
#X floatatom 161 321 5 0 0 0 - - -;
#X obj 202 431 mix8.ld;
#X obj 203 407 kick808~;
#X msg 145 382 trigger;
#X floatatom 383 360 5 0 0 0 - - -;
#X msg 318 249 gain \$1;
#X msg 316 305 decay \$1;
#X msg 316 358 click \$1;
#X obj 323 221 hsl 128 15 0 500 0 0 empty empty empty -2 -8 0 10 -262144
-1 -1 2500 1;
#X obj 320 279 hsl 128 15 0 127 0 0 empty empty empty -2 -8 0 10 -262144
-1 -1 4900 1;
#X obj 319 335 hsl 128 15 0 127 0 0 empty empty empty -2 -8 0 10 -262144
-1 -1 4300 1;
#X floatatom 377 249 5 0 0 0 - - -;
#X floatatom 383 308 5 0 0 0 - - -;
#X msg 136 43 1 0 0 1 0 0 1 0;
#X msg 149 68 1 0 1 1 0 1 1 0;
#X msg 155 91 1 0 0 1 0 0 1 0 0 0 1 0 1 0 0 0;
#X msg 171 250 1000;
#X msg 213 249 2000;
#X msg 257 248 4000;
#X msg 162 113 1 0 0 1 0 0 1 0 0 1 0;
#X msg 170 139 1 0 1 1 0 1 1 0;
#X msg 184 164 1 0 1 1 0 1 0 1 0 1 0 1 0 1 1 0 1 0 1 0 1 0 1 0;
#X connect 0 0 1 0;
#X connect 0 0 10 0;
#X connect 2 0 0 0;
#X connect 3 0 0 0;
#X connect 4 0 0 1;
#X connect 5 0 6 0;
#X connect 6 0 7 0;
#X connect 7 0 0 2;
#X connect 9 0 8 0;
#X connect 10 0 9 0;
#X connect 12 0 9 0;
#X connect 13 0 9 0;
#X connect 14 0 9 0;
#X connect 15 0 12 0;
#X connect 15 0 18 0;
#X connect 16 0 13 0;
#X connect 16 0 19 0;
#X connect 17 0 14 0;
#X connect 17 0 11 0;
#X connect 20 0 0 1;
#X connect 21 0 0 1;
#X connect 22 0 0 1;
#X connect 23 0 5 0;
#X connect 24 0 5 0;
#X connect 25 0 5 0;
#X connect 26 0 0 1;
#X connect 27 0 0 1;
#X connect 28 0 0 1;
