#N canvas 0 0 327 244 10;
#X obj 45 16 inlet;
#X obj 42 54 t b f;
#X obj 38 88 1;
#X obj 64 116 /;
#X obj 90 160 outlet;
#X connect 0 0 1 0;
#X connect 1 0 2 0;
#X connect 1 1 3 1;
#X connect 2 0 3 0;
#X connect 3 0 4 0;
