#N canvas 119 91 740 654 10;
#X obj 45 313 spigot;
#X obj 43 176 select 0 1 2 3 4 5 6 7;
#X obj 72 331 spigot;
#X obj 88 350 spigot;
#X obj 115 368 spigot;
#X obj 129 386 spigot;
#X obj 156 404 spigot;
#X obj 172 423 spigot;
#X obj 199 441 spigot;
#X obj 45 489 outlet;
#X obj 43 78 % 8;
#X obj 42 -24 inlet;
#X obj 42 21 route list;
#X msg 476 280 \; \$1 color 13 22 \;;
#X obj 523 192 route 0 1;
#X msg 600 279 \; \$1 color 16 22 \;;
#X obj 191 95 cnv 15 150 43 empty empty empty 20 12 0 14 -191744 -1
0;
#X obj 195 123 tgl 10 0 empty tog1 empty 20 7 0 8 -262130 -1 -1 1 1
;
#X obj 214 123 tgl 10 0 empty tog2 empty 20 7 0 8 -262130 -1 -1 0 1
;
#X obj 233 123 tgl 10 0 empty tog3 empty 20 7 0 8 -262130 -1 -1 1 1
;
#X obj 252 123 tgl 10 0 empty tog4 empty 20 7 0 8 -262130 -33289 -1
0 1;
#X obj 271 123 tgl 10 0 empty tog5 empty 20 7 0 8 -262130 -33289 -1
1 1;
#X obj 289 123 tgl 10 0 empty tog6 empty 20 7 0 8 -262130 -33289 -1
0 1;
#X obj 307 123 tgl 10 0 empty tog7 empty 20 7 0 8 -262130 -33289 -1
1 1;
#X obj 325 123 tgl 10 0 empty tog8 empty 20 7 0 8 -262130 -33289 -1
0 1;
#X obj 195 101 tgl 13 0 \$0-tog-out \$0-tog-in empty 19 8 2 12 -24198
-1 -1 1 1;
#X obj 217 101 nbx 3 13 -1e+037 1e+037 0 0 \$0-bps-out empty BPS 40
7 0 10 -262144 -1 -1 2 256;
#X obj 280 101 nbx 3 13 -1e+037 1e+037 0 0 \$0-bpl-out empty BPL 40
7 0 10 -262144 -1 -1 8 256;
#X obj 334 399 bng 15 250 50 0 empty empty empty 17 7 0 10 -262144
-1 -1;
#X msg 285 265 play;
#X msg 238 266 stop;
#X msg 327 266 quantization beat;
#X obj 523 160 r \$0-tog-out;
#X obj 476 248 symbol \$0-tog-in;
#X obj 600 247 symbol \$0-tog-in;
#X obj 238 188 r \$0-tog-out;
#X obj 238 224 sel 0;
#X obj 321 308 r \$0-bps-out;
#X obj 326 338 r \$0-bpl-out;
#X obj 228 -3 loadbang;
#X obj 269 33 8;
#X floatatom 264 441 5 0 0 0 - - -;
#X obj 238 372 clkSlave;
#X floatatom 410 313 5 0 0 0 - - -;
#X floatatom 417 345 5 0 0 0 - - -;
#X obj 229 32 2;
#X connect 0 0 9 0;
#X connect 1 0 0 0;
#X connect 1 1 2 0;
#X connect 1 2 3 0;
#X connect 1 3 4 0;
#X connect 1 4 5 0;
#X connect 1 5 6 0;
#X connect 1 6 7 0;
#X connect 1 7 8 0;
#X connect 2 0 9 0;
#X connect 3 0 9 0;
#X connect 4 0 9 0;
#X connect 5 0 9 0;
#X connect 6 0 9 0;
#X connect 7 0 9 0;
#X connect 8 0 9 0;
#X connect 10 0 1 0;
#X connect 11 0 12 0;
#X connect 12 1 10 0;
#X connect 14 0 33 0;
#X connect 14 1 34 0;
#X connect 17 0 0 1;
#X connect 18 0 2 1;
#X connect 19 0 3 1;
#X connect 20 0 4 1;
#X connect 21 0 5 1;
#X connect 22 0 6 1;
#X connect 23 0 7 1;
#X connect 24 0 8 1;
#X connect 29 0 42 0;
#X connect 30 0 42 0;
#X connect 31 0 42 0;
#X connect 32 0 14 0;
#X connect 33 0 13 0;
#X connect 34 0 15 0;
#X connect 35 0 36 0;
#X connect 36 0 30 0;
#X connect 36 1 29 0;
#X connect 37 0 42 1;
#X connect 37 0 43 0;
#X connect 38 0 42 2;
#X connect 38 0 44 0;
#X connect 39 0 40 0;
#X connect 39 0 45 0;
#X connect 40 0 27 0;
#X connect 42 0 1 0;
#X connect 42 0 41 0;
#X connect 42 3 28 0;
#X connect 45 0 26 0;
#X coords 0 -1 1 1 152 49 2 190 92;
