#N canvas 712 7 847 781 10;
#X obj 51 59 clkMaster;
#X floatatom 75 20 5 0 0 1 BPM - -;
#X obj 111 89 bng 15 250 50 0 empty empty empty 17 7 0 10 -262144 -1
-1;
#X obj 40 228 bng 15 250 50 0 empty empty empty 17 7 0 10 -262144 -1
-1;
#X obj 25 408 curve~;
#X obj 88 475 osc~;
#X obj 111 442 *~;
#X obj 86 638 output~;
#X obj 73 362 pack 0 f f;
#X obj 87 593 moog~;
#X obj 129 553 hsl 128 15 0 4 0 0 empty empty empty -2 -8 0 10 -262144
-1 -1 12300 1;
#X obj 37 142 seq1x8;
#X obj 125 514 hslide.ld;
#X obj 336 189 hsl 92 10 0 1 0 0 \$0-freq-slider empty freq 34 6 0
9 -262130 -1 -1 8300 1;
#X obj 336 179 hsl 92 10 -1 0 0 0 \$0-slope-slider empty slope 33 6
0 9 -262130 -1 -1 2300 1;
#X obj 336 169 hsl 92 10 0 1 0 0 \$0-decay-slider empty decay 32 6
0 9 -262130 -1 -1 3400 1;
#X obj 305 170 hradio 9 1 0 3 \$0-decay-radio empty empty 0 -8 0 10
-191744 -1 -1 1;
#X obj 305 180 hradio 9 1 0 3 \$0-slope-radio empty empty 0 -8 0 10
-191744 -1 -1 2;
#X obj 305 190 hradio 9 1 0 3 \$0-freq-radio empty empty 0 -8 0 10
-191744 -1 -1 1;
#X obj 431 169 nbx 5 10 -1e+037 1e+037 0 0 empty \$0-decay empty 0
-8 0 10 -191744 -1 -1 112.088 256;
#X obj 431 179 nbx 5 10 -1e+037 1e+037 0 0 empty \$0-slope empty 0
-8 0 10 -191744 -1 -1 -0.747253 256;
#X obj 431 189 nbx 5 10 -1e+037 1e+037 0 0 empty \$0-freq empty 0 -8
0 10 -191744 -1 -1 273.626 256;
#X obj 301 256 route 0 1 2;
#X obj 301 316 f;
#X obj 466 253 route 0 1 2;
#X obj 466 314 f;
#X obj 301 347 mul.ld;
#X obj 370 283 1000;
#X obj 466 345 mul.ld;
#X obj 624 346 mul.ld;
#X obj 624 254 route 0 1 2;
#X obj 624 313 f;
#X obj 301 223 r \$0-decay-radio;
#X obj 334 315 r \$0-decay-slider;
#X obj 301 378 s \$0-decay;
#X obj 466 225 r \$0-slope-radio;
#X obj 499 313 r \$0-slope-slider;
#X obj 466 376 s \$0-slope;
#X obj 624 386 s \$0-freq;
#X obj 657 312 r \$0-freq-slider;
#X obj 624 223 r \$0-freq-radio;
#X obj 301 283 20;
#X obj 335 283 300;
#X obj 624 281 50;
#X obj 658 281 300;
#X obj 116 272 r \$0-decay;
#X obj 145 299 r \$0-slope;
#X obj 126 408 r \$0-freq;
#X obj 466 280 0.1;
#X obj 500 280 0.5;
#X obj 535 279 1;
#X obj 101 314 f;
#X obj 130 330 f;
#X obj 73 220 t b b b b;
#X obj 692 281 1500;
#X obj 16 450 vsl 15 128 0 127 0 0 empty empty empty 0 -9 0 10 -262144
-1 -1 9100 1;
#X msg 55 452 100;
#X floatatom 16 604 5 0 0 0 - - -;
#X msg 25 362 1;
#X connect 0 2 2 0;
#X connect 1 0 0 0;
#X connect 4 0 6 0;
#X connect 5 0 9 0;
#X connect 6 0 9 1;
#X connect 8 0 4 0;
#X connect 9 0 7 0;
#X connect 9 0 7 1;
#X connect 10 0 9 2;
#X connect 11 0 3 0;
#X connect 11 0 53 0;
#X connect 12 0 9 1;
#X connect 22 0 41 0;
#X connect 22 1 42 0;
#X connect 22 2 27 0;
#X connect 23 0 26 0;
#X connect 24 0 48 0;
#X connect 24 1 49 0;
#X connect 24 2 50 0;
#X connect 25 0 28 0;
#X connect 26 0 34 0;
#X connect 27 0 23 0;
#X connect 28 0 37 0;
#X connect 29 0 38 0;
#X connect 30 0 43 0;
#X connect 30 1 44 0;
#X connect 30 2 54 0;
#X connect 31 0 29 0;
#X connect 32 0 22 0;
#X connect 33 0 26 1;
#X connect 35 0 24 0;
#X connect 36 0 28 1;
#X connect 39 0 29 1;
#X connect 40 0 30 0;
#X connect 41 0 23 0;
#X connect 42 0 23 0;
#X connect 43 0 31 0;
#X connect 44 0 31 0;
#X connect 45 0 51 1;
#X connect 46 0 52 1;
#X connect 47 0 6 1;
#X connect 48 0 25 0;
#X connect 49 0 25 0;
#X connect 50 0 25 0;
#X connect 51 0 8 1;
#X connect 52 0 8 2;
#X connect 53 0 8 0;
#X connect 53 1 51 0;
#X connect 53 2 52 0;
#X connect 53 3 58 0;
#X connect 54 0 31 0;
#X connect 55 0 5 0;
#X connect 55 0 57 0;
#X connect 56 0 5 0;
#X connect 58 0 4 0;
