#N canvas 247 22 966 542 10;
#X obj 270 -31 cnv 15 300 300 empty empty messaging_style 20 12 0 14
-233017 -66577 0;
#X obj 309 1 hradio 15 1 0 6 empty empty empty 0 -8 0 10 -262144 -1
-1 0;
#X obj 329 35 r sym1;
#X obj 415 34 r sym3;
#X obj 372 34 r sym2;
#X obj 288 1 bng 15 250 50 0 empty empty empty 17 7 0 10 -258113 -1
-1;
#X obj 298 35 f;
#X obj 316 93 route 0 1 2 3 4 5;
#X obj 468 94 sel 0 1 2 3 4 5;
#X obj 301 240 s sym1-r;
#X obj 365 239 s sym2-r;
#X obj 428 239 s sym3-r;
#N canvas 352 122 450 300 preset 0;
#X msg 107 104 4 3 0 test;
#X obj 107 157 outlet;
#X obj 103 37 inlet list;
#X obj 238 36 inlet store;
#X msg 107 78 set \$1 \$2 \$3 \$4;
#X connect 0 0 1 0;
#X connect 2 0 4 0;
#X connect 3 0 0 0;
#X connect 4 0 0 0;
#X restore 315 134 pd preset;
#N canvas 352 122 450 300 preset 0;
#X msg 107 104 9 9 9 bollard;
#X obj 107 157 outlet;
#X obj 103 37 inlet list;
#X obj 238 36 inlet store;
#X msg 107 78 set \$1 \$2 \$3 \$4;
#X connect 0 0 1 0;
#X connect 2 0 4 0;
#X connect 3 0 0 0;
#X connect 4 0 0 0;
#X restore 332 158 pd preset;
#N canvas 352 122 450 300 preset 0;
#X msg 107 78 set \$1 \$2 \$3;
#X msg 107 104 37 26 27;
#X obj 107 157 outlet;
#X obj 103 37 inlet list;
#X obj 238 36 inlet store;
#X connect 0 0 1 0;
#X connect 1 0 2 0;
#X connect 3 0 0 0;
#X connect 4 0 1 0;
#X restore 383 133 pd preset;
#X obj 607 -33 cnv 15 300 500 empty empty Table_style 20 12 0 14 -233017
-66577 0;
#X obj 199 -30 cnv 15 50 150 empty empty empty 20 12 0 14 -260097 -66577
0;
#X floatatom 207 -19 5 0 0 0 - sym1-r sym1;
#X floatatom 207 11 5 0 0 0 - sym2-r sym2;
#X floatatom 208 44 5 0 0 0 - sym3-r sym3;
#X obj 761 8 table presets;
#X obj 653 10 hradio 15 1 0 6 preset empty empty 0 -8 0 10 -262144
-1 -1 2;
#X obj 633 10 bng 15 250 50 0 empty empty empty 17 7 0 10 -258113 -1
-1;
#X obj 712 37 r sym1;
#X obj 819 35 r sym3;
#X obj 770 37 r sym2;
#X obj 648 56 * 3;
#X obj 648 35 r preset;
#X obj 633 80 f;
#X msg 689 138 \; presets \$1 \$2 \$3 \$4 \;;
#X obj 689 117 pack f f f f;
#X obj 635 311 tabread presets;
#X obj 635 200 r preset;
#X obj 635 223 * 3;
#X obj 671 279 + 1;
#X obj 708 280 + 2;
#X obj 635 280 + 0;
#X obj 635 252 t f f f;
#X obj 635 375 pack;
#X obj 666 352 - 1;
#X obj 698 352 mod 3;
#X obj 635 436 s sym1-r;
#X obj 693 437 s sym2-r;
#X obj 751 436 s sym3-r;
#X obj 635 352 f 2;
#X obj 635 396 route 0 1 2;
#X obj 635 332 t b f;
#X obj 316 70 pack f f f f s;
#X obj 467 36 r name;
#X symbolatom 409 2 10 0 0 0 - name-r name;
#X obj 312 191 unpack f f f s;
#X obj 488 238 s name-r;
#X text 428 152 <- check inside these;
#X text 27 10 1) play with these first ->;
#X text 232 289 2) select a preset slot and hit red save button;
#X text 232 312 3) then selecting a preset will recall the values to
the respective number boxes;
#X text 238 346 *** Note that changing one \, changes the other. ***
;
#X connect 1 0 6 1;
#X connect 1 0 8 0;
#X connect 2 0 47 1;
#X connect 3 0 47 3;
#X connect 4 0 47 2;
#X connect 5 0 6 0;
#X connect 6 0 47 0;
#X connect 7 0 12 0;
#X connect 7 1 13 0;
#X connect 7 2 14 0;
#X connect 8 0 12 1;
#X connect 8 1 13 1;
#X connect 8 2 14 1;
#X connect 12 0 50 0;
#X connect 13 0 50 0;
#X connect 14 0 50 0;
#X connect 22 0 28 0;
#X connect 23 0 30 1;
#X connect 24 0 30 3;
#X connect 25 0 30 2;
#X connect 26 0 28 1;
#X connect 27 0 26 0;
#X connect 28 0 30 0;
#X connect 30 0 29 0;
#X connect 31 0 46 0;
#X connect 32 0 33 0;
#X connect 33 0 37 0;
#X connect 34 0 31 0;
#X connect 35 0 31 0;
#X connect 36 0 31 0;
#X connect 37 0 36 0;
#X connect 37 1 34 0;
#X connect 37 2 35 0;
#X connect 38 0 45 0;
#X connect 39 0 40 0;
#X connect 40 0 44 1;
#X connect 44 0 39 0;
#X connect 44 0 38 0;
#X connect 45 0 41 0;
#X connect 45 1 42 0;
#X connect 45 2 43 0;
#X connect 46 0 44 0;
#X connect 46 1 38 1;
#X connect 47 0 7 0;
#X connect 48 0 47 4;
#X connect 50 0 9 0;
#X connect 50 1 10 0;
#X connect 50 2 11 0;
#X connect 50 3 51 0;
