#N canvas 213 1 1327 811 10;
#X obj 263 308 writesf.ld;
#X obj 283 58 cnv 15 310 135 empty empty empty 20 12 0 14 -212416 -66577
0;
#X obj 351 62 bng 15 250 50 0 \$0-open-out \$0-open-in O 18 8 0 12
-262130 -1 -1;
#X obj 291 166 hsl 295 8 0 211680 0 0 \$0-play-pos-xx \$0-play-pos-in
empty -2 -8 0 10 -262130 -1 -1 0 1;
#N canvas 0 22 607 317 (subpatch) 0;
#X array \$0-smp 211680 float 2;
#X coords 0 1 211680 -1 300 60 1;
#X restore 288 100 graph;
#X obj 425 81 nbx 3 14 1 999 0 0 \$0-bars-out \$0-bars-in Bars 40 9
0 10 -262130 -1 -1 4 256;
#X obj 386 62 bng 15 250 50 0 \$0-norm-out \$0-norm-in N 19 7 2 12
-262130 -1 -1;
#X obj 351 82 nbx 4 14 1 999 0 0 \$0-secs-xx \$0-len-secs Secs 48 9
0 10 -262130 -1 -1 4.8 256;
#X obj 506 82 nbx 6 14 1 9999 0 0 \$0-bpm-out \$0-bpm-in BPM 66 8 0
10 -262130 -1 -1 200 256;
#X obj 425 62 nbx 3 14 1 128 0 0 \$0-beats-out \$0-beats-in Beats 40
7 0 10 -262130 -1 -1 4 256;
#X obj 506 63 nbx 4 14 1 9999 0 0 \$0-slices-out \$0-slices-in Slices
48 8 0 10 -262130 -1 -1 8 256;
#X obj 14 24 bng 15 250 50 0 empty empty empty 17 7 0 10 -262144 -1
-1;
#X obj 360 244 mix4.ld;
#X msg 752 31 64;
#N canvas 19 0 1110 812 presets 0;
#X msg 456 353 8 4 16 4 2 8 1 0.460617;
#X obj 308 10 r \$0-jump-speed-out;
#X obj 437 10 r \$0-slice-mult-out;
#X obj 566 10 r \$0-rand-div-out;
#X msg 438 380 16 4 16 7 4 4 1 0;
#X msg 421 407 16 4 16 7 4 2 1 0;
#X msg 404 434 32 4 16 7 2 8 1 0;
#X msg 387 466 32 4 16 7 2 4 1 0;
#X obj 26 730 pack \$1 \$0;
#X obj 145 730 pack \$1 \$0;
#X obj 259 730 pack \$1 \$0;
#X obj 368 728 pack \$1 \$0;
#X msg 368 755 \; \$2-jump-speed-in \$1;
#X obj 512 728 pack \$1 \$0;
#X msg 512 755 \; \$2-slice-mult-in \$1;
#X obj 652 726 pack \$1 \$0;
#X msg 652 753 \; \$2-rand-div-in \$1;
#X obj 679 233 cnv 15 196 30 empty empty Presets 3 8 0 12 -212416 -1
0;
#X obj 681 249 hradio 12 1 0 16 \$0-preset-out \$0-preset-in empty
0 -8 0 10 -262130 -1 -1 15;
#X obj 13 10 r \$0-slices-out;
#X obj 116 10 r \$0-beats-out;
#X obj 215 10 r \$0-bars-out;
#X msg 26 755 \; \$2-slices-in \$1;
#X msg 145 755 \; \$2-beats-in \$1;
#X msg 259 755 \; \$2-bars-in \$1;
#X msg 353 516 64 4 16 7 1 4 1 0.468802;
#X msg 336 543 64 4 16 0 1 8 1 0;
#X obj 29 190 r \$0-preset-out;
#X text 770 273 \$0-preset-out;
#X text 22 675 load slices-in last \,;
#X text 22 690 otherwise the beats/bar;
#X text 22 705 calc will override it;
#X obj 25 143 f;
#X obj 128 145 f;
#X obj 227 144 f;
#X obj 320 146 f;
#X obj 449 147 f;
#X obj 578 144 f;
#X obj 566 44 t b f;
#X obj 437 41 t b f;
#X obj 308 45 t b f;
#X obj 215 43 t b f;
#X obj 116 43 t b f;
#X obj 13 41 t b f;
#X obj 698 143 f;
#X obj 806 144 f;
#X obj 794 44 t b f;
#X obj 686 42 t b f;
#X obj 336 193 pack f f f f f f f f;
#X obj 349 100 t b b b b b b b b;
#X obj 780 726 pack \$1 \$0;
#X obj 920 724 pack \$1 \$0;
#X obj 432 677 unpack f f f f f f f f;
#X msg 920 751 \; \$2-wavept-in \$1;
#X obj 794 10 r \$0-wavept-out;
#X obj 686 10 r \$0-wave-on-out;
#X msg 780 753 \; \$2-wave-on-in \$1;
#X msg 336 282 set \$1 \$2 \$3 \$4 \$5 \$6 \$7 \$8;
#X msg 370 492 64 4 16 4 2 4 1 0;
#X text 885 702 load wavept before wave-on;
#X obj 741 234 tgl 12 0 \$0-cp-out \$0-cp-in copy 17 7 0 10 -212416
-1 -1 0 1;
#X obj 432 640 spigot;
#X obj 465 583 r \$0-cp-out;
#X obj 132 191 r \$0-cp-out;
#X obj 465 612 == 0;
#X obj 432 232 spigot;
#X obj 501 209 r \$0-cp-out;
#X obj 67 295 f;
#X obj 29 222 demux 0 1;
#X obj 29 252 t f f f;
#X obj 869 157 inlet;
#X obj 121 221 t b f b f;
#X msg 8 322 0;
#X obj 7 351 s \$0-cp-in;
#X obj 996 134 loadbang;
#X obj 996 157 0;
#X obj 996 183 s \$0-cp-in;
#X obj 869 183 s \$0-preset-in;
#X msg 683 350 8 4 4 6 2 2 1 0.0577483;
#X msg 665 377 32 4 4 7 2 4 1 0;
#X msg 647 404 64 4 16 0 1 8 1 0;
#X msg 630 431 128 4 16 7 1 4 0 0.462114;
#X msg 612 463 64 4 16 3 2 64 0 0.468802;
#X msg 577 513 8 4 16 7 8 4 1 0.162443;
#X msg 560 538 8 4 16 7 8 2 1 0;
#X msg 594 489 64 4 16 3 2 64 0 0.468802;
#X msg 913 347 32 4 16 7 1 8 1 0.820455;
#X msg 895 374 32 4 16 7 1 8 1 0.820455;
#X msg 877 401 128 4 16 7 1 8 1 0.820455;
#X msg 860 428 64 4 16 7 1 8 1 0.348058;
#X msg 842 460 64 4 16 7 2 8 0 0.100455;
#X msg 807 510 64 4 16 7 1 8 1 0.944357;
#X msg 790 537 64 4 16 0 1 8 1 0;
#X msg 825 486 128 4 16 7 1 8 0 0.820455;
#X obj 336 321 demux 0 1 2 3 4 5 6 7 8 9 10 11 12 13 14 15;
#X obj 66 321 route 0 1 2 3 4 5 6 7 8 9 10 11 12 13 14 15;
#X connect 0 0 61 0;
#X connect 0 0 65 0;
#X connect 1 0 40 0;
#X connect 2 0 39 0;
#X connect 3 0 38 0;
#X connect 4 0 61 0;
#X connect 4 0 65 0;
#X connect 5 0 61 0;
#X connect 5 0 65 0;
#X connect 6 0 61 0;
#X connect 6 0 65 0;
#X connect 7 0 61 0;
#X connect 8 0 22 0;
#X connect 9 0 23 0;
#X connect 10 0 24 0;
#X connect 11 0 12 0;
#X connect 13 0 14 0;
#X connect 15 0 16 0;
#X connect 19 0 43 0;
#X connect 20 0 42 0;
#X connect 21 0 41 0;
#X connect 25 0 61 0;
#X connect 25 0 65 0;
#X connect 26 0 61 0;
#X connect 26 0 65 0;
#X connect 27 0 68 0;
#X connect 32 0 48 0;
#X connect 33 0 48 1;
#X connect 34 0 48 2;
#X connect 35 0 48 3;
#X connect 36 0 48 4;
#X connect 37 0 48 5;
#X connect 38 0 49 0;
#X connect 38 1 37 1;
#X connect 39 0 49 0;
#X connect 39 1 36 1;
#X connect 40 0 49 0;
#X connect 40 1 35 1;
#X connect 41 0 49 0;
#X connect 41 1 34 1;
#X connect 42 0 49 0;
#X connect 42 1 33 1;
#X connect 43 0 49 0;
#X connect 43 1 32 1;
#X connect 44 0 48 6;
#X connect 45 0 48 7;
#X connect 46 0 49 0;
#X connect 46 1 45 1;
#X connect 47 0 49 0;
#X connect 47 1 44 1;
#X connect 48 0 57 0;
#X connect 49 0 32 0;
#X connect 49 1 33 0;
#X connect 49 2 34 0;
#X connect 49 3 35 0;
#X connect 49 4 36 0;
#X connect 49 5 37 0;
#X connect 49 6 44 0;
#X connect 49 7 45 0;
#X connect 50 0 56 0;
#X connect 51 0 53 0;
#X connect 52 0 8 0;
#X connect 52 1 9 0;
#X connect 52 2 10 0;
#X connect 52 3 11 0;
#X connect 52 4 13 0;
#X connect 52 5 15 0;
#X connect 52 6 50 0;
#X connect 52 7 51 0;
#X connect 54 0 46 0;
#X connect 55 0 47 0;
#X connect 57 0 94 0;
#X connect 58 0 61 0;
#X connect 58 0 65 0;
#X connect 61 0 52 0;
#X connect 62 0 64 0;
#X connect 63 0 68 1;
#X connect 64 0 61 1;
#X connect 65 0 57 0;
#X connect 66 0 65 1;
#X connect 67 0 95 0;
#X connect 68 0 69 0;
#X connect 68 1 71 0;
#X connect 69 0 67 1;
#X connect 69 1 95 0;
#X connect 69 2 94 1;
#X connect 70 0 77 0;
#X connect 71 0 72 0;
#X connect 71 1 67 1;
#X connect 71 2 67 0;
#X connect 71 3 94 1;
#X connect 72 0 73 0;
#X connect 74 0 75 0;
#X connect 75 0 76 0;
#X connect 78 0 65 0;
#X connect 78 0 61 0;
#X connect 79 0 65 0;
#X connect 79 0 61 0;
#X connect 80 0 65 0;
#X connect 80 0 61 0;
#X connect 81 0 65 0;
#X connect 81 0 61 0;
#X connect 82 0 65 0;
#X connect 82 0 61 0;
#X connect 83 0 65 0;
#X connect 83 0 61 0;
#X connect 84 0 65 0;
#X connect 84 0 61 0;
#X connect 85 0 65 0;
#X connect 85 0 61 0;
#X connect 94 0 26 0;
#X connect 94 1 25 0;
#X connect 94 2 58 0;
#X connect 94 3 7 0;
#X connect 94 4 6 0;
#X connect 94 5 5 0;
#X connect 94 6 4 0;
#X connect 94 7 0 0;
#X connect 94 8 84 0;
#X connect 94 9 83 0;
#X connect 94 10 85 0;
#X connect 94 11 82 0;
#X connect 94 12 81 0;
#X connect 94 13 80 0;
#X connect 94 14 79 0;
#X connect 94 15 78 0;
#X connect 95 0 26 0;
#X connect 95 1 25 0;
#X connect 95 2 58 0;
#X connect 95 3 7 0;
#X connect 95 4 6 0;
#X connect 95 5 5 0;
#X connect 95 6 4 0;
#X connect 95 7 0 0;
#X connect 95 8 84 0;
#X connect 95 9 83 0;
#X connect 95 10 85 0;
#X connect 95 11 82 0;
#X connect 95 12 81 0;
#X connect 95 13 80 0;
#X connect 95 14 79 0;
#X connect 95 15 78 0;
#X coords 0 -1 1 1 198 32 2 678 230;
#X restore 282 12 pd presets;
#X obj 842 180 r \$0-len-ms;
#X obj 842 268 div.ld;
#N canvas 179 117 1260 516 keys 0;
#X obj 28 279 unpack \$1 \$2;
#X obj 82 326 f;
#X obj 28 303 t f b;
#X obj 28 205 loadbang;
#X obj 427 17 keyname;
#X symbolatom 426 46 12 0 0 0 - - -;
#X obj 384 18 key;
#X floatatom 384 46 5 0 0 0 - - -;
#X obj 140 204 table rep-keys 127;
#X msg 256 203 \; rep-keys const 0;
#X obj 28 348 tabwrite rep-keys;
#X obj 24 83 unpack \$1 \$2;
#X obj 78 131 f;
#X obj 24 108 t f b;
#X obj 24 21 loadbang;
#X obj 92 20 table jump-keys 127;
#X msg 225 19 \; jump-keys const 0;
#X obj 24 155 tabwrite jump-keys;
#X obj 552 14 key;
#X obj 619 11 keyup;
#X floatatom 405 254 5 0 0 0 - - -;
#X msg 619 86 \$1 0;
#X floatatom 407 425 5 0 0 0 - - -;
#X obj 456 224 tabread jump-keys;
#X text 38 38 z x ... \,;
#X floatatom 659 86 5 0 0 0 - - -;
#X floatatom 505 127 5 0 0 0 - - -;
#X obj 552 145 poly 4;
#X floatatom 607 252 5 0 0 0 - - -;
#X floatatom 611 415 5 0 0 0 - - -;
#X obj 647 220 tabread rep-keys;
#X floatatom 456 195 5 0 0 0 - - -;
#X obj 552 77 change;
#X msg 455 137 clear;
#X msg 619 112 set 0;
#X msg 552 109 \$1 127;
#X obj 483 326 *;
#X obj 506 255 != 0;
#X obj 674 303 *;
#X obj 701 252 != 0;
#X msg 30 391 2 113 \, 4 119 \, 8 101 \, 16 114 \, 32 116 \, 64 121
\, 128 117 \, 256 105 \, 512 111 \, 1024 112 \, 2048 91 \, 4096 93
;
#X obj 619 42 spigot;
#X obj 552 48 spigot;
#X obj 688 10 r \$0-keys-out;
#X obj 483 488 s \$0-jump-key;
#X obj 850 236 == 32;
#X obj 847 424 pack f \$0;
#X obj 850 273 sel 1;
#X obj 402 119 bng 15 250 50 0 empty empty clear 17 7 0 10 -262144
-1 -1;
#X obj 542 321 r \$0-latch-out;
#X obj 501 423 ||;
#X obj 542 348 == 0;
#X obj 483 451 spigot;
#X msg 456 425 0;
#X obj 736 306 r \$0-latch-out;
#X obj 694 403 ||;
#X obj 736 330 == 0;
#X obj 675 438 spigot;
#X msg 648 416 0;
#X text 40 221 q \, w \, e \, ... o;
#X floatatom 408 477 5 0 0 0 - - -;
#X floatatom 609 469 5 0 0 0 - - -;
#X floatatom 733 443 5 0 0 0 - - -;
#X obj 708 377 f;
#X floatatom 761 396 5 0 0 0 - - -;
#X obj 675 329 t f f b;
#X obj 516 387 f;
#X obj 483 352 t f f b;
#X obj 456 256 sel -1;
#X msg 24 58 -1 122 \, 1 120 \, 2 99 \, 3 118 \, 4 98 \, 5 110 \, 6
109 \, 7 44;
#X msg 28 242 -1 113 \, 2 119 \, 4 101 \, 8 114 \, 16 116 \, 20 121
\, 24 117 \, 28 105 \, 32 111;
#X obj 647 251 sel -1;
#X obj 456 294 sel 0;
#X obj 649 277 sel 0;
#X obj 676 479 s \$0-repeat-key;
#X obj 850 346 f 1;
#X obj 850 389 t f f;
#X msg 847 469 \; \$2-play-in \$1;
#X obj 892 359 == 0;
#X obj 904 295 != 0;
#X obj 850 314 spigot;
#X text 828 212 Space = Start/Stop;
#X connect 0 0 2 0;
#X connect 0 1 1 1;
#X connect 1 0 10 1;
#X connect 2 0 10 0;
#X connect 2 1 1 0;
#X connect 3 0 70 0;
#X connect 4 1 5 0;
#X connect 6 0 7 0;
#X connect 11 0 13 0;
#X connect 11 1 12 1;
#X connect 12 0 17 1;
#X connect 13 0 17 0;
#X connect 13 1 12 0;
#X connect 14 0 69 0;
#X connect 18 0 42 0;
#X connect 19 0 25 0;
#X connect 19 0 41 0;
#X connect 21 0 34 0;
#X connect 21 0 27 0;
#X connect 23 0 20 0;
#X connect 23 0 68 0;
#X connect 27 1 31 0;
#X connect 27 1 23 0;
#X connect 27 1 45 0;
#X connect 27 1 30 0;
#X connect 27 2 37 0;
#X connect 27 2 39 0;
#X connect 27 2 79 0;
#X connect 30 0 28 0;
#X connect 30 0 71 0;
#X connect 32 0 35 0;
#X connect 32 0 26 0;
#X connect 33 0 27 0;
#X connect 34 0 32 0;
#X connect 35 0 27 0;
#X connect 36 0 22 0;
#X connect 36 0 67 0;
#X connect 37 0 36 1;
#X connect 38 0 29 0;
#X connect 38 0 65 0;
#X connect 39 0 38 1;
#X connect 41 0 21 0;
#X connect 42 0 32 0;
#X connect 43 0 41 1;
#X connect 43 0 42 1;
#X connect 45 0 47 0;
#X connect 47 0 80 0;
#X connect 48 0 33 0;
#X connect 49 0 51 0;
#X connect 50 0 52 1;
#X connect 51 0 66 0;
#X connect 52 0 60 0;
#X connect 54 0 56 0;
#X connect 55 0 57 1;
#X connect 55 0 62 0;
#X connect 56 0 63 0;
#X connect 57 0 61 0;
#X connect 63 0 55 1;
#X connect 63 0 64 0;
#X connect 65 0 57 0;
#X connect 65 1 55 0;
#X connect 65 2 63 0;
#X connect 66 0 50 1;
#X connect 67 0 52 0;
#X connect 67 1 50 0;
#X connect 67 2 66 0;
#X connect 68 0 53 0;
#X connect 68 1 72 0;
#X connect 69 0 11 0;
#X connect 70 0 0 0;
#X connect 71 0 58 0;
#X connect 71 1 73 0;
#X connect 72 1 36 0;
#X connect 73 1 38 0;
#X connect 75 0 76 0;
#X connect 76 0 78 0;
#X connect 76 1 46 0;
#X connect 78 0 75 1;
#X connect 79 0 80 1;
#X connect 80 0 75 0;
#X coords 0 -1 1 1 50 35 1 400 100;
#X restore 492 9 pd keys;
#X floatatom 842 290 7 0 0 0 - - -;
#X obj 875 238 expr pow(2 \, $f1+3);
#X msg 1140 541 0.377236;
#X msg 1141 564 0.716695;
#X obj 291 180 hsl 295 8 0 1 0 0 \$0-orig-pos-xx \$0-orig-pos-in empty
-2 -8 0 10 -262130 -1 -1 0 1;
#X msg 1222 493 0.944357;
#X msg 1223 517 0.444108;
#X msg 1226 541 0.972599;
#X msg 1227 565 0.162443;
#X msg 1227 588 0.348058;
#X msg 789 32 128;
#X msg 712 31 32;
#X msg 673 31 16;
#X obj 336 519 hradio 15 1 0 8 \$0-jump-speed-out \$0-jump-speed-in
empty 0 -8 0 10 -262144 -1 -1 6;
#X obj 479 365 loadbang;
#X floatatom 663 727 5 0 0 0 - #0-slice-mult-in #0-slice-mult-out;
#X floatatom 997 237 5 0 0 0 - - -;
#X obj 842 310 s \$0-jump-ms;
#X obj 638 61 s \$0-slices-in;
#X floatatom 1100 243 5 0 0 0 - #0-rand-div-in #0-rand-div-out;
#X obj 875 207 r \$0-jump-speed-out;
#X text 336 363 \$0-jump-speed-in/-out;
#X text 662 570 \$0-slice-mult-in/-out;
#X text 1099 105 \$0-rand-div-in/-out;
#X text 645 359 \$0-repeat-in/-out;
#X floatatom 648 514 5 0 0 0 - #0-repeat-in #0-repeat-out;
#X symbolatom 283 194 51 0 0 0 - #0-filename-in -;
#X obj 14 142 rdsmp2 \$0 smp;
#X obj 1229 105 loadbang;
#X text 843 160 calc jump-ms for rand metro;
#X text 11 5 ------- LOAD FILE \, SET VARS --------;
#X text 602 13 \$0-slices-in;
#X msg 1204 451 0;
#X msg 1193 732 set \$1;
#X obj 1194 703 f;
#X obj 1193 672 r \$0-wavept-out;
#X obj 1163 671 bng 15 250 50 0 empty empty empty 17 7 0 10 -262144
-1 -1;
#X msg 1138 495 0.820455;
#X msg 1141 588 0.100455;
#X floatatom 1020 478 8 0 0 0 - #0-wavept-in #0-wavept-out;
#X text 1017 459 \$0-wavept-in/-out;
#X obj 1204 619 s \$0-wavept-in;
#X text 1052 349 \$0-wave-on-in/-out;
#X msg 1219 471 0.468802;
#X text 1049 297 \$0-latch-in/-out;
#X obj 664 700 s \$0-slice-mult-in;
#X obj 796 573 loadbang;
#N canvas 0 0 321 251 set-beats-bars-slices 0;
#X obj 18 100 4;
#X obj 51 100 16;
#X obj 87 100 64;
#X obj 18 177 s \$0-beats-in;
#X obj 51 152 s \$0-bars-in;
#X obj 87 127 s \$0-slices-in;
#X obj 18 39 loadbang;
#X text 15 15 ---- SET BEATS \, BARS & SLICES ----;
#X obj 18 69 t b b b;
#X connect 0 0 3 0;
#X connect 1 0 4 0;
#X connect 2 0 5 0;
#X connect 6 0 8 0;
#X connect 8 0 0 0;
#X connect 8 1 1 0;
#X connect 8 2 2 0;
#X restore 13 173 pd set-beats-bars-slices;
#N canvas 0 0 330 256 calc-bpm 0;
#X obj 138 91 r \$0-len-secs;
#X obj 105 119 div.ld;
#X obj 105 146 * 60;
#X obj 9 118 s \$0-slices-in;
#X obj 105 174 s \$0-bpm-in;
#X text 16 11 ------------ CALC BPM -------------;
#X obj 138 37 r \$0-bars-out;
#X obj 21 37 r \$0-beats-out;
#X obj 105 64 mul.ld;
#X connect 0 0 1 1;
#X connect 1 0 2 0;
#X connect 2 0 4 0;
#X connect 6 0 8 1;
#X connect 7 0 8 0;
#X connect 8 0 1 0;
#X connect 8 0 3 0;
#X restore 13 196 pd calc-bpm;
#N canvas 0 0 382 200 set-play-range-on-file-load 0;
#X obj 40 -61 r \$0-num-smp;
#X obj 40 -35 pack f \$0;
#X text 38 -82 --- SET PLAY RANGE ON FILE LOAD ---;
#X msg 40 -10 \; \$2-play-pos-in range 0 \$1;
#X connect 0 0 1 0;
#X connect 1 0 3 0;
#X restore 13 218 pd set-play-range-on-file-load;
#N canvas 0 0 322 190 normalize-button 0;
#X obj 29 66 symbol \$0-smp;
#X msg 29 91 \; \$1 normalize;
#X text 27 18 -------- NORMALISE BUTTON ---------;
#X obj 29 40 r \$0-norm-out;
#X connect 0 0 1 0;
#X connect 3 0 0 0;
#X restore 13 241 pd normalize-button;
#X msg 828 32 256;
#X obj 648 490 s \$0-repeat-in;
#X msg 822 409 0;
#X obj 14 46 symbol ./drum-16-bar-eq-comp-3.wav;
#X msg 1139 471 0.568754;
#X msg 1121 636 0.560699;
#X obj 32 115 r \$0-open-out;
#X obj 288 63 tog.ld \$0-play P;
#X obj 1054 369 tog.ld \$0-wave-on W;
#X obj 1053 319 tog.ld \$0-latch L;
#X obj 320 62 tog.ld \$0-keys K;
#X obj 13 263 togkey.ld \$0-keys-out \$0-keys K 1;
#X obj 13 286 bangkey.ld \$0-keys-out \$0-open O;
#X obj 13 308 bangkey.ld \$0-keys-out \$0-norm N;
#X obj 1093 319 togkey.ld \$0-keys-out \$0-latch . 1;
#X obj 1091 370 togkey.ld \$0-keys-out \$0-wave-on a 1;
#X obj 1091 402 bangkey.ld \$0-keys-out \$0-zeropt s;
#X msg 638 32 8;
#X msg 1139 519 0.695699;
#X obj 36 24 bng 15 250 50 0 empty empty empty 17 7 0 10 -262144 -1
-1;
#X obj 25 69 symbol ./blackbag-paddy-clean-16-bar.wav;
#X obj 1100 218 s \$0-rand-div-in;
#X obj 1203 428 bng 15 250 50 0 empty \$0-zeropt-in empty 17 7 0 10
-262144 -1 -1;
#X obj 33 91 symbol ./chinese-4-bar.wav;
#X obj 58 24 bng 15 250 50 0 empty empty empty 17 7 0 10 -262144 -1
-1;
#X msg 603 32 4;
#X msg 1212 644 0.468802;
#X msg 1196 766;
#N canvas 74 7 735 803 player 1;
#X obj 250 86 phasor~;
#X obj 250 60 r \$0-len-hz;
#X obj 331 60 0;
#X obj 321 165 metro;
#X obj 293 198 bng 15 250 50 0 empty empty empty 17 7 0 10 -262144
-1 -1;
#X obj 323 386 phasor2;
#X obj 395 333 r \$0-slices-out;
#X obj 249 417 samphold~;
#X obj 178 453 +~;
#X obj 178 484 *~;
#X obj 212 452 r \$0-num-smp;
#X obj 81 216 phasor2;
#X obj 140 141 r \$0-slices-out;
#X obj 81 331 *~;
#X obj 80 358 wrap~;
#X obj 80 384 /~;
#X obj 107 269 sel 0;
#X obj 107 292 1;
#X obj 321 196 random;
#X obj 99 412 /~;
#X obj 114 384 r \$0-slices-out;
#X obj 250 384 wrap~;
#X obj 250 348 +~;
#X obj 321 255 spigot;
#X obj 380 254 sel 0;
#X obj 380 279 0;
#N canvas 71 60 687 594 sh 0;
#X obj 103 93 inlet~;
#X obj 121 391 samphold~;
#X obj 103 547 outlet~;
#X obj 114 36 cnv 15 15 15 empty \$0-wave-on-can empty 20 12 0 14 -24198
-1 0;
#X obj 397 522 symbol \$0-wave-on-can;
#X msg 397 552 \; \$1 color 13 22;
#X obj 542 521 symbol \$0-wave-on-can;
#X msg 542 551 \; \$1 color 16 22;
#X obj 397 461 r \$0-wave-on-out;
#X obj 362 69 r \$0-wave-on-out;
#X obj 182 9 r \$0-wavept-out;
#X obj 177 208 f;
#X obj 177 238 sel 0;
#X obj 103 459 switch3.ld;
#X obj 397 491 sel 0 1;
#X obj 231 312 sig~;
#X obj 362 139 t b f f;
#X obj 253 399 2;
#X obj 288 399 3;
#X obj 220 399 1;
#X obj 227 488 unsig~ 500;
#X obj 228 549 s \$0-wavept-in;
#X obj 227 517 spigot;
#X obj 180 311 t b b;
#X floatatom 197 40 5 0 0 0 - - -;
#X obj 436 139 t f f b;
#X obj 193 127 == 0;
#X obj 239 100 f;
#X obj 182 65 t f b;
#X obj 362 102 moses 1;
#X floatatom 235 238 5 0 0 0 - - -;
#X obj 311 462 0;
#X obj 352 462 1;
#X obj 160 167 spigot;
#X obj 206 166 spigot;
#X text 286 2 Changing \$0-wavept-out when the wave toggle is;
#X text 287 16 off (\$0-wave-on-out) changes the output immediately.
;
#X text 287 31 If the toggle is on \, changes don't affect the output
;
#X text 289 47 until the next time the toggle is turned off;
#X obj 204 269 t b f;
#X obj 23 139 sigout;
#X obj 28 488 sigout;
#X obj 28 438 sigout;
#X obj 299 359 sigout;
#X connect 0 0 1 0;
#X connect 0 0 13 0;
#X connect 0 0 40 0;
#X connect 1 0 13 1;
#X connect 1 0 20 0;
#X connect 1 0 42 0;
#X connect 4 0 5 0;
#X connect 6 0 7 0;
#X connect 8 0 14 0;
#X connect 9 0 29 0;
#X connect 9 0 27 1;
#X connect 10 0 24 0;
#X connect 10 0 28 0;
#X connect 11 0 12 0;
#X connect 11 0 30 0;
#X connect 12 0 23 0;
#X connect 12 1 39 0;
#X connect 13 0 2 0;
#X connect 13 0 41 0;
#X connect 14 0 4 0;
#X connect 14 1 6 0;
#X connect 15 0 13 2;
#X connect 15 0 43 0;
#X connect 16 0 11 0;
#X connect 16 1 1 1;
#X connect 16 2 13 3;
#X connect 17 0 13 3;
#X connect 18 0 13 3;
#X connect 19 0 13 3;
#X connect 20 0 22 0;
#X connect 22 0 21 0;
#X connect 23 0 17 0;
#X connect 23 1 32 0;
#X connect 25 0 1 1;
#X connect 25 1 19 0;
#X connect 25 2 31 0;
#X connect 26 0 33 1;
#X connect 27 0 26 0;
#X connect 27 0 34 1;
#X connect 28 0 33 0;
#X connect 28 0 34 0;
#X connect 28 1 27 0;
#X connect 29 0 16 0;
#X connect 29 1 25 0;
#X connect 31 0 22 1;
#X connect 32 0 22 1;
#X connect 33 0 11 0;
#X connect 34 0 11 1;
#X connect 39 0 18 0;
#X connect 39 1 15 0;
#X coords 0 -1 1 1 17 17 2 113 35;
#X restore 250 303 pd sh;
#X obj 321 114 t b f;
#X obj 6 152 unsig~ 50;
#X obj 6 126 *~;
#X obj 6 95 r \$0-play-out;
#X obj 322 416 s~ \$0-slice-phasor;
#X obj 321 86 r \$0-jump-ms;
#X obj 415 111 r \$0-bars-out;
#X obj 362 358 mul.ld;
#X obj 362 308 r \$0-slice-mult-out;
#X obj 380 227 r \$0-jump-speed-out;
#X obj 423 141 r \$0-rand-div-out;
#X obj 107 242 r \$0-repeat-out;
#X floatatom 155 269 5 0 0 0 - - -;
#X obj 364 166 mul.ld;
#X obj 321 227 div.ld;
#X floatatom 148 186 5 0 0 0 - - -;
#X obj 6 177 s \$0-orig-pos-in;
#X text 142 308 \$0-wavept-in/-out;
#X text 179 296 sets;
#X floatatom 348 140 5 0 0 0 - - -;
#X obj 397 197 s \$0-metbng;
#X obj 183 333 sigout;
#X obj 331 29 r \$0-play-out;
#X obj 162 578 tabread4~ \$0-smp;
#X obj 146 606 *~;
#X obj 86 506 r \$0-play-out;
#X obj 162 549 *~;
#X obj 162 657 hanning2.ld;
#X obj 162 631 r~ \$0-slice-phasor;
#X obj 288 604 s \$0-play-pos-in;
#X obj 288 577 unsig~ 100;
#X obj 147 690 *~;
#X obj 147 722 s~ \$0-audio-1;
#X connect 0 0 5 0;
#X connect 0 0 11 0;
#X connect 0 0 26 0;
#X connect 0 0 29 1;
#X connect 1 0 0 0;
#X connect 2 0 0 1;
#X connect 3 0 4 0;
#X connect 3 0 18 0;
#X connect 3 0 47 0;
#X connect 5 0 7 1;
#X connect 5 0 31 0;
#X connect 6 0 34 1;
#X connect 7 0 8 1;
#X connect 8 0 9 0;
#X connect 9 0 53 1;
#X connect 10 0 9 1;
#X connect 11 0 13 0;
#X connect 12 0 11 1;
#X connect 13 0 14 0;
#X connect 14 0 15 0;
#X connect 15 0 19 0;
#X connect 16 0 17 0;
#X connect 16 1 13 1;
#X connect 16 1 15 1;
#X connect 17 0 13 1;
#X connect 17 0 15 1;
#X connect 18 0 41 0;
#X connect 19 0 8 0;
#X connect 20 0 19 1;
#X connect 21 0 7 0;
#X connect 22 0 21 0;
#X connect 23 0 22 1;
#X connect 24 0 25 0;
#X connect 25 0 22 1;
#X connect 26 0 22 0;
#X connect 26 0 48 0;
#X connect 27 0 3 0;
#X connect 27 1 46 0;
#X connect 28 0 43 0;
#X connect 29 0 28 0;
#X connect 30 0 29 0;
#X connect 32 0 27 0;
#X connect 33 0 40 0;
#X connect 34 0 5 1;
#X connect 35 0 34 0;
#X connect 36 0 24 0;
#X connect 36 0 23 1;
#X connect 37 0 40 1;
#X connect 37 0 41 1;
#X connect 38 0 16 0;
#X connect 38 0 39 0;
#X connect 40 0 18 1;
#X connect 41 0 23 0;
#X connect 42 0 11 1;
#X connect 46 0 3 1;
#X connect 49 0 2 0;
#X connect 50 0 51 1;
#X connect 51 0 58 0;
#X connect 52 0 51 0;
#X connect 52 0 53 0;
#X connect 53 0 50 0;
#X connect 53 0 57 0;
#X connect 54 0 58 1;
#X connect 55 0 54 0;
#X connect 57 0 56 0;
#X connect 58 0 59 0;
#X restore 282 217 pd player;
#X obj 360 218 r~ \$0-audio-1;
#X msg 1100 138 1 2 3 4 5 6 7;
#X msg 1111 161 2 4 8 16 32 64 128;
#X msg 1229 189 8;
#X msg 686 618 1 2 4 8;
#X msg 663 593 8 9 0 -;
#X msg 796 642 1;
#X msg 658 408 0 2 4 8 16 32 64 128 256;
#X msg 647 383 q w e r t y u i o;
#X obj 822 361 loadbang;
#X msg 350 408 0 1 2 3 4 5 6 7;
#X obj 337 433 keys.ld \$0-keys-out;
#X obj 337 493 s \$0-jump-speed-in;
#X msg 479 433 0;
#X msg 337 384 z x c v b n m /;
#X obj 1100 188 keys.ld \$0-keys-out;
#X obj 663 643 keys.ld \$0-keys-out;
#X obj 647 434 keys.ld \$0-keys-out;
#X obj 337 467 f;
#X obj 256 407 r \$0-metbng;
#X obj 293 433 t b b;
#X floatatom 489 478 5 0 0 0 - - -;
#X obj 256 432 once;
#X obj 566 408 r \$0-metbng;
#X obj 603 434 t b b;
#X obj 566 434 once;
#X obj 648 464 f;
#X obj 550 491 bng 15 250 50 0 empty empty empty 17 7 0 10 -262144
-1 -1;
#X obj 578 617 r \$0-metbng;
#X obj 615 643 t b b;
#X obj 578 643 once;
#X obj 664 673 f;
#X connect 11 0 72 0;
#X connect 13 0 36 0;
#X connect 15 0 16 0;
#X connect 16 0 18 0;
#X connect 18 0 35 0;
#X connect 19 0 16 1;
#X connect 20 0 59 0;
#X connect 21 0 59 0;
#X connect 23 0 59 0;
#X connect 24 0 59 0;
#X connect 25 0 59 0;
#X connect 26 0 59 0;
#X connect 27 0 59 0;
#X connect 28 0 36 0;
#X connect 29 0 36 0;
#X connect 30 0 36 0;
#X connect 32 0 111 0;
#X connect 32 0 112 0;
#X connect 32 0 108 0;
#X connect 38 0 34 0;
#X connect 38 0 19 0;
#X connect 46 0 101 0;
#X connect 46 0 100 0;
#X connect 46 0 99 0;
#X connect 50 0 59 0;
#X connect 51 0 96 0;
#X connect 52 0 51 0;
#X connect 53 0 52 1;
#X connect 54 0 52 0;
#X connect 55 0 59 0;
#X connect 56 0 59 0;
#X connect 61 0 59 0;
#X connect 64 0 104 0;
#X connect 64 0 102 0;
#X connect 64 0 103 0;
#X connect 69 0 36 0;
#X connect 71 0 124 1;
#X connect 72 0 45 0;
#X connect 73 0 59 0;
#X connect 74 0 59 0;
#X connect 75 0 45 0;
#X connect 86 0 36 0;
#X connect 87 0 59 0;
#X connect 88 0 89 0;
#X connect 89 0 45 0;
#X connect 91 0 50 0;
#X connect 92 0 45 0;
#X connect 93 0 92 0;
#X connect 94 0 36 0;
#X connect 95 0 59 0;
#X connect 98 0 12 0;
#X connect 98 0 0 0;
#X connect 99 0 113 0;
#X connect 100 0 113 1;
#X connect 101 0 90 0;
#X connect 102 0 114 1;
#X connect 103 0 114 0;
#X connect 104 0 129 1;
#X connect 105 0 115 1;
#X connect 106 0 115 0;
#X connect 107 0 71 0;
#X connect 107 0 105 0;
#X connect 107 0 106 0;
#X connect 108 0 109 1;
#X connect 109 2 116 1;
#X connect 109 2 119 0;
#X connect 111 0 116 1;
#X connect 112 0 109 0;
#X connect 113 2 90 0;
#X connect 114 2 129 1;
#X connect 115 2 124 1;
#X connect 116 0 110 0;
#X connect 117 0 120 0;
#X connect 118 0 120 1;
#X connect 118 1 116 0;
#X connect 120 0 118 0;
#X connect 121 0 123 0;
#X connect 121 0 125 0;
#X connect 122 0 123 1;
#X connect 122 1 124 0;
#X connect 123 0 122 0;
#X connect 124 0 70 0;
#X connect 126 0 128 0;
#X connect 127 0 128 1;
#X connect 127 1 129 0;
#X connect 128 0 127 0;
#X connect 129 0 63 0;
