#N canvas 109 53 896 339 10;
#N canvas 0 0 1121 479 set_n2 1;
#X symbolatom -64 266 10 0 0 0 - - -;
#X floatatom -64 219 5 0 0 0 - - -;
#X obj -64 243 list2symbol;
#X obj -37 151 f;
#X obj -64 151 +;
#X obj 25 152 f;
#X obj -7 152 +;
#X obj -7 109 t f b;
#X obj -64 109 t f b;
#X msg -64 287 \; cnv1 label \$1;
#X obj 108 350 hsl 300 65 0 127 0 0 empty empty INT 130 30 0 30 -262144
-1 -1 0 1;
#X obj 132 227 cnv 15 100 60 empty cnv1 0.302013 20 12 0 14 -262144
-66577 0;
#X obj 115 301 cnv 15 100 30 empty cnv1 0.302013 20 12 0 48 -262144
-258113 0;
#X obj 389 144 cnv 15 100 60 empty cnv1 0.302013 20 12 1 36 -262144
-4160 0;
#X obj 610 123 cnv 15 100 60 empty cnv1 0.302013 20 12 2 48 -262144
-4034 0;
#X obj 418 350 hsl 150 65 0 1 0 0 empty empty frac 60 30 0 10 -262144
-1 -1 4500 1;
#X obj 262 225 cnv 15 100 60 empty cnv1 0.302013 20 12 0 128 -262144
-159808 0;
#X obj 604 373 cnv 15 100 20 empty empty SLIDE-ME! 20 12 1 48 -262144
-4160 0;
#X obj -64 82 int;
#X obj 101 101 cnv 15 100 60 empty empty empty 20 24 0 44 -262144 -4160
0;
#X obj -15 22 loadbang;
#X obj 730 306 cnv 15 100 60 empty cnv1 0.302013 20 12 2 18 -262144
-99865 0;
#X connect 0 0 9 0;
#X connect 1 0 2 0;
#X connect 2 0 0 0;
#X connect 3 0 4 1;
#X connect 4 0 1 0;
#X connect 5 0 6 1;
#X connect 6 0 1 0;
#X connect 7 0 6 0;
#X connect 7 0 3 1;
#X connect 7 1 5 0;
#X connect 8 0 4 0;
#X connect 8 1 3 0;
#X connect 10 0 18 0;
#X connect 15 0 7 0;
#X connect 18 0 8 0;
#X connect 18 0 5 1;
#X connect 20 0 18 0;
#X coords 0 -1 1 1 880 320 1 100 100;
#X restore 7 6 pd set_n2;
