#N canvas 199 86 812 433 10;
#X obj 35 87 cnv 15 398 103 empty empty empty 20 12 0 14 -179647 -66577
0;
#N canvas 0 0 450 300 (subpatch) 0;
#X array \$0-smp 123804 float 2;
#X coords 0 1 123804 -1 399 50 1;
#X restore 35 113 graph;
#X obj 140 93 bng 15 250 50 0 empty empty Open 19 8 2 12 -262130 -1
-1;
#X obj 204 93 bng 15 250 50 0 empty empty Normalize 19 8 2 12 -262130
-1 -1;
#X floatatom 371 92 6 0 0 1 Sec #0-num-secs -;
#X floatatom 290 92 8 0 0 1 Smp #0-num-smp -;
#X obj 35 62 symbol Play;
#X obj 35 9 loadbang;
#X obj 448 42 openpanel;
#X obj 448 164 rdsmp;
#X obj 448 134 pack s s;
#X obj 493 105 symbol \$0-smp;
#X obj 448 74 t s b;
#X obj 454 257 s \$0-num-secs;
#X obj 468 228 s \$0-num-smp;
#X symbolatom 35 175 66 0 0 0 - #0-filename -;
#X obj 475 199 s \$0-filename;
#X obj 38 164 hsl 393 10 0 1 0 0 empty \$0-play-pos empty -2 -8 0 10
-262130 -1 -1 0 1;
#X obj 738 147 0;
#X obj 448 286 s \$0-hz;
#X obj 669 148 r \$0-hz;
#X obj 668 273 *~;
#X obj 693 247 r \$0-num-smp;
#X obj 668 356 outlet~;
#X obj 576 268 unsig~ 50;
#X obj 669 182 vphasor.mmb~;
#X obj 683 83 t f f;
#X obj 667 313 tabread4~ \$0-smp;
#X obj 668 219 *~;
#X obj 738 119 sel 1;
#X obj 221 18 symbol \$0-smp;
#X msg 221 45 \; \$1 normalize;
#X obj 79 92 tog.ld;
#X obj 35 34 t b b;
#X obj 119 60 symbol \$0-play;
#X obj 117 8 bng 15 250 50 0 empty empty empty 17 7 0 10 -262144 -1
-1;
#X connect 2 0 8 0;
#X connect 3 0 30 0;
#X connect 6 0 32 0;
#X connect 7 0 33 0;
#X connect 8 0 12 0;
#X connect 9 0 19 0;
#X connect 9 1 13 0;
#X connect 9 3 14 0;
#X connect 9 4 16 0;
#X connect 10 0 9 0;
#X connect 11 0 10 1;
#X connect 12 0 10 0;
#X connect 12 1 11 0;
#X connect 18 0 25 1;
#X connect 20 0 25 0;
#X connect 21 0 27 0;
#X connect 22 0 21 1;
#X connect 24 0 17 0;
#X connect 25 0 28 0;
#X connect 26 0 28 1;
#X connect 26 1 29 0;
#X connect 27 0 23 0;
#X connect 28 0 21 0;
#X connect 28 0 24 0;
#X connect 29 0 18 0;
#X connect 30 0 31 0;
#X connect 32 0 26 0;
#X connect 33 0 6 0;
#X connect 33 1 34 0;
#X connect 34 0 32 1;
#X connect 35 0 33 0;
#X coords 0 -1 1 1 400 110 2 34 84;
