#N canvas 162 55 496 317 10;
#X obj 36 31 inlet;
#X obj 128 31 inlet;
#X obj 220 74 tgl 15 0 empty tog-left empty 17 7 0 10 -24198 -1 -1
1 1;
#X obj 238 74 tgl 15 0 empty tog-right empty 17 7 0 10 -258699 -1 -1
0 1;
#X obj 220 110 == 0;
#X obj 258 110 == 0;
#X obj 36 201 spigot;
#X obj 128 203 spigot;
#X obj 36 247 outlet;
#X obj 128 250 outlet;
#X msg 287 26 set \$1;
#X msg 184 24 set \$1;
#X obj 89 172 == 0;
#X obj 181 171 == 0;
#X obj 374 26 loadbang;
#X obj 356 54 1;
#X obj 387 53 0;
#X msg 328 209 \; tog-left color 16 22 \; tog-right color 13 22 \;
;
#X msg 229 258 \; tog-left color 13 22 \; tog-right color 16 22 \;
;
#X obj 309 177 route 0 1;
#X obj 142 142 t f f f;
#X text 371 177 R;
#X obj 229 185 route 0 1;
#X text 288 184 L;
#X obj 50 141 t f f f;
#X obj 214 244 bng 15 250 50 0 empty empty empty 17 7 0 10 -262144
-1 -1;
#X obj 261 241 bng 15 250 50 0 empty empty empty 17 7 0 10 -262144
-1 -1;
#X connect 0 0 6 0;
#X connect 1 0 7 0;
#X connect 2 0 4 0;
#X connect 2 0 24 0;
#X connect 3 0 5 0;
#X connect 3 0 20 0;
#X connect 4 0 11 0;
#X connect 5 0 10 0;
#X connect 6 0 8 0;
#X connect 7 0 9 0;
#X connect 10 0 2 0;
#X connect 11 0 3 0;
#X connect 12 0 7 1;
#X connect 13 0 6 1;
#X connect 14 0 15 0;
#X connect 14 0 16 0;
#X connect 15 0 2 0;
#X connect 16 0 3 0;
#X connect 19 0 17 0;
#X connect 19 1 18 0;
#X connect 20 0 19 0;
#X connect 20 1 7 1;
#X connect 20 2 13 0;
#X connect 22 0 18 0;
#X connect 22 1 17 0;
#X connect 24 0 22 0;
#X connect 24 1 6 1;
#X connect 24 2 12 0;
#X coords 0 -1 1 1 34 23 2 220 70;
