#N canvas 352 166 496 367 10;
#X obj 220 101 tgl 15 0 empty tog-left empty 17 7 0 10 -24198 -1 -1
1 1;
#X obj 238 101 tgl 15 0 empty tog-right empty 17 7 0 10 -258699 -1
-1 0 1;
#X obj 220 139 == 0;
#X obj 258 139 == 0;
#X msg 287 30 set \$1;
#X msg 197 31 set \$1;
#X obj 89 191 == 0;
#X obj 181 190 == 0;
#X obj 369 22 loadbang;
#X obj 351 50 1;
#X obj 382 49 0;
#X msg 328 264 \; tog-left color 16 22 \; tog-right color 13 22 \;
;
#X msg 229 313 \; tog-left color 13 22 \; tog-right color 16 22 \;
;
#X obj 328 205 route 0 1;
#X obj 142 153 t f f f;
#X text 390 205 R;
#X obj 229 204 route 0 1;
#X text 288 203 L;
#X obj 50 152 t f f f;
#X obj 36 31 inlet~;
#X obj 128 31 inlet~;
#X obj 35 224 *~;
#X obj 127 219 *~;
#X obj 36 279 outlet~;
#X obj 127 280 outlet~;
#X connect 0 0 2 0;
#X connect 0 0 18 0;
#X connect 1 0 3 0;
#X connect 1 0 14 0;
#X connect 2 0 5 0;
#X connect 3 0 4 0;
#X connect 4 0 0 0;
#X connect 5 0 1 0;
#X connect 6 0 22 1;
#X connect 7 0 21 1;
#X connect 8 0 9 0;
#X connect 8 0 10 0;
#X connect 9 0 0 0;
#X connect 10 0 1 0;
#X connect 13 0 11 0;
#X connect 13 1 12 0;
#X connect 14 0 13 0;
#X connect 14 1 22 1;
#X connect 14 2 7 0;
#X connect 16 0 12 0;
#X connect 16 1 11 0;
#X connect 18 0 16 0;
#X connect 18 1 21 1;
#X connect 18 2 6 0;
#X connect 19 0 21 0;
#X connect 20 0 22 0;
#X connect 21 0 23 0;
#X connect 22 0 24 0;
#X coords 0 -1 1 1 34 19 2 220 99;
