#N canvas 497 42 809 683 10;
#X obj 180 455 dac~;
#X obj 17 379 phasor~;
#X floatatom 17 357 5 0 0 0 - - -;
#X obj 155 339 sig~;
#X obj 200 339 sig~;
#X obj 107 267 mtof;
#X obj 107 130 vsl 15 128 16 135 0 0 empty empty empty 0 -8 0 8 -262144
-1 -1 0 1;
#X obj 155 130 vsl 15 128 0 1 0 0 empty empty empty 0 -8 0 8 -262144
-1 -1 0 1;
#X obj 200 129 vsl 15 128 0 1 0 0 empty empty empty 0 -8 0 8 -262144
-1 -1 0 1;
#X obj 107 339 line~;
#X msg 107 316 \$1 100;
#X floatatom 226 288 9 0 0 0 - - -;
#X floatatom 164 291 8 0 0 0 - - -;
#X floatatom 107 291 7 0 0 0 - - -;
#X msg 371 133 low;
#X msg 371 157 high;
#X msg 371 181 band;
#X msg 371 205 notch;
#X msg 371 229 peak;
#X obj 17 313 loadbang;
#N canvas 4 20 608 388 hanning-table 0;
#X obj 92 206 phasor~;
#X obj 92 234 cos~;
#X obj 23 328 tabwrite~ hanning;
#X obj 30 252 -~;
#X obj 28 218 sig~ 1;
#X msg 37 180 0;
#X text 141 13 CALCULATE HANNING;
#X text 141 27 WINDOW TABLE;
#N canvas 0 0 450 300 (subpatch) 0;
#X array hanning 512 float 0;
#X coords 0 1 511 0 256 128 1;
#X restore 305 93 graph;
#X obj 93 171 sig~;
#X text 24 354 sample rate / window size;
#X msg 23 144 bang;
#X obj 66 269 sig~ 0.5;
#X obj 49 300 *~;
#X obj 67 96 samplerate~;
#X obj 25 53 t b f;
#X obj 25 8 loadbang;
#X msg 25 31 512;
#X obj 94 131 / 512;
#X connect 0 0 1 0;
#X connect 1 0 3 1;
#X connect 3 0 13 0;
#X connect 4 0 3 0;
#X connect 5 0 0 1;
#X connect 9 0 0 0;
#X connect 11 0 2 0;
#X connect 11 0 5 0;
#X connect 12 0 13 1;
#X connect 13 0 2 0;
#X connect 14 0 18 0;
#X connect 15 0 14 0;
#X connect 15 0 11 0;
#X connect 15 1 18 1;
#X connect 16 0 17 0;
#X connect 17 0 15 0;
#X connect 18 0 9 0;
#X restore 23 440 pd hanning-table;
#N canvas 10 112 328 354 fft-analysis 0;
#X obj 69 15 inlet~;
#X obj 43 74 rfft~;
#X obj 37 123 *~;
#X obj 81 124 *~;
#X obj 49 167 +~;
#X obj 49 196 sqrt~;
#X obj 27 297 tabsend~ response;
#X obj 171 209 block~ 512 2;
#X obj 182 61 tabreceive~ hanning;
#X obj 164 99 *~;
#X obj 69 36 /~ 8;
#X obj 51 249 clip~ 0 1;
#X connect 0 0 10 0;
#X connect 1 0 2 0;
#X connect 1 0 2 1;
#X connect 1 1 3 0;
#X connect 1 1 3 1;
#X connect 2 0 4 0;
#X connect 3 0 4 1;
#X connect 4 0 5 0;
#X connect 5 0 11 0;
#X connect 8 0 9 1;
#X connect 9 0 1 0;
#X connect 10 0 9 0;
#X connect 11 0 6 0;
#X restore 226 431 pd fft-analysis;
#N canvas 0 0 450 300 (subpatch) 0;
#X array response 256 float 0;
#X coords 0 1 255 0 256 140 1;
#X restore 488 20 graph;
#X msg 17 335 110;
#X text 15 11 svf~ - state-variable filter;
#X text 156 109 q;
#X text 181 110 resonance;
#X text 77 110 frequency;
#X text 341 110 filter type;
#X text 18 38 A port of Steve Harris' LADSPA plugin;
#X text 16 55 (http://plugin.org.uk);
#X text 335 323 Notes:;
#X text 348 344 'q' controls the filter resonance. The resonance input
is for 'extra' resonance.. :);
#X text 410 181 <- keep q below 0.1;
#X text 349 380 The filters don't use the same scale for frequency.
Bandpass frequency seems to be in Hz. If the frequency is set too high
\, LOUD aliasing is produced.;
#X text 349 428 The bandpass filter is very sensitive to q - normal
range is 0 to 0.1.;
#X obj 210 397 bsaylor/svf~ low;
#X connect 1 0 36 0;
#X connect 2 0 1 0;
#X connect 3 0 36 2;
#X connect 4 0 36 3;
#X connect 5 0 13 0;
#X connect 6 0 5 0;
#X connect 7 0 3 0;
#X connect 7 0 12 0;
#X connect 8 0 4 0;
#X connect 8 0 11 0;
#X connect 9 0 36 1;
#X connect 10 0 9 0;
#X connect 13 0 10 0;
#X connect 14 0 36 0;
#X connect 15 0 36 0;
#X connect 16 0 36 0;
#X connect 17 0 36 0;
#X connect 18 0 36 0;
#X connect 19 0 23 0;
#X connect 23 0 2 0;
#X connect 36 0 0 0;
#X connect 36 0 0 1;
#X connect 36 0 21 0;
