#N canvas 0 0 412 291 10;
#X obj 45 16 inlet~;
#X obj 111 17 inlet~;
#X obj 230 17 inlet;
#X obj 98 250 outlet~;
#X obj 30 195 *~;
#X obj 97 197 *~;
#X obj 173 17 inlet~;
#X obj 158 199 *~;
#X obj 30 145 1;
#X obj 230 143 0;
#X obj 97 144 1;
#X obj 158 144 1;
#X obj 245 85 t b b;
#X obj 293 85 t b b;
#X obj 338 85 t b b;
#X text 269 18 0=off 1 \, 2 \, 3=on;
#X obj 230 53 sel 0 1 2 3;
#X connect 0 0 4 1;
#X connect 1 0 5 1;
#X connect 2 0 16 0;
#X connect 4 0 3 0;
#X connect 5 0 3 0;
#X connect 6 0 7 1;
#X connect 7 0 3 0;
#X connect 8 0 4 0;
#X connect 9 0 5 0;
#X connect 9 0 4 0;
#X connect 9 0 7 0;
#X connect 10 0 5 0;
#X connect 11 0 7 0;
#X connect 12 0 8 0;
#X connect 12 1 9 0;
#X connect 13 0 10 0;
#X connect 13 1 9 0;
#X connect 14 0 11 0;
#X connect 14 1 9 0;
#X connect 16 0 9 0;
#X connect 16 1 12 0;
#X connect 16 2 13 0;
#X connect 16 3 14 0;
