#N canvas 300 1 1132 804 10;
#X obj 325 21 loadbang;
#X obj 582 391 curve~;
#X obj -11 144 r \$0-env-default-bng;
#X obj -1 167 bng 15 250 50 0 empty empty empty 17 7 0 10 -262144 -1
-1;
#X obj 27 503 hsl 80 12 0 500 0 0 1-tabenv-att-time-out 1-tabenv-att-time-in
Attack_Time 15 7 0 9 -262130 -1 -1 0 1;
#X obj 25 397 cnv 15 373 99 empty empty empty 20 12 0 14 -212416 -66577
0;
#N canvas 0 0 450 300 (subpatch) 0;
#X array \$0-tabenv 13230 float 2;
#X coords 0 1 13230 -1 375 100 1;
#X restore 24 398 graph;
#X text -39 18 \$1-tabenv-\$2 \; \$1-tabenv-att-time-in/out \; \$1-tabenv-dec-time-in/out
\; \$1-tabenv-sus-level-in/out \; \$1-tabenv-rel-time-in/out \; \$1-tabenv-att-level-in/out
\; \$1-tabenv-rel-level-in/out \; \$1-tabenv-att-curve-in/out \; \$1-tabenv-dec-curve-in/out
\; \$1-tabenv-rel-curve-in/out \;;
#X msg -24 617 receive \$1-tabenv-att-time-in;
#X msg -24 640 send \$1-tabenv-att-time-out;
#X obj 147 503 hsl 80 12 -1 1 0 0 1-tabenv-att-curve-out 1-tabenv-att-curve-in
Attack_Curve 13 7 0 9 -262130 -1 -1 3950 1;
#X obj 280 503 hsl 80 12 0 1 0 0 1-tabenv-att-level-out 1-tabenv-att-level-in
Attack_Level 13 7 0 9 -262130 -1 -1 7900 1;
#X obj 27 518 hsl 80 12 0 500 0 0 1-tabenv-dec-time-out 1-tabenv-dec-time-in
Decay_Time 17 7 0 9 -262130 -1 -1 0 1;
#X obj 147 518 hsl 80 12 -1 1 0 0 1-tabenv-dec-curve-out 1-tabenv-dec-curve-in
Decay_Curve 15 7 0 9 -262130 -1 -1 3950 1;
#X obj 280 518 hsl 80 12 0 1 0 0 1-tabenv-dec-level-out 1-tabenv-dec-level-in
Sustain_Level 9 7 0 9 -262130 -1 -1 7900 1;
#X obj 27 533 hsl 80 12 0 500 0 0 1-tabenv-rel-time-out 1-tabenv-rel-time-in
Release_Time 12 7 0 9 -262130 -1 -1 158 1;
#X obj 147 533 hsl 80 12 -1 1 0 0 1-tabenv-rel-curve-out 1-tabenv-rel-curve-in
Release_Curve 9 7 0 9 -262130 -1 -1 5925 1;
#X obj 280 533 hsl 80 12 0 1 0 0 1-tabenv-rel-level-out 1-tabenv-rel-level-in
Release_Level 9 7 0 9 -262130 -1 -1 0 1;
#X msg 165 617 receive \$1-tabenv-att-curve-in;
#X msg 165 640 send \$1-tabenv-att-curve-out;
#X msg 365 617 receive \$1-tabenv-att-level-in;
#X msg 365 640 send \$1-tabenv-att-level-out;
#X msg -25 671 receive \$1-tabenv-dec-time-in;
#X msg -25 694 send \$1-tabenv-dec-time-out;
#X msg 166 671 receive \$1-tabenv-dec-curve-in;
#X msg 166 694 send \$1-tabenv-dec-curve-out;
#X msg 366 694 send \$1-tabenv-dec-level-out;
#X msg 365 671 receive \$1-tabenv-dec-level-in;
#X msg -26 725 receive \$1-tabenv-rel-time-in;
#X msg -26 748 send \$1-tabenv-rel-time-out;
#X msg 166 725 receive \$1-tabenv-rel-curve-in;
#X msg 166 748 send \$1-tabenv-rel-curve-out;
#X msg 366 725 receive \$1-tabenv-rel-level-in;
#X msg 367 748 send \$1-tabenv-rel-level-out;
#X obj 297 578 \$1;
#X obj -11 190 \$1;
#X obj 582 755 tabwrite~ \$0-tabenv;
#X msg -11 216 \; \$1-tabenv-att-time-in 0 \; \$1-tabenv-att-curve-in
0 \; \$1-tabenv-att-level-in 1 \; \$1-tabenv-dec-time-in 0 \; \$1-tabenv-dec-curve-in
0 \; \$1-tabenv-dec-level-in 1 \; \$1-tabenv-rel-time-in 10 \; \$1-tabenv-rel-curve-in
0.5 \; \$1-tabenv-rel-level-in 0 \;;
#X obj 582 22 inlet len-ms;
#X msg 582 361 \$1 \$2 \$3;
#X msg 601 253 \; \$1-tabenv resize \$2;
#X obj 601 227 pack \$0 f;
#X obj 112 503 cnv 5 21 12 xx \$0-att-time-can 0 0 6 0 10 -1 -1 0;
#X obj 113 504 cnv 10 19 10 empty \$0-att-time-can 0 1 5 0 10 -262130
-1 0;
#N canvas 135 167 1140 537 sliders-to-labels 0;
#X obj 36 126 \$0;
#X msg 36 203 \; \$1-att-time-can label \$2;
#X obj 36 153 t f b;
#X obj 36 178 pack f s;
#X obj 81 153 tosymbol;
#X obj 36 45 r \$1-tabenv-att-time-out;
#X obj 36 100 t b f;
#X obj 36 73 int;
#X obj 214 122 \$0;
#X obj 214 151 t f b;
#X obj 214 176 pack f s;
#X obj 259 151 tosymbol;
#X obj 214 98 t b f;
#X obj 214 69 int;
#X obj 214 45 r \$1-tabenv-dec-time-out;
#X msg 214 203 \; \$1-dec-time-can label \$2;
#X obj 385 123 \$0;
#X obj 385 150 t f b;
#X obj 385 175 pack f s;
#X obj 430 150 tosymbol;
#X obj 385 97 t b f;
#X obj 385 70 int;
#X obj 385 44 r \$1-tabenv-rel-time-out;
#X msg 385 202 \; \$1-rel-time-can label \$2;
#X obj 35 390 \$0;
#X obj 35 417 t f b;
#X obj 35 442 pack f s;
#X obj 80 417 tosymbol;
#X obj 35 364 t b f;
#X obj 213 388 \$0;
#X obj 213 415 t f b;
#X obj 213 440 pack f s;
#X obj 258 415 tosymbol;
#X obj 213 362 t b f;
#X obj 384 387 \$0;
#X obj 384 414 t f b;
#X obj 384 439 pack f s;
#X obj 429 414 tosymbol;
#X obj 384 361 t b f;
#X obj 35 311 r \$1-tabenv-att-curve-out;
#X msg 35 467 \; \$1-att-curve-can label \$2;
#X obj 213 309 r \$1-tabenv-dec-curve-out;
#X msg 213 467 \; \$1-dec-curve-can label \$2;
#X obj 384 308 r \$1-tabenv-rel-curve-out;
#X msg 384 466 \; \$1-rel-curve-can label \$2;
#X obj 576 126 \$0;
#X obj 576 153 t f b;
#X obj 576 178 pack f s;
#X obj 621 153 tosymbol;
#X obj 576 100 t b f;
#X obj 754 122 \$0;
#X obj 754 151 t f b;
#X obj 754 176 pack f s;
#X obj 799 151 tosymbol;
#X obj 754 98 t b f;
#X obj 925 123 \$0;
#X obj 925 150 t f b;
#X obj 925 175 pack f s;
#X obj 970 150 tosymbol;
#X obj 925 97 t b f;
#X obj 576 45 r \$1-tabenv-att-level-out;
#X msg 576 203 \; \$1-att-level-can label \$2;
#X obj 754 45 r \$1-tabenv-dec-level-out;
#X msg 754 203 \; \$1-dec-level-can label \$2;
#X obj 925 44 r \$1-tabenv-rel-level-out;
#X msg 925 202 \; \$1-rel-level-can label \$2;
#N canvas 0 0 450 300 round 0;
#X obj 64 84 * 100;
#X obj 64 117 int;
#X obj 64 149 / 100;
#X obj 64 50 inlet;
#X obj 64 181 outlet;
#X connect 0 0 1 0;
#X connect 1 0 2 0;
#X connect 2 0 4 0;
#X connect 3 0 0 0;
#X restore 35 338 pd round;
#N canvas 0 0 450 300 round 0;
#X obj 64 84 * 100;
#X obj 64 117 int;
#X obj 64 149 / 100;
#X obj 64 50 inlet;
#X obj 64 181 outlet;
#X connect 0 0 1 0;
#X connect 1 0 2 0;
#X connect 2 0 4 0;
#X connect 3 0 0 0;
#X restore 213 336 pd round;
#N canvas 0 0 450 300 round 0;
#X obj 64 84 * 100;
#X obj 64 117 int;
#X obj 64 149 / 100;
#X obj 64 50 inlet;
#X obj 64 181 outlet;
#X connect 0 0 1 0;
#X connect 1 0 2 0;
#X connect 2 0 4 0;
#X connect 3 0 0 0;
#X restore 384 334 pd round;
#N canvas 0 0 450 300 round 0;
#X obj 64 84 * 100;
#X obj 64 117 int;
#X obj 64 149 / 100;
#X obj 64 50 inlet;
#X obj 64 181 outlet;
#X connect 0 0 1 0;
#X connect 1 0 2 0;
#X connect 2 0 4 0;
#X connect 3 0 0 0;
#X restore 576 72 pd round;
#N canvas 0 0 450 300 round 0;
#X obj 64 84 * 100;
#X obj 64 117 int;
#X obj 64 149 / 100;
#X obj 64 50 inlet;
#X obj 64 181 outlet;
#X connect 0 0 1 0;
#X connect 1 0 2 0;
#X connect 2 0 4 0;
#X connect 3 0 0 0;
#X restore 754 72 pd round;
#N canvas 0 0 450 300 round 0;
#X obj 64 84 * 100;
#X obj 64 117 int;
#X obj 64 149 / 100;
#X obj 64 50 inlet;
#X obj 64 181 outlet;
#X connect 0 0 1 0;
#X connect 1 0 2 0;
#X connect 2 0 4 0;
#X connect 3 0 0 0;
#X restore 925 71 pd round;
#X connect 0 0 2 0;
#X connect 2 0 3 0;
#X connect 3 0 1 0;
#X connect 4 0 3 1;
#X connect 5 0 7 0;
#X connect 6 0 0 0;
#X connect 6 1 4 0;
#X connect 7 0 6 0;
#X connect 8 0 9 0;
#X connect 9 0 10 0;
#X connect 10 0 15 0;
#X connect 11 0 10 1;
#X connect 12 0 8 0;
#X connect 12 1 11 0;
#X connect 13 0 12 0;
#X connect 14 0 13 0;
#X connect 16 0 17 0;
#X connect 17 0 18 0;
#X connect 18 0 23 0;
#X connect 19 0 18 1;
#X connect 20 0 16 0;
#X connect 20 1 19 0;
#X connect 21 0 20 0;
#X connect 22 0 21 0;
#X connect 24 0 25 0;
#X connect 25 0 26 0;
#X connect 26 0 40 0;
#X connect 27 0 26 1;
#X connect 28 0 24 0;
#X connect 28 1 27 0;
#X connect 29 0 30 0;
#X connect 30 0 31 0;
#X connect 31 0 42 0;
#X connect 32 0 31 1;
#X connect 33 0 29 0;
#X connect 33 1 32 0;
#X connect 34 0 35 0;
#X connect 35 0 36 0;
#X connect 36 0 44 0;
#X connect 37 0 36 1;
#X connect 38 0 34 0;
#X connect 38 1 37 0;
#X connect 39 0 66 0;
#X connect 41 0 67 0;
#X connect 43 0 68 0;
#X connect 45 0 46 0;
#X connect 46 0 47 0;
#X connect 47 0 61 0;
#X connect 48 0 47 1;
#X connect 49 0 45 0;
#X connect 49 1 48 0;
#X connect 50 0 51 0;
#X connect 51 0 52 0;
#X connect 52 0 63 0;
#X connect 53 0 52 1;
#X connect 54 0 50 0;
#X connect 54 1 53 0;
#X connect 55 0 56 0;
#X connect 56 0 57 0;
#X connect 57 0 65 0;
#X connect 58 0 57 1;
#X connect 59 0 55 0;
#X connect 59 1 58 0;
#X connect 60 0 69 0;
#X connect 62 0 70 0;
#X connect 64 0 71 0;
#X connect 66 0 28 0;
#X connect 67 0 33 0;
#X connect 68 0 38 0;
#X connect 69 0 49 0;
#X connect 70 0 54 0;
#X connect 71 0 59 0;
#X restore 25 555 pd sliders-to-labels;
#X obj 112 518 cnv 5 21 12 xx \$0-att-time-can 0 0 6 0 10 -1 -1 0;
#X obj 113 519 cnv 10 19 10 empty \$0-dec-time-can 0 1 5 0 10 -262130
-1 0;
#X obj 112 533 cnv 5 21 12 xx \$0-att-time-can 0 0 6 0 10 -1 -1 0;
#X obj 113 534 cnv 10 19 10 empty \$0-rel-time-can 10 1 5 0 10 -262130
-1 0;
#X obj 582 198 t b b f;
#X obj 561 294 bng 15 250 50 0 empty empty empty 17 7 0 10 -262144
-1 -1;
#X obj 582 135 t f f;
#X obj 678 22 inlet divisor;
#X obj 678 49 t b f;
#X obj 582 48 t f b;
#X obj 582 107 /;
#X obj 705 75 f \$2;
#X obj 582 77 f 0;
#X obj 277 378 nbx 5 14 -1e+037 1e+037 0 0 empty empty Len -20 7 0
10 -262130 -1 -1 300 256;
#X obj 362 378 nbx 3 14 -1e+037 1e+037 0 0 empty empty div -20 7 0
10 -262130 -1 -1 64 256;
#X obj 362 349 init \$2;
#X obj 325 49 t b b b b;
#N canvas 128 37 401 443 att-list 0;
#X obj 41 173 pack f f f;
#X obj 74 119 r \$1-tabenv-att-curve-out;
#X obj 57 96 r \$1-tabenv-att-time-out;
#X obj 48 73 r \$1-tabenv-att-level-out;
#X obj 41 144 sync 3;
#X obj -44 236 list append;
#X obj -44 15 inlet;
#X obj -44 267 outlet;
#X obj 41 51 init mode any;
#X obj -44 48 t b b;
#X obj 42 270 outlet;
#X msg 42 236 0;
#X connect 0 0 5 1;
#X connect 1 0 4 2;
#X connect 2 0 4 1;
#X connect 3 0 4 0;
#X connect 4 0 0 0;
#X connect 4 1 0 1;
#X connect 4 2 0 2;
#X connect 5 0 7 0;
#X connect 6 0 9 0;
#X connect 8 0 4 0;
#X connect 9 0 5 0;
#X connect 9 1 11 0;
#X connect 11 0 10 0;
#X restore 582 328 pd att-list;
#N canvas 0 0 601 521 dec-list 0;
#X obj 147 285 pack f f f;
#X obj 147 258 sync 3;
#X obj 180 232 r \$1-tabenv-dec-curve-out;
#X obj 163 209 r \$1-tabenv-dec-time-out;
#X obj 154 187 r \$1-tabenv-dec-level-out;
#X obj 147 163 init mode any;
#X obj 156 42 inlet;
#X obj 84 316 list append;
#X obj 84 354 outlet;
#X obj 414 174 r \$1-tabenv-att-time-out;
#X obj 399 234 f;
#X obj 399 352 outlet;
#X obj 156 73 t b b b;
#X obj 414 204 ms2smp.ld;
#X connect 0 0 7 1;
#X connect 1 0 0 0;
#X connect 1 1 0 1;
#X connect 1 2 0 2;
#X connect 2 0 1 2;
#X connect 3 0 1 1;
#X connect 4 0 1 0;
#X connect 5 0 1 0;
#X connect 6 0 12 0;
#X connect 7 0 8 0;
#X connect 9 0 13 0;
#X connect 10 0 11 0;
#X connect 12 0 7 0;
#X connect 12 2 10 0;
#X connect 13 0 10 1;
#X restore 689 449 pd dec-list;
#N canvas 0 0 1141 564 rel-list 0;
#X obj 123 260 pack f f f;
#X obj 123 233 sync 3;
#X obj 156 208 r \$1-tabenv-rel-curve-out;
#X obj 139 185 r \$1-tabenv-rel-time-out;
#X obj 130 162 r \$1-tabenv-rel-level-out;
#X obj 186 21 inlet;
#X obj 48 289 list append;
#X obj 48 322 outlet;
#X obj 123 140 init mode any;
#X obj 428 115 add.ld;
#X obj 428 61 r \$1-tabenv-att-time-out;
#X obj 461 88 r \$1-tabenv-dec-time-out;
#X obj 428 168 add.ld;
#X obj 461 140 r \$1-tabenv-rel-time-out;
#X obj 383 227 max 0;
#X obj 383 196 minus.ld;
#X obj 383 22 inlet;
#X obj 368 292 f;
#X obj 383 260 ms2smp.ld;
#X obj 368 322 outlet;
#X obj 186 53 t b b;
#X connect 0 0 6 1;
#X connect 1 0 0 0;
#X connect 1 1 0 1;
#X connect 1 2 0 2;
#X connect 2 0 1 2;
#X connect 3 0 1 1;
#X connect 4 0 1 0;
#X connect 5 0 20 0;
#X connect 6 0 7 0;
#X connect 8 0 1 0;
#X connect 9 0 12 0;
#X connect 10 0 9 0;
#X connect 11 0 9 1;
#X connect 12 0 15 1;
#X connect 13 0 12 1;
#X connect 14 0 18 0;
#X connect 15 0 14 0;
#X connect 16 0 15 0;
#X connect 17 0 19 0;
#X connect 18 0 17 1;
#X connect 20 0 6 0;
#X connect 20 1 17 0;
#X restore 802 561 pd rel-list;
#X obj 232 503 cnv 5 34 12 empty empty 88 0 6 0 10 -1 -1 0;
#X obj 233 504 cnv 10 32 10 empty \$0-att-curve-can 0 1 5 0 10 -262130
-1 0;
#X obj 232 518 cnv 5 34 12 empty empty 88 0 6 0 10 -1 -1 0;
#X obj 233 519 cnv 10 32 10 empty \$0-dec-curve-can 0 1 5 0 10 -262130
-1 0;
#X obj 232 533 cnv 5 34 12 empty empty 88 0 6 0 10 -1 -1 0;
#X obj 233 534 cnv 10 32 10 empty \$0-rel-curve-can 0.5 1 5 0 10 -262130
-1 0;
#X obj 365 503 cnv 5 34 12 empty empty 88 0 6 0 10 -1 -1 0;
#X obj 366 504 cnv 10 32 10 empty \$0-att-level-can 1 1 5 0 10 -262130
-1 0;
#X obj 365 518 cnv 5 34 12 empty empty 88 0 6 0 10 -1 -1 0;
#X obj 366 519 cnv 10 32 10 empty \$0-dec-level-can 1 1 5 0 10 -262130
-1 0;
#X obj 365 533 cnv 5 34 12 empty empty 88 0 6 0 10 -1 -1 0;
#X obj 366 534 cnv 10 32 10 empty \$0-rel-level-can 0 1 5 0 10 -262130
-1 0;
#X obj 195 378 nbx 5 14 -1e+037 1e+037 0 0 empty empty Orig_Len -50
7 0 10 -262130 -1 -1 19200 256;
#X msg 645 390 start \$1;
#X obj 648 419 t b b;
#X msg 648 449 stop;
#X obj 689 501 curve~;
#X obj 751 531 t b b;
#X msg 751 561 stop;
#X obj 582 166 ms2smp.ld;
#X obj 802 621 curve~;
#X msg 752 502 start \$1;
#X msg 865 622 start \$1;
#X obj 883 651 print a;
#X obj 883 677 print d;
#X obj 883 703 print r;
#X msg 689 475 \$1 \$2 \$3;
#X msg 801 591 \$1 \$2 \$3;
#X connect 0 0 61 0;
#X connect 1 0 36 0;
#X connect 1 1 79 0;
#X connect 2 0 35 0;
#X connect 3 0 35 0;
#X connect 8 0 4 0;
#X connect 9 0 4 0;
#X connect 18 0 10 0;
#X connect 19 0 10 0;
#X connect 20 0 11 0;
#X connect 21 0 11 0;
#X connect 22 0 12 0;
#X connect 23 0 12 0;
#X connect 24 0 13 0;
#X connect 25 0 13 0;
#X connect 26 0 14 0;
#X connect 27 0 14 0;
#X connect 28 0 15 0;
#X connect 29 0 15 0;
#X connect 30 0 16 0;
#X connect 31 0 16 0;
#X connect 32 0 17 0;
#X connect 33 0 17 0;
#X connect 34 0 8 0;
#X connect 34 0 9 0;
#X connect 34 0 22 0;
#X connect 34 0 23 0;
#X connect 34 0 28 0;
#X connect 34 0 29 0;
#X connect 34 0 18 0;
#X connect 34 0 19 0;
#X connect 34 0 24 0;
#X connect 34 0 25 0;
#X connect 34 0 30 0;
#X connect 34 0 31 0;
#X connect 34 0 20 0;
#X connect 34 0 21 0;
#X connect 34 0 27 0;
#X connect 34 0 26 0;
#X connect 34 0 32 0;
#X connect 34 0 33 0;
#X connect 35 0 37 0;
#X connect 38 0 54 0;
#X connect 38 0 77 0;
#X connect 39 0 1 0;
#X connect 39 0 90 0;
#X connect 41 0 40 0;
#X connect 49 0 62 0;
#X connect 49 1 41 0;
#X connect 49 2 41 1;
#X connect 50 0 62 0;
#X connect 51 0 58 0;
#X connect 51 0 84 0;
#X connect 51 1 64 1;
#X connect 52 0 53 0;
#X connect 53 0 57 0;
#X connect 53 1 56 0;
#X connect 54 0 57 0;
#X connect 54 1 56 0;
#X connect 55 0 51 0;
#X connect 56 0 55 1;
#X connect 56 0 59 0;
#X connect 57 0 55 0;
#X connect 60 0 59 0;
#X connect 61 1 35 0;
#X connect 61 2 34 0;
#X connect 62 0 39 0;
#X connect 62 1 78 0;
#X connect 63 0 89 0;
#X connect 63 0 91 0;
#X connect 63 1 86 0;
#X connect 64 0 88 0;
#X connect 64 0 92 0;
#X connect 64 1 87 0;
#X connect 78 0 36 0;
#X connect 78 0 88 0;
#X connect 79 0 63 0;
#X connect 79 1 80 0;
#X connect 80 0 36 0;
#X connect 81 0 36 0;
#X connect 81 1 82 0;
#X connect 82 0 64 0;
#X connect 82 1 83 0;
#X connect 83 0 36 0;
#X connect 84 0 49 0;
#X connect 85 0 36 0;
#X connect 86 0 36 0;
#X connect 86 0 89 0;
#X connect 87 0 36 0;
#X connect 87 0 90 0;
#X connect 91 0 81 0;
#X connect 92 0 85 0;
