#N canvas 138 140 450 300 10;
#X obj 28 34 inlet;
#X obj 377 -2 inlet;
#X msg 377 59 reset;
#X obj 377 36 bng 15 250 50 0 empty empty empty 17 7 0 10 -262144 -1
-1;
#X obj 23 268 table \$0-writer;
#X obj 28 187 tabwrite \$0-writer;
#X obj 247 10 inlet;
#X msg 234 160 \; \$1 write \$2;
#X obj 157 87 symbol \$0-writer;
#X obj 234 128 pack s s;
#X obj 28 66 t f b;
#X obj 133 145 count \$1;
#X obj 299 86 symbol \$2;
#X obj 337 169 print Saved to;
#X obj 247 46 t b b b;
#X obj 337 126 symbol \$2;
#X connect 0 0 10 0;
#X connect 1 0 3 0;
#X connect 2 0 11 0;
#X connect 3 0 2 0;
#X connect 6 0 14 0;
#X connect 8 0 9 0;
#X connect 9 0 7 0;
#X connect 10 0 5 0;
#X connect 10 1 11 0;
#X connect 11 0 5 1;
#X connect 12 0 9 1;
#X connect 14 0 15 0;
#X connect 14 1 8 0;
#X connect 14 2 12 0;
#X connect 15 0 13 0;
