#N canvas 199 86 812 550 10;
#X obj 35 87 cnv 15 398 50 empty empty empty 20 12 0 14 -191744 -66577
0;
#X obj 94 91 bng 15 250 50 0 empty empty Open 19 8 2 14 -262130 -1
-1;
#X obj 154 91 bng 15 250 50 0 empty empty Normalize 19 8 2 14 -262130
-1 -1;
#X floatatom 359 90 6 0 0 1 - #0-num-secs -;
#X floatatom 242 90 8 0 0 1 - #0-num-smp -;
#X obj 95 52 symbol Play;
#X obj 95 21 loadbang;
#X obj 94 161 openpanel;
#X obj 94 283 rdsmp;
#X obj 94 253 pack s s;
#X obj 139 224 symbol \$0-smp;
#X obj 94 193 t s b;
#X obj 100 376 s \$0-num-secs;
#X obj 114 347 s \$0-num-smp;
#X symbolatom 35 122 66 0 0 0 - #0-filename -;
#X obj 121 318 s \$0-filename;
#X obj 38 112 hsl 394 10 0 1 0 0 empty \$0-play-pos empty -2 -8 0 10
-262130 -1 -1 21823 1;
#X obj 739 193 0;
#X obj 94 405 s \$0-hz;
#X obj 670 193 r \$0-hz;
#X obj 669 318 *~;
#X obj 696 288 r \$0-num-smp;
#X obj 667 506 outlet~;
#X obj 577 313 unsig~ 50;
#X obj 670 227 vphasor.mmb~;
#X obj 668 358 tabread4~ \$0-smp;
#X obj 669 264 *~;
#X obj 195 17 symbol \$0-smp;
#X msg 195 44 \; \$1 normalize;
#X obj 38 90 tog.ld;
#X obj 35 457 table \$0-smp;
#X obj 297 92 cnv 15 50 17 empty empty Samples 0 6 2 14 -191744 -1
0;
#X obj 402 93 cnv 15 27 17 empty empty Secs 0 6 2 14 -191744 -1 0;
#X obj 605 423 line;
#X msg 605 395 1 20;
#X obj 719 65 t b f b;
#X obj 684 159 f;
#X obj 605 66 t b f b;
#X obj 668 465 *~;
#X obj 616 18 route 0;
#X msg 758 395 0 20;
#X obj 684 119 del 22;
#X obj 758 421 line;
#X connect 1 0 7 0;
#X connect 2 0 27 0;
#X connect 5 0 29 0;
#X connect 6 0 5 0;
#X connect 7 0 11 0;
#X connect 8 0 18 0;
#X connect 8 1 12 0;
#X connect 8 3 13 0;
#X connect 8 4 15 0;
#X connect 9 0 8 0;
#X connect 10 0 9 1;
#X connect 11 0 9 0;
#X connect 11 1 10 0;
#X connect 17 0 24 1;
#X connect 19 0 24 0;
#X connect 20 0 25 0;
#X connect 21 0 20 1;
#X connect 23 0 16 0;
#X connect 24 0 26 0;
#X connect 25 0 38 0;
#X connect 26 0 20 0;
#X connect 26 0 23 0;
#X connect 27 0 28 0;
#X connect 29 0 39 0;
#X connect 33 0 38 1;
#X connect 34 0 33 0;
#X connect 35 0 41 0;
#X connect 35 1 36 1;
#X connect 35 2 40 0;
#X connect 36 0 26 1;
#X connect 37 0 34 0;
#X connect 37 1 36 0;
#X connect 37 2 17 0;
#X connect 38 0 22 0;
#X connect 39 0 35 0;
#X connect 39 1 37 0;
#X connect 40 0 42 0;
#X connect 41 0 36 0;
#X connect 42 0 38 1;
#X coords 0 -1 1 1 400 53 2 34 86;
