#N canvas 350 62 931 584 10;
#X obj 71 152 openpanel;
#X obj 71 274 rdsmp;
#X obj 71 244 pack s s;
#X obj 116 215 symbol \$0-smp;
#X obj 71 184 t s b;
#X obj 77 394 s \$0-num-secs;
#X obj 91 337 s \$0-num-smp;
#X obj 98 309 s \$0-filename;
#X obj 71 422 s \$0-hz;
#X obj 407 560 outlet~;
#X obj 218 295 unsig~ 50;
#X obj 329 490 tabread4~ \$0-smp;
#X obj 41 463 table \$0-smp;
#X obj 408 527 *~;
#X obj 330 457 vline~;
#X obj 84 366 s \$0-num-ms;
#X obj 563 132 r \$0-num-ms;
#X obj 345 197 - 1;
#X obj 345 162 r \$0-num-smp;
#X obj 330 315 pack f f;
#X obj 330 278 f;
#X obj 375 275 f;
#X obj 233 196 r \$0-num-smp;
#X obj 233 224 f;
#X obj 218 262 /~;
#X obj 460 488 vline~;
#X msg 460 351 0 \, 1 20 \, 0 20 \$1;
#X obj 460 274 f;
#X obj 460 217 t b b b;
#X msg 330 352 0 \, \$1 \$2 \, 0 0 \$2;
#X obj 454 117 f 1;
#X obj 460 160 route 1;
#X obj 467 59 == 0;
#X obj 499 191 t b b;
#X obj 364 396 del 20;
#X msg 585 349 0 20;
#X msg 355 420 stop \, 0;
#X obj 523 59 del;
#X obj 502 87 1;
#X obj 538 27 r \$0-num-ms;
#X obj 517 520 r \$0-hz;
#X obj 517 560 outlet;
#X obj 574 560 outlet;
#X obj 664 560 outlet;
#X obj 742 560 outlet;
#X obj 829 560 outlet;
#X obj 574 520 r \$0-num-secs;
#X obj 664 520 r \$0-num-ms;
#X obj 743 520 r \$0-num-smp;
#X obj 829 520 r \$0-filename;
#X obj 40 38 inlet;
#X obj 35 84 cnv 15 98 40 empty empty empty 20 12 0 14 -191744 -66577
0;
#X obj 92 86 bng 10 250 50 0 empty empty Open 14 6 2 11 -262130 -1
-1;
#X symbolatom 35 98 16 0 0 0 - #0-filename -;
#X obj 38 114 hsl 93 10 0 1 0 0 empty \$0-play-pos empty -2 -8 0 10
-262130 -1 -1 0 1;
#X obj 37 86 bng 10 250 50 0 empty empty Play 14 6 2 11 -262130 -1
-1;
#X connect 0 0 4 0;
#X connect 1 0 8 0;
#X connect 1 1 5 0;
#X connect 1 2 15 0;
#X connect 1 3 6 0;
#X connect 1 4 7 0;
#X connect 2 0 1 0;
#X connect 3 0 2 1;
#X connect 4 0 2 0;
#X connect 4 1 3 0;
#X connect 10 0 54 0;
#X connect 11 0 13 0;
#X connect 13 0 9 0;
#X connect 14 0 24 0;
#X connect 14 0 11 0;
#X connect 16 0 21 1;
#X connect 16 0 27 1;
#X connect 17 0 20 1;
#X connect 18 0 17 0;
#X connect 19 0 29 0;
#X connect 20 0 19 0;
#X connect 21 0 19 1;
#X connect 22 0 23 0;
#X connect 23 0 24 1;
#X connect 24 0 10 0;
#X connect 25 0 13 1;
#X connect 26 0 25 0;
#X connect 27 0 26 0;
#X connect 28 0 27 0;
#X connect 28 1 20 0;
#X connect 28 2 21 0;
#X connect 29 0 14 0;
#X connect 30 0 31 0;
#X connect 30 0 32 0;
#X connect 31 0 28 0;
#X connect 31 0 37 0;
#X connect 31 1 33 0;
#X connect 32 0 30 1;
#X connect 33 0 34 0;
#X connect 33 1 35 0;
#X connect 34 0 36 0;
#X connect 35 0 25 0;
#X connect 36 0 14 0;
#X connect 37 0 38 0;
#X connect 38 0 30 1;
#X connect 39 0 37 1;
#X connect 40 0 41 0;
#X connect 46 0 42 0;
#X connect 47 0 43 0;
#X connect 48 0 44 0;
#X connect 49 0 45 0;
#X connect 50 0 55 0;
#X connect 52 0 0 0;
#X connect 55 0 30 0;
#X coords 0 -1 1 1 100 46 2 34 81;
