#N canvas 4 0 1253 416 10;
#X obj 25 25 vsl 8 128 0 1 0 0 \$0-slicevol-1-out \$0-slicevol-1-in
empty 0 -9 0 10 -262131 -1 -1 0 1;
#X obj 33 25 vsl 8 128 0 1 0 0 \$0-slicevol-2-out \$0-slicevol-2-in
empty 0 -9 0 10 -262131 -1 -1 0 1;
#X obj 41 25 vsl 8 128 0 1 0 0 \$0-slicevol-3-out \$0-slicevol-3-in
empty 0 -9 0 10 -262131 -1 -1 0 1;
#X obj 49 25 vsl 8 128 0 1 0 0 \$0-slicevol-4-out \$0-slicevol-4-in
empty 0 -9 0 10 -262131 -1 -1 0 1;
#X obj 57 25 vsl 8 128 0 1 0 0 \$0-slicevol-5-out \$0-slicevol-5-in
empty 0 -9 0 10 -262131 -1 -1 0 1;
#X obj 65 25 vsl 8 128 0 1 0 0 \$0-slicevol-6-out \$0-slicevol-6-in
empty 0 -9 0 10 -262131 -1 -1 0 1;
#X obj 73 25 vsl 8 128 0 1 0 0 \$0-slicevol-7-out \$0-slicevol-7-in
empty 0 -9 0 10 -262131 -1 -1 0 1;
#X obj 81 25 vsl 8 128 0 1 0 0 \$0-slicevol-8-out \$0-slicevol-8-in
empty 0 -9 0 10 -262131 -1 -1 0 1;
#X obj 89 25 vsl 8 128 0 1 0 0 \$0-slicevol-9-out \$0-slicevol-9-in
empty 0 -9 0 10 -262131 -1 -1 0 1;
#X obj 97 25 vsl 8 128 0 1 0 0 \$0-slicevol-10-out \$0-slicevol-10-in
empty 0 -9 0 10 -262131 -1 -1 0 1;
#X obj 105 25 vsl 8 128 0 1 0 0 \$0-slicevol-11-out \$0-slicevol-11-in
empty 0 -9 0 10 -262131 -1 -1 0 1;
#X obj 113 25 vsl 8 128 0 1 0 0 \$0-slicevol-12-out \$0-slicevol-12-in
empty 0 -9 0 10 -262131 -1 -1 0 1;
#X obj 121 25 vsl 8 128 0 1 0 0 \$0-slicevol-13-out \$0-slicevol-13-in
empty 0 -9 0 10 -262131 -1 -1 0 1;
#X obj 129 25 vsl 8 128 0 1 0 0 \$0-slicevol-14-out \$0-slicevol-14-in
empty 0 -9 0 10 -262131 -1 -1 0 1;
#X obj 137 25 vsl 8 128 0 1 0 0 \$0-slicevol-15-out \$0-slicevol-15-in
empty 0 -9 0 10 -262131 -1 -1 0 1;
#X obj 145 25 vsl 8 128 0 1 0 0 \$0-slicevol-16-out \$0-slicevol-16-in
empty 0 -9 0 10 -262131 -1 -1 0 1;
#X obj 153 25 vsl 8 128 0 1 0 0 \$0-slicevol-17-out \$0-slicevol-17-in
empty 0 -9 0 10 -262131 -1 -1 0 1;
#X obj 161 25 vsl 8 128 0 1 0 0 \$0-slicevol-18-out \$0-slicevol-18-in
empty 0 -9 0 10 -262131 -1 -1 0 1;
#X obj 169 25 vsl 8 128 0 1 0 0 \$0-slicevol-19-out \$0-slicevol-19-in
empty 0 -9 0 10 -262131 -1 -1 0 1;
#X obj 177 25 vsl 8 128 0 1 0 0 \$0-slicevol-20-out \$0-slicevol-20-in
empty 0 -9 0 10 -262131 -1 -1 0 1;
#X obj 185 25 vsl 8 128 0 1 0 0 \$0-slicevol-21-out \$0-slicevol-21-in
empty 0 -9 0 10 -262131 -1 -1 0 1;
#X obj 193 25 vsl 8 128 0 1 0 0 \$0-slicevol-22-out \$0-slicevol-22-in
empty 0 -9 0 10 -262131 -1 -1 0 1;
#X obj 201 25 vsl 8 128 0 1 0 0 \$0-slicevol-23-out \$0-slicevol-23-in
empty 0 -9 0 10 -262131 -1 -1 0 1;
#X obj 209 25 vsl 8 128 0 1 0 0 \$0-slicevol-24-out \$0-slicevol-24-in
empty 0 -9 0 10 -262131 -1 -1 0 1;
#X obj 217 25 vsl 8 128 0 1 0 0 \$0-slicevol-25-out \$0-slicevol-25-in
empty 0 -9 0 10 -262131 -1 -1 0 1;
#X obj 225 25 vsl 8 128 0 1 0 0 \$0-slicevol-26-out \$0-slicevol-26-in
empty 0 -9 0 10 -262131 -1 -1 0 1;
#X obj 233 25 vsl 8 128 0 1 0 0 \$0-slicevol-27-out \$0-slicevol-27-in
empty 0 -9 0 10 -262131 -1 -1 0 1;
#X obj 241 25 vsl 8 128 0 1 0 0 \$0-slicevol-28-out \$0-slicevol-28-in
empty 0 -9 0 10 -262131 -1 -1 0 1;
#X obj 249 25 vsl 8 128 0 1 0 0 \$0-slicevol-29-out \$0-slicevol-29-in
empty 0 -9 0 10 -262131 -1 -1 0 1;
#X obj 257 25 vsl 8 128 0 1 0 0 \$0-slicevol-30-out \$0-slicevol-30-in
empty 0 -9 0 10 -262131 -1 -1 0 1;
#X obj 265 25 vsl 8 128 0 1 0 0 \$0-slicevol-31-out \$0-slicevol-31-in
empty 0 -9 0 10 -262131 -1 -1 0 1;
#X obj 273 25 vsl 8 128 0 1 0 0 \$0-slicevol-32-out \$0-slicevol-32-in
empty 0 -9 0 10 -262131 -1 -1 0 1;
#X obj 281 25 vsl 8 128 0 1 0 0 \$0-slicevol-33-out \$0-slicevol-33-in
empty 0 -9 0 10 -262131 -1 -1 0 1;
#X obj 289 25 vsl 8 128 0 1 0 0 \$0-slicevol-34-out \$0-slicevol-34-in
empty 0 -9 0 10 -262131 -1 -1 0 1;
#X obj 297 25 vsl 8 128 0 1 0 0 \$0-slicevol-35-out \$0-slicevol-35-in
empty 0 -9 0 10 -262131 -1 -1 0 1;
#X obj 305 25 vsl 8 128 0 1 0 0 \$0-slicevol-36-out \$0-slicevol-36-in
empty 0 -9 0 10 -262131 -1 -1 0 1;
#X obj 313 25 vsl 8 128 0 1 0 0 \$0-slicevol-37-out \$0-slicevol-37-in
empty 0 -9 0 10 -262131 -1 -1 0 1;
#X obj 321 25 vsl 8 128 0 1 0 0 \$0-slicevol-38-out \$0-slicevol-38-in
empty 0 -9 0 10 -262131 -1 -1 0 1;
#X obj 329 25 vsl 8 128 0 1 0 0 \$0-slicevol-39-out \$0-slicevol-39-in
empty 0 -9 0 10 -262131 -1 -1 0 1;
#X obj 337 25 vsl 8 128 0 1 0 0 \$0-slicevol-40-out \$0-slicevol-40-in
empty 0 -9 0 10 -262131 -1 -1 0 1;
#X obj 345 25 vsl 8 128 0 1 0 0 \$0-slicevol-41-out \$0-slicevol-41-in
empty 0 -9 0 10 -262131 -1 -1 0 1;
#X obj 353 25 vsl 8 128 0 1 0 0 \$0-slicevol-42-out \$0-slicevol-42-in
empty 0 -9 0 10 -262131 -1 -1 0 1;
#X obj 361 25 vsl 8 128 0 1 0 0 \$0-slicevol-43-out \$0-slicevol-43-in
empty 0 -9 0 10 -262131 -1 -1 0 1;
#X obj 369 25 vsl 8 128 0 1 0 0 \$0-slicevol-44-out \$0-slicevol-44-in
empty 0 -9 0 10 -262131 -1 -1 0 1;
#X obj 377 25 vsl 8 128 0 1 0 0 \$0-slicevol-45-out \$0-slicevol-45-in
empty 0 -9 0 10 -262131 -1 -1 0 1;
#X obj 385 25 vsl 8 128 0 1 0 0 \$0-slicevol-46-out \$0-slicevol-46-in
empty 0 -9 0 10 -262131 -1 -1 0 1;
#X obj 393 25 vsl 8 128 0 1 0 0 \$0-slicevol-47-out \$0-slicevol-47-in
empty 0 -9 0 10 -262131 -1 -1 0 1;
#X obj 401 25 vsl 8 128 0 1 0 0 \$0-slicevol-48-out \$0-slicevol-48-in
empty 0 -9 0 10 -262131 -1 -1 0 1;
#X obj 409 25 vsl 8 128 0 1 0 0 \$0-slicevol-49-out \$0-slicevol-49-in
empty 0 -9 0 10 -262131 -1 -1 0 1;
#X obj 417 25 vsl 8 128 0 1 0 0 \$0-slicevol-50-out \$0-slicevol-50-in
empty 0 -9 0 10 -262131 -1 -1 0 1;
#X obj 425 25 vsl 8 128 0 1 0 0 \$0-slicevol-51-out \$0-slicevol-51-in
empty 0 -9 0 10 -262131 -1 -1 0 1;
#X obj 433 25 vsl 8 128 0 1 0 0 \$0-slicevol-52-out \$0-slicevol-52-in
empty 0 -9 0 10 -262131 -1 -1 0 1;
#X obj 441 25 vsl 8 128 0 1 0 0 \$0-slicevol-53-out \$0-slicevol-53-in
empty 0 -9 0 10 -262131 -1 -1 0 1;
#X obj 449 25 vsl 8 128 0 1 0 0 \$0-slicevol-54-out \$0-slicevol-54-in
empty 0 -9 0 10 -262131 -1 -1 0 1;
#X obj 457 25 vsl 8 128 0 1 0 0 \$0-slicevol-55-out \$0-slicevol-55-in
empty 0 -9 0 10 -262131 -1 -1 0 1;
#X obj 465 25 vsl 8 128 0 1 0 0 \$0-slicevol-56-out \$0-slicevol-56-in
empty 0 -9 0 10 -262131 -1 -1 0 1;
#X obj 473 25 vsl 8 128 0 1 0 0 \$0-slicevol-57-out \$0-slicevol-57-in
empty 0 -9 0 10 -262131 -1 -1 0 1;
#X obj 481 25 vsl 8 128 0 1 0 0 \$0-slicevol-58-out \$0-slicevol-58-in
empty 0 -9 0 10 -262131 -1 -1 0 1;
#X obj 489 25 vsl 8 128 0 1 0 0 \$0-slicevol-59-out \$0-slicevol-59-in
empty 0 -9 0 10 -262131 -1 -1 0 1;
#X obj 497 25 vsl 8 128 0 1 0 0 \$0-slicevol-60-out \$0-slicevol-60-in
empty 0 -9 0 10 -262131 -1 -1 0 1;
#X obj 505 25 vsl 8 128 0 1 0 0 \$0-slicevol-61-out \$0-slicevol-61-in
empty 0 -9 0 10 -262131 -1 -1 0 1;
#X obj 513 25 vsl 8 128 0 1 0 0 \$0-slicevol-62-out \$0-slicevol-62-in
empty 0 -9 0 10 -262131 -1 -1 0 1;
#X obj 521 25 vsl 8 128 0 1 0 0 \$0-slicevol-63-out \$0-slicevol-63-in
empty 0 -9 0 10 -262131 -1 -1 0 1;
#X obj 529 25 vsl 8 128 0 1 0 0 \$0-slicevol-64-out \$0-slicevol-64-in
empty 0 -9 0 10 -262131 -1 -1 0 1;
#X obj 537 25 vsl 8 128 0 1 0 0 \$0-slicevol-65-out \$0-slicevol-65-in
empty 0 -9 0 10 -262131 -1 -1 0 1;
#X obj 545 25 vsl 8 128 0 1 0 0 \$0-slicevol-66-out \$0-slicevol-66-in
empty 0 -9 0 10 -262131 -1 -1 0 1;
#X obj 553 25 vsl 8 128 0 1 0 0 \$0-slicevol-67-out \$0-slicevol-67-in
empty 0 -9 0 10 -262131 -1 -1 0 1;
#X obj 561 25 vsl 8 128 0 1 0 0 \$0-slicevol-68-out \$0-slicevol-68-in
empty 0 -9 0 10 -262131 -1 -1 0 1;
#X obj 569 25 vsl 8 128 0 1 0 0 \$0-slicevol-69-out \$0-slicevol-69-in
empty 0 -9 0 10 -262131 -1 -1 0 1;
#X obj 577 25 vsl 8 128 0 1 0 0 \$0-slicevol-70-out \$0-slicevol-70-in
empty 0 -9 0 10 -262131 -1 -1 0 1;
#X obj 585 25 vsl 8 128 0 1 0 0 \$0-slicevol-71-out \$0-slicevol-71-in
empty 0 -9 0 10 -262131 -1 -1 0 1;
#X obj 593 25 vsl 8 128 0 1 0 0 \$0-slicevol-72-out \$0-slicevol-72-in
empty 0 -9 0 10 -262131 -1 -1 0 1;
#X obj 601 25 vsl 8 128 0 1 0 0 \$0-slicevol-73-out \$0-slicevol-73-in
empty 0 -9 0 10 -262131 -1 -1 0 1;
#X obj 609 25 vsl 8 128 0 1 0 0 \$0-slicevol-74-out \$0-slicevol-74-in
empty 0 -9 0 10 -262131 -1 -1 0 1;
#X obj 617 25 vsl 8 128 0 1 0 0 \$0-slicevol-75-out \$0-slicevol-75-in
empty 0 -9 0 10 -262131 -1 -1 0 1;
#X obj 625 25 vsl 8 128 0 1 0 0 \$0-slicevol-76-out \$0-slicevol-76-in
empty 0 -9 0 10 -262131 -1 -1 0 1;
#X obj 633 25 vsl 8 128 0 1 0 0 \$0-slicevol-77-out \$0-slicevol-77-in
empty 0 -9 0 10 -262131 -1 -1 0 1;
#X obj 641 25 vsl 8 128 0 1 0 0 \$0-slicevol-78-out \$0-slicevol-78-in
empty 0 -9 0 10 -262131 -1 -1 0 1;
#X obj 649 25 vsl 8 128 0 1 0 0 \$0-slicevol-79-out \$0-slicevol-79-in
empty 0 -9 0 10 -262131 -1 -1 0 1;
#X obj 657 25 vsl 8 128 0 1 0 0 \$0-slicevol-80-out \$0-slicevol-80-in
empty 0 -9 0 10 -262131 -1 -1 0 1;
#X obj 665 25 vsl 8 128 0 1 0 0 \$0-slicevol-81-out \$0-slicevol-81-in
empty 0 -9 0 10 -262131 -1 -1 0 1;
#X obj 673 25 vsl 8 128 0 1 0 0 \$0-slicevol-82-out \$0-slicevol-82-in
empty 0 -9 0 10 -262131 -1 -1 0 1;
#X obj 681 25 vsl 8 128 0 1 0 0 \$0-slicevol-83-out \$0-slicevol-83-in
empty 0 -9 0 10 -262131 -1 -1 0 1;
#X obj 689 25 vsl 8 128 0 1 0 0 \$0-slicevol-84-out \$0-slicevol-84-in
empty 0 -9 0 10 -262131 -1 -1 0 1;
#X obj 697 25 vsl 8 128 0 1 0 0 \$0-slicevol-85-out \$0-slicevol-85-in
empty 0 -9 0 10 -262131 -1 -1 0 1;
#X obj 705 25 vsl 8 128 0 1 0 0 \$0-slicevol-86-out \$0-slicevol-86-in
empty 0 -9 0 10 -262131 -1 -1 0 1;
#X obj 713 25 vsl 8 128 0 1 0 0 \$0-slicevol-87-out \$0-slicevol-87-in
empty 0 -9 0 10 -262131 -1 -1 0 1;
#X obj 721 25 vsl 8 128 0 1 0 0 \$0-slicevol-88-out \$0-slicevol-88-in
empty 0 -9 0 10 -262131 -1 -1 0 1;
#X obj 729 25 vsl 8 128 0 1 0 0 \$0-slicevol-89-out \$0-slicevol-89-in
empty 0 -9 0 10 -262131 -1 -1 0 1;
#X obj 737 25 vsl 8 128 0 1 0 0 \$0-slicevol-90-out \$0-slicevol-90-in
empty 0 -9 0 10 -262131 -1 -1 0 1;
#X obj 745 25 vsl 8 128 0 1 0 0 \$0-slicevol-91-out \$0-slicevol-91-in
empty 0 -9 0 10 -262131 -1 -1 0 1;
#X obj 753 25 vsl 8 128 0 1 0 0 \$0-slicevol-92-out \$0-slicevol-92-in
empty 0 -9 0 10 -262131 -1 -1 0 1;
#X obj 761 25 vsl 8 128 0 1 0 0 \$0-slicevol-93-out \$0-slicevol-93-in
empty 0 -9 0 10 -262131 -1 -1 0 1;
#X obj 769 25 vsl 8 128 0 1 0 0 \$0-slicevol-94-out \$0-slicevol-94-in
empty 0 -9 0 10 -262131 -1 -1 0 1;
#X obj 777 25 vsl 8 128 0 1 0 0 \$0-slicevol-95-out \$0-slicevol-95-in
empty 0 -9 0 10 -262131 -1 -1 0 1;
#X obj 785 25 vsl 8 128 0 1 0 0 \$0-slicevol-96-out \$0-slicevol-96-in
empty 0 -9 0 10 -262131 -1 -1 0 1;
#X obj 793 25 vsl 8 128 0 1 0 0 \$0-slicevol-97-out \$0-slicevol-97-in
empty 0 -9 0 10 -262131 -1 -1 0 1;
#X obj 801 25 vsl 8 128 0 1 0 0 \$0-slicevol-98-out \$0-slicevol-98-in
empty 0 -9 0 10 -262131 -1 -1 0 1;
#X obj 809 25 vsl 8 128 0 1 0 0 \$0-slicevol-99-out \$0-slicevol-99-in
empty 0 -9 0 10 -262131 -1 -1 0 1;
#X obj 817 25 vsl 8 128 0 1 0 0 \$0-slicevol-100-out \$0-slicevol-100-in
empty 0 -9 0 10 -262131 -1 -1 0 1;
#X obj 825 25 vsl 8 128 0 1 0 0 \$0-slicevol-101-out \$0-slicevol-101-in
empty 0 -9 0 10 -262131 -1 -1 0 1;
#X obj 833 25 vsl 8 128 0 1 0 0 \$0-slicevol-102-out \$0-slicevol-102-in
empty 0 -9 0 10 -262131 -1 -1 0 1;
#X obj 841 25 vsl 8 128 0 1 0 0 \$0-slicevol-103-out \$0-slicevol-103-in
empty 0 -9 0 10 -262131 -1 -1 0 1;
#X obj 849 25 vsl 8 128 0 1 0 0 \$0-slicevol-104-out \$0-slicevol-104-in
empty 0 -9 0 10 -262131 -1 -1 0 1;
#X obj 857 25 vsl 8 128 0 1 0 0 \$0-slicevol-105-out \$0-slicevol-105-in
empty 0 -9 0 10 -262131 -1 -1 0 1;
#X obj 865 25 vsl 8 128 0 1 0 0 \$0-slicevol-106-out \$0-slicevol-106-in
empty 0 -9 0 10 -262131 -1 -1 0 1;
#X obj 873 25 vsl 8 128 0 1 0 0 \$0-slicevol-107-out \$0-slicevol-107-in
empty 0 -9 0 10 -262131 -1 -1 0 1;
#X obj 881 25 vsl 8 128 0 1 0 0 \$0-slicevol-108-out \$0-slicevol-108-in
empty 0 -9 0 10 -262131 -1 -1 0 1;
#X obj 889 25 vsl 8 128 0 1 0 0 \$0-slicevol-109-out \$0-slicevol-109-in
empty 0 -9 0 10 -262131 -1 -1 0 1;
#X obj 897 25 vsl 8 128 0 1 0 0 \$0-slicevol-110-out \$0-slicevol-110-in
empty 0 -9 0 10 -262131 -1 -1 0 1;
#X obj 905 25 vsl 8 128 0 1 0 0 \$0-slicevol-111-out \$0-slicevol-111-in
empty 0 -9 0 10 -262131 -1 -1 0 1;
#X obj 913 25 vsl 8 128 0 1 0 0 \$0-slicevol-112-out \$0-slicevol-112-in
empty 0 -9 0 10 -262131 -1 -1 0 1;
#X obj 921 25 vsl 8 128 0 1 0 0 \$0-slicevol-113-out \$0-slicevol-113-in
empty 0 -9 0 10 -262131 -1 -1 0 1;
#X obj 929 25 vsl 8 128 0 1 0 0 \$0-slicevol-114-out \$0-slicevol-114-in
empty 0 -9 0 10 -262131 -1 -1 0 1;
#X obj 937 25 vsl 8 128 0 1 0 0 \$0-slicevol-115-out \$0-slicevol-115-in
empty 0 -9 0 10 -262131 -1 -1 0 1;
#X obj 945 25 vsl 8 128 0 1 0 0 \$0-slicevol-116-out \$0-slicevol-116-in
empty 0 -9 0 10 -262131 -1 -1 0 1;
#X obj 953 25 vsl 8 128 0 1 0 0 \$0-slicevol-117-out \$0-slicevol-117-in
empty 0 -9 0 10 -262131 -1 -1 0 1;
#X obj 961 25 vsl 8 128 0 1 0 0 \$0-slicevol-118-out \$0-slicevol-118-in
empty 0 -9 0 10 -262131 -1 -1 0 1;
#X obj 969 25 vsl 8 128 0 1 0 0 \$0-slicevol-119-out \$0-slicevol-119-in
empty 0 -9 0 10 -262131 -1 -1 0 1;
#X obj 977 25 vsl 8 128 0 1 0 0 \$0-slicevol-120-out \$0-slicevol-120-in
empty 0 -9 0 10 -262131 -1 -1 0 1;
#X obj 985 25 vsl 8 128 0 1 0 0 \$0-slicevol-121-out \$0-slicevol-121-in
empty 0 -9 0 10 -262131 -1 -1 0 1;
#X obj 993 25 vsl 8 128 0 1 0 0 \$0-slicevol-122-out \$0-slicevol-122-in
empty 0 -9 0 10 -262131 -1 -1 0 1;
#X obj 1001 25 vsl 8 128 0 1 0 0 \$0-slicevol-123-out \$0-slicevol-123-in
empty 0 -9 0 10 -262131 -1 -1 0 1;
#X obj 1009 25 vsl 8 128 0 1 0 0 \$0-slicevol-124-out \$0-slicevol-124-in
empty 0 -9 0 10 -262131 -1 -1 0 1;
#X obj 1017 25 vsl 8 128 0 1 0 0 \$0-slicevol-125-out \$0-slicevol-125-in
empty 0 -9 0 10 -262131 -1 -1 0 1;
#X obj 1025 25 vsl 8 128 0 1 0 0 \$0-slicevol-126-out \$0-slicevol-126-in
empty 0 -9 0 10 -262131 -1 -1 0 1;
#X obj 1033 25 vsl 8 128 0 1 0 0 \$0-slicevol-127-out \$0-slicevol-127-in
empty 0 -9 0 10 -262131 -1 -1 0 1;
#X obj 1041 25 vsl 8 128 0 1 0 0 \$0-slicevol-128-out \$0-slicevol-128-in
empty 0 -9 0 10 -262131 -1 -1 0 1;
#X obj 25 190 f;
#X obj 50 190 f;
#X obj 75 190 f;
#X obj 100 190 f;
#X obj 125 190 f;
#X obj 150 190 f;
#X obj 175 190 f;
#X obj 200 190 f;
#X obj 225 190 f;
#X obj 250 190 f;
#X obj 275 190 f;
#X obj 300 190 f;
#X obj 325 190 f;
#X obj 350 190 f;
#X obj 375 190 f;
#X obj 400 190 f;
#X obj 425 190 f;
#X obj 450 190 f;
#X obj 475 190 f;
#X obj 500 190 f;
#X obj 525 190 f;
#X obj 550 190 f;
#X obj 575 190 f;
#X obj 600 190 f;
#X obj 625 190 f;
#X obj 650 190 f;
#X obj 675 190 f;
#X obj 700 190 f;
#X obj 725 190 f;
#X obj 750 190 f;
#X obj 775 190 f;
#X obj 800 190 f;
#X obj 825 190 f;
#X obj 850 190 f;
#X obj 875 190 f;
#X obj 900 190 f;
#X obj 925 190 f;
#X obj 950 190 f;
#X obj 975 190 f;
#X obj 1000 190 f;
#X obj 1025 190 f;
#X obj 25 240 f;
#X obj 50 240 f;
#X obj 75 240 f;
#X obj 100 240 f;
#X obj 125 240 f;
#X obj 150 240 f;
#X obj 175 240 f;
#X obj 200 240 f;
#X obj 225 240 f;
#X obj 250 240 f;
#X obj 275 240 f;
#X obj 300 240 f;
#X obj 325 240 f;
#X obj 350 240 f;
#X obj 375 240 f;
#X obj 400 240 f;
#X obj 425 240 f;
#X obj 450 240 f;
#X obj 475 240 f;
#X obj 500 240 f;
#X obj 525 240 f;
#X obj 550 240 f;
#X obj 575 240 f;
#X obj 600 240 f;
#X obj 625 240 f;
#X obj 650 240 f;
#X obj 675 240 f;
#X obj 700 240 f;
#X obj 725 240 f;
#X obj 750 240 f;
#X obj 775 240 f;
#X obj 800 240 f;
#X obj 825 240 f;
#X obj 850 240 f;
#X obj 875 240 f;
#X obj 900 240 f;
#X obj 925 240 f;
#X obj 950 240 f;
#X obj 975 240 f;
#X obj 1000 240 f;
#X obj 1025 240 f;
#X obj 25 290 f;
#X obj 50 290 f;
#X obj 75 290 f;
#X obj 100 290 f;
#X obj 125 290 f;
#X obj 150 290 f;
#X obj 175 290 f;
#X obj 200 290 f;
#X obj 225 290 f;
#X obj 250 290 f;
#X obj 275 290 f;
#X obj 300 290 f;
#X obj 325 290 f;
#X obj 350 290 f;
#X obj 375 290 f;
#X obj 400 290 f;
#X obj 425 290 f;
#X obj 450 290 f;
#X obj 475 290 f;
#X obj 500 290 f;
#X obj 525 290 f;
#X obj 550 290 f;
#X obj 575 290 f;
#X obj 600 290 f;
#X obj 625 290 f;
#X obj 650 290 f;
#X obj 675 290 f;
#X obj 700 290 f;
#X obj 725 290 f;
#X obj 750 290 f;
#X obj 775 290 f;
#X obj 800 290 f;
#X obj 825 290 f;
#X obj 850 290 f;
#X obj 875 290 f;
#X obj 900 290 f;
#X obj 925 290 f;
#X obj 950 290 f;
#X obj 975 290 f;
#X obj 1000 290 f;
#X obj 1025 290 f;
#X obj 25 340 f;
#X obj 50 340 f;
#X obj 75 340 f;
#X obj 100 340 f;
#X obj 125 340 f;
#X obj 25 165 bng 15 250 50 0 empty \$0-slicevol-1-bang empty 17 7
0 10 -262144 -1 -1;
#X obj 50 165 bng 15 250 50 0 empty \$0-slicevol-2-bang empty 17 7
0 10 -262144 -1 -1;
#X obj 75 165 bng 15 250 50 0 empty \$0-slicevol-3-bang empty 17 7
0 10 -262144 -1 -1;
#X obj 100 165 bng 15 250 50 0 empty \$0-slicevol-4-bang empty 17 7
0 10 -262144 -1 -1;
#X obj 125 165 bng 15 250 50 0 empty \$0-slicevol-5-bang empty 17 7
0 10 -262144 -1 -1;
#X obj 150 165 bng 15 250 50 0 empty \$0-slicevol-6-bang empty 17 7
0 10 -262144 -1 -1;
#X obj 175 165 bng 15 250 50 0 empty \$0-slicevol-7-bang empty 17 7
0 10 -262144 -1 -1;
#X obj 200 165 bng 15 250 50 0 empty \$0-slicevol-8-bang empty 17 7
0 10 -262144 -1 -1;
#X obj 225 165 bng 15 250 50 0 empty \$0-slicevol-9-bang empty 17 7
0 10 -262144 -1 -1;
#X obj 250 165 bng 15 250 50 0 empty \$0-slicevol-10-bang empty 17
7 0 10 -262144 -1 -1;
#X obj 275 165 bng 15 250 50 0 empty \$0-slicevol-11-bang empty 17
7 0 10 -262144 -1 -1;
#X obj 300 165 bng 15 250 50 0 empty \$0-slicevol-12-bang empty 17
7 0 10 -262144 -1 -1;
#X obj 325 165 bng 15 250 50 0 empty \$0-slicevol-13-bang empty 17
7 0 10 -262144 -1 -1;
#X obj 350 165 bng 15 250 50 0 empty \$0-slicevol-14-bang empty 17
7 0 10 -262144 -1 -1;
#X obj 375 165 bng 15 250 50 0 empty \$0-slicevol-15-bang empty 17
7 0 10 -262144 -1 -1;
#X obj 400 165 bng 15 250 50 0 empty \$0-slicevol-16-bang empty 17
7 0 10 -262144 -1 -1;
#X obj 425 165 bng 15 250 50 0 empty \$0-slicevol-17-bang empty 17
7 0 10 -262144 -1 -1;
#X obj 450 165 bng 15 250 50 0 empty \$0-slicevol-18-bang empty 17
7 0 10 -262144 -1 -1;
#X obj 475 165 bng 15 250 50 0 empty \$0-slicevol-19-bang empty 17
7 0 10 -262144 -1 -1;
#X obj 500 165 bng 15 250 50 0 empty \$0-slicevol-20-bang empty 17
7 0 10 -262144 -1 -1;
#X obj 525 165 bng 15 250 50 0 empty \$0-slicevol-21-bang empty 17
7 0 10 -262144 -1 -1;
#X obj 550 165 bng 15 250 50 0 empty \$0-slicevol-22-bang empty 17
7 0 10 -262144 -1 -1;
#X obj 575 165 bng 15 250 50 0 empty \$0-slicevol-23-bang empty 17
7 0 10 -262144 -1 -1;
#X obj 600 165 bng 15 250 50 0 empty \$0-slicevol-24-bang empty 17
7 0 10 -262144 -1 -1;
#X obj 625 165 bng 15 250 50 0 empty \$0-slicevol-25-bang empty 17
7 0 10 -262144 -1 -1;
#X obj 650 165 bng 15 250 50 0 empty \$0-slicevol-26-bang empty 17
7 0 10 -262144 -1 -1;
#X obj 675 165 bng 15 250 50 0 empty \$0-slicevol-27-bang empty 17
7 0 10 -262144 -1 -1;
#X obj 700 165 bng 15 250 50 0 empty \$0-slicevol-28-bang empty 17
7 0 10 -262144 -1 -1;
#X obj 725 165 bng 15 250 50 0 empty \$0-slicevol-29-bang empty 17
7 0 10 -262144 -1 -1;
#X obj 750 165 bng 15 250 50 0 empty \$0-slicevol-30-bang empty 17
7 0 10 -262144 -1 -1;
#X obj 775 165 bng 15 250 50 0 empty \$0-slicevol-31-bang empty 17
7 0 10 -262144 -1 -1;
#X obj 800 165 bng 15 250 50 0 empty \$0-slicevol-32-bang empty 17
7 0 10 -262144 -1 -1;
#X obj 825 165 bng 15 250 50 0 empty \$0-slicevol-33-bang empty 17
7 0 10 -262144 -1 -1;
#X obj 850 165 bng 15 250 50 0 empty \$0-slicevol-34-bang empty 17
7 0 10 -262144 -1 -1;
#X obj 875 165 bng 15 250 50 0 empty \$0-slicevol-35-bang empty 17
7 0 10 -262144 -1 -1;
#X obj 900 165 bng 15 250 50 0 empty \$0-slicevol-36-bang empty 17
7 0 10 -262144 -1 -1;
#X obj 925 165 bng 15 250 50 0 empty \$0-slicevol-37-bang empty 17
7 0 10 -262144 -1 -1;
#X obj 950 165 bng 15 250 50 0 empty \$0-slicevol-38-bang empty 17
7 0 10 -262144 -1 -1;
#X obj 975 165 bng 15 250 50 0 empty \$0-slicevol-39-bang empty 17
7 0 10 -262144 -1 -1;
#X obj 1000 165 bng 15 250 50 0 empty \$0-slicevol-40-bang empty 17
7 0 10 -262144 -1 -1;
#X obj 1025 165 bng 15 250 50 0 empty \$0-slicevol-41-bang empty 17
7 0 10 -262144 -1 -1;
#X obj 25 215 bng 15 250 50 0 empty \$0-slicevol-42-bang empty 17 7
0 10 -262144 -1 -1;
#X obj 50 215 bng 15 250 50 0 empty \$0-slicevol-43-bang empty 17 7
0 10 -262144 -1 -1;
#X obj 75 215 bng 15 250 50 0 empty \$0-slicevol-44-bang empty 17 7
0 10 -262144 -1 -1;
#X obj 100 215 bng 15 250 50 0 empty \$0-slicevol-45-bang empty 17
7 0 10 -262144 -1 -1;
#X obj 125 215 bng 15 250 50 0 empty \$0-slicevol-46-bang empty 17
7 0 10 -262144 -1 -1;
#X obj 150 215 bng 15 250 50 0 empty \$0-slicevol-47-bang empty 17
7 0 10 -262144 -1 -1;
#X obj 175 215 bng 15 250 50 0 empty \$0-slicevol-48-bang empty 17
7 0 10 -262144 -1 -1;
#X obj 200 215 bng 15 250 50 0 empty \$0-slicevol-49-bang empty 17
7 0 10 -262144 -1 -1;
#X obj 225 215 bng 15 250 50 0 empty \$0-slicevol-50-bang empty 17
7 0 10 -262144 -1 -1;
#X obj 250 215 bng 15 250 50 0 empty \$0-slicevol-51-bang empty 17
7 0 10 -262144 -1 -1;
#X obj 275 215 bng 15 250 50 0 empty \$0-slicevol-52-bang empty 17
7 0 10 -262144 -1 -1;
#X obj 300 215 bng 15 250 50 0 empty \$0-slicevol-53-bang empty 17
7 0 10 -262144 -1 -1;
#X obj 325 215 bng 15 250 50 0 empty \$0-slicevol-54-bang empty 17
7 0 10 -262144 -1 -1;
#X obj 350 215 bng 15 250 50 0 empty \$0-slicevol-55-bang empty 17
7 0 10 -262144 -1 -1;
#X obj 375 215 bng 15 250 50 0 empty \$0-slicevol-56-bang empty 17
7 0 10 -262144 -1 -1;
#X obj 400 215 bng 15 250 50 0 empty \$0-slicevol-57-bang empty 17
7 0 10 -262144 -1 -1;
#X obj 425 215 bng 15 250 50 0 empty \$0-slicevol-58-bang empty 17
7 0 10 -262144 -1 -1;
#X obj 450 215 bng 15 250 50 0 empty \$0-slicevol-59-bang empty 17
7 0 10 -262144 -1 -1;
#X obj 475 215 bng 15 250 50 0 empty \$0-slicevol-60-bang empty 17
7 0 10 -262144 -1 -1;
#X obj 500 215 bng 15 250 50 0 empty \$0-slicevol-61-bang empty 17
7 0 10 -262144 -1 -1;
#X obj 525 215 bng 15 250 50 0 empty \$0-slicevol-62-bang empty 17
7 0 10 -262144 -1 -1;
#X obj 550 215 bng 15 250 50 0 empty \$0-slicevol-63-bang empty 17
7 0 10 -262144 -1 -1;
#X obj 575 215 bng 15 250 50 0 empty \$0-slicevol-64-bang empty 17
7 0 10 -262144 -1 -1;
#X obj 600 215 bng 15 250 50 0 empty \$0-slicevol-65-bang empty 17
7 0 10 -262144 -1 -1;
#X obj 625 215 bng 15 250 50 0 empty \$0-slicevol-66-bang empty 17
7 0 10 -262144 -1 -1;
#X obj 650 215 bng 15 250 50 0 empty \$0-slicevol-67-bang empty 17
7 0 10 -262144 -1 -1;
#X obj 675 215 bng 15 250 50 0 empty \$0-slicevol-68-bang empty 17
7 0 10 -262144 -1 -1;
#X obj 700 215 bng 15 250 50 0 empty \$0-slicevol-69-bang empty 17
7 0 10 -262144 -1 -1;
#X obj 725 215 bng 15 250 50 0 empty \$0-slicevol-70-bang empty 17
7 0 10 -262144 -1 -1;
#X obj 750 215 bng 15 250 50 0 empty \$0-slicevol-71-bang empty 17
7 0 10 -262144 -1 -1;
#X obj 775 215 bng 15 250 50 0 empty \$0-slicevol-72-bang empty 17
7 0 10 -262144 -1 -1;
#X obj 800 215 bng 15 250 50 0 empty \$0-slicevol-73-bang empty 17
7 0 10 -262144 -1 -1;
#X obj 825 215 bng 15 250 50 0 empty \$0-slicevol-74-bang empty 17
7 0 10 -262144 -1 -1;
#X obj 850 215 bng 15 250 50 0 empty \$0-slicevol-75-bang empty 17
7 0 10 -262144 -1 -1;
#X obj 875 215 bng 15 250 50 0 empty \$0-slicevol-76-bang empty 17
7 0 10 -262144 -1 -1;
#X obj 900 215 bng 15 250 50 0 empty \$0-slicevol-77-bang empty 17
7 0 10 -262144 -1 -1;
#X obj 925 215 bng 15 250 50 0 empty \$0-slicevol-78-bang empty 17
7 0 10 -262144 -1 -1;
#X obj 950 215 bng 15 250 50 0 empty \$0-slicevol-79-bang empty 17
7 0 10 -262144 -1 -1;
#X obj 975 215 bng 15 250 50 0 empty \$0-slicevol-80-bang empty 17
7 0 10 -262144 -1 -1;
#X obj 1000 215 bng 15 250 50 0 empty \$0-slicevol-81-bang empty 17
7 0 10 -262144 -1 -1;
#X obj 1025 215 bng 15 250 50 0 empty \$0-slicevol-82-bang empty 17
7 0 10 -262144 -1 -1;
#X obj 25 265 bng 15 250 50 0 empty \$0-slicevol-83-bang empty 17 7
0 10 -262144 -1 -1;
#X obj 50 265 bng 15 250 50 0 empty \$0-slicevol-84-bang empty 17 7
0 10 -262144 -1 -1;
#X obj 75 265 bng 15 250 50 0 empty \$0-slicevol-85-bang empty 17 7
0 10 -262144 -1 -1;
#X obj 100 265 bng 15 250 50 0 empty \$0-slicevol-86-bang empty 17
7 0 10 -262144 -1 -1;
#X obj 125 265 bng 15 250 50 0 empty \$0-slicevol-87-bang empty 17
7 0 10 -262144 -1 -1;
#X obj 150 265 bng 15 250 50 0 empty \$0-slicevol-88-bang empty 17
7 0 10 -262144 -1 -1;
#X obj 175 265 bng 15 250 50 0 empty \$0-slicevol-89-bang empty 17
7 0 10 -262144 -1 -1;
#X obj 200 265 bng 15 250 50 0 empty \$0-slicevol-90-bang empty 17
7 0 10 -262144 -1 -1;
#X obj 225 265 bng 15 250 50 0 empty \$0-slicevol-91-bang empty 17
7 0 10 -262144 -1 -1;
#X obj 250 265 bng 15 250 50 0 empty \$0-slicevol-92-bang empty 17
7 0 10 -262144 -1 -1;
#X obj 275 265 bng 15 250 50 0 empty \$0-slicevol-93-bang empty 17
7 0 10 -262144 -1 -1;
#X obj 300 265 bng 15 250 50 0 empty \$0-slicevol-94-bang empty 17
7 0 10 -262144 -1 -1;
#X obj 325 265 bng 15 250 50 0 empty \$0-slicevol-95-bang empty 17
7 0 10 -262144 -1 -1;
#X obj 350 265 bng 15 250 50 0 empty \$0-slicevol-96-bang empty 17
7 0 10 -262144 -1 -1;
#X obj 375 265 bng 15 250 50 0 empty \$0-slicevol-97-bang empty 17
7 0 10 -262144 -1 -1;
#X obj 400 265 bng 15 250 50 0 empty \$0-slicevol-98-bang empty 17
7 0 10 -262144 -1 -1;
#X obj 425 265 bng 15 250 50 0 empty \$0-slicevol-99-bang empty 17
7 0 10 -262144 -1 -1;
#X obj 450 265 bng 15 250 50 0 empty \$0-slicevol-100-bang empty 17
7 0 10 -262144 -1 -1;
#X obj 475 265 bng 15 250 50 0 empty \$0-slicevol-101-bang empty 17
7 0 10 -262144 -1 -1;
#X obj 500 265 bng 15 250 50 0 empty \$0-slicevol-102-bang empty 17
7 0 10 -262144 -1 -1;
#X obj 525 265 bng 15 250 50 0 empty \$0-slicevol-103-bang empty 17
7 0 10 -262144 -1 -1;
#X obj 550 265 bng 15 250 50 0 empty \$0-slicevol-104-bang empty 17
7 0 10 -262144 -1 -1;
#X obj 575 265 bng 15 250 50 0 empty \$0-slicevol-105-bang empty 17
7 0 10 -262144 -1 -1;
#X obj 600 265 bng 15 250 50 0 empty \$0-slicevol-106-bang empty 17
7 0 10 -262144 -1 -1;
#X obj 625 265 bng 15 250 50 0 empty \$0-slicevol-107-bang empty 17
7 0 10 -262144 -1 -1;
#X obj 650 265 bng 15 250 50 0 empty \$0-slicevol-108-bang empty 17
7 0 10 -262144 -1 -1;
#X obj 675 265 bng 15 250 50 0 empty \$0-slicevol-109-bang empty 17
7 0 10 -262144 -1 -1;
#X obj 700 265 bng 15 250 50 0 empty \$0-slicevol-110-bang empty 17
7 0 10 -262144 -1 -1;
#X obj 725 265 bng 15 250 50 0 empty \$0-slicevol-111-bang empty 17
7 0 10 -262144 -1 -1;
#X obj 750 265 bng 15 250 50 0 empty \$0-slicevol-112-bang empty 17
7 0 10 -262144 -1 -1;
#X obj 775 265 bng 15 250 50 0 empty \$0-slicevol-113-bang empty 17
7 0 10 -262144 -1 -1;
#X obj 800 265 bng 15 250 50 0 empty \$0-slicevol-114-bang empty 17
7 0 10 -262144 -1 -1;
#X obj 825 265 bng 15 250 50 0 empty \$0-slicevol-115-bang empty 17
7 0 10 -262144 -1 -1;
#X obj 850 265 bng 15 250 50 0 empty \$0-slicevol-116-bang empty 17
7 0 10 -262144 -1 -1;
#X obj 875 265 bng 15 250 50 0 empty \$0-slicevol-117-bang empty 17
7 0 10 -262144 -1 -1;
#X obj 900 265 bng 15 250 50 0 empty \$0-slicevol-118-bang empty 17
7 0 10 -262144 -1 -1;
#X obj 925 265 bng 15 250 50 0 empty \$0-slicevol-119-bang empty 17
7 0 10 -262144 -1 -1;
#X obj 950 265 bng 15 250 50 0 empty \$0-slicevol-120-bang empty 17
7 0 10 -262144 -1 -1;
#X obj 975 265 bng 15 250 50 0 empty \$0-slicevol-121-bang empty 17
7 0 10 -262144 -1 -1;
#X obj 1000 265 bng 15 250 50 0 empty \$0-slicevol-122-bang empty 17
7 0 10 -262144 -1 -1;
#X obj 1025 265 bng 15 250 50 0 empty \$0-slicevol-123-bang empty 17
7 0 10 -262144 -1 -1;
#X obj 25 315 bng 15 250 50 0 empty \$0-slicevol-124-bang empty 17
7 0 10 -262144 -1 -1;
#X obj 50 315 bng 15 250 50 0 empty \$0-slicevol-125-bang empty 17
7 0 10 -262144 -1 -1;
#X obj 75 315 bng 15 250 50 0 empty \$0-slicevol-126-bang empty 17
7 0 10 -262144 -1 -1;
#X obj 100 315 bng 15 250 50 0 empty \$0-slicevol-127-bang empty 17
7 0 10 -262144 -1 -1;
#X obj 125 315 bng 15 250 50 0 empty \$0-slicevol-128-bang empty 17
7 0 10 -262144 -1 -1;
#X obj 396 376 s \$0-slicevol;
#X connect 0 0 128 1;
#X connect 1 0 129 1;
#X connect 2 0 130 1;
#X connect 3 0 131 1;
#X connect 4 0 132 1;
#X connect 5 0 133 1;
#X connect 6 0 134 1;
#X connect 7 0 135 1;
#X connect 8 0 136 1;
#X connect 9 0 137 1;
#X connect 10 0 138 1;
#X connect 11 0 139 1;
#X connect 12 0 140 1;
#X connect 13 0 141 1;
#X connect 14 0 142 1;
#X connect 15 0 143 1;
#X connect 16 0 144 1;
#X connect 17 0 145 1;
#X connect 18 0 146 1;
#X connect 19 0 147 1;
#X connect 20 0 148 1;
#X connect 21 0 149 1;
#X connect 22 0 150 1;
#X connect 23 0 151 1;
#X connect 24 0 152 1;
#X connect 25 0 153 1;
#X connect 26 0 154 1;
#X connect 27 0 155 1;
#X connect 28 0 156 1;
#X connect 29 0 157 1;
#X connect 30 0 158 1;
#X connect 31 0 159 1;
#X connect 32 0 160 1;
#X connect 33 0 161 1;
#X connect 34 0 162 1;
#X connect 35 0 163 1;
#X connect 36 0 164 1;
#X connect 37 0 165 1;
#X connect 38 0 166 1;
#X connect 39 0 167 1;
#X connect 40 0 168 1;
#X connect 41 0 169 1;
#X connect 42 0 170 1;
#X connect 43 0 171 1;
#X connect 44 0 172 1;
#X connect 45 0 173 1;
#X connect 46 0 174 1;
#X connect 47 0 175 1;
#X connect 48 0 176 1;
#X connect 49 0 177 1;
#X connect 50 0 178 1;
#X connect 51 0 179 1;
#X connect 52 0 180 1;
#X connect 53 0 181 1;
#X connect 54 0 182 1;
#X connect 55 0 183 1;
#X connect 56 0 184 1;
#X connect 57 0 185 1;
#X connect 58 0 186 1;
#X connect 59 0 187 1;
#X connect 60 0 188 1;
#X connect 61 0 189 1;
#X connect 62 0 190 1;
#X connect 63 0 191 1;
#X connect 64 0 192 1;
#X connect 65 0 193 1;
#X connect 66 0 194 1;
#X connect 67 0 195 1;
#X connect 68 0 196 1;
#X connect 69 0 197 1;
#X connect 70 0 198 1;
#X connect 71 0 199 1;
#X connect 72 0 200 1;
#X connect 73 0 201 1;
#X connect 74 0 202 1;
#X connect 75 0 203 1;
#X connect 76 0 204 1;
#X connect 77 0 205 1;
#X connect 78 0 206 1;
#X connect 79 0 207 1;
#X connect 80 0 208 1;
#X connect 81 0 209 1;
#X connect 82 0 210 1;
#X connect 83 0 211 1;
#X connect 84 0 212 1;
#X connect 85 0 213 1;
#X connect 86 0 214 1;
#X connect 87 0 215 1;
#X connect 88 0 216 1;
#X connect 89 0 217 1;
#X connect 90 0 218 1;
#X connect 91 0 219 1;
#X connect 92 0 220 1;
#X connect 93 0 221 1;
#X connect 94 0 222 1;
#X connect 95 0 223 1;
#X connect 96 0 224 1;
#X connect 97 0 225 1;
#X connect 98 0 226 1;
#X connect 99 0 227 1;
#X connect 100 0 228 1;
#X connect 101 0 229 1;
#X connect 102 0 230 1;
#X connect 103 0 231 1;
#X connect 104 0 232 1;
#X connect 105 0 233 1;
#X connect 106 0 234 1;
#X connect 107 0 235 1;
#X connect 108 0 236 1;
#X connect 109 0 237 1;
#X connect 110 0 238 1;
#X connect 111 0 239 1;
#X connect 112 0 240 1;
#X connect 113 0 241 1;
#X connect 114 0 242 1;
#X connect 115 0 243 1;
#X connect 116 0 244 1;
#X connect 117 0 245 1;
#X connect 118 0 246 1;
#X connect 119 0 247 1;
#X connect 120 0 248 1;
#X connect 121 0 249 1;
#X connect 122 0 250 1;
#X connect 123 0 251 1;
#X connect 124 0 252 1;
#X connect 125 0 253 1;
#X connect 126 0 254 1;
#X connect 127 0 255 1;
#X connect 256 0 128 0;
#X connect 257 0 129 0;
#X connect 258 0 130 0;
#X connect 259 0 131 0;
#X connect 260 0 132 0;
#X connect 261 0 133 0;
#X connect 262 0 134 0;
#X connect 263 0 135 0;
#X connect 264 0 136 0;
#X connect 265 0 137 0;
#X connect 266 0 138 0;
#X connect 267 0 139 0;
#X connect 268 0 140 0;
#X connect 269 0 141 0;
#X connect 270 0 142 0;
#X connect 271 0 143 0;
#X connect 272 0 144 0;
#X connect 273 0 145 0;
#X connect 274 0 146 0;
#X connect 275 0 147 0;
#X connect 276 0 148 0;
#X connect 277 0 149 0;
#X connect 278 0 150 0;
#X connect 279 0 151 0;
#X connect 280 0 152 0;
#X connect 281 0 153 0;
#X connect 282 0 154 0;
#X connect 283 0 155 0;
#X connect 284 0 156 0;
#X connect 285 0 157 0;
#X connect 286 0 158 0;
#X connect 287 0 159 0;
#X connect 288 0 160 0;
#X connect 289 0 161 0;
#X connect 290 0 162 0;
#X connect 291 0 163 0;
#X connect 292 0 164 0;
#X connect 293 0 165 0;
#X connect 294 0 166 0;
#X connect 295 0 167 0;
#X connect 296 0 168 0;
#X connect 297 0 169 0;
#X connect 298 0 170 0;
#X connect 299 0 171 0;
#X connect 300 0 172 0;
#X connect 301 0 173 0;
#X connect 302 0 174 0;
#X connect 303 0 175 0;
#X connect 304 0 176 0;
#X connect 305 0 177 0;
#X connect 306 0 178 0;
#X connect 307 0 179 0;
#X connect 308 0 180 0;
#X connect 309 0 181 0;
#X connect 310 0 182 0;
#X connect 311 0 183 0;
#X connect 312 0 184 0;
#X connect 313 0 185 0;
#X connect 314 0 186 0;
#X connect 315 0 187 0;
#X connect 316 0 188 0;
#X connect 317 0 189 0;
#X connect 318 0 190 0;
#X connect 319 0 191 0;
#X connect 320 0 192 0;
#X connect 321 0 193 0;
#X connect 322 0 194 0;
#X connect 323 0 195 0;
#X connect 324 0 196 0;
#X connect 325 0 197 0;
#X connect 326 0 198 0;
#X connect 327 0 199 0;
#X connect 328 0 200 0;
#X connect 329 0 201 0;
#X connect 330 0 202 0;
#X connect 331 0 203 0;
#X connect 332 0 204 0;
#X connect 333 0 205 0;
#X connect 334 0 206 0;
#X connect 335 0 207 0;
#X connect 336 0 208 0;
#X connect 337 0 209 0;
#X connect 338 0 210 0;
#X connect 339 0 211 0;
#X connect 340 0 212 0;
#X connect 341 0 213 0;
#X connect 342 0 214 0;
#X connect 343 0 215 0;
#X connect 344 0 216 0;
#X connect 345 0 217 0;
#X connect 346 0 218 0;
#X connect 347 0 219 0;
#X connect 348 0 220 0;
#X connect 349 0 221 0;
#X connect 350 0 222 0;
#X connect 351 0 223 0;
#X connect 352 0 224 0;
#X connect 353 0 225 0;
#X connect 354 0 226 0;
#X connect 355 0 227 0;
#X connect 356 0 228 0;
#X connect 357 0 229 0;
#X connect 358 0 230 0;
#X connect 359 0 231 0;
#X connect 360 0 232 0;
#X connect 361 0 233 0;
#X connect 362 0 234 0;
#X connect 363 0 235 0;
#X connect 364 0 236 0;
#X connect 365 0 237 0;
#X connect 366 0 238 0;
#X connect 367 0 239 0;
#X connect 368 0 240 0;
#X connect 369 0 241 0;
#X connect 370 0 242 0;
#X connect 371 0 243 0;
#X connect 372 0 244 0;
#X connect 373 0 245 0;
#X connect 374 0 246 0;
#X connect 375 0 247 0;
#X connect 376 0 248 0;
#X connect 377 0 249 0;
#X connect 378 0 250 0;
#X connect 379 0 251 0;
#X connect 380 0 252 0;
#X connect 381 0 253 0;
#X connect 382 0 254 0;
#X connect 383 0 255 0;
