#N canvas 162 33 743 456 10;
#X msg 143 362 \; \$1 color 13 22 \;;
#X obj 143 300 route 0 1;
#X msg 254 361 \; \$1 color 16 22 \;;
#X obj 423 358 outlet;
#X obj 23 14 inlet;
#X obj 23 222 pack s s;
#X obj 23 150 t b s;
#X msg 23 257 \; \$1 label \$2;
#X obj 23 186 symbol;
#X obj 248 13 loadbang;
#X symbolatom 421 40 20 0 0 0 - - -;
#X obj 143 333 symbol;
#X obj 254 331 symbol;
#X obj 23 75 route symbol float;
#X obj 325 89 symbol tog-in;
#X obj 248 190 tgl 15 0 1002-rep-stop-out 1002-rep-stop-in S 20 7 0
10 -258699 -1 -1 0 1;
#X msg 299 149 receive tog-in;
#X obj 248 42 t b b b b;
#X obj 524 301 symbol;
#X obj 539 198 makefilename %s-in;
#X obj 554 163 makefilename %s-out;
#X obj 75 107 s \$0-togname-in;
#X obj 524 329 pack s s s s;
#X obj 494 99 symbol \$1;
#X obj 658 266 symbol \$2;
#X obj 385 191 symbol;
#X obj 409 250 symbol;
#X obj 494 133 t b b b s s b;
#X obj 409 276 s \$0-togname-in;
#X obj 551 267 r \$0-togname-in;
#X obj 385 216 s \$0-togname-out;
#X obj 421 19 r \$0-togname-in;
#X symbolatom 577 40 20 0 0 0 - - -;
#X obj 577 19 r \$0-togname-out;
#X obj 325 117 s \$0-togname-in;
#X obj 72 150 r \$0-togname-in;
#X msg 524 361 \; \$1 send \$3 \; \$1 label \$4 \; \$1 receive \$2
\;;
#X obj 348 44 bng 15 250 50 0 empty empty empty 17 7 0 10 -262144 -1
-1;
#X msg 248 148 0;
#X obj 287 300 r \$0-togname-in;
#X text 574 84 \$2 toggle label;
#X text 575 69 \$1 var name prefix;
#X text 41 54 float sets toggle state;
#X text 43 39 symbol sets toggle label;
#X connect 1 0 11 0;
#X connect 1 1 12 0;
#X connect 4 0 13 0;
#X connect 5 0 7 0;
#X connect 6 0 8 0;
#X connect 6 1 5 1;
#X connect 8 0 5 0;
#X connect 9 0 17 0;
#X connect 11 0 0 0;
#X connect 12 0 2 0;
#X connect 13 0 6 0;
#X connect 13 1 21 0;
#X connect 14 0 34 0;
#X connect 15 0 1 0;
#X connect 15 0 3 0;
#X connect 16 0 15 0;
#X connect 17 0 38 0;
#X connect 17 1 23 0;
#X connect 17 2 14 0;
#X connect 17 3 16 0;
#X connect 18 0 22 0;
#X connect 19 0 22 1;
#X connect 19 0 26 1;
#X connect 20 0 22 2;
#X connect 20 0 25 1;
#X connect 22 0 36 0;
#X connect 23 0 27 0;
#X connect 24 0 22 3;
#X connect 25 0 30 0;
#X connect 26 0 28 0;
#X connect 27 0 25 0;
#X connect 27 1 26 0;
#X connect 27 2 18 0;
#X connect 27 3 19 0;
#X connect 27 4 20 0;
#X connect 27 5 24 0;
#X connect 29 0 18 1;
#X connect 31 0 10 0;
#X connect 33 0 32 0;
#X connect 35 0 8 1;
#X connect 38 0 15 0;
#X connect 39 0 12 1;
#X connect 39 0 11 1;
#X coords 0 -1 1 1 17 19 2 247 188;
