#N canvas 368 235 539 540 10;
#X text 314 6 \$1 global key on/off;
#X obj 98 19 keyname;
#X obj 184 18 r \$1;
#X obj 151 56 spigot;
#X obj 98 56 sel 0;
#X msg 98 150 set 0;
#X obj 151 214 change;
#X msg 151 182 1;
#X text 314 36 \$3 key to match;
#X text 314 51 \$4 initial toggle state;
#X obj 151 150 sel \$3;
#X obj 151 247 bng 15 250 50 0 empty empty empty 17 7 0 10 -262144
-1 -1;
#X obj 150 453 pack f s;
#X floatatom 41 59 5 0 0 0 - - -;
#X text 314 21 \$2 var name prefix;
#X obj 234 56 loadbang;
#X obj 234 246 tgl 15 0 empty 1002-rep-stop-out empty 17 7 0 10 -262144
-1 -1 0 1;
#X obj 234 182 pack s;
#X msg 234 213 receive \$1;
#X obj 234 86 t b b;
#X obj 380 182 pack s \$4;
#X msg 380 213 \; \$1 \$2;
#X obj 380 120 symbol \$2;
#X obj 234 118 symbol \$2;
#X obj 380 149 makefilename %s-in;
#X obj 234 148 makefilename %s-out;
#X obj 195 422 symbol;
#X msg 150 483 \; \$2 \$1;
#X obj 150 392 t f b;
#X obj 234 277 == 0;
#X text 313 65 \$5 quantization bang;
#X obj 112 278 r \$5;
#X obj 151 313 spigot;
#X msg 184 278 0;
#X msg 151 278 1;
#X obj 151 346 f \$4;
#X text 26 284 quantize the;
#X text 26 297 keypress;
#X connect 1 0 4 0;
#X connect 1 0 13 0;
#X connect 1 1 3 0;
#X connect 2 0 3 1;
#X connect 3 0 10 0;
#X connect 4 0 5 0;
#X connect 5 0 6 0;
#X connect 6 0 11 0;
#X connect 7 0 6 0;
#X connect 10 0 7 0;
#X connect 11 0 34 0;
#X connect 12 0 27 0;
#X connect 15 0 19 0;
#X connect 15 0 33 0;
#X connect 16 0 29 0;
#X connect 17 0 18 0;
#X connect 18 0 16 0;
#X connect 19 0 23 0;
#X connect 19 1 22 0;
#X connect 20 0 21 0;
#X connect 22 0 24 0;
#X connect 23 0 25 0;
#X connect 24 0 20 0;
#X connect 24 0 26 1;
#X connect 25 0 17 0;
#X connect 26 0 12 1;
#X connect 28 0 12 0;
#X connect 28 1 26 0;
#X connect 29 0 35 1;
#X connect 31 0 32 0;
#X connect 32 0 33 0;
#X connect 32 0 35 0;
#X connect 33 0 32 1;
#X connect 34 0 32 1;
#X connect 35 0 28 0;
