#N canvas 107 168 539 490 10;
#X text 281 6 \$1 global key on/off;
#X obj 182 20 r \$1;
#X obj 149 58 spigot;
#X msg 96 152 set 0;
#X obj 149 216 change;
#X msg 149 184 1;
#X text 281 36 \$3 key to match;
#X text 281 51 \$4 initial toggle state;
#X obj 149 152 sel \$3;
#X obj 149 249 bng 15 250 50 0 empty empty empty 17 7 0 10 -262144
-1 -1;
#X obj 149 393 pack f s;
#X floatatom 100 56 5 0 0 0 - - -;
#X text 281 21 \$2 var name prefix;
#X obj 216 58 loadbang;
#X obj 216 244 tgl 15 0 empty 1002-play-out empty 17 7 0 10 -262144
-1 -1 0 1;
#X obj 216 184 pack s;
#X msg 216 215 receive \$1;
#X obj 216 88 t b b;
#X obj 375 182 pack s \$4;
#X msg 375 213 \; \$1 \$2;
#X obj 149 301 f;
#X obj 375 120 symbol \$2;
#X obj 216 120 symbol \$2;
#X obj 375 149 makefilename %s-in;
#X obj 216 150 makefilename %s-out;
#X obj 194 362 symbol;
#X msg 149 423 \; \$2 \$1;
#X obj 149 332 t f b;
#X obj 216 269 == 0;
#X obj 149 20 key;
#X obj 96 86 keyup;
#X floatatom 48 126 5 0 0 0 - - -;
#X obj 96 118 sel \$3;
#X connect 1 0 2 1;
#X connect 2 0 8 0;
#X connect 3 0 4 0;
#X connect 4 0 9 0;
#X connect 5 0 4 0;
#X connect 8 0 5 0;
#X connect 9 0 20 0;
#X connect 10 0 26 0;
#X connect 13 0 17 0;
#X connect 14 0 28 0;
#X connect 15 0 16 0;
#X connect 16 0 14 0;
#X connect 17 0 22 0;
#X connect 17 1 21 0;
#X connect 18 0 19 0;
#X connect 20 0 27 0;
#X connect 21 0 23 0;
#X connect 22 0 24 0;
#X connect 23 0 18 0;
#X connect 23 0 25 1;
#X connect 24 0 15 0;
#X connect 25 0 10 1;
#X connect 27 0 10 0;
#X connect 27 1 25 0;
#X connect 28 0 20 1;
#X connect 29 0 11 0;
#X connect 29 0 2 0;
#X connect 30 0 31 0;
#X connect 30 0 32 0;
#X connect 32 0 3 0;
