#N canvas 0 22 650 492 10;
#X obj 91 291 samphold~;
#X obj 76 320 -~;
#X obj 185 54 inlet;
#X obj 75 405 +~ 2;
#X obj 75 433 wrap~;
#X obj 259 144 samplerate~;
#X obj 259 175 expr 1/($f1/1000);
#X obj 244 205 f;
#X obj 244 251 vline~;
#X obj 174 328 vline~;
#X msg 174 298 \$1;
#X obj 76 363 +~;
#X obj 259 115 loadbang;
#X obj 76 467 outlet~;
#X msg 244 228 -1 0 0 \, 0 0 \$1;
#X text 287 250 one-sample pulse;
#X text 279 437 .mmb;
#X obj 185 169 t f b;
#X obj 185 82 expr if($f1>=0 \, modf($f1) \, 1-abs(modf($f1)));
#X text 459 81 wrap;
#X obj 77 204 inlet~;
#X connect 0 0 1 1;
#X connect 1 0 11 0;
#X connect 2 0 18 0;
#X connect 3 0 4 0;
#X connect 4 0 13 0;
#X connect 5 0 6 0;
#X connect 6 0 7 1;
#X connect 7 0 14 0;
#X connect 8 0 0 1;
#X connect 9 0 11 1;
#X connect 10 0 9 0;
#X connect 11 0 3 0;
#X connect 12 0 5 0;
#X connect 14 0 8 0;
#X connect 17 0 10 0;
#X connect 17 1 7 0;
#X connect 18 0 17 0;
#X connect 20 0 0 0;
#X connect 20 0 1 0;
