#N canvas 743 48 713 535 10;
#X obj 102 319 outlet;
#X obj 179 295 1;
#X obj 208 295 10;
#X obj 270 295 50;
#X obj 298 295 100;
#X obj 101 104 cnv 15 40 152 empty empty empty 20 12 0 14 -191744 -33289
0;
#X obj 104 109 vsl 15 123 0 1 0 0 empty \$0-slide empty 0 -9 0 10 -262130
-1 -1 0 1;
#X obj 121 107 vradio 16 1 0 8 empty empty empty 0 -8 0 10 -262130
-1 -1 0;
#X floatatom 102 237 6 0 0 0 - - -;
#X obj 104 19 inlet;
#X obj 179 259 route 0 1 2 3 4 5 6 7;
#X obj 239 295 20;
#X obj 330 295 500;
#X obj 364 295 1000;
#X obj 403 295 10000;
#X obj 224 388 mul.ld;
#X obj 279 340 f;
#X obj 180 17 loadbang;
#X msg 156 58 0;
#X connect 1 0 16 0;
#X connect 2 0 16 0;
#X connect 3 0 16 0;
#X connect 4 0 16 0;
#X connect 6 0 15 0;
#X connect 7 0 10 0;
#X connect 8 0 0 0;
#X connect 9 0 6 0;
#X connect 10 0 1 0;
#X connect 10 1 2 0;
#X connect 10 2 11 0;
#X connect 10 3 3 0;
#X connect 10 4 4 0;
#X connect 10 5 12 0;
#X connect 10 6 13 0;
#X connect 10 7 14 0;
#X connect 11 0 16 0;
#X connect 12 0 16 0;
#X connect 13 0 16 0;
#X connect 14 0 16 0;
#X connect 15 0 8 0;
#X connect 16 0 15 1;
#X connect 17 0 18 0;
#X connect 18 0 7 0;
#X coords 0 -1 1 1 42 158 2 100 101;
