#N canvas 361 40 1154 647 10;
#N canvas 0 0 450 300 (subpatch) 0;
#X array tmp 150000 float 2;
#X coords 0 1 150000 -1 400 140 1;
#X restore 496 -47 graph;
#X msg -65 191 start 0;
#X msg -63 219 stop;
#X obj -13 74 bng 15 250 50 0 empty empty empty 17 7 0 10 -262144 -1
-1;
#X obj 4 -62 tgl 15 0 empty empty empty 17 7 0 10 -262144 -1 -1 0 1
;
#X obj -13 40 metro 1000;
#N canvas 0 0 450 300 (subpatch) 0;
#X array tmp.2 150000 float 2;
#X coords 0 1 150000 -1 400 140 1;
#X restore 496 93 graph;
#N canvas 0 0 450 300 (subpatch) 0;
#X array tmp.3 150000 float 2;
#X coords 0 1 150000 -1 400 140 1;
#X restore 496 233 graph;
#N canvas 0 0 450 300 (subpatch) 0;
#X array tmp.4 150000 float 2;
#X coords 0 1 150000 -1 400 140 1;
#X restore 496 373 graph;
#X msg 198 506 \; tmp write c:/users/louis/tracks/pd/tmp.txt \; tmp.2
write c:/users/louis/tracks/pd/tmp2.txt \; tmp.3 write c:/users/louis/tracks/pd/tmp3.txt
\; tmp.4 write c:/users/louis/tracks/pd/tmp4.txt;
#X msg 42 506 \; tmp const 0 \; tmp.2 const 0 \; tmp.3 const 0 \; tmp.4
const 0 \;;
#X obj -80 270 tabwrite~ tmp;
#X obj 50 197 sigout;
#X obj 113 132 0;
#X obj 38 165 vphasor.mmb~;
#X msg 51 130 1;
#X obj 20 283 phasor2;
#X msg -12 320 start 0;
#X msg -10 348 stop;
#X obj -26 372 tabwrite~ tmp.2;
#X msg 191 384 start 0;
#X msg 188 417 stop;
#X obj 180 479 sigout;
#X obj 4 -36 sel 1;
#X msg 294 228 start 0;
#X msg 297 256 stop;
#X obj 4 -8 t b b b b b b;
#X obj 346 64 expr 100 - (100/$f1);
#X obj 114 20 0;
#X obj 282 279 tabwrite~ tmp.3;
#X obj 155 446 tabwrite~ tmp.4;
#X obj 165 213 hanning2.ld;
#X obj 166 255 sigout;
#X msg 342 98 4.5;
#X msg 56 251 4.5;
#X obj 112 -14 del 1200;
#X connect 1 0 11 0;
#X connect 2 0 11 0;
#X connect 4 0 23 0;
#X connect 4 0 5 0;
#X connect 5 0 3 0;
#X connect 13 0 14 1;
#X connect 14 0 16 0;
#X connect 14 0 12 0;
#X connect 14 0 11 0;
#X connect 14 0 31 1;
#X connect 15 0 14 0;
#X connect 16 0 19 0;
#X connect 16 0 31 0;
#X connect 17 0 19 0;
#X connect 18 0 19 0;
#X connect 20 0 30 0;
#X connect 21 0 30 0;
#X connect 23 0 26 0;
#X connect 23 0 35 0;
#X connect 24 0 29 0;
#X connect 25 0 29 0;
#X connect 26 0 20 0;
#X connect 26 1 24 0;
#X connect 26 2 17 0;
#X connect 26 3 1 0;
#X connect 26 4 13 0;
#X connect 28 0 4 0;
#X connect 31 0 29 0;
#X connect 31 0 32 0;
#X connect 31 1 30 0;
#X connect 33 0 31 2;
#X connect 34 0 16 1;
#X connect 35 0 28 0;
