#N canvas 361 40 1154 647 10;
#N canvas 0 0 450 300 (subpatch) 0;
#X array tmp 150000 float 2;
#X coords 0 1 150000 -1 400 140 1;
#X restore 496 -47 graph;
#X msg -65 191 start 0;
#X msg -63 219 stop;
#X obj -13 74 bng 15 250 50 0 empty empty empty 17 7 0 10 -262144 -1
-1;
#X obj 4 -62 tgl 15 0 empty empty empty 17 7 0 10 -262144 -1 -1 0 1
;
#X obj -13 40 metro 1000;
#N canvas 0 0 450 300 (subpatch) 0;
#X array tmp.2 150000 float 2;
#X coords 0 1 150000 -1 400 140 1;
#X restore 496 93 graph;
#N canvas 0 0 450 300 (subpatch) 0;
#X array tmp.3 150000 float 2;
#X coords 0 1 150000 -1 400 140 1;
#X restore 496 233 graph;
#N canvas 0 0 450 300 (subpatch) 0;
#X array tmp.4 150000 float 2;
#X coords 0 1 150000 -1 400 140 1;
#X restore 496 373 graph;
#X msg 198 506 \; tmp write c:/users/louis/tracks/pd/tmp.txt \; tmp.2
write c:/users/louis/tracks/pd/tmp2.txt \; tmp.3 write c:/users/louis/tracks/pd/tmp3.txt
\; tmp.4 write c:/users/louis/tracks/pd/tmp4.txt;
#X msg 42 506 \; tmp const 0 \; tmp.2 const 0 \; tmp.3 const 0 \; tmp.4
const 0 \;;
#X obj -80 270 tabwrite~ tmp;
#X obj 50 197 sigout;
#X obj 113 132 0;
#X obj 38 165 vphasor.mmb~;
#X msg 51 130 1;
#X obj 20 283 phasor2;
#X msg -12 320 start 0;
#X msg -10 348 stop;
#X obj -26 372 tabwrite~ tmp.2;
#X obj 157 251 cos~;
#X obj 156 280 *~ 0.5;
#X msg 238 325 start 0;
#X msg 235 358 stop;
#X obj 180 479 sigout;
#X obj 154 372 clip~ 0 1;
#X obj 156 309 +~ 0.5;
#X obj 4 -36 sel 1;
#X obj 153 217 +~ 0.5;
#X msg 292 113 50;
#X obj 321 253 sigout;
#X floatatom 372 171 5 0 0 0 - - -;
#X msg 406 216 start 0;
#X msg 409 244 stop;
#X obj 4 -8 t b b b b b b;
#X obj 237 415 *~;
#X obj 279 227 pwm.ld;
#X obj 181 171 sig~ 1;
#X obj 203 205 -~;
#X obj 346 64 expr 100 - (100/$f1);
#X obj 336 131 expr (100/$f1);
#X obj 112 -14 del 5000;
#X obj 114 20 0;
#X obj 282 279 tabwrite~ tmp.3;
#X obj 155 446 tabwrite~ tmp.4;
#X obj 154 344 *~ 15;
#X obj 256 -40 vsl 15 128 0 4 0 0 empty empty empty 0 -9 0 10 -262144
-1 -1 0 1;
#X floatatom 254 112 5 0 0 0 - - -;
#X msg 57 249 1.6;
#X msg 343 95 1.6;
#X connect 1 0 11 0;
#X connect 2 0 11 0;
#X connect 4 0 27 0;
#X connect 4 0 5 0;
#X connect 5 0 3 0;
#X connect 13 0 14 1;
#X connect 14 0 16 0;
#X connect 14 0 12 0;
#X connect 14 0 11 0;
#X connect 14 0 38 1;
#X connect 15 0 14 0;
#X connect 16 0 28 0;
#X connect 16 0 19 0;
#X connect 17 0 19 0;
#X connect 18 0 19 0;
#X connect 20 0 21 0;
#X connect 21 0 26 0;
#X connect 22 0 44 0;
#X connect 23 0 44 0;
#X connect 25 0 35 0;
#X connect 26 0 24 0;
#X connect 26 0 45 0;
#X connect 27 0 34 0;
#X connect 27 0 41 0;
#X connect 28 0 20 0;
#X connect 29 0 36 1;
#X connect 32 0 43 0;
#X connect 33 0 43 0;
#X connect 34 0 32 0;
#X connect 34 1 44 0;
#X connect 34 2 17 0;
#X connect 34 3 1 0;
#X connect 34 4 13 0;
#X connect 35 0 44 0;
#X connect 36 0 30 0;
#X connect 36 0 35 1;
#X connect 36 0 43 0;
#X connect 37 0 38 0;
#X connect 38 0 36 0;
#X connect 40 0 31 0;
#X connect 40 0 36 1;
#X connect 41 0 42 0;
#X connect 42 0 4 0;
#X connect 45 0 25 0;
#X connect 46 0 47 0;
#X connect 47 0 40 0;
#X connect 47 0 16 1;
#X connect 48 0 16 1;
#X connect 49 0 40 0;
