#N canvas 706 11 853 326 12;
#N canvas 0 0 450 300 (subpatch) 0;
#X array \$0-wave 5000 float 0;
#X coords 0 1 4999 -1 200 100 1;
#X restore 346 54 graph;
#X obj 205 56 inlet~;
#X obj 271 211 metro 50;
#X floatatom 365 168 5 0 0 0 speed - -;
#X obj 550 41 vsl 10 110 250 50 0 0 empty empty speed -4 -8 1 8 -262144
-1 -1 8175 1;
#X obj 301 239 bng 15 250 50 0 empty empty empty 17 7 0 10 -262144
-1 -1;
#X obj 403 35 tgl 15 1 empty empty empty 17 7 0 10 -262144 -1 -1 1
1;
#X obj 599 20 loadbang;
#X msg 602 71 100;
#X obj 336 260 tabwrite~ \$0-wave;
#X connect 1 0 9 0;
#X connect 2 0 5 0;
#X connect 3 0 2 1;
#X connect 4 0 3 0;
#X connect 5 0 9 0;
#X connect 6 0 2 0;
#X connect 7 0 8 0;
#X connect 8 0 4 0;
#X coords 0 -1 1 1 225 140 1 342 17;
