#N canvas 330 270 450 300 10;
#N canvas 577 38 730 557 wave-shaper 0;
#X obj 226 474 cos~;
#X obj 213 416 *~;
#X obj 224 449 +~ 0.25;
#X obj 109 216 *~;
#X obj 202 126 *~;
#X obj 337 295 * -1;
#X obj 207 311 *~ 2;
#X obj 307 218 t b f;
#X obj 313 258 * 2;
#X obj 367 133 abs;
#X obj 60 56 inlet~ signal;
#X obj 227 551 outlet~;
#X obj 367 108 - 1;
#X obj 270 70 * 4;
#X obj 367 210 * 8;
#X obj 266 119 line~;
#X msg 264 95 \$1 5;
#X obj 192 97 line~;
#X msg 190 73 \$1 5;
#X obj 223 347 expr~ $v1>$f2;
#X obj 335 349 expr~ $v1<$f2;
#X obj 259 380 expr~ $v1==0;
#X obj 177 48 inlet amount;
#X obj 270 47 inlet depth;
#X obj 366 86 inlet limit;
#X text 188 28 0-1;
#X text 283 27 0-1;
#X text 384 67 0-1;
#X connect 0 0 11 0;
#X connect 1 0 2 0;
#X connect 2 0 0 0;
#X connect 3 0 6 0;
#X connect 4 0 3 1;
#X connect 5 0 20 1;
#X connect 6 0 1 0;
#X connect 6 0 19 0;
#X connect 6 0 20 0;
#X connect 7 0 8 0;
#X connect 7 1 8 1;
#X connect 8 0 5 0;
#X connect 8 0 19 1;
#X connect 9 0 7 0;
#X connect 10 0 3 0;
#X connect 12 0 9 0;
#X connect 13 0 16 0;
#X connect 14 0 8 0;
#X connect 15 0 4 1;
#X connect 16 0 15 0;
#X connect 17 0 4 0;
#X connect 18 0 17 0;
#X connect 19 0 21 0;
#X connect 20 0 21 0;
#X connect 21 0 1 1;
#X connect 22 0 18 0;
#X connect 23 0 13 0;
#X connect 23 0 14 0;
#X connect 24 0 12 0;
#X restore 72 219 pd wave-shaper;
#X obj 72 30 inlet~;
#X obj 182 30 inlet~;
#N canvas 577 38 730 557 wave-shaper 0;
#X obj 226 474 cos~;
#X obj 213 416 *~;
#X obj 224 449 +~ 0.25;
#X obj 109 216 *~;
#X obj 202 126 *~;
#X obj 337 295 * -1;
#X obj 207 311 *~ 2;
#X obj 307 218 t b f;
#X obj 313 258 * 2;
#X obj 367 133 abs;
#X obj 60 56 inlet~ signal;
#X obj 227 551 outlet~;
#X obj 367 108 - 1;
#X obj 270 70 * 4;
#X obj 367 210 * 8;
#X obj 266 119 line~;
#X msg 264 95 \$1 5;
#X obj 192 97 line~;
#X msg 190 73 \$1 5;
#X obj 223 347 expr~ $v1>$f2;
#X obj 335 349 expr~ $v1<$f2;
#X obj 259 380 expr~ $v1==0;
#X obj 177 48 inlet amount;
#X obj 270 47 inlet depth;
#X obj 366 86 inlet limit;
#X text 188 28 0-1;
#X text 283 27 0-1;
#X text 384 67 0-1;
#X connect 0 0 11 0;
#X connect 1 0 2 0;
#X connect 2 0 0 0;
#X connect 3 0 6 0;
#X connect 4 0 3 1;
#X connect 5 0 20 1;
#X connect 6 0 1 0;
#X connect 6 0 19 0;
#X connect 6 0 20 0;
#X connect 7 0 8 0;
#X connect 7 1 8 1;
#X connect 8 0 5 0;
#X connect 8 0 19 1;
#X connect 9 0 7 0;
#X connect 10 0 3 0;
#X connect 12 0 9 0;
#X connect 13 0 16 0;
#X connect 14 0 8 0;
#X connect 15 0 4 1;
#X connect 16 0 15 0;
#X connect 17 0 4 0;
#X connect 18 0 17 0;
#X connect 19 0 21 0;
#X connect 20 0 21 0;
#X connect 21 0 1 1;
#X connect 22 0 18 0;
#X connect 23 0 13 0;
#X connect 23 0 14 0;
#X connect 24 0 12 0;
#X restore 182 219 pd wave-shaper;
#X obj 254 31 inlet;
#X obj 305 31 inlet;
#X obj 355 32 inlet;
#X obj 72 272 outlet~;
#X obj 183 273 outlet~;
#X obj 151 103 cnv 15 146 83 empty empty WaveShaper 3 8 0 12 -191744
-33289 0;
#X obj 156 132 hsl 100 9 0 1 0 0 empty empty Amount -3 -7 0 10 -262130
-1 -1 6500 1;
#X obj 156 153 hsl 100 9 0 1 0 0 empty empty Depth -3 -7 0 10 -262130
-1 -1 2400 1;
#X obj 156 175 hsl 100 9 0 1 0 0 empty empty Limit -3 -7 0 10 -262130
-1 -1 1500 1;
#X floatatom 262 126 5 0 0 0 - - -;
#X floatatom 262 147 5 0 0 0 - - -;
#X floatatom 263 168 5 0 0 0 - - -;
#X connect 0 0 7 0;
#X connect 1 0 0 0;
#X connect 2 0 3 0;
#X connect 3 0 8 0;
#X connect 4 0 10 0;
#X connect 5 0 11 0;
#X connect 6 0 12 0;
#X connect 10 0 13 0;
#X connect 10 0 0 1;
#X connect 10 0 3 1;
#X connect 11 0 14 0;
#X connect 11 0 0 2;
#X connect 11 0 3 2;
#X connect 12 0 15 0;
#X connect 12 0 0 3;
#X connect 12 0 3 3;
#X coords 0 -1 1 1 148 89 2 150 100;
