#N canvas 361 40 949 604 10;
#N canvas 0 0 450 300 (subpatch) 0;
#X array tmp 150000 float 2;
#X coords 0 1 150000 -1 400 140 1;
#X restore 496 -47 graph;
#X msg 94 200 start 0;
#X msg 107 232 stop;
#X obj 34 95 bng 15 250 50 0 empty empty empty 17 7 0 10 -262144 -1
-1;
#X obj 51 -41 tgl 15 0 empty empty empty 17 7 0 10 -262144 -1 -1 0
1;
#X obj 34 61 metro 1000;
#N canvas 0 0 450 300 (subpatch) 0;
#X array tmp.2 150000 float 2;
#X coords 0 1 150000 -1 400 140 1;
#X restore 496 93 graph;
#N canvas 0 0 450 300 (subpatch) 0;
#X array tmp.3 150000 float 2;
#X coords 0 1 150000 -1 400 140 1;
#X restore 496 233 graph;
#N canvas 0 0 450 300 (subpatch) 0;
#X array tmp.4 150000 float 2;
#X coords 0 1 150000 -1 400 140 1;
#X restore 496 373 graph;
#X msg 370 429 \; tmp const 0 \; tmp.2 const 0 \; tmp.3 const 0 \;
tmp.4 const 0 \;;
#X obj 63 275 tabwrite~ tmp;
#X obj 166 177 sigout;
#X obj 242 112 0;
#X obj 167 145 vphasor.mmb~;
#X obj 51 -15 sel 1;
#X obj 51 13 t b b b b b b;
#X obj 182 47 0;
#X obj 180 13 del 2000;
#X obj 230 192 *~ 2;
#X obj 231 241 wrap~;
#X obj 232 284 /~ 2;
#X obj 288 223 tabwrite~ tmp.2;
#X msg 275 193 start 0;
#X msg 282 257 start 0;
#X msg 276 328 start 0;
#X obj 295 287 tabwrite~ tmp.3;
#X obj 279 366 tabwrite~ tmp.4;
#X obj 300 142 hsl 128 15 0 127 0 0 empty empty empty -2 -8 0 10 -262144
-1 -1 200 1;
#X floatatom 315 167 5 0 0 0 - - -;
#X msg 180 110 1;
#X connect 1 0 10 0;
#X connect 2 0 10 0;
#X connect 4 0 14 0;
#X connect 4 0 5 0;
#X connect 5 0 3 0;
#X connect 12 0 13 1;
#X connect 13 0 11 0;
#X connect 13 0 10 0;
#X connect 13 0 18 0;
#X connect 14 0 15 0;
#X connect 14 0 17 0;
#X connect 15 0 24 0;
#X connect 15 1 23 0;
#X connect 15 2 22 0;
#X connect 15 3 1 0;
#X connect 15 4 12 0;
#X connect 16 0 4 0;
#X connect 17 0 16 0;
#X connect 18 0 19 0;
#X connect 18 0 21 0;
#X connect 19 0 20 0;
#X connect 19 0 25 0;
#X connect 20 0 26 0;
#X connect 22 0 21 0;
#X connect 23 0 25 0;
#X connect 24 0 26 0;
#X connect 27 0 18 1;
#X connect 27 0 20 1;
#X connect 27 0 28 0;
#X connect 29 0 13 0;
