#N canvas 438 115 818 629 10;
#X obj 121 30 inlet;
#X obj 10 32 inlet~;
#X obj 38 129 tgl 15 0 empty \$0-tog Stopped 25 8 0 12 -258699 -1 -1
0 1;
#X obj 94 185 route 0 1;
#X obj 181 366 symbol \$0-tog;
#X obj 289 36 loadbang;
#X obj 38 89 0;
#X msg 181 398 \; \$1 color 16 22 \; \$1 label Recording \;;
#X obj 512 286 symbol \$0-filename;
#X msg 512 363 \; \$1 set \$2;
#X obj 643 286 symbol \$1;
#X obj 512 321 pack s s;
#X obj 289 256 symbol \$1;
#X msg 319 326 open \$1;
#X msg 208 298 start;
#X msg 56 295 stop;
#X obj 181 224 t b b;
#X obj 29 225 t b b;
#X obj 587 245 t b b;
#X obj 208 263 t b b;
#X obj 319 289 symbol;
#X obj 364 213 splitfilename;
#X obj 232 129 bng 15 250 50 0 empty empty empty 17 7 0 10 -262130
-1 -1;
#X symbolatom 37 145 35 0 0 0 - #0-filename -;
#X obj 352 158 savepanel;
#X obj 439 241 t b s;
#X obj 352 185 t s s;
#X obj 29 369 pack \$0;
#X msg 29 400 \; \$1-tog color 13 22 \; \$1-tog label Stopped \; \$1-filename
set .;
#X obj 135 127 clock.ld;
#X msg 243 88 stop;
#X obj 156 30 sel 1;
#X obj 156 56 t b b;
#X msg 156 88 reset \, start;
#X obj 60 32 inlet~;
#X obj 319 357 writesf~ 2;
#X connect 0 0 2 0;
#X connect 1 0 35 0;
#X connect 2 0 3 0;
#X connect 2 0 31 0;
#X connect 3 0 17 0;
#X connect 3 1 16 0;
#X connect 4 0 7 0;
#X connect 5 0 6 0;
#X connect 5 0 18 0;
#X connect 5 0 12 0;
#X connect 6 0 2 0;
#X connect 8 0 11 0;
#X connect 10 0 11 1;
#X connect 11 0 9 0;
#X connect 12 0 20 1;
#X connect 13 0 35 0;
#X connect 14 0 35 0;
#X connect 15 0 35 0;
#X connect 16 0 4 0;
#X connect 16 1 19 0;
#X connect 17 0 27 0;
#X connect 17 1 15 0;
#X connect 18 0 8 0;
#X connect 18 1 10 0;
#X connect 19 0 14 0;
#X connect 19 1 20 0;
#X connect 20 0 13 0;
#X connect 21 1 25 0;
#X connect 22 0 24 0;
#X connect 24 0 26 0;
#X connect 25 0 8 0;
#X connect 25 1 11 1;
#X connect 26 0 20 1;
#X connect 26 1 21 0;
#X connect 27 0 28 0;
#X connect 30 0 29 0;
#X connect 31 0 32 0;
#X connect 31 1 30 0;
#X connect 32 0 33 0;
#X connect 33 0 29 0;
#X connect 34 0 35 1;
#X coords 0 -1 1 1 214 36 2 36 126;
